<svg width="40" height="40" viewBox="0 0 40 40" fill="none" xmlns="http://www.w3.org/2000/svg">
<path d="M25.4363 2.97393C21.5116 3.0669 18.3626 6.3576 18.4341 10.2828C18.4704 12.2774 19.321 14.0726 20.667 15.3513V15.3035C20.667 15.1038 20.8294 14.9415 21.0289 14.9415H22.3489C22.5484 14.9415 22.7108 15.1038 22.7108 15.3035V16.714C23.14 16.9038 23.5907 17.0538 24.0591 17.1571C24.1855 17.1849 24.2953 17.2621 24.36 17.3742L25.3751 19.1324C25.4797 19.3135 25.7411 19.3135 25.8456 19.1324L26.8608 17.3742C26.9255 17.2622 27.0353 17.185 27.1616 17.1572C27.8774 16.9995 28.5529 16.7343 29.171 16.3806C29.1649 16.2224 29.1649 16.0634 29.1726 15.9036C29.2786 13.6997 30.7373 11.8333 32.7237 11.1113C32.7658 10.7967 32.7879 10.4757 32.7879 10.1496C32.788 6.12744 29.48 2.87815 25.4363 2.97393Z" fill="#8379C1"/>
<path d="M26.381 16.0134C26.3163 15.9014 26.2065 15.8242 26.0801 15.7964C22.9038 15.0964 20.5165 12.294 20.455 8.92208C20.4171 6.8409 21.2846 4.93817 22.693 3.59583C20.1459 4.74075 18.3801 7.33247 18.4338 10.2828C18.4701 12.2775 19.3207 14.0726 20.6668 15.3514V15.3035C20.6668 15.1039 20.8291 14.9415 21.0287 14.9415H22.3487C22.5482 14.9415 22.7105 15.1039 22.7105 15.3035V16.714C23.1397 16.9038 23.5905 17.0539 24.0589 17.1572C24.1852 17.185 24.2951 17.2622 24.3597 17.3742L25.3749 19.1325C25.4794 19.3136 25.7408 19.3136 25.8454 19.1325L26.8605 17.3742C26.9073 17.2932 26.9779 17.2307 27.0611 17.1917L26.381 16.0134Z" fill="#6E61B6"/>
<path d="M25.6104 7.43728C25.9339 7.43728 26.1963 7.17502 26.1963 6.85135V6.46338C26.1963 6.13971 25.9339 5.87744 25.6104 5.87744C25.2868 5.87744 25.0244 6.13971 25.0244 6.46338V6.85135C25.0244 7.17502 25.2868 7.43728 25.6104 7.43728Z" fill="white"/>
<path d="M26.2039 12.6666H26.1963V8.98511C26.1963 8.66144 25.934 8.39917 25.6104 8.39917H25.0168C24.6933 8.39917 24.4309 8.66144 24.4309 8.98511C24.4309 9.30878 24.6933 9.57104 25.0168 9.57104H25.0244V12.6666H25.0168C24.6933 12.6666 24.4309 12.9289 24.4309 13.2525C24.4309 13.5762 24.6933 13.8385 25.0168 13.8385H26.2039C26.5275 13.8385 26.7898 13.5762 26.7898 13.2525C26.7898 12.9289 26.5275 12.6666 26.2039 12.6666Z" fill="white"/>
<path d="M8.54533 27.7064H4.83643V36.2234C4.83643 36.6679 5.19674 37.0282 5.64127 37.0282H6.89354C7.24486 37.0282 7.55564 36.8003 7.66119 36.4652L10.213 28.3621L8.54533 27.7064Z" fill="#FED402"/>
<path d="M6.88135 36.2234V27.7064H4.83643V36.2234C4.83643 36.6679 5.19674 37.0282 5.64127 37.0282H6.89354C7.03604 37.0282 7.1715 36.9902 7.28971 36.9233C7.04604 36.785 6.88135 36.5236 6.88135 36.2234Z" fill="#FAC600"/>
<path d="M8.61055 20.9152H2.69852C1.20813 20.9152 0 22.1233 0 23.6137V25.0884C0 26.5787 1.20813 27.7869 2.69852 27.7869H8.61063V20.9152H8.61055Z" fill="#FD4755"/>
<path d="M2.05234 25.0884V23.6137C2.05234 22.1234 3.26047 20.9152 4.75086 20.9152H2.69852C1.20813 20.9152 0 22.1233 0 23.6137V25.0884C0 26.5787 1.20813 27.7869 2.69852 27.7869H4.75086C3.26047 27.7869 2.05234 26.5787 2.05234 25.0884Z" fill="#FB2B3A"/>
<path d="M23.005 20.9152H22.7083V27.7869H23.005C24.9025 27.7869 26.4408 26.2486 26.4408 24.351C26.4408 22.4535 24.9025 20.9152 23.005 20.9152Z" fill="#FD4755"/>
<path d="M23.005 25.7449H22.7083V27.7868H23.005C24.9025 27.7868 26.4408 26.2485 26.4408 24.351C26.4408 23.9954 26.3868 23.6525 26.2866 23.33C25.8518 24.7291 24.547 25.7449 23.005 25.7449Z" fill="#FB2B3A"/>
<path d="M20.6691 16.142L8.53003 20.9152V27.7868L20.6691 32.5601V16.142Z" fill="#FED402"/>
<path d="M11.2412 25.7701V19.8491L8.53003 20.9152V27.7869L20.6691 32.5601V29.4772L11.2412 25.7701Z" fill="#FAC600"/>
<path d="M5.50738 23.881H3.4834C3.1598 23.881 2.89746 23.6187 2.89746 23.295C2.89746 22.9714 3.1598 22.7091 3.4834 22.7091H5.50746C5.83106 22.7091 6.0934 22.9714 6.0934 23.295C6.0934 23.6187 5.83098 23.881 5.50738 23.881Z" fill="#E41F2D"/>
<path d="M5.50738 25.993H3.4834C3.1598 25.993 2.89746 25.7308 2.89746 25.4071C2.89746 25.0834 3.1598 24.8212 3.4834 24.8212H5.50746C5.83106 24.8212 6.0934 25.0834 6.0934 25.4071C6.0934 25.7308 5.83098 25.993 5.50738 25.993Z" fill="#E41F2D"/>
<path d="M22.3486 33.8386H21.0286C20.7856 33.8386 20.5886 33.6416 20.5886 33.3986V15.3034C20.5886 15.0604 20.7857 14.8634 21.0286 14.8634H22.3486C22.5917 14.8634 22.7886 15.0604 22.7886 15.3034V33.3986C22.7887 33.6417 22.5917 33.8386 22.3486 33.8386Z" fill="#FEE97D"/>
<path d="M34.3713 10.7148C31.5466 10.8021 29.2304 13.0768 29.0946 15.8996C29.0368 17.1012 29.3694 18.2216 29.9744 19.1477L29.1369 21.1798C29.0551 21.3783 29.2536 21.5768 29.4521 21.495L31.4591 20.6679C32.3411 21.2738 33.4096 21.6277 34.5613 21.6242C37.6141 21.6148 40.0913 19.0488 39.9976 15.9975C39.9058 13.0062 37.406 10.621 34.3713 10.7148Z" fill="#0ED290"/>
<path d="M31.361 20.7084L31.9254 19.339C31.9734 19.2224 31.965 19.0896 31.8998 18.9817C31.4041 18.1602 31.1179 17.1979 31.1179 16.1683C31.1179 13.502 33.0309 11.2838 35.559 10.808C35.2299 10.746 34.891 10.7123 34.544 10.7123C31.5307 10.7123 29.0879 13.155 29.0879 16.1684C29.0879 17.2681 29.4144 18.2911 29.9741 19.1479L29.1366 21.18C29.0548 21.3785 29.2534 21.577 29.4519 21.4952L31.361 20.7084Z" fill="#00C285"/>
<path d="M36.5681 14.8181H32.52C32.1964 14.8181 31.9341 14.5558 31.9341 14.2322C31.9341 13.9085 32.1964 13.6462 32.52 13.6462H36.5681C36.8917 13.6462 37.154 13.9085 37.154 14.2322C37.154 14.5558 36.8917 14.8181 36.5681 14.8181Z" fill="#EAF6FF"/>
<path d="M36.5681 16.754H32.52C32.1964 16.754 31.9341 16.4918 31.9341 16.1681C31.9341 15.8444 32.1964 15.5822 32.52 15.5822H36.5681C36.8917 15.5822 37.154 15.8444 37.154 16.1681C37.154 16.4918 36.8917 16.754 36.5681 16.754Z" fill="#EAF6FF"/>
<path d="M36.5681 18.6901H32.52C32.1964 18.6901 31.9341 18.4278 31.9341 18.1041C31.9341 17.7805 32.1964 17.5182 32.52 17.5182H36.5681C36.8917 17.5182 37.154 17.7805 37.154 18.1041C37.154 18.4278 36.8917 18.6901 36.5681 18.6901Z" fill="#EAF6FF"/>
<path d="M29.3328 30.3455H28.61V29.6227C28.61 29.299 28.3477 29.0367 28.0241 29.0367C27.7005 29.0367 27.4381 29.299 27.4381 29.6227V30.3455H26.7153C26.3917 30.3455 26.1294 30.6078 26.1294 30.9314C26.1294 31.2551 26.3917 31.5174 26.7153 31.5174H27.4381V32.2402C27.4381 32.5639 27.7005 32.8261 28.0241 32.8261C28.3477 32.8261 28.61 32.5639 28.61 32.2402V31.5174H29.3328C29.6564 31.5174 29.9188 31.2551 29.9188 30.9314C29.9188 30.6078 29.6564 30.3455 29.3328 30.3455Z" fill="#FE7701"/>
<path d="M14.2747 11.1205L14.8543 12.2949C14.8895 12.3662 14.9574 12.4156 15.0361 12.4271L16.3322 12.6154C16.5302 12.6442 16.6093 12.8876 16.466 13.0273L15.5282 13.9414C15.4713 13.9969 15.4453 14.0768 15.4588 14.1552L15.6802 15.446C15.714 15.6433 15.507 15.7937 15.3299 15.7006L14.1706 15.0911C14.1003 15.0542 14.0163 15.0542 13.9459 15.0911L12.7867 15.7006C12.6096 15.7937 12.4026 15.6433 12.4364 15.446L12.6578 14.1552C12.6713 14.0768 12.6453 13.9969 12.5884 13.9414L11.6506 13.0273C11.5073 12.8876 11.5863 12.6442 11.7844 12.6154L13.0805 12.4271C13.1592 12.4156 13.2271 12.3663 13.2623 12.2949L13.8419 11.1205C13.9302 10.941 14.1862 10.941 14.2747 11.1205Z" fill="#FED402"/>
<path d="M13.7498 15.1079L13.9712 13.817C13.9846 13.7386 13.9587 13.6587 13.9017 13.6032L12.9639 12.6891C12.8956 12.6225 12.8783 12.5325 12.8999 12.4532L11.7844 12.6154C11.5863 12.6441 11.5073 12.8875 11.6506 13.0272L12.5884 13.9413C12.6452 13.9968 12.6713 14.0767 12.6578 14.155L12.4364 15.4459C12.4026 15.6432 12.6096 15.7936 12.7867 15.7004L13.7506 15.1936C13.7456 15.1665 13.7446 15.1379 13.7498 15.1079Z" fill="#FAC600"/>
<path d="M32.4639 23.923L33.0435 25.0975C33.0787 25.1687 33.1466 25.2181 33.2253 25.2296L34.5214 25.418C34.7195 25.4467 34.7985 25.6902 34.6552 25.8298L33.7174 26.744C33.6605 26.7994 33.6345 26.8794 33.648 26.9577L33.8694 28.2486C33.9032 28.4459 33.6962 28.5962 33.5191 28.5031L32.3598 27.8937C32.2895 27.8567 32.2055 27.8567 32.1352 27.8937L30.9759 28.5031C30.7988 28.5962 30.5918 28.4459 30.6256 28.2486L30.847 26.9577C30.8605 26.8794 30.8345 26.7994 30.7776 26.744L29.8398 25.8298C29.6965 25.6902 29.7755 25.4468 29.9736 25.418L31.2697 25.2296C31.3484 25.2182 31.4163 25.1687 31.4515 25.0975L32.0311 23.923C32.1195 23.7435 32.3754 23.7435 32.4639 23.923Z" fill="#FED402"/>
</svg>
