<svg width="16" height="16" viewBox="0 0 16 16" fill="none" xmlns="http://www.w3.org/2000/svg">
<g clip-path="url(#clip0_398_2591)">
<path d="M1.19995 14.9122C1.19995 15.2007 1.31457 15.4775 1.5186 15.6815C1.72263 15.8855 1.99935 16.0001 2.28789 16.0001H13.6323C13.9208 16.0001 14.1976 15.8855 14.4016 15.6815C14.6056 15.4775 14.7202 15.2007 14.7202 14.9122V6.23218H1.19995V14.9122ZM10.5626 8.54244H12.3268V10.3066H10.5626V8.54244ZM10.5626 11.5417H12.3268V13.3059H10.5626V11.5417ZM7.07908 8.54244H8.84111V10.3066H7.07908V8.54244ZM7.07908 11.5417H8.84111V13.3059H7.07908V11.5417ZM3.59128 8.54244H5.35544V10.3066H3.59128V8.54244ZM3.59128 11.5417H5.35544V13.3059H3.59128V11.5417Z" fill="#7685AE"/>
<path d="M11.373 3.56673C11.4239 3.56673 11.4728 3.5465 11.5088 3.51049C11.5448 3.47449 11.565 3.42566 11.565 3.37474V0.191989C11.565 0.14107 11.5448 0.0922371 11.5088 0.0562322C11.4728 0.0202273 11.4239 0 11.373 0C11.3221 0 11.2733 0.0202273 11.2373 0.0562322C11.2013 0.0922371 11.181 0.14107 11.181 0.191989V3.37474C11.181 3.42566 11.2013 3.47449 11.2373 3.51049C11.2733 3.5465 11.3221 3.56673 11.373 3.56673Z" fill="#7685AE"/>
<path d="M13.6323 1.68579H11.9428V3.37529C11.9428 3.52861 11.8819 3.67566 11.7735 3.78407C11.6651 3.89249 11.518 3.95339 11.3647 3.95339C11.2114 3.95339 11.0643 3.89249 10.9559 3.78407C10.8475 3.67566 10.7866 3.52861 10.7866 3.37529V1.68579H5.13146V3.37529C5.13625 3.45402 5.12487 3.5329 5.09804 3.60706C5.07121 3.68123 5.02948 3.74913 4.97543 3.80657C4.92138 3.86401 4.85614 3.90978 4.78374 3.94107C4.71134 3.97235 4.6333 3.98849 4.55442 3.98849C4.47555 3.98849 4.39751 3.97235 4.32511 3.94107C4.2527 3.90978 4.18747 3.86401 4.13342 3.80657C4.07937 3.74913 4.03764 3.68123 4.01081 3.60706C3.98397 3.5329 3.9726 3.45402 3.97739 3.37529V1.68579H2.28789C1.99952 1.68635 1.72313 1.80116 1.51922 2.00506C1.31532 2.20897 1.20051 2.48536 1.19995 2.77373V5.84768H14.7202V2.77373C14.7197 2.48536 14.6049 2.20897 14.401 2.00506C14.1971 1.80116 13.9207 1.68635 13.6323 1.68579Z" fill="#7685AE"/>
<path d="M4.5466 3.56685C4.57199 3.56713 4.59719 3.56237 4.62073 3.55285C4.64427 3.54333 4.66568 3.52923 4.68374 3.51137C4.70179 3.49352 4.71613 3.47226 4.72591 3.44883C4.73569 3.42539 4.74072 3.40025 4.74072 3.37486V0.192111C4.7357 0.144409 4.7132 0.100254 4.67755 0.0681616C4.6419 0.0360689 4.59563 0.0183105 4.54767 0.0183105C4.4997 0.0183105 4.45344 0.0360689 4.41779 0.0681616C4.38214 0.100254 4.35964 0.144409 4.35461 0.192111V3.37486C4.35461 3.42578 4.37484 3.47461 4.41085 3.51061C4.44685 3.54662 4.49568 3.56685 4.5466 3.56685Z" fill="#7685AE"/>
</g>
<defs>
<clipPath id="clip0_398_2591">
<rect width="16" height="16" fill="white"/>
</clipPath>
</defs>
</svg>
