<svg width="24" height="24" viewBox="0 0 24 24" fill="none" xmlns="http://www.w3.org/2000/svg">
<g clip-path="url(#clip0_354_15582)">
<path d="M23.2543 8.88835C22.3804 8.15363 21.0433 8.24115 20.2846 9.14583L19.8286 9.68527L23.0604 12.3969L23.4958 11.8595C24.2446 10.9688 24.1499 9.63872 23.2543 8.88835Z" fill="#00BF91"/>
<path d="M14.1268 16.4312L13.8863 16.7158C13.6776 16.9657 13.5272 17.2644 13.4517 17.5809L12.798 20.3165C12.7362 20.5754 12.8262 20.8473 13.0301 21.0183C13.2286 21.1851 13.5085 21.2335 13.7614 21.1254L16.3425 20.0062C16.6411 19.8764 16.9089 19.6766 17.1177 19.4287L17.359 19.1432L14.1268 16.4312Z" fill="#00BF91"/>
<path d="M18.9212 10.7588L15.0342 15.3579L18.2662 18.0699L22.153 13.4705L18.9212 10.7588Z" fill="#00BF91"/>
<path d="M17.6261 3.11727L14.955 0.579406C14.7025 0.340016 14.3919 0.199016 14.0645 0.107422V4.21864H18.2388C18.1515 3.80098 17.9387 3.41408 17.6261 3.11727Z" fill="#00BF91"/>
<path d="M12.0842 17.2543C12.2098 16.7283 12.4604 16.2305 12.8079 15.8144L18.2832 9.33558V5.625H13.3613C12.9727 5.625 12.6582 5.31052 12.6582 4.92188V0H2.11133C0.948172 0 0.00195312 0.946219 0.00195312 2.10938V21.8906C0.00195312 23.0538 0.948172 24 2.11133 24H16.1738C17.337 24 18.2832 23.0538 18.2832 21.8906V20.2285L18.1919 20.3365C17.8465 20.7479 17.4009 21.0795 16.9044 21.2958L14.3213 22.4158C13.5932 22.7302 12.7505 22.6188 12.1268 22.0965C11.5108 21.5794 11.2438 20.7726 11.4305 19.9898L12.0842 17.2543ZM3.51758 4.21875H10.5488C10.9375 4.21875 11.252 4.53323 11.252 4.92188C11.252 5.31052 10.9375 5.625 10.5488 5.625H3.51758C3.12894 5.625 2.81445 5.31052 2.81445 4.92188C2.81445 4.53323 3.12894 4.21875 3.51758 4.21875ZM3.51758 8.48438H14.7676C15.1562 8.48438 15.4707 8.79886 15.4707 9.1875C15.4707 9.57614 15.1562 9.89062 14.7676 9.89062H3.51758C3.12894 9.89062 2.81445 9.57614 2.81445 9.1875C2.81445 8.79886 3.12894 8.48438 3.51758 8.48438ZM9.14258 18.3281H3.51758C3.12894 18.3281 2.81445 18.0136 2.81445 17.625C2.81445 17.2364 3.12894 16.9219 3.51758 16.9219H9.14258C9.53122 16.9219 9.8457 17.2364 9.8457 17.625C9.8457 18.0136 9.53122 18.3281 9.14258 18.3281ZM3.51758 14.1094C3.12894 14.1094 2.81445 13.7949 2.81445 13.4062C2.81445 13.0176 3.12894 12.7031 3.51758 12.7031H11.9551C12.3437 12.7031 12.6582 13.0176 12.6582 13.4062C12.6582 13.7949 12.3437 14.1094 11.9551 14.1094H3.51758Z" fill="#00BF91"/>
</g>
<defs>
<clipPath id="clip0_354_15582">
<rect width="24" height="24" fill="white"/>
</clipPath>
</defs>
</svg>
