<svg width="50" height="50" viewBox="0 0 50 50" fill="none" xmlns="http://www.w3.org/2000/svg">
<g clip-path="url(#clip0_252_5521)">
<path d="M47.739 16.3991H41.3871C40.9831 16.3991 40.6558 16.0717 40.6558 15.6677V11.5497C40.6558 11.3137 40.7696 11.0923 40.9616 10.9549L44.3767 8.51166C44.7053 8.2765 45.162 8.35248 45.397 8.6808C45.632 9.00931 45.5562 9.46615 45.2278 9.70121L42.1185 11.9257V14.9362H47.739C48.143 14.9362 48.4703 15.2635 48.4703 15.6675C48.4704 16.0717 48.143 16.3991 47.739 16.3991Z" fill="#BDBFBA"/>
<path d="M47.0076 7.85057C46.6036 7.85057 46.2763 7.52323 46.2763 7.11923V3.90936L43.5549 1.70282C43.2411 1.44852 43.193 0.987977 43.4474 0.67411C43.7018 0.360341 44.1623 0.312196 44.4762 0.566688L47.4684 2.99276C47.6397 3.13163 47.7391 3.34032 47.7391 3.56083V7.11913C47.739 7.52323 47.4116 7.85057 47.0076 7.85057Z" fill="#525360"/>
<path d="M47.0076 15.668C46.6036 15.668 46.2763 15.9953 46.2763 16.3993C46.2763 18.1055 46.2763 33.2223 46.2763 33.5391C46.2763 36.4688 43.7049 38.8522 40.5444 38.8522C37.3838 38.8522 34.8124 36.4687 34.8124 33.5391V26.9183C34.8124 26.5143 34.4851 26.1869 34.081 26.1869C33.6771 26.1869 33.3497 26.5143 33.3497 26.9183V33.5391C33.3497 37.2753 36.5772 40.315 40.5444 40.315C44.5115 40.315 47.739 37.2753 47.739 33.5391C47.739 33.2224 47.739 18.1055 47.739 16.3993C47.739 15.9954 47.4116 15.668 47.0076 15.668Z" fill="#BDBFBA"/>
<path d="M32.0869 46.564V2.59043C32.0869 1.78652 31.4353 1.13477 30.6312 1.13477H6.85517C6.05107 1.13477 5.39951 1.78652 5.39951 2.59043V46.564H32.0869Z" fill="#FF8C01"/>
<path d="M9.30341 1.13477H6.85517C6.05107 1.13477 5.39951 1.78652 5.39951 2.59043V46.564H7.84775V2.59043C7.84775 1.78652 8.49931 1.13477 9.30341 1.13477Z" fill="#E8650C"/>
<path d="M35.9688 49.5968H1.51756C0.680255 49.5968 0.00125122 48.918 0.00125122 48.0805C0.00125122 47.243 0.680255 46.564 1.51756 46.564H35.9687C36.8062 46.564 37.485 47.243 37.485 48.0805C37.485 48.918 36.8062 49.5968 35.9688 49.5968Z" fill="#636570"/>
<path d="M35.9688 48.0804H1.51758C0.956741 48.0804 0.468167 47.7751 0.205862 47.3223C-0.379196 48.3321 0.352542 49.5967 1.51758 49.5967H35.9688C37.1338 49.5967 37.8655 48.3321 37.2805 47.3223C37.0183 47.775 36.5297 48.0804 35.9688 48.0804Z" fill="#393A47"/>
<path d="M26.5676 5.0166H10.9189C10.115 5.0166 9.4632 5.66836 9.4632 6.47227V17.6846H28.0233V6.47227C28.0234 5.66826 27.3715 5.0166 26.5676 5.0166Z" fill="#C8E5FC"/>
<path d="M26.5676 5.0166H19.5856C18.2723 9.1123 17.9446 13.4627 18.5962 17.6846H28.0232V6.47227C28.0233 5.66826 27.3715 5.0166 26.5676 5.0166Z" fill="#E0F1FC"/>
<path d="M19.6734 25.9586C19.6734 26.7625 19.0216 27.4143 18.2177 27.4143H10.9189C10.115 27.4143 9.4632 26.7625 9.4632 25.9586V24.4625C9.4632 23.6586 10.115 23.0068 10.9189 23.0068H18.2177C19.0216 23.0068 19.6734 23.6586 19.6734 24.4625V25.9586Z" fill="#FFDAA4"/>
<path d="M18.2177 25.2108H10.9188C10.2372 25.2108 9.66659 24.7417 9.50829 24.1089C9.44979 24.3432 9.46317 24.3124 9.46317 25.9589C9.46317 26.7628 10.1149 27.4145 10.9188 27.4145H18.2177C19.0216 27.4145 19.6733 26.7628 19.6733 25.9589V24.4628C19.6733 24.3405 19.6565 24.2225 19.6282 24.1089C19.4699 24.7416 18.8993 25.2108 18.2177 25.2108Z" fill="#FFC35A"/>
<path d="M28.0234 24.4695H22.989C22.585 24.4695 22.2576 24.1422 22.2576 23.7382C22.2576 23.3342 22.585 23.0068 22.989 23.0068H28.0234C28.4274 23.0068 28.7547 23.3342 28.7547 23.7382C28.7547 24.1422 28.4273 24.4695 28.0234 24.4695Z" fill="#E8650C"/>
<path d="M13.3567 5.0166H10.9189C10.115 5.0166 9.4632 5.66836 9.4632 6.47227V17.6846H11.9011V6.47227C11.9011 5.66826 12.5528 5.0166 13.3567 5.0166Z" fill="#8FC8F2"/>
<path d="M33.4616 23.7383H32.0868V28.1457H33.4616C34.2655 28.1457 34.9173 27.4939 34.9173 26.69V25.1939C34.9173 24.39 34.2655 23.7383 33.4616 23.7383Z" fill="#636570"/>
<path d="M50 14.9436C50 15.7476 49.3482 16.3992 48.5443 16.3992H45.4713C44.6674 16.3992 44.0156 15.7476 44.0156 14.9436V8.5748C44.0156 7.7709 44.6674 7.11914 45.4713 7.11914H48.5443C49.3482 7.11914 50 7.7709 50 8.5748V14.9436Z" fill="#FCA84C"/>
<path d="M47.0077 14.9436V8.5748C47.0077 7.7709 47.6595 7.11914 48.4634 7.11914H45.4712C44.6673 7.11914 44.0155 7.7709 44.0155 8.5748V14.9436C44.0155 15.7476 44.6673 16.3992 45.4712 16.3992H48.4634C47.6596 16.3991 47.0077 15.7476 47.0077 14.9436Z" fill="#FF8C01"/>
<path d="M20.6009 11.0415L19.1537 8.78064C18.9622 8.48123 18.5237 8.48142 18.3324 8.78064L16.8855 11.0416C16.4443 11.7311 16.3953 12.6493 16.8869 13.4184C17.74 14.7522 19.725 14.7858 20.5992 13.4184L20.6313 13.3685C20.6342 13.3638 20.6372 13.3591 20.6401 13.3543C21.0672 12.633 21.0521 11.7469 20.6009 11.0415Z" fill="#577DDD"/>
<path d="M18.3086 11.5703C18.8331 8.70276 18.7734 8.77531 18.987 8.62209C18.7573 8.48938 18.4711 8.56438 18.3326 8.78088L16.8856 11.0418C15.6297 13.0046 17.8861 15.3251 19.9141 14.098C18.8162 13.8071 18.0975 12.7234 18.3086 11.5703Z" fill="#4369B5"/>
<path d="M9.46329 17.4766V19.3069C9.46329 20.1108 10.115 20.7626 10.919 20.7626H26.5677C27.3716 20.7626 28.0233 20.1108 28.0233 19.3069V17.4766H9.46329Z" fill="#636570"/>
<path d="M11.9011 19.3069V17.4766H9.46329V19.3069C9.46329 20.1108 10.115 20.7626 10.919 20.7626H13.3568C12.5528 20.7626 11.9011 20.1108 11.9011 19.3069Z" fill="#393A47"/>
</g>
<defs>
<clipPath id="clip0_252_5521">
<rect width="50" height="50" fill="white"/>
</clipPath>
</defs>
</svg>
