<svg width="24" height="30" viewBox="0 0 24 30" fill="none" xmlns="http://www.w3.org/2000/svg">
<path d="M19.6222 2.79585C18.239 1.63753 16.6216 0.807597 14.8867 0.365923C13.1519 -0.07575 11.3428 -0.118158 9.59004 0.241758C7.33631 0.714313 5.2629 1.83947 3.6168 3.48319C1.97069 5.12691 0.821283 7.21992 0.305487 9.51289C-0.210308 11.8059 -0.0707483 14.2021 0.707543 16.4163C1.48583 18.6304 2.87005 20.5691 4.6953 22.0013C6.77924 23.5612 8.55356 25.5128 9.92338 27.7518L10.8567 29.3391C10.9753 29.5407 11.1428 29.7075 11.343 29.8233C11.5433 29.9391 11.7694 30 11.9994 30C12.2295 30 12.4556 29.9391 12.6558 29.8233C12.856 29.7075 13.0236 29.5407 13.1421 29.3391L14.0368 27.8145C15.2296 25.67 16.8561 23.8105 18.8075 22.36C20.3377 21.2833 21.6023 19.8577 22.5015 18.1956C23.4007 16.5335 23.91 14.6805 23.9891 12.7827C24.0682 10.8849 23.7151 8.99422 22.9575 7.2599C22.1998 5.52558 21.0585 3.99504 19.6235 2.78903L19.6222 2.79585ZM11.9981 17.7291C10.9432 17.7291 9.91207 17.4091 9.035 16.8098C8.15792 16.2104 7.47432 15.3586 7.07065 14.3619C6.66697 13.3652 6.56135 12.2684 6.76715 11.2104C6.97294 10.1523 7.4809 9.18038 8.22679 8.41755C8.97268 7.65472 9.923 7.13522 10.9576 6.92476C11.9922 6.71429 13.0645 6.82231 14.0391 7.23515C15.0136 7.64799 15.8466 8.34712 16.4327 9.24411C17.0187 10.1411 17.3315 11.1957 17.3315 12.2745C17.3315 13.7211 16.7696 15.1085 15.7694 16.1315C14.7692 17.1544 13.4126 17.7291 11.9981 17.7291Z" fill="white"/>
</svg>
