<svg width="24" height="24" viewBox="0 0 24 24" fill="none" xmlns="http://www.w3.org/2000/svg">
<path d="M17.58 2.73011C15.8685 1.33156 13.6955 0.624073 11.4887 0.746822C9.28181 0.869572 7.20075 1.81367 5.65486 3.39341C4.10898 4.97314 3.21017 7.07416 3.13525 9.28316C3.06032 11.4922 3.81471 13.6493 5.25 15.3301C6.73791 17.0061 8.06382 18.8192 9.21 20.7451L9.93 22.0351C10.1357 22.4035 10.436 22.7103 10.7999 22.9239C11.1638 23.1374 11.5781 23.25 12 23.25C12.4219 23.25 12.8362 23.1374 13.2001 22.9239C13.564 22.7103 13.8643 22.4035 14.07 22.0351L14.91 20.5201C15.9995 18.687 17.271 16.9683 18.705 15.3901C19.4822 14.494 20.071 13.4505 20.4361 12.322C20.8013 11.1934 20.9354 10.0028 20.8304 8.82126C20.7254 7.63973 20.3834 6.49145 19.825 5.44493C19.2666 4.39842 18.5031 3.47512 17.58 2.73011ZM12 12.1051C11.5075 12.1051 11.0261 11.9591 10.6166 11.6855C10.2072 11.4119 9.88801 11.023 9.69954 10.568C9.51108 10.113 9.46177 9.61235 9.55785 9.12933C9.65392 8.64632 9.89107 8.20264 10.2393 7.85441C10.5875 7.50618 11.0312 7.26903 11.5142 7.17295C11.9972 7.07688 12.4979 7.12619 12.9529 7.31465C13.4079 7.50311 13.7968 7.82226 14.0704 8.23174C14.344 8.64122 14.49 9.12263 14.49 9.61511C14.4908 9.94233 14.427 10.2665 14.3021 10.5689C14.1773 10.8714 13.9939 11.1462 13.7625 11.3776C13.5311 11.609 13.2563 11.7924 12.9538 11.9172C12.6514 12.0421 12.3272 12.1059 12 12.1051Z" fill="#FF6A6A"/>
</svg>
