<svg width="24" height="24" viewBox="0 0 24 24" fill="none" xmlns="http://www.w3.org/2000/svg">
<g clip-path="url(#clip0_398_2652)">
<path d="M15.0938 1.82812C15.0938 1.59553 15.283 1.40625 15.5156 1.40625H17.9531C18.1858 1.40625 18.375 1.59553 18.375 1.82812V4.34133H19.7812V1.82812C19.7812 0.820078 18.9612 0 17.9531 0H15.5156C14.5076 0 13.6875 0.820078 13.6875 1.82812V4.34133H15.0938V1.82812Z" fill="#F2726A"/>
<path d="M8.54709 22.594C8.23988 22.1166 8.0625 21.5515 8.0625 20.9534V10.4119H1.64063C0.735984 10.4119 0 11.1478 0 12.0525V20.9534C0 21.7784 0.612234 22.4629 1.40625 22.577V23.2969C1.40625 23.6852 1.72106 24 2.10938 24C2.49769 24 2.8125 23.6852 2.8125 23.2969V22.5939H8.54709V22.594ZM2.8125 12.99C2.8125 12.6017 3.12731 12.2869 3.51563 12.2869C3.90394 12.2869 4.21875 12.6017 4.21875 12.99V20.0159C4.21875 20.4042 3.90394 20.719 3.51563 20.719C3.12731 20.719 2.8125 20.4042 2.8125 20.0159V12.99Z" fill="#F2726A"/>
<path d="M6.5625 7.89844C6.5625 7.66584 6.75178 7.47656 6.98438 7.47656H8.0625V7.3882C8.0625 6.91641 8.17031 6.46936 8.36259 6.07031H6.98438C5.97633 6.07031 5.15625 6.89039 5.15625 7.89844V9.00539H6.5625V7.89844Z" fill="#F2726A"/>
<path d="M22.3594 5.7478H11.1094C10.2047 5.7478 9.46875 6.48379 9.46875 7.38843V20.9534C9.46875 21.7784 10.081 22.4629 10.875 22.577V23.2969C10.875 23.6852 11.1898 24 11.5781 24C11.9664 24 12.2812 23.6852 12.2812 23.2969V22.5939H21.1875V23.2969C21.1875 23.6852 21.5023 24 21.8906 24C22.2789 24 22.5938 23.6852 22.5938 23.2969V22.577C23.3877 22.4629 24 21.7784 24 20.9534V7.38843C24 6.48374 23.264 5.7478 22.3594 5.7478ZM13.6875 20.0159C13.6875 20.4042 13.3727 20.719 12.9844 20.719C12.5961 20.719 12.2812 20.4042 12.2812 20.0159V8.32593C12.2812 7.93762 12.5961 7.6228 12.9844 7.6228C13.3727 7.6228 13.6875 7.93762 13.6875 8.32593V20.0159ZM20.4844 20.719C20.0961 20.719 19.7812 20.4042 19.7812 20.0159V8.32593C19.7812 7.93762 20.0961 7.6228 20.4844 7.6228C20.8727 7.6228 21.1875 7.93762 21.1875 8.32593V20.0159C21.1875 20.4042 20.8727 20.719 20.4844 20.719Z" fill="#F2726A"/>
</g>
<defs>
<clipPath id="clip0_398_2652">
<rect width="24" height="24" fill="white"/>
</clipPath>
</defs>
</svg>
