<svg width="30" height="30" viewBox="0 0 30 30" fill="none" xmlns="http://www.w3.org/2000/svg">
<g clip-path="url(#clip0_57_1958)">
<path d="M24.7912 5.46703C22.6859 2.04375 19.0256 0 15 0C10.9744 0 7.31415 2.04375 5.20882 5.46697C3.11128 8.8776 2.9372 13.0469 4.74335 16.6199C4.75829 16.6495 4.77493 16.6782 4.79315 16.706L12.7171 28.7682C13.2238 29.5395 14.0772 30 15 30C15.9228 30 16.7763 29.5395 17.2829 28.7683L25.2069 16.706C25.2251 16.6783 25.2417 16.6495 25.2567 16.6199C27.0628 13.0469 26.8887 8.8776 24.7912 5.46703ZM15 17.2457C11.7423 17.2457 9.09188 14.6031 9.09188 11.355C9.09188 8.10686 11.7423 5.46422 15 5.46422C18.2578 5.46422 20.9081 8.1068 20.9081 11.355C20.9081 14.6031 18.2578 17.2457 15 17.2457Z" fill="#F2726A"/>
<path d="M17.5104 9.48453C17.1672 9.14123 16.6107 9.14123 16.2675 9.48448L14.5322 11.2197C14.5107 11.2412 14.4852 11.2518 14.4542 11.2499C14.4239 11.2485 14.3987 11.2359 14.3793 11.2126L13.7879 10.4987C13.4782 10.1249 12.9242 10.0729 12.5503 10.3825C12.1766 10.6922 12.1245 11.2463 12.4342 11.6201L13.0257 12.3341C13.3591 12.7366 13.8498 12.9815 14.372 13.0058C14.4009 13.0072 14.4297 13.0079 14.4585 13.0079C14.9503 13.0079 15.426 12.8119 15.7752 12.4627L17.5104 10.7275C17.8537 10.3842 17.8537 9.82778 17.5104 9.48453Z" fill="#F2726A"/>
</g>
<defs>
<clipPath id="clip0_57_1958">
<rect width="30" height="30" fill="white"/>
</clipPath>
</defs>
</svg>
