<svg width="18" height="24" viewBox="0 0 18 24" fill="none" xmlns="http://www.w3.org/2000/svg">
<path d="M9.13778 0H8.57206C6.20513 0 4.28635 1.91878 4.28635 4.28571V11.9143C4.28635 14.2812 6.20513 16.2 8.57206 16.2H9.13778C11.5047 16.2 13.4235 14.2812 13.4235 11.9143V4.28571C13.4235 1.91878 11.5047 0 9.13778 0Z" fill="white"/>
<path d="M16.8532 10.1082C16.7407 10.1082 16.6292 10.1303 16.5251 10.1733C16.4211 10.2164 16.3266 10.2795 16.247 10.3591C16.1674 10.4387 16.1043 10.5333 16.0612 10.6373C16.0181 10.7413 15.996 10.8528 15.9961 10.9654C15.9961 12.8593 15.2437 14.6756 13.9046 16.0147C12.5654 17.3539 10.7491 18.1063 8.85519 18.1063C6.9613 18.1063 5.14499 17.3539 3.80581 16.0147C2.46663 14.6756 1.71429 12.8593 1.71429 10.9654C1.71429 10.738 1.62398 10.52 1.46323 10.3593C1.30249 10.1985 1.08447 10.1082 0.857143 10.1082C0.629814 10.1082 0.411797 10.1985 0.251051 10.3593C0.0903056 10.52 0 10.738 0 10.9654C0.002973 13.1645 0.823089 15.284 2.30109 16.9124C3.7791 18.5407 5.80951 19.5617 7.99804 19.7771V22.2857H5.14119C4.91386 22.2857 4.69584 22.376 4.53509 22.5367C4.37435 22.6974 4.28404 22.9155 4.28404 23.1428C4.28404 23.3701 4.37435 23.5881 4.53509 23.7489C4.69584 23.9096 4.91386 23.9999 5.14119 23.9999H12.5692C12.7965 23.9999 13.0145 23.9096 13.1753 23.7489C13.336 23.5881 13.4263 23.3701 13.4263 23.1428C13.4263 22.9155 13.336 22.6974 13.1753 22.5367C13.0145 22.376 12.7965 22.2857 12.5692 22.2857H9.71233V19.7771C11.9009 19.5617 13.9313 18.5407 15.4093 16.9124C16.8873 15.284 17.7074 13.1645 17.7104 10.9654C17.7104 10.8528 17.6883 10.7413 17.6453 10.6373C17.6022 10.5333 17.5391 10.4387 17.4595 10.3591C17.3799 10.2795 17.2853 10.2164 17.1813 10.1733C17.0773 10.1303 16.9658 10.1082 16.8532 10.1082Z" fill="white"/>
</svg>
