<svg width="14" height="14" viewBox="0 0 14 14" fill="none" xmlns="http://www.w3.org/2000/svg">
<g clip-path="url(#clip0_19_563)">
<path d="M7.38418 10.621L13.8417 4.14555C14.0531 3.93339 14.0528 3.5899 13.8406 3.3781C13.6284 3.16646 13.2847 3.16701 13.0731 3.37919L6.99998 9.46917L0.926848 3.37897C0.715209 3.16681 0.371746 3.16627 0.159559 3.37788C0.0531921 3.48406 8.56543e-06 3.62315 8.55935e-06 3.76225C8.55328e-06 3.90099 0.0528364 4.03954 0.158465 4.14553L6.6158 10.621C6.71746 10.7232 6.85582 10.7805 6.99998 10.7805C7.14413 10.7805 7.28233 10.723 7.38418 10.621Z" fill="white" fill-opacity="0.6"/>
</g>
<defs>
<clipPath id="clip0_19_563">
<rect width="14" height="14" fill="white" transform="translate(14) rotate(90)"/>
</clipPath>
</defs>
</svg>
