<svg width="50" height="50" viewBox="0 0 50 50" fill="none" xmlns="http://www.w3.org/2000/svg">
<path d="M0.371704 7.87632C0.371704 3.48775 3.96096 -0.0625433 8.36409 0.000835566C12.6292 0.0621637 16.0973 3.56002 16.1242 7.82545C16.1394 10.2142 15.0907 12.3581 13.4245 13.8123C13.2487 13.9657 13.274 14.2458 13.4749 14.3646L14.959 15.2427C15.1989 15.3847 15.0983 15.7525 14.8195 15.7525L8.09895 15.7508C3.8178 15.6712 0.371704 12.1764 0.371704 7.87632Z" fill="#7ACAA6"/>
<path d="M14.959 15.2428L13.4748 14.3646C13.275 14.2465 13.2473 13.9668 13.4222 13.8143C15.1074 12.3446 16.1615 10.1695 16.1234 7.74902C16.0572 3.56221 12.6686 0.125393 8.48292 0.00342055C7.88937 -0.0138646 7.31007 0.0346705 6.75177 0.141995C10.3696 0.835549 13.1269 4.02451 13.1509 7.82539C13.1625 9.66611 12.5425 11.3614 11.495 12.7078C10.8625 13.5208 11.0681 14.6997 11.9546 15.2243L11.9857 15.2427C12.223 15.3831 12.1267 15.7438 11.8549 15.7517L14.8193 15.7523C15.0982 15.7525 15.1989 15.3847 14.959 15.2428Z" fill="#57BE92"/>
<path d="M38.7492 28.5894H20.8814C16.4187 28.5894 13.9766 23.3886 16.8269 19.9546L16.9853 19.7636C18.241 18.2508 18.9283 16.3466 18.9283 14.3806V10.935C18.9284 4.8957 23.8241 0 29.8634 0C35.9026 0 40.7983 4.8957 40.7983 10.935V14.4969C40.7983 16.4835 41.5001 18.4063 42.7798 19.9259C45.6656 23.3528 43.2295 28.5894 38.7492 28.5894Z" fill="#C59191"/>
<path d="M48.1416 37.4443V49.2568H11.4893V37.5332C11.4893 34.8789 13.0801 32.4834 15.5254 31.4541L21.4424 28.8818L23.4346 28.0156C24.9463 27.3584 25.9238 25.8672 25.9238 24.2188V23.4541H33.7061V24.1797C33.7061 25.835 34.6934 27.332 36.2158 27.9844L44.2188 31.415C46.6035 32.4717 48.1416 34.835 48.1416 37.4443Z" fill="white"/>
<path d="M21.4419 31.698C23.4613 32.3015 26.4337 32.945 30.0568 32.8816C33.4564 32.8223 36.247 32.1612 38.1888 31.541L39.1536 29.2435L36.2155 27.9842C34.6935 27.3317 33.7066 25.8352 33.7066 24.1791V23.4541H25.9243V24.2186C25.9243 25.8668 24.9466 27.3579 23.4352 28.0151L21.0555 29.0498L21.4419 31.698Z" fill="#FFCEBF"/>
<path d="M44.2184 31.4145L38.1899 28.8306L38.1888 28.8307V49.2565H48.1417V37.4443C48.1417 34.8353 46.6037 32.4715 44.2184 31.4145Z" fill="#8795DE"/>
<path d="M21.4424 28.8818V49.2568H11.4893V37.5332C11.4893 34.8789 13.0801 32.4834 15.5254 31.4541L21.4424 28.8818Z" fill="#8795DE"/>
<path d="M32.513 27.726C33.4083 27.726 34.2614 27.5462 35.039 27.2218C34.2049 26.4518 33.7064 25.3561 33.7064 24.1796V23.4546H25.9242V24.2189C25.9242 24.8144 25.796 25.3891 25.5617 25.9115C26.7401 27.0349 28.3344 27.7259 30.0909 27.7259H32.513V27.726Z" fill="#FFB09E"/>
<path d="M37.5934 11.7474V18.1854C37.5934 21.8123 34.6532 24.7524 31.0264 24.7524H28.6044C24.9774 24.7524 22.0373 21.8122 22.0373 18.1854V11.7474C22.0373 9.38789 23.95 7.4751 26.3096 7.4751H33.3213C35.6807 7.4752 37.5934 9.38789 37.5934 11.7474Z" fill="#FFCEBF"/>
<path d="M37.5934 15.0972C37.5905 15.1061 37.5869 15.1146 37.5843 15.1237C37.3469 15.9436 36.7238 17.4922 35.2181 18.6532C34.5171 19.1939 33.7174 19.5846 32.8414 19.8145C32.4443 19.9187 32.2068 20.325 32.311 20.7221C32.3987 21.056 32.6998 21.277 33.0296 21.277C33.092 21.277 33.1555 21.269 33.2187 21.2524C34.2883 20.9718 35.2664 20.4934 36.1261 19.8306C36.7197 19.3728 37.2002 18.8671 37.5891 18.3587C37.5906 18.3011 37.5935 18.2437 37.5935 18.1857V15.0972H37.5934Z" fill="#7A6D79"/>
<path d="M32.0263 21.8688H30.2844C29.4915 21.8688 28.8488 21.2261 28.8488 20.4332C28.8488 19.6403 29.4915 18.9976 30.2844 18.9976H32.0263C32.8192 18.9976 33.4619 19.6403 33.4619 20.4332C33.4618 21.2262 32.8192 21.8688 32.0263 21.8688Z" fill="#685E68"/>
<path d="M31.3673 5.77139C31.5341 3.66787 33.548 2.27187 35.4754 1.54883C38.6638 3.45928 40.7984 6.94766 40.7984 10.9351V11.6868C40.6221 11.7238 40.4467 11.7563 40.2733 11.7821C39.2114 11.9407 38.3072 11.8721 37.6895 11.7821C33.7087 11.2519 31.1658 8.31191 31.3673 5.77139Z" fill="#B98080"/>
<path d="M29.8634 0C32.3329 0 34.611 0.818945 36.4416 2.19971C35.5284 3.78867 33.4316 6.93027 29.4996 9.25605C26.5807 10.9827 23.8283 11.5629 22.1334 11.7819H18.9285V10.9349C18.9284 4.8957 23.8241 0 29.8634 0V0Z" fill="#C59191"/>
<path d="M42.087 49.2566H18.2926L16.9802 36.8763C16.8872 35.9981 17.5756 35.2329 18.4586 35.2329H41.9212C42.8042 35.2329 43.4925 35.9981 43.3995 36.8763L42.087 49.2566Z" fill="#EFEDEF"/>
<path d="M41.9211 35.2329H38.9479C39.8309 35.2329 40.5193 35.9981 40.4262 36.8763L39.1138 49.2567H42.087L43.3994 36.8763C43.4926 35.9981 42.8042 35.2329 41.9211 35.2329Z" fill="#E5E1E5"/>
<path d="M49.2676 50H0.732422C0.327832 50 0 49.6721 0 49.2676C0 48.8631 0.327832 48.5352 0.732422 48.5352H49.2676C49.6722 48.5352 50 48.8631 50 49.2676C50 49.6721 49.6722 50 49.2676 50Z" fill="#C9BFC8"/>
<path d="M30.1898 44.3261C31.3393 44.3261 32.2711 43.3943 32.2711 42.2448C32.2711 41.0954 31.3393 40.1636 30.1898 40.1636C29.0404 40.1636 28.1086 41.0954 28.1086 42.2448C28.1086 43.3943 29.0404 44.3261 30.1898 44.3261Z" fill="#C9BFC8"/>
<path d="M5.27482 8.61934C5.68531 8.61934 6.01808 8.28657 6.01808 7.87607C6.01808 7.46558 5.68531 7.13281 5.27482 7.13281C4.86432 7.13281 4.53156 7.46558 4.53156 7.87607C4.53156 8.28657 4.86432 8.61934 5.27482 8.61934Z" fill="white"/>
<path d="M8.24808 8.61934C8.65858 8.61934 8.99135 8.28657 8.99135 7.87607C8.99135 7.46558 8.65858 7.13281 8.24808 7.13281C7.83759 7.13281 7.50482 7.46558 7.50482 7.87607C7.50482 8.28657 7.83759 8.61934 8.24808 8.61934Z" fill="white"/>
<path d="M11.2213 8.61934C11.6318 8.61934 11.9646 8.28657 11.9646 7.87607C11.9646 7.46558 11.6318 7.13281 11.2213 7.13281C10.8108 7.13281 10.478 7.46558 10.478 7.87607C10.478 8.28657 10.8108 8.61934 11.2213 8.61934Z" fill="white"/>
</svg>
