<svg width="16" height="16" viewBox="0 0 16 16" fill="none" xmlns="http://www.w3.org/2000/svg">
<path d="M8.27068 0.570801C5.11159 0.570801 2.5415 3.14089 2.5415 6.29998C2.5415 7.31118 2.80867 8.30533 3.31409 9.17494C3.43192 9.37768 3.56364 9.57525 3.70564 9.76218L8.02175 15.5368H8.51958L12.8357 9.76221C12.9777 9.57525 13.1094 9.37771 13.2273 9.17497C13.7327 8.30533 13.9999 7.31118 13.9999 6.29998C13.9999 3.14089 11.4298 0.570801 8.27068 0.570801ZM8.27068 8.19996C7.22303 8.19996 6.3707 7.34763 6.3707 6.29998C6.3707 5.25233 7.22303 4.39999 8.27068 4.39999C9.31833 4.39999 10.1707 5.25233 10.1707 6.29998C10.1707 7.34763 9.31833 8.19996 8.27068 8.19996Z" fill="#FF7A7A"/>
</svg>
