<svg width="40" height="40" viewBox="0 0 40 40" fill="none" xmlns="http://www.w3.org/2000/svg">
<path d="M35 35C34.8342 35 34.6753 34.9342 34.5581 34.817C34.4408 34.6997 34.375 34.5408 34.375 34.375V29.375C34.375 29.2685 34.4022 29.1637 34.4541 29.0706C34.506 28.9776 34.5808 28.8993 34.6714 28.8433C34.762 28.7873 34.8655 28.7554 34.9719 28.7506C35.0784 28.7458 35.1843 28.7683 35.2796 28.8159L37.7796 30.0659C37.853 30.1027 37.9184 30.1535 37.9722 30.2155C38.026 30.2775 38.067 30.3495 38.093 30.4274C38.119 30.5052 38.1293 30.5875 38.1235 30.6694C38.1177 30.7512 38.0958 30.8312 38.0591 30.9046C38.0224 30.978 37.9715 31.0435 37.9095 31.0972C37.8475 31.151 37.7755 31.1921 37.6976 31.218C37.6198 31.244 37.5375 31.2543 37.4557 31.2485C37.3738 31.2427 37.2939 31.2208 37.2204 31.1841L35.625 30.3864V34.375C35.625 34.5408 35.5592 34.6997 35.4419 34.817C35.3247 34.9342 35.1658 35 35 35Z" fill="#EA496D"/>
<path d="M33.75 36.25C33.3792 36.25 33.0166 36.14 32.7083 35.934C32.4 35.728 32.1596 35.4351 32.0177 35.0925C31.8758 34.7499 31.8387 34.3729 31.911 34.0092C31.9834 33.6455 32.162 33.3114 32.4242 33.0492C32.6864 32.787 33.0205 32.6084 33.3842 32.536C33.7479 32.4637 34.1249 32.5008 34.4675 32.6427C34.8101 32.7846 35.103 33.025 35.309 33.3333C35.515 33.6416 35.625 34.0042 35.625 34.375C35.6245 34.8721 35.4267 35.3487 35.0752 35.7002C34.7237 36.0517 34.2471 36.2495 33.75 36.25Z" fill="#EA496D"/>
<path d="M17.4811 29.6012C18.3976 29.3049 19.2227 28.7783 19.8774 28.0718C20.532 27.3653 20.9942 26.5025 21.2198 25.5661C21.4454 24.6297 21.4267 23.6511 21.1656 22.7239C20.9045 21.7968 20.4097 20.9523 19.7286 20.2712C19.0475 19.5902 18.203 19.0954 17.2758 18.8343C16.3487 18.5733 15.3701 18.5547 14.4337 18.7803C13.4973 19.0059 12.6345 19.4681 11.928 20.1228C11.2215 20.7775 10.6949 21.6026 10.3988 22.5191C8.88297 22.4368 7.37787 22.8164 6.08243 23.6078C4.78698 24.3991 3.76216 25.565 3.14343 26.9512C2.52471 28.3374 2.3412 29.8788 2.61716 31.3715C2.89313 32.8642 3.61557 34.2381 4.68901 35.3115C5.76245 36.3849 7.13634 37.1073 8.62909 37.3832C10.1218 37.6591 11.6632 37.4755 13.0494 36.8567C14.4356 36.2379 15.6014 35.213 16.3927 33.9176C17.184 32.6221 17.5635 31.117 17.4811 29.6012Z" fill="#FF6382"/>
<path d="M5.16088 35.723C6.27711 36.67 7.64648 37.2691 9.0996 37.4461C10.5527 37.6232 12.0259 37.3703 13.3368 36.7189C14.6478 36.0675 15.739 35.0461 16.4756 33.7811C17.2122 32.516 17.5618 31.0628 17.4811 29.6012C18.3468 29.3219 19.1317 28.8364 19.7683 28.1867C20.4049 27.5369 20.8741 26.7422 21.1355 25.8709C21.397 24.9997 21.4429 24.078 21.2693 23.185C21.0957 22.2921 20.7078 21.4547 20.1389 20.7449C19.4291 20.1761 18.5917 19.7882 17.6988 19.6147C16.8059 19.4411 15.8842 19.487 15.013 19.7485C14.1417 20.0099 13.347 20.4791 12.6973 21.1157C12.0475 21.7522 11.562 22.5371 11.2827 23.4027C9.8211 23.3222 8.36794 23.6718 7.10295 24.4083C5.83796 25.1449 4.81661 26.2361 4.16523 27.547C3.51385 28.8579 3.26101 30.331 3.43798 31.7841C3.61495 33.2372 4.21396 34.6065 5.16094 35.7227L5.16088 35.723Z" fill="#EA496D"/>
<path d="M37.0539 6.48097C36.8098 6.23689 36.414 6.23689 36.17 6.48097C35.9259 6.72505 35.9259 7.12078 36.17 7.36485L37.0539 8.24874C37.2979 8.49282 37.6937 8.49282 37.9377 8.24874C38.1818 8.00466 38.1818 7.60893 37.9377 7.36485L37.0539 6.48097Z" fill="#CF3967"/>
<path d="M35.2863 8.2483C35.0422 8.00423 34.6465 8.00423 34.4024 8.2483C34.1583 8.49238 34.1583 8.88811 34.4024 9.13219L35.2863 10.0161C35.5304 10.2601 35.9261 10.2601 36.1702 10.0161C36.4142 9.77199 36.4142 9.37627 36.1702 9.13219L35.2863 8.2483Z" fill="#CF3967"/>
<path d="M32.6352 2.06117C32.3911 1.81709 31.9953 1.81709 31.7513 2.06117C31.5072 2.30525 31.5072 2.70098 31.7513 2.94505L32.6352 3.82894C32.8792 4.07302 33.275 4.07302 33.519 3.82894C33.7631 3.58486 33.7631 3.18913 33.519 2.94505L32.6352 2.06117Z" fill="#CF3967"/>
<path d="M30.8676 3.82851C30.6235 3.58443 30.2278 3.58443 29.9837 3.82851C29.7396 4.07258 29.7396 4.46831 29.9837 4.71239L30.8676 5.59627C31.1117 5.84035 31.5074 5.84035 31.7515 5.59627C31.9955 5.35219 31.9955 4.95647 31.7515 4.71239L30.8676 3.82851Z" fill="#CF3967"/>
<path d="M32.0867 5.69922L34.296 7.90859L12.0892 30.1155L9.8798 27.9061L32.0867 5.69922Z" fill="#72EACB"/>
<path d="M10.7598 28.794L32.9666 6.58714L34.2923 7.91276L12.0854 30.1196L10.7598 28.794Z" fill="#39E2B6"/>
<path d="M33.9612 2.49628L37.4962 6.03128L33.9612 9.56628L30.4262 6.03128L33.9612 2.49628Z" fill="#FF6382"/>
<path d="M31.3083 6.92255L34.8433 3.38755L37.4946 6.0388L33.9596 9.5738L31.3083 6.92255Z" fill="#EA496D"/>
<path d="M11.3254 31.7994C13.0513 31.7994 14.4504 30.4003 14.4504 28.6744C14.4504 26.9485 13.0513 25.5494 11.3254 25.5494C9.59955 25.5494 8.20044 26.9485 8.20044 28.6744C8.20044 30.4003 9.59955 31.7994 11.3254 31.7994Z" fill="#FFD050"/>
<path d="M8.67432 35.4865C8.59224 35.4866 8.51095 35.4705 8.43511 35.4391C8.35928 35.4076 8.29041 35.3615 8.23245 35.3034L4.69664 31.7676C4.58237 31.6498 4.51903 31.4918 4.52028 31.3277C4.52154 31.1636 4.58729 31.0065 4.70334 30.8905C4.81939 30.7745 4.97642 30.7087 5.14053 30.7075C5.30464 30.7062 5.46266 30.7696 5.58045 30.8839L9.1162 34.4196C9.20358 34.507 9.26308 34.6184 9.28719 34.7396C9.31129 34.8608 9.29892 34.9865 9.25162 35.1006C9.20433 35.2148 9.12424 35.3124 9.02149 35.3811C8.91873 35.4498 8.79792 35.4865 8.67432 35.4865Z" fill="#FFD050"/>
<path d="M6.25 17.5C6.08424 17.5 5.92527 17.4342 5.80806 17.317C5.69085 17.1997 5.625 17.0408 5.625 16.875V11.875C5.62499 11.7685 5.65221 11.6637 5.70409 11.5706C5.75597 11.4776 5.83078 11.3993 5.92141 11.3433C6.01205 11.2873 6.1155 11.2554 6.22193 11.2506C6.32837 11.2458 6.43427 11.2683 6.52956 11.3159L9.02956 12.5659C9.10298 12.6027 9.16845 12.6535 9.22223 12.7155C9.27601 12.7775 9.31704 12.8495 9.343 12.9274C9.36895 13.0052 9.37931 13.0875 9.37349 13.1694C9.36767 13.2512 9.34578 13.3312 9.30906 13.4046C9.27235 13.478 9.22154 13.5435 9.15952 13.5972C9.09751 13.651 9.02551 13.6921 8.94764 13.718C8.86976 13.744 8.78754 13.7543 8.70566 13.7485C8.62378 13.7427 8.54385 13.7208 8.47044 13.6841L6.875 12.8864V16.875C6.875 17.0408 6.80915 17.1997 6.69194 17.317C6.57473 17.4342 6.41576 17.5 6.25 17.5Z" fill="#39E2B6"/>
<path d="M5 18.75C4.62916 18.75 4.26665 18.64 3.95831 18.434C3.64996 18.228 3.40964 17.9351 3.26773 17.5925C3.12581 17.2499 3.08868 16.8729 3.16103 16.5092C3.23338 16.1455 3.41195 15.8114 3.67418 15.5492C3.9364 15.287 4.27049 15.1084 4.63421 15.036C4.99792 14.9637 5.37492 15.0008 5.71753 15.1427C6.06014 15.2846 6.35298 15.525 6.55901 15.8333C6.76503 16.1416 6.875 16.5042 6.875 16.875C6.87445 17.3721 6.67674 17.8487 6.32522 18.2002C5.97371 18.5517 5.49711 18.7495 5 18.75Z" fill="#39E2B6"/>
<path d="M29.375 25.625C29.2092 25.625 29.0503 25.5592 28.9331 25.442C28.8158 25.3247 28.75 25.1658 28.75 25V20C28.75 19.8935 28.7772 19.7887 28.8291 19.6956C28.881 19.6026 28.9558 19.5243 29.0464 19.4683C29.137 19.4123 29.2405 19.3804 29.3469 19.3756C29.4534 19.3708 29.5593 19.3933 29.6546 19.4409L32.1546 20.6909C32.228 20.7277 32.2934 20.7785 32.3472 20.8405C32.401 20.9025 32.442 20.9745 32.468 21.0524C32.494 21.1302 32.5043 21.2125 32.4985 21.2944C32.4927 21.3762 32.4708 21.4562 32.4341 21.5296C32.3974 21.603 32.3465 21.6685 32.2845 21.7222C32.2225 21.776 32.1505 21.8171 32.0726 21.843C31.9948 21.869 31.9125 21.8793 31.8307 21.8735C31.7488 21.8677 31.6689 21.8458 31.5954 21.8091L30 21.0114V25C30 25.1658 29.9342 25.3247 29.8169 25.442C29.6997 25.5592 29.5408 25.625 29.375 25.625Z" fill="#EA496D"/>
<path d="M28.125 26.875C27.7542 26.875 27.3916 26.765 27.0833 26.559C26.775 26.353 26.5346 26.0601 26.3927 25.7175C26.2508 25.3749 26.2137 24.9979 26.286 24.6342C26.3584 24.2705 26.537 23.9364 26.7992 23.6742C27.0614 23.412 27.3955 23.2334 27.7592 23.161C28.1229 23.0887 28.4999 23.1258 28.8425 23.2677C29.1851 23.4096 29.478 23.65 29.684 23.9583C29.89 24.2666 30 24.6292 30 25C29.9995 25.4971 29.8017 25.9737 29.4502 26.3252C29.0987 26.6767 28.6221 26.8745 28.125 26.875Z" fill="#EA496D"/>
<path d="M24.375 35.625C25.0654 35.625 25.625 35.0654 25.625 34.375C25.625 33.6846 25.0654 33.125 24.375 33.125C23.6846 33.125 23.125 33.6846 23.125 34.375C23.125 35.0654 23.6846 35.625 24.375 35.625Z" fill="#39E2B6"/>
<path d="M36.25 17.5C36.9404 17.5 37.5 16.9404 37.5 16.25C37.5 15.5596 36.9404 15 36.25 15C35.5596 15 35 15.5596 35 16.25C35 16.9404 35.5596 17.5 36.25 17.5Z" fill="#EA496D"/>
<path d="M5 6.875H3.75V2.5C3.75 2.33424 3.68415 2.17527 3.56694 2.05806C3.44973 1.94085 3.29076 1.875 3.125 1.875C2.95924 1.875 2.80027 1.94085 2.68306 2.05806C2.56585 2.17527 2.5 2.33424 2.5 2.5V7.5C2.5 7.66576 2.56585 7.82473 2.68306 7.94194C2.80027 8.05915 2.95924 8.125 3.125 8.125H5C5.16576 8.125 5.32473 8.05915 5.44194 7.94194C5.55915 7.82473 5.625 7.66576 5.625 7.5C5.625 7.33424 5.55915 7.17527 5.44194 7.05806C5.32473 6.94085 5.16576 6.875 5 6.875Z" fill="#5C5E5F"/>
<path d="M7.5 1.875C7.33424 1.875 7.17527 1.94085 7.05806 2.05806C6.94085 2.17527 6.875 2.33424 6.875 2.5V7.5C6.875 7.66576 6.94085 7.82473 7.05806 7.94194C7.17527 8.05915 7.33424 8.125 7.5 8.125C7.66576 8.125 7.82473 8.05915 7.94194 7.94194C8.05915 7.82473 8.125 7.66576 8.125 7.5V2.5C8.125 2.33424 8.05915 2.17527 7.94194 2.05806C7.82473 1.94085 7.66576 1.875 7.5 1.875Z" fill="#5C5E5F"/>
<path d="M12.6517 1.89378C12.4909 1.85398 12.3209 1.87948 12.1788 1.96468C12.0368 2.04989 11.9342 2.18787 11.8936 2.34847L11.25 4.92316L10.6063 2.34866C10.5633 2.1909 10.4603 2.05624 10.3193 1.97356C10.1782 1.89088 10.0104 1.86675 9.85177 1.90636C9.69315 1.94596 9.55636 2.04615 9.47074 2.18543C9.38512 2.32471 9.35748 2.49199 9.39375 2.65141L10.6438 7.65141C10.6776 7.78655 10.7557 7.9065 10.8655 7.99221C10.9754 8.07792 11.1107 8.12447 11.25 8.12447C11.3893 8.12447 11.5247 8.07792 11.6345 7.99221C11.7443 7.9065 11.8224 7.78655 11.8563 7.65141L13.1063 2.65141C13.1464 2.49067 13.121 2.32057 13.0358 2.17851C12.9506 2.03644 12.8124 1.93403 12.6517 1.89378Z" fill="#5C5E5F"/>
<path d="M16.875 5.625C17.0408 5.625 17.1997 5.55915 17.3169 5.44194C17.4342 5.32473 17.5 5.16576 17.5 5C17.5 4.83424 17.4342 4.67527 17.3169 4.55806C17.1997 4.44085 17.0408 4.375 16.875 4.375H15.625V3.125H16.875C17.0408 3.125 17.1997 3.05915 17.3169 2.94194C17.4342 2.82473 17.5 2.66576 17.5 2.5C17.5 2.33424 17.4342 2.17527 17.3169 2.05806C17.1997 1.94085 17.0408 1.875 16.875 1.875H15C14.8342 1.875 14.6753 1.94085 14.5581 2.05806C14.4408 2.17527 14.375 2.33424 14.375 2.5V7.5C14.375 7.66576 14.4408 7.82473 14.5581 7.94194C14.6753 8.05915 14.8342 8.125 15 8.125H16.875C17.0408 8.125 17.1997 8.05915 17.3169 7.94194C17.4342 7.82473 17.5 7.66576 17.5 7.5C17.5 7.33424 17.4342 7.17527 17.3169 7.05806C17.1997 6.94085 17.0408 6.875 16.875 6.875H15.625V5.625H16.875Z" fill="#5C5E5F"/>
</svg>
