<svg width="50" height="50" viewBox="0 0 50 50" fill="none" xmlns="http://www.w3.org/2000/svg">
<path d="M35.9375 35.9375C35.9375 32.4914 38.7414 29.6875 42.1875 29.6875C42.7281 29.6875 43.2492 29.7633 43.75 29.893V21.875H6.25V43.75H35.9375V35.9375Z" fill="#F0F0F0"/>
<path d="M36.143 34.375H25V35.9375H35.9375C35.9375 35.3969 36.0133 34.8758 36.143 34.375Z" fill="#505050"/>
<path d="M3.125 43.75H35.9375V46.875H3.125V43.75Z" fill="#3CC8B4"/>
<path d="M43.75 9.375H34.375V15.625H15.625V9.375H6.25V18.75H43.75V9.375Z" fill="#FA6450"/>
<path d="M6.25 21.875H9.375V43.75H6.25V21.875Z" fill="#D2D2D2"/>
<path d="M3.125 43.75H6.25V46.875H3.125V43.75Z" fill="#1EAA96"/>
<path d="M12.5 28.125H21.875V43.75H12.5V28.125Z" fill="#64C8F0"/>
<path d="M12.5 26.5625H21.875V28.125H12.5V26.5625Z" fill="#505050"/>
<path d="M12.5 28.125H14.0625V43.75H12.5V28.125Z" fill="#46AAD2"/>
<path d="M12.5 26.5625H14.0625V28.125H12.5V26.5625Z" fill="#3C3C3C"/>
<path d="M25 26.5625H39.0625V28.125H25V26.5625Z" fill="#505050"/>
<path d="M25 34.375H26.5625V35.9375H25V34.375Z" fill="#3C3C3C"/>
<path d="M25 26.5625H26.5625V28.125H25V26.5625Z" fill="#3C3C3C"/>
<path d="M14.8438 35.9375C14.4125 35.9375 14.0625 35.5875 14.0625 35.1562C14.0625 34.725 14.4125 34.375 14.8438 34.375C15.275 34.375 15.625 34.725 15.625 35.1562C15.625 35.5875 15.275 35.9375 14.8438 35.9375Z" fill="#505050"/>
<path d="M3.125 18.75H46.875V21.875H3.125V18.75Z" fill="#D2D2D2"/>
<path d="M17.1875 3.125H32.8125V14.0625H17.1875V3.125Z" fill="#FAB400"/>
<path d="M17.1875 3.125H18.75V14.0625H17.1875V3.125Z" fill="#DC9600"/>
<path d="M32.8125 3.125H31.25L25 9.375L18.75 3.125H17.1875L22.6562 8.59375L17.1875 14.0625H18.75L23.4375 9.375L25 10.9375L26.5625 9.375L31.25 14.0625H32.8125L27.3438 8.59375L32.8125 3.125Z" fill="#BE7800"/>
<path d="M39.0625 30.5328V28.125H25V34.375H36.143C36.5664 32.7383 37.6344 31.3625 39.0625 30.5328Z" fill="#64C8F0"/>
<path d="M37.5 35.9375V46.875H39.0625V45.3125H45.3125V46.875H46.875V35.9375C46.875 33.3484 44.7766 31.25 42.1875 31.25C39.5984 31.25 37.5 33.3484 37.5 35.9375Z" fill="#FA6450"/>
<path d="M39.0625 35.9375C39.0625 33.6156 40.7523 31.693 42.9688 31.3203C42.7141 31.2773 42.4539 31.25 42.1875 31.25C39.5984 31.25 37.5 33.3484 37.5 35.9375V46.875H39.0625V45.3125V35.9375Z" fill="#DC4632"/>
<path d="M45.3125 45.3125H46.875V46.875H45.3125V45.3125Z" fill="#DC4632"/>
<path d="M39.0625 39.0625H45.3125V43.75H39.0625V39.0625Z" fill="#BE2814"/>
<path d="M39.0625 35.9375H45.3125V37.5H39.0625V35.9375Z" fill="#F0F0F0"/>
<path d="M6.25 9.375H9.375V18.75H6.25V9.375Z" fill="#DC4632"/>
<path d="M25 28.125H26.5625V34.375H25V28.125Z" fill="#46AAD2"/>
</svg>
