<svg width="24" height="24" viewBox="0 0 24 24" fill="none" xmlns="http://www.w3.org/2000/svg">
<g clip-path="url(#clip0_398_2868)">
<path d="M9 0C4.0365 0 0 4.0365 0 9C0 15.2385 8.124 23.4345 8.469 23.781C8.616 23.9265 8.808 24 9 24C9.192 24 9.384 23.9265 9.531 23.781C9.633 23.679 10.428 22.8735 11.484 21.6465C10.875 20.562 10.5 19.3305 10.5 18C10.5 13.9125 13.773 10.6035 17.8395 10.5165C17.934 10.002 18 9.4935 18 9C18 4.0365 13.9635 0 9 0ZM9 13.5C6.519 13.5 4.5 11.481 4.5 9C4.5 6.519 6.519 4.5 9 4.5C11.481 4.5 13.5 6.519 13.5 9C13.5 11.481 11.481 13.5 9 13.5Z" fill="#FF7757"/>
<path d="M18 12C14.6865 12 12 14.6865 12 18C12 21.3135 14.6865 24 18 24C21.3135 24 24 21.3135 24 18C24 14.6865 21.3135 12 18 12ZM20.25 18.75H18.75V20.25C18.75 20.664 18.414 21 18 21C17.586 21 17.25 20.664 17.25 20.25V18.75H15.75C15.336 18.75 15 18.414 15 18C15 17.586 15.336 17.25 15.75 17.25H17.25V15.75C17.25 15.336 17.586 15 18 15C18.414 15 18.75 15.336 18.75 15.75V17.25H20.25C20.664 17.25 21 17.586 21 18C21 18.414 20.664 18.75 20.25 18.75Z" fill="#FF7757"/>
</g>
<defs>
<clipPath id="clip0_398_2868">
<rect width="24" height="24" fill="white"/>
</clipPath>
</defs>
</svg>
