<svg width="40" height="40" viewBox="0 0 40 40" fill="none" xmlns="http://www.w3.org/2000/svg">
<g clip-path="url(#clip0_3_3201)">
<path d="M24.7654 12.9688H13.0466C12.3989 12.9688 11.8748 12.4446 11.8748 11.7969V7.10938C11.8748 6.46164 12.3989 5.9375 13.0466 5.9375H24.7654C25.4131 5.9375 25.9373 6.46164 25.9373 7.10938V11.7969C25.9373 12.4446 25.4131 12.9688 24.7654 12.9688Z" fill="#FFD580"/>
<path d="M32.6252 1.59336C32.1675 1.13563 31.4259 1.13563 30.9681 1.59336L29.4529 3.1086L27.9377 1.59336C27.4799 1.13563 26.7383 1.13563 26.2806 1.59336C25.8228 2.0511 25.8228 2.79274 26.2806 3.25047L28.6243 5.59422C28.8532 5.82313 29.1531 5.93758 29.4528 5.93758C29.7526 5.93758 30.0525 5.82313 30.2813 5.59422L32.6251 3.25047C33.0831 2.79266 33.0831 2.0511 32.6252 1.59336Z" fill="#F24973"/>
<path d="M30.2815 5.59416L32.6252 3.25041C33.083 2.79268 33.083 2.05104 32.6252 1.5933C32.1675 1.13557 31.4258 1.13557 30.9681 1.5933L29.4529 3.10854V5.93752C29.7528 5.93752 30.0526 5.82307 30.2815 5.59416Z" fill="#D92C49"/>
<path d="M34.1404 12.9688H24.7654C24.1176 12.9688 23.5935 12.4446 23.5935 11.7969V4.76562C23.5935 4.11789 24.1176 3.59375 24.7654 3.59375H34.1404C34.7881 3.59375 35.3123 4.11789 35.3123 4.76562V11.7969C35.3123 12.4446 34.7881 12.9688 34.1404 12.9688Z" fill="#8AE68A"/>
<path d="M34.1404 3.59375H29.4529V12.9688H34.1404C34.7881 12.9688 35.3123 12.4446 35.3123 11.7969V4.76562C35.3123 4.11789 34.7881 3.59375 34.1404 3.59375Z" fill="#60BF80"/>
<path d="M7.03586 10.6249L5.12055 3.59399H1.17188C0.524141 3.59399 0 3.06985 0 2.42212C0 1.77438 0.524141 1.25024 1.17188 1.25024H6.01547C6.54422 1.25024 7.00656 1.60384 7.14617 2.11431L9.70047 11.4893L7.03586 10.6249Z" fill="#80334D"/>
<path d="M31.7968 31.7188H13.0468C12.4013 31.7188 11.8749 31.1935 11.8749 30.5469C11.8749 29.9415 12.3281 29.4403 12.9278 29.3807C13.5709 29.3167 14.0425 28.7422 13.9761 28.0979C13.9143 27.4547 13.3375 27.0072 12.6944 27.0484C10.8908 27.2281 9.53125 28.7318 9.53125 30.5468C9.53125 32.4854 11.1083 34.0625 13.0469 34.0625H31.7969C32.4446 34.0625 32.9688 33.5383 32.9688 32.8906C32.9688 32.2429 32.4445 31.7188 31.7968 31.7188Z" fill="#80334D"/>
<path d="M31.7966 31.7188H24.7654V34.0625H31.7966C32.4444 34.0625 32.9685 33.5384 32.9685 32.8906C32.9685 32.2429 32.4444 31.7188 31.7966 31.7188Z" fill="#59243F"/>
<path d="M13.0467 29.3521C12.5225 29.3521 12.0556 29.003 11.916 28.4892L7.03442 10.625H38.8279C39.1713 10.625 39.4986 10.7761 39.7229 11.0393C39.9449 11.3025 40.041 11.6493 39.9838 11.9891L37.64 26.0516C37.5531 26.5746 37.1274 26.9729 36.5986 27.0255C9.75856 29.6811 13.3281 29.3521 13.0467 29.3521Z" fill="#F24973"/>
<path d="M38.8279 10.625H24.7654V28.1983C27.8428 27.8926 31.7116 27.5091 36.5986 27.0255C37.1273 26.9729 37.553 26.5747 37.64 26.0516L39.9837 11.9891C40.0409 11.6492 39.9448 11.3025 39.7228 11.0393C39.4985 10.7761 39.1712 10.625 38.8279 10.625Z" fill="#D92C49"/>
<path d="M31.7966 38.75C29.858 38.75 28.281 37.173 28.281 35.2344C28.281 33.2958 29.858 31.7188 31.7966 31.7188C33.7352 31.7188 35.3123 33.2958 35.3123 35.2344C35.3123 37.173 33.7352 38.75 31.7966 38.75Z" fill="#59243F"/>
<path d="M31.7966 36.4062C32.4438 36.4062 32.9685 35.8816 32.9685 35.2344C32.9685 34.5872 32.4438 34.0625 31.7966 34.0625C31.1494 34.0625 30.6248 34.5872 30.6248 35.2344C30.6248 35.8816 31.1494 36.4062 31.7966 36.4062Z" fill="#D9E5FF"/>
<path d="M15.3904 38.75C13.4518 38.75 11.8748 37.173 11.8748 35.2344C11.8748 33.2958 13.4518 31.7188 15.3904 31.7188C17.329 31.7188 18.906 33.2958 18.906 35.2344C18.906 37.173 17.329 38.75 15.3904 38.75Z" fill="#80334D"/>
<path d="M15.3904 36.4062C16.0376 36.4062 16.5623 35.8816 16.5623 35.2344C16.5623 34.5872 16.0376 34.0625 15.3904 34.0625C14.7432 34.0625 14.2185 34.5872 14.2185 35.2344C14.2185 35.8816 14.7432 36.4062 15.3904 36.4062Z" fill="#ECF2FF"/>
<path d="M31.7966 22.3438C31.1489 22.3438 30.6248 21.8196 30.6248 21.1719V16.4844C30.6248 15.8366 31.1489 15.3125 31.7966 15.3125C32.4444 15.3125 32.9685 15.8366 32.9685 16.4844V21.1719C32.9685 21.8196 32.4444 22.3438 31.7966 22.3438Z" fill="#D9E5FF"/>
<path d="M17.7341 22.3438C17.0864 22.3438 16.5623 21.8196 16.5623 21.1719V16.4844C16.5623 15.8366 17.0864 15.3125 17.7341 15.3125C18.3819 15.3125 18.906 15.8366 18.906 16.4844V21.1719C18.906 21.8196 18.3819 22.3438 17.7341 22.3438Z" fill="#ECF2FF"/>
<path d="M24.7654 22.3438C24.1176 22.3438 23.5935 21.8196 23.5935 21.1719V16.4844C23.5935 15.8366 24.1176 15.3125 24.7654 15.3125C25.4131 15.3125 25.9373 15.8366 25.9373 16.4844V21.1719C25.9373 21.8196 25.4131 22.3438 24.7654 22.3438Z" fill="#ECF2FF"/>
<path d="M25.9373 21.1719V16.4844C25.9373 15.8366 25.4131 15.3125 24.7654 15.3125V22.3438C25.4131 22.3438 25.9373 21.8196 25.9373 21.1719Z" fill="#D9E5FF"/>
</g>
<defs>
<clipPath id="clip0_3_3201">
<rect width="40" height="40" fill="white"/>
</clipPath>
</defs>
</svg>
