<svg width="14" height="14" viewBox="0 0 14 14" fill="none" xmlns="http://www.w3.org/2000/svg">
<g clip-path="url(#clip0_398_1743)">
<path d="M2.5677 2.39868C2.29681 2.39868 2.07642 2.61907 2.07642 2.89C2.07642 3.16089 2.29681 3.38129 2.5677 3.38129C2.83863 3.38129 3.05902 3.16089 3.05902 2.89C3.05902 2.61907 2.83863 2.39868 2.5677 2.39868Z" fill="white"/>
<path d="M10.0834 13.0938C10.3095 12.5484 10.0506 11.923 9.50523 11.6969C8.95982 11.4708 8.33441 11.7297 8.10833 12.2751C7.88225 12.8205 8.14112 13.446 8.68653 13.672C9.23194 13.8981 9.85735 13.6392 10.0834 13.0938Z" fill="white"/>
<path d="M7.17861 12.6814C7.17861 12.5712 7.1885 12.4634 7.20647 12.3582H1.66657C1.21658 12.3582 0.850473 11.9921 0.850473 11.5421C0.850473 11.0921 1.21658 10.7259 1.66657 10.7259H5.48561C6.35394 10.7259 7.0604 10.0195 7.0604 9.15118C7.0604 8.28285 6.35396 7.57642 5.48561 7.57642H3.80386L3.29897 8.42051H5.48561C5.88851 8.42051 6.21628 8.74828 6.21628 9.15118C6.21628 9.55408 5.88849 9.88184 5.48561 9.88184H1.66657C0.751134 9.88184 0.00634766 10.6266 0.00634766 11.5421C0.00634766 12.4575 0.751134 13.2023 1.66657 13.2023H7.2513C7.20429 13.0366 7.17861 12.862 7.17861 12.6814Z" fill="white"/>
<path d="M13.9998 6.83928C13.9931 6.673 13.8893 6.52616 13.7348 6.46435L9.24851 4.66982C9.11847 4.61784 8.97111 4.63369 8.85514 4.71221C8.73916 4.79074 8.66968 4.92165 8.66968 5.06169V10.816C8.80548 10.7853 8.94653 10.7686 9.09148 10.7686C9.23663 10.7686 9.37781 10.7854 9.51378 10.8161V9.3447L13.7656 7.23424C13.9147 7.16027 14.0064 7.00557 13.9998 6.83928Z" fill="white"/>
<path d="M5.17614 2.83782C5.17614 1.40848 4.01741 0.249756 2.58807 0.249756C1.15872 0.249756 0 1.40848 0 2.83782V2.84856C0 3.36519 0.138234 3.87241 0.400362 4.31762L2.36983 7.66252C2.45898 7.81392 2.67771 7.81468 2.7679 7.66388L4.76556 4.32404C5.03424 3.87487 5.17614 3.36123 5.17614 2.83782ZM2.56772 4.22533C1.83137 4.22533 1.23231 3.62626 1.23231 2.88991C1.23231 2.15357 1.83137 1.5545 2.56772 1.5545C3.30407 1.5545 3.90313 2.15357 3.90313 2.88991C3.90313 3.62628 3.30407 4.22533 2.56772 4.22533Z" fill="white"/>
</g>
<defs>
<clipPath id="clip0_398_1743">
<rect width="14" height="14" fill="white"/>
</clipPath>
</defs>
</svg>
