<svg width="50" height="50" viewBox="0 0 50 50" fill="none" xmlns="http://www.w3.org/2000/svg">
<g clip-path="url(#clip0_252_5546)">
<path d="M26.4606 46.3198C25.7642 46.3198 25.1997 45.7552 25.1997 45.059V4.94107C25.1997 4.24471 25.7642 3.68018 26.4606 3.68018C27.157 3.68018 27.7215 4.24471 27.7215 4.94107V45.059C27.7215 45.7552 27.157 46.3198 26.4606 46.3198Z" fill="#6C9BAA"/>
<path d="M8.79245 48.4147C7.6305 48.4147 6.68854 47.4727 6.68854 46.3108V29.494C6.68854 28.3321 7.6305 27.3901 8.79245 27.3901C9.95439 27.3901 10.8964 28.3321 10.8964 29.494V46.3108C10.8964 47.4728 9.95439 48.4147 8.79245 48.4147Z" fill="#FFB69E"/>
<path d="M13.9087 48.4147C12.7467 48.4147 11.8047 47.4727 11.8047 46.3108V29.494C11.8047 28.3321 12.7467 27.3901 13.9087 27.3901C15.0706 27.3901 16.0126 28.3321 16.0126 29.494V46.3108C16.0125 47.4728 15.0705 48.4147 13.9087 48.4147Z" fill="#FFB69E"/>
<path d="M11.3506 11.5339C13.3574 11.5339 14.9843 9.90709 14.9843 7.90027C14.9843 5.89345 13.3574 4.2666 11.3506 4.2666C9.34377 4.2666 7.71692 5.89345 7.71692 7.90027C7.71692 9.90709 9.34377 11.5339 11.3506 11.5339Z" fill="#FFB69E"/>
<path d="M13.1465 12.6924H9.38476L9.35953 12.9322C9.24046 14.0649 10.1286 15.0513 11.2676 15.0513C12.4197 15.0513 13.3119 14.0431 13.172 12.8995L13.1465 12.6924Z" fill="#FFB69E"/>
<path d="M6.44129 20.5789L3.05391 19.686C3.05391 19.686 0.129459 27.7776 0.107078 27.8388C-0.225398 28.7483 0.242247 29.755 1.15162 30.0875C2.0608 30.4199 3.06775 29.9524 3.40032 29.043C3.42084 28.9868 6.17311 21.3778 6.17311 21.3778L6.44129 20.5789Z" fill="#FFB69E"/>
<path d="M22.5941 27.8388C22.5717 27.7777 19.5715 19.4736 19.5715 19.4736L15.8156 20.2051L16.3353 21.3778C16.3353 21.3778 19.2793 28.9841 19.3009 29.043C19.6332 29.9521 20.6397 30.4202 21.5496 30.0875C22.4588 29.755 22.9266 28.7483 22.5941 27.8388Z" fill="#FFB69E"/>
<path d="M16.2189 20.7293L19.5715 19.4739C19.5715 19.4739 18.7458 17.1445 18.4417 16.2596C17.6282 13.8925 16.2645 12.6924 14.3879 12.6924H13.1465C13.1731 13.696 12.2394 14.5453 11.2645 14.5453C10.2195 14.5453 9.44376 13.6992 9.38477 12.6924H8.31323C6.43666 12.6924 5.07289 13.8925 4.25942 16.2596C3.93745 17.1965 3.05389 19.6863 3.05389 19.6863L6.27568 20.7293L4.3675 32.5376C4.26414 33.1344 4.72599 33.6791 5.32713 33.6791H17.3738C17.9769 33.6791 18.437 33.1351 18.3334 32.5376L16.2189 20.7293Z" fill="#FF6473"/>
<path d="M38.6865 10.5225L38.6735 10.6443C38.5548 11.7559 39.4261 12.725 40.5441 12.725C41.6326 12.725 42.4939 11.804 42.421 10.7179L42.4079 10.5225H38.6865Z" fill="#FFB69E"/>
<path d="M46.2805 18.9374V28.5738C46.2805 29.6009 47.1131 30.4336 48.1402 30.4336C49.1674 30.4336 50 29.601 50 28.5738V18.9374L48.1403 18.1934L46.2805 18.9374Z" fill="#FFB69E"/>
<path d="M40.6459 9.29907C42.7725 9.22882 44.4394 7.44791 44.3692 5.32129C44.2989 3.19468 42.5181 1.52766 40.3915 1.5979C38.2649 1.66815 36.598 3.44906 36.6682 5.57568C36.7385 7.7023 38.5193 9.36932 40.6459 9.29907Z" fill="#FFB69E"/>
<path d="M43.2517 48.4149C42.0192 48.4149 41.02 47.4157 41.02 46.1831V28.345C41.02 27.1125 42.0192 26.1133 43.2517 26.1133C44.4843 26.1133 45.4835 27.1125 45.4835 28.345V46.1831C45.4835 47.4157 44.4843 48.4149 43.2517 48.4149Z" fill="#414B82"/>
<path d="M37.8231 48.4149C36.5906 48.4149 35.5914 47.4157 35.5914 46.1831V28.345C35.5914 27.1125 36.5906 26.1133 37.8231 26.1133C39.0556 26.1133 40.0548 27.1125 40.0548 28.345V46.1831C40.0547 47.4157 39.0556 48.4149 37.8231 48.4149Z" fill="#5F6E9B"/>
<path d="M31.0692 18.9375V28.5739C31.0692 29.601 31.9018 30.4337 32.929 30.4337C33.9562 30.4337 34.7888 29.6011 34.7888 28.5739V18.9375L32.9291 18.4414L31.0692 18.9375Z" fill="#FFB69E"/>
<path d="M50 18.9372V14.9014C49.9878 12.4868 47.9828 10.5225 45.5304 10.5225H42.4078C42.4498 11.5255 41.5188 12.3788 40.5469 12.3788C39.5053 12.3788 38.7337 11.5287 38.6864 10.5225H35.5462C33.0897 10.5225 31.0814 12.4869 31.0692 14.9108V18.9373H34.7887V14.9201C34.7904 14.5653 35.1515 14.242 35.5462 14.242H35.5913V28.345H45.4823L45.465 14.242H45.5303C45.9211 14.242 46.2787 14.5653 46.2804 14.9108V18.9373H50V18.9372Z" fill="#64AFFF"/>
</g>
<defs>
<clipPath id="clip0_252_5546">
<rect width="50" height="50" fill="white"/>
</clipPath>
</defs>
</svg>
