<svg width="300" height="167" viewBox="0 0 300 167" fill="none" xmlns="http://www.w3.org/2000/svg">
<g clip-path="url(#clip0_252_6306)">
<path d="M266.593 58.0243C251.882 52.194 246.745 -29.4305 181.389 11.3818C155.397 27.612 117.973 7.97163 82.133 18.7066C49.2174 28.5651 49.4422 56.6583 52.6227 67.247C59.056 88.6266 39.0369 91.8084 20.4644 100.994C-8.66721 115.403 12.7548 166.042 40.2751 166.284C67.7954 166.526 269.986 165.803 269.986 165.803C269.986 165.803 325.006 81.1692 266.593 58.0243Z" fill="#E8EEFF"/>
<path d="M254.324 143.238H243.118V166.418H254.324V143.238Z" fill="#DBE5FF"/>
<path d="M76.3535 166.402V78.0392H89.4421V67.9072H92.5055V50.4874H108.933V67.9072H124.291V44.0294L141.238 37.5907V57.9489H145.102V30.8374L162.05 36.4763V77.1955H183.483V101.248H191.491V107.307H209.886V96.8742H220.447V68.5211H233.493V120.859H246.539V166.402H76.3535Z" fill="#D9E3FF"/>
<path d="M147.865 42.937H159.297V38.7338H147.865V42.937Z" fill="#C4D9ED"/>
<path d="M147.865 50.8306H159.297V46.6274H147.865V50.8306Z" fill="#C4D9ED"/>
<path d="M147.865 57.9355H159.297V53.7324H147.865V57.9355Z" fill="#C4D9ED"/>
<path d="M233.488 87.8198H220.327V94.3065H233.488V87.8198Z" fill="#C6D5FF"/>
<path d="M233.488 107.731H220.327V114.218H233.488V107.731Z" fill="#C6D5FF"/>
<path d="M233.488 117.531H220.327V124.017H233.488V117.531Z" fill="#C6D5FF"/>
<path d="M220.327 134.27H233.488V127.783H220.327V134.27Z" fill="#C6D5FF"/>
<path d="M233.488 137.823H220.327V144.31H233.488V137.823Z" fill="#C6D5FF"/>
<path d="M220.327 154.562H233.488V148.075H220.327V154.562Z" fill="#C4D9ED"/>
<path d="M138.787 53.7319H126.762V57.9351H138.787V53.7319Z" fill="#C4D9ED"/>
<path d="M138.787 46.6929H126.762V50.8961H138.787V46.6929Z" fill="#C4D9ED"/>
<path d="M159.587 60.6196H126.762V64.8228H159.587V60.6196Z" fill="#C4D9ED"/>
<path d="M159.587 66.938H126.762V71.1412H159.587V66.938Z" fill="#C4D9ED"/>
<path d="M159.587 73.2153H126.762V77.2572H159.587V73.2153Z" fill="#C4D9ED"/>
<path d="M233.488 97.9326H220.327V104.419H233.488V97.9326Z" fill="#C6D5FF"/>
<path d="M179.98 81.3345H177.107V85.3996H179.98V81.3345Z" fill="#C6D5FF"/>
<path d="M174.608 81.3345H171.735V85.3996H174.608V81.3345Z" fill="#C6D5FF"/>
<path d="M169.355 81.3345H166.482V85.3996H169.355V81.3345Z" fill="#C4D9ED"/>
<path d="M164.375 81.3345H161.502V85.3996H164.375V81.3345Z" fill="#C4D9ED"/>
<path d="M159.3 81.3345H156.427V85.3996H159.3V81.3345Z" fill="#C4D9ED"/>
<path d="M154.166 81.3345H151.293V85.3996H154.166V81.3345Z" fill="#C4D9ED"/>
<path d="M148.794 81.3345H145.921V85.3996H148.794V81.3345Z" fill="#C4D9ED"/>
<path d="M143.542 81.3345H140.669V85.3996H143.542V81.3345Z" fill="#C4D9ED"/>
<path d="M138.562 81.3345H135.689V85.3996H138.562V81.3345Z" fill="#C4D9ED"/>
<path d="M133.486 81.3345H130.614V85.3996H133.486V81.3345Z" fill="#C4D9ED"/>
<path d="M128.197 81.3345H125.325V85.3996H128.197V81.3345Z" fill="#C4D9ED"/>
<path d="M122.825 81.3345H119.952V85.3996H122.825V81.3345Z" fill="#C4D9ED"/>
<path d="M117.573 81.3345H114.7V85.3996H117.573V81.3345Z" fill="#C4D9ED"/>
<path d="M112.593 81.3345H109.72V85.3996H112.593V81.3345Z" fill="#C4D9ED"/>
<path d="M107.518 81.3345H104.645V85.3996H107.518V81.3345Z" fill="#C4D9ED"/>
<path d="M102.384 81.3345H99.5112V85.3996H102.384V81.3345Z" fill="#C4D9ED"/>
<path d="M97.0114 81.3345H94.1387V85.3996H97.0114V81.3345Z" fill="#C4D9ED"/>
<path d="M91.7589 81.3345H88.8862V85.3996H91.7589V81.3345Z" fill="#C4D9ED"/>
<path d="M86.7795 81.3345H83.9067V85.3996H86.7795V81.3345Z" fill="#C4D9ED"/>
<path d="M81.7038 81.3345H78.8311V85.3996H81.7038V81.3345Z" fill="#C4D9ED"/>
<path d="M179.98 88.5078H177.107V92.5729H179.98V88.5078Z" fill="#C6D5FF"/>
<path d="M174.608 88.5078H171.735V92.5729H174.608V88.5078Z" fill="#C6D5FF"/>
<path d="M169.355 88.5078H166.482V92.5729H169.355V88.5078Z" fill="#C4D9ED"/>
<path d="M164.375 88.5078H161.502V92.5729H164.375V88.5078Z" fill="#C4D9ED"/>
<path d="M159.3 88.5078H156.427V92.5729H159.3V88.5078Z" fill="#C4D9ED"/>
<path d="M154.166 88.5078H151.293V92.5729H154.166V88.5078Z" fill="#C4D9ED"/>
<path d="M148.794 88.5078H145.921V92.5729H148.794V88.5078Z" fill="#C4D9ED"/>
<path d="M143.542 88.5078H140.669V92.5729H143.542V88.5078Z" fill="#C4D9ED"/>
<path d="M138.562 88.5078H135.689V92.5729H138.562V88.5078Z" fill="#C4D9ED"/>
<path d="M133.486 88.5078H130.614V92.5729H133.486V88.5078Z" fill="#C4D9ED"/>
<path d="M128.197 88.5078H125.325V92.5729H128.197V88.5078Z" fill="#C4D9ED"/>
<path d="M122.825 88.5078H119.952V92.5729H122.825V88.5078Z" fill="#C4D9ED"/>
<path d="M117.573 88.5078H114.7V92.5729H117.573V88.5078Z" fill="#C4D9ED"/>
<path d="M112.593 88.5078H109.72V92.5729H112.593V88.5078Z" fill="#C4D9ED"/>
<path d="M107.518 88.5078H104.645V92.5729H107.518V88.5078Z" fill="#C4D9ED"/>
<path d="M102.384 88.5078H99.5112V92.5729H102.384V88.5078Z" fill="#C4D9ED"/>
<path d="M97.0114 88.5078H94.1387V92.5729H97.0114V88.5078Z" fill="#C4D9ED"/>
<path d="M91.7589 88.5078H88.8862V92.5729H91.7589V88.5078Z" fill="#C4D9ED"/>
<path d="M86.7795 88.5078H83.9067V92.5729H86.7795V88.5078Z" fill="#C4D9ED"/>
<path d="M81.7038 88.5078H78.8311V92.5729H81.7038V88.5078Z" fill="#C4D9ED"/>
<path d="M179.98 95.5713H177.107V99.6364H179.98V95.5713Z" fill="#C6D5FF"/>
<path d="M174.608 95.5713H171.735V99.6364H174.608V95.5713Z" fill="#C6D5FF"/>
<path d="M169.355 95.5713H166.482V99.6364H169.355V95.5713Z" fill="#C4D9ED"/>
<path d="M164.375 95.5713H161.502V99.6364H164.375V95.5713Z" fill="#C4D9ED"/>
<path d="M159.3 95.5713H156.427V99.6364H159.3V95.5713Z" fill="#C4D9ED"/>
<path d="M154.166 95.5713H151.293V99.6364H154.166V95.5713Z" fill="#C4D9ED"/>
<path d="M148.794 95.5713H145.921V99.6364H148.794V95.5713Z" fill="#C4D9ED"/>
<path d="M143.542 95.5713H140.669V99.6364H143.542V95.5713Z" fill="#C4D9ED"/>
<path d="M138.562 95.5713H135.689V99.6364H138.562V95.5713Z" fill="#C4D9ED"/>
<path d="M133.486 95.5713H130.614V99.6364H133.486V95.5713Z" fill="#C4D9ED"/>
<path d="M128.197 95.5713H125.325V99.6364H128.197V95.5713Z" fill="#C4D9ED"/>
<path d="M122.825 95.5713H119.952V99.6364H122.825V95.5713Z" fill="#C4D9ED"/>
<path d="M117.573 95.5713H114.7V99.6364H117.573V95.5713Z" fill="#C4D9ED"/>
<path d="M112.593 95.5713H109.72V99.6364H112.593V95.5713Z" fill="#C4D9ED"/>
<path d="M107.518 95.5713H104.645V99.6364H107.518V95.5713Z" fill="#C4D9ED"/>
<path d="M102.384 95.5713H99.5112V99.6364H102.384V95.5713Z" fill="#C4D9ED"/>
<path d="M97.0114 95.5713H94.1387V99.6364H97.0114V95.5713Z" fill="#C4D9ED"/>
<path d="M91.7589 95.5713H88.8862V99.6364H91.7589V95.5713Z" fill="#C4D9ED"/>
<path d="M86.7795 95.5713H83.9067V99.6364H86.7795V95.5713Z" fill="#C4D9ED"/>
<path d="M81.7038 95.5713H78.8311V99.6364H81.7038V95.5713Z" fill="#C4D9ED"/>
<path d="M179.98 103.075H177.107V107.14H179.98V103.075Z" fill="#C6D5FF"/>
<path d="M174.608 103.075H171.735V107.14H174.608V103.075Z" fill="#C6D5FF"/>
<path d="M169.355 103.075H166.482V107.14H169.355V103.075Z" fill="#C4D9ED"/>
<path d="M164.375 103.075H161.502V107.14H164.375V103.075Z" fill="#C4D9ED"/>
<path d="M159.3 103.075H156.427V107.14H159.3V103.075Z" fill="#C4D9ED"/>
<path d="M154.166 103.075H151.293V107.14H154.166V103.075Z" fill="#C4D9ED"/>
<path d="M148.794 103.075H145.921V107.14H148.794V103.075Z" fill="#C4D9ED"/>
<path d="M143.542 103.075H140.669V107.14H143.542V103.075Z" fill="#C4D9ED"/>
<path d="M138.562 103.075H135.689V107.14H138.562V103.075Z" fill="#C4D9ED"/>
<path d="M133.486 103.075H130.614V107.14H133.486V103.075Z" fill="#C4D9ED"/>
<path d="M128.197 103.075H125.325V107.14H128.197V103.075Z" fill="#C4D9ED"/>
<path d="M122.825 103.075H119.952V107.14H122.825V103.075Z" fill="#C4D9ED"/>
<path d="M117.573 103.075H114.7V107.14H117.573V103.075Z" fill="#C4D9ED"/>
<path d="M112.593 103.075H109.72V107.14H112.593V103.075Z" fill="#C4D9ED"/>
<path d="M107.518 103.075H104.645V107.14H107.518V103.075Z" fill="#C4D9ED"/>
<path d="M102.384 103.075H99.5112V107.14H102.384V103.075Z" fill="#C4D9ED"/>
<path d="M97.0114 103.075H94.1387V107.14H97.0114V103.075Z" fill="#C4D9ED"/>
<path d="M91.7589 103.075H88.8862V107.14H91.7589V103.075Z" fill="#C4D9ED"/>
<path d="M86.7795 103.075H83.9067V107.14H86.7795V103.075Z" fill="#C4D9ED"/>
<path d="M81.7038 103.075H78.8311V107.14H81.7038V103.075Z" fill="#C4D9ED"/>
<path d="M179.98 110.248H177.107V114.313H179.98V110.248Z" fill="#C6D5FF"/>
<path d="M174.608 110.248H171.735V114.313H174.608V110.248Z" fill="#C6D5FF"/>
<path d="M169.355 110.248H166.482V114.313H169.355V110.248Z" fill="#C4D9ED"/>
<path d="M164.375 110.248H161.502V114.313H164.375V110.248Z" fill="#C4D9ED"/>
<path d="M159.3 110.248H156.427V114.313H159.3V110.248Z" fill="#C4D9ED"/>
<path d="M154.166 110.248H151.293V114.313H154.166V110.248Z" fill="#C4D9ED"/>
<path d="M148.794 110.248H145.921V114.313H148.794V110.248Z" fill="#C4D9ED"/>
<path d="M143.542 110.248H140.669V114.313H143.542V110.248Z" fill="#C4D9ED"/>
<path d="M138.562 110.248H135.689V114.313H138.562V110.248Z" fill="#C4D9ED"/>
<path d="M133.486 110.248H130.614V114.313H133.486V110.248Z" fill="#C4D9ED"/>
<path d="M128.197 110.248H125.325V114.313H128.197V110.248Z" fill="#C4D9ED"/>
<path d="M122.825 110.248H119.952V114.313H122.825V110.248Z" fill="#C4D9ED"/>
<path d="M117.573 110.248H114.7V114.313H117.573V110.248Z" fill="#C4D9ED"/>
<path d="M112.593 110.248H109.72V114.313H112.593V110.248Z" fill="#C4D9ED"/>
<path d="M107.518 110.248H104.645V114.313H107.518V110.248Z" fill="#C4D9ED"/>
<path d="M102.384 110.248H99.5112V114.313H102.384V110.248Z" fill="#C4D9ED"/>
<path d="M97.0114 110.248H94.1387V114.313H97.0114V110.248Z" fill="#C4D9ED"/>
<path d="M86.7795 110.248H83.9067V114.313H86.7795V110.248Z" fill="#C4D9ED"/>
<path d="M91.7589 110.248H88.8862V114.313H91.7589V110.248Z" fill="#C4D9ED"/>
<path d="M81.7038 110.248H78.8311V114.313H81.7038V110.248Z" fill="#C4D9ED"/>
<path d="M179.98 117.312H177.107V121.377H179.98V117.312Z" fill="#C6D5FF"/>
<path d="M174.608 117.312H171.735V121.377H174.608V117.312Z" fill="#C6D5FF"/>
<path d="M169.355 117.312H166.482V121.377H169.355V117.312Z" fill="#C4D9ED"/>
<path d="M164.375 117.312H161.502V121.377H164.375V117.312Z" fill="#C4D9ED"/>
<path d="M159.3 117.312H156.427V121.377H159.3V117.312Z" fill="#C4D9ED"/>
<path d="M154.166 117.312H151.293V121.377H154.166V117.312Z" fill="#C4D9ED"/>
<path d="M148.794 117.312H145.921V121.377H148.794V117.312Z" fill="#C4D9ED"/>
<path d="M143.542 117.312H140.669V121.377H143.542V117.312Z" fill="#C4D9ED"/>
<path d="M138.562 117.312H135.689V121.377H138.562V117.312Z" fill="#C4D9ED"/>
<path d="M133.486 117.312H130.614V121.377H133.486V117.312Z" fill="#C4D9ED"/>
<path d="M128.197 117.312H125.325V121.377H128.197V117.312Z" fill="#C4D9ED"/>
<path d="M122.825 117.312H119.952V121.377H122.825V117.312Z" fill="#C4D9ED"/>
<path d="M117.573 117.312H114.7V121.377H117.573V117.312Z" fill="#C4D9ED"/>
<path d="M112.593 117.312H109.72V121.377H112.593V117.312Z" fill="#C4D9ED"/>
<path d="M107.518 117.312H104.645V121.377H107.518V117.312Z" fill="#C4D9ED"/>
<path d="M102.384 117.312H99.5112V121.377H102.384V117.312Z" fill="#C4D9ED"/>
<path d="M97.0114 117.312H94.1387V121.377H97.0114V117.312Z" fill="#C4D9ED"/>
<path d="M86.7795 117.312H83.9067V121.377H86.7795V117.312Z" fill="#C4D9ED"/>
<path d="M81.7038 117.312H78.8311V121.377H81.7038V117.312Z" fill="#C4D9ED"/>
<path d="M54.7475 109.276H48.3564V152.682H54.7475V109.276Z" fill="#BBCDFE"/>
<path d="M54.7479 165.815H61.6089L61.6089 135.666H54.7479V165.815Z" fill="#ADC9E0"/>
<path d="M205.21 96.8745V88.4189H204.864V96.8745H200.124V107.307H209.886V96.8745H205.21Z" fill="#C4D9ED"/>
<path d="M233.488 75.0118V68.5238H230.868V65.7017H230.522V68.5238H220.509H220.327H218.432V65.7017H218.086V68.5238H215.656V148.934H220.509V84.6584H233.488V78.1718H220.509V75.0118H233.488Z" fill="#C6D5FF"/>
<path d="M91.3967 115.594V152.184H54.7476V109.276L91.3967 115.594Z" fill="#D9E3FF"/>
<path d="M45.6761 166.418H91.397V135.552H45.6761L45.6761 166.418Z" fill="#D9E3FF"/>
<path d="M45.6761 127.318H91.397V117.286H45.6761V127.318Z" fill="#BBCDFE"/>
<path d="M88.2843 143.923H85.936V147.245H88.2843V143.923Z" fill="#C4D9ED"/>
<path d="M83.8927 143.923H81.5444V147.245H83.8927V143.923Z" fill="#C4D9ED"/>
<path d="M79.5998 143.923H77.2515V147.245H79.5998V143.923Z" fill="#C4D9ED"/>
<path d="M75.5294 143.923H73.1812V147.245H75.5294V143.923Z" fill="#BDCEFF"/>
<path d="M71.382 143.923H69.0337V147.245H71.382V143.923Z" fill="#BDCEFF"/>
<path d="M67.1867 143.923H64.8384V147.245H67.1867V143.923Z" fill="#C4D9ED"/>
<path d="M62.7951 143.923H60.4468V147.245H62.7951V143.923Z" fill="#BDCEFF"/>
<path d="M58.5016 143.923H56.1533V147.245H58.5016V143.923Z" fill="#BDCEFF"/>
<path d="M54.4318 143.923H52.0835V147.245H54.4318V143.923Z" fill="#BDCEFF"/>
<path d="M50.2838 143.923H47.9355V147.245H50.2838V143.923Z" fill="#BDCEFF"/>
<path d="M88.2843 149.785H85.936V153.107H88.2843V149.785Z" fill="#C4D9ED"/>
<path d="M83.8927 149.785H81.5444V153.107H83.8927V149.785Z" fill="#C4D9ED"/>
<path d="M79.5998 149.785H77.2515V153.107H79.5998V149.785Z" fill="#C4D9ED"/>
<path d="M75.5294 149.785H73.1812V153.107H75.5294V149.785Z" fill="#BDCEFF"/>
<path d="M71.382 149.785H69.0337V153.107H71.382V149.785Z" fill="#BDCEFF"/>
<path d="M67.1867 149.785H64.8384V153.107H67.1867V149.785Z" fill="#C4D9ED"/>
<path d="M62.7951 149.785H60.4468V153.107H62.7951V149.785Z" fill="#BDCEFF"/>
<path d="M58.5016 149.785H56.1533V153.107H58.5016V149.785Z" fill="#BDCEFF"/>
<path d="M54.4318 149.785H52.0835V153.107H54.4318V149.785Z" fill="#BDCEFF"/>
<path d="M50.2838 149.785H47.9355V153.107H50.2838V149.785Z" fill="#BDCEFF"/>
<path d="M88.2843 132.108H85.936V135.431H88.2843V132.108Z" fill="#C4D9ED"/>
<path d="M83.8927 132.108H81.5444V135.431H83.8927V132.108Z" fill="#C4D9ED"/>
<path d="M79.5998 132.108H77.2515V135.431H79.5998V132.108Z" fill="#C4D9ED"/>
<path d="M75.5294 132.108H73.1812V135.431H75.5294V132.108Z" fill="#BDCEFF"/>
<path d="M71.382 132.108H69.0337V135.431H71.382V132.108Z" fill="#BDCEFF"/>
<path d="M67.1867 132.108H64.8384V135.431H67.1867V132.108Z" fill="#C4D9ED"/>
<path d="M62.7951 132.108H60.4468V135.431H62.7951V132.108Z" fill="#BDCEFF"/>
<path d="M58.5016 132.108H56.1533V135.431H58.5016V132.108Z" fill="#BDCEFF"/>
<path d="M88.2843 137.971H85.936V141.293H88.2843V137.971Z" fill="#C4D9ED"/>
<path d="M83.8927 137.971H81.5444V141.293H83.8927V137.971Z" fill="#C4D9ED"/>
<path d="M79.5998 137.971H77.2515V141.293H79.5998V137.971Z" fill="#C4D9ED"/>
<path d="M75.5294 137.971H73.1812V141.293H75.5294V137.971Z" fill="#BDCEFF"/>
<path d="M71.382 137.971H69.0337V141.293H71.382V137.971Z" fill="#BDCEFF"/>
<path d="M67.1867 137.971H64.8384V141.293H67.1867V137.971Z" fill="#C4D9ED"/>
<path d="M62.7951 137.971H60.4468V141.293H62.7951V137.971Z" fill="#BDCEFF"/>
<path d="M58.5016 137.971H56.1533V141.293H58.5016V137.971Z" fill="#BDCEFF"/>
<path d="M54.4318 137.971H52.0835V141.293H54.4318V137.971Z" fill="#BDCEFF"/>
<path d="M50.2838 137.971H47.9355V141.293H50.2838V137.971Z" fill="#BDCEFF"/>
<path d="M88.2843 155.558H85.936V158.88H88.2843V155.558Z" fill="#C4D9ED"/>
<path d="M83.8927 155.558H81.5444V158.88H83.8927V155.558Z" fill="#C4D9ED"/>
<path d="M79.5998 155.558H77.2515V158.88H79.5998V155.558Z" fill="#C4D9ED"/>
<path d="M75.5294 155.558H73.1812V158.88H75.5294V155.558Z" fill="#C4D9ED"/>
<path d="M71.382 155.558H69.0337V158.88H71.382V155.558Z" fill="#C4D9ED"/>
<path d="M67.1867 155.558H64.8384V158.88H67.1867V155.558Z" fill="#C4D9ED"/>
<path d="M62.7951 155.558H60.4468V158.88H62.7951V155.558Z" fill="#C4D9ED"/>
<path d="M58.5016 155.558H56.1533V158.88H58.5016V155.558Z" fill="#C4D9ED"/>
<path d="M54.4318 155.558H52.0835V158.88H54.4318V155.558Z" fill="#BDCEFF"/>
<path d="M50.2838 155.558H47.9355V158.88H50.2838V155.558Z" fill="#BDCEFF"/>
<path d="M57.883 102.386H57.2061V111.087H57.883V102.386Z" fill="#C6D5FF"/>
<path d="M87.9097 120.104H85.936V123.531H87.9097V120.104Z" fill="#D5E7F7"/>
<path d="M68.3199 120.104H66.3462V123.531H68.3199V120.104Z" fill="#E8EEFF"/>
<path d="M52.7374 120.104H50.7637V123.531H52.7374V120.104Z" fill="#E8EEFF"/>
<path d="M215.658 127.783H147.358V166.418H215.658V127.783Z" fill="#BBCDFF"/>
<path d="M153.448 131.744H149.939V137.121H153.448V131.744Z" fill="#D5E7F7"/>
<path d="M159.632 131.744H156.125V137.121H159.632V131.744Z" fill="#D5E7F7"/>
<path d="M165.861 131.744H162.353V137.121H165.861V131.744Z" fill="#D5E7F7"/>
<path d="M172.047 131.744H168.539V137.121H172.047V131.744Z" fill="#D5E7F7"/>
<path d="M178.417 131.744H174.91V137.121H178.417V131.744Z" fill="#D5E7F7"/>
<path d="M184.604 131.744H181.097V137.121H184.604V131.744Z" fill="#D5E7F7"/>
<path d="M203.505 131.744H199.997V137.121H203.505V131.744Z" fill="#D5E7F7"/>
<path d="M209.69 131.744H206.183V137.121H209.69V131.744Z" fill="#D5E7F7"/>
<path d="M153.448 139.695H149.939V145.072H153.448V139.695Z" fill="#D5E7F7"/>
<path d="M159.632 139.695H156.125V145.072H159.632V139.695Z" fill="#D5E7F7"/>
<path d="M165.861 139.695H162.353V145.072H165.861V139.695Z" fill="#D5E7F7"/>
<path d="M172.047 139.695H168.539V145.072H172.047V139.695Z" fill="#D5E7F7"/>
<path d="M178.417 139.695H174.91V145.072H178.417V139.695Z" fill="#D5E7F7"/>
<path d="M184.604 139.695H181.097V145.072H184.604V139.695Z" fill="#D5E7F7"/>
<path d="M190.832 139.695H187.323V145.072H190.832V139.695Z" fill="#D5E7F7"/>
<path d="M197.017 139.695H193.51V145.072H197.017V139.695Z" fill="#D5E7F7"/>
<path d="M203.505 139.695H199.997V145.072H203.505V139.695Z" fill="#D5E7F7"/>
<path d="M209.69 139.695H206.183V145.072H209.69V139.695Z" fill="#D5E7F7"/>
<path d="M153.448 148.237H149.939V153.613H153.448V148.237Z" fill="#D5E7F7"/>
<path d="M159.632 148.237H156.125V153.613H159.632V148.237Z" fill="#D5E7F7"/>
<path d="M165.861 148.237H162.353V153.613H165.861V148.237Z" fill="#D5E7F7"/>
<path d="M172.047 148.237H168.539V153.613H172.047V148.237Z" fill="#D5E7F7"/>
<path d="M178.417 148.237H174.91V153.613H178.417V148.237Z" fill="#D5E7F7"/>
<path d="M184.604 148.237H181.097V153.613H184.604V148.237Z" fill="#D5E7F7"/>
<path d="M190.832 148.237H187.323V153.613H190.832V148.237Z" fill="#D5E7F7"/>
<path d="M197.017 148.237H193.51V153.613H197.017V148.237Z" fill="#D5E7F7"/>
<path d="M203.505 148.237H199.997V153.613H203.505V148.237Z" fill="#D5E7F7"/>
<path d="M209.69 148.237H206.183V153.613H209.69V148.237Z" fill="#D5E7F7"/>
<path d="M153.448 156.188H149.939V161.564H153.448V156.188Z" fill="#D5E7F7"/>
<path d="M159.632 156.188H156.125V161.564H159.632V156.188Z" fill="#D5E7F7"/>
<path d="M165.861 156.188H162.353V161.564H165.861V156.188Z" fill="#D5E7F7"/>
<path d="M172.047 156.188H168.539V161.564H172.047V156.188Z" fill="#D5E7F7"/>
<path d="M178.417 156.188H174.91V161.564H178.417V156.188Z" fill="#D5E7F7"/>
<path d="M184.604 156.188H181.097V161.564H184.604V156.188Z" fill="#D5E7F7"/>
<path d="M190.832 156.188H187.323V161.564H190.832V156.188Z" fill="#D5E7F7"/>
<path d="M197.017 156.188H193.51V161.564H197.017V156.188Z" fill="#D5E7F7"/>
<path d="M203.505 156.188H199.997V161.564H203.505V156.188Z" fill="#D5E7F7"/>
<path d="M190.488 129.548H204.218V117.531L190.488 122.807V129.548Z" fill="#BBCDFF"/>
<path d="M122.818 166.418H91.397V132.108L122.818 143.027V166.418Z" fill="#C4D9ED"/>
<path d="M121.988 144.164H92.2266V145.223H121.988V144.164Z" fill="#D5E7F7"/>
<path d="M121.988 147.571H92.2266V148.63H121.988V147.571Z" fill="#D5E7F7"/>
<path d="M121.988 150.979H92.2266V152.038H121.988V150.979Z" fill="#D5E7F7"/>
<path d="M121.988 154.387H92.2266V155.447H121.988V154.387Z" fill="#D5E7F7"/>
<path d="M121.988 157.794H92.2266V158.854H121.988V157.794Z" fill="#D5E7F7"/>
<path d="M121.988 161.202H92.2266V162.262H121.988V161.202Z" fill="#D5E7F7"/>
<path d="M206.858 117.531H204.218V127.783H206.858V117.531Z" fill="#C4D9ED"/>
<path d="M201.318 126.197V122.674H195.962V126.197H201.318Z" fill="#D5E7F7"/>
<path d="M96.0282 52.1147H94.207V67.6203H96.0282V52.1147Z" fill="#C4D9ED"/>
<path d="M99.6498 52.1147H97.8286V67.6203H99.6498V52.1147Z" fill="#C4D9ED"/>
<path d="M103.222 52.1147H101.4V67.6203H103.222V52.1147Z" fill="#C4D9ED"/>
<path d="M106.918 52.1147H105.097V67.6203H106.918V52.1147Z" fill="#C4D9ED"/>
<path d="M10.8589 166.037H91.3969C91.3969 166.037 87.2738 148.262 69.2938 150.987C51.3138 153.712 44.0265 168.814 34.9003 158.325C25.7741 147.836 10.8589 166.037 10.8589 166.037Z" fill="#A8D29F"/>
<path d="M115.468 114.819C130.379 118.456 142.302 136.088 149.08 148.619C149.933 147.667 150.701 146.64 151.373 145.551C148.513 139.055 142.969 125.1 148.339 125.565C153.011 125.975 153.455 135.672 153.242 142.421C157.037 135.812 161.325 128.15 173.481 128.639C193.594 129.445 199.797 150.443 213.765 150.036C227.734 149.629 270.402 144.271 278.804 165.836H131.754C132.234 164.512 133.079 159.171 137.009 155.296C136.289 155.05 135.542 154.8 134.767 154.547C122.306 150.474 126.964 146.258 126.964 146.258C132.809 146.258 138.155 148.893 142.42 151.989C143.051 151.777 143.694 151.605 144.346 151.472C145.085 151.321 145.798 151.063 146.463 150.706C139.087 142.198 128.457 131.353 120.141 128.611C114.452 126.735 111.598 124.167 110.242 121.714C108.235 118.091 111.455 113.84 115.468 114.819Z" fill="#A8D29F"/>
<path d="M35.9711 165.73H39.4009L39.4009 97.778H35.9711L35.9711 165.73Z" fill="#233862"/>
<path d="M13.2863 97.7793H60.6499V93.4653H13.2863V97.7793Z" fill="#233862"/>
<path d="M18.4349 165.732H21.8647L21.8647 96.6638H18.4349L18.4349 165.732Z" fill="#233862"/>
<path d="M81.245 165.732H84.6748L84.6748 97.2394H81.245L81.245 165.732Z" fill="#415DA5"/>
<path d="M63.7089 165.732H67.1387L67.1387 97.2394H63.7089L63.7089 165.732Z" fill="#415DA5"/>
<path d="M60.3431 97.7793H93.0054V93.4653H60.3431V97.7793Z" fill="#415DA5"/>
<path d="M28.0962 102.456H38.8065C39.8357 102.456 40.6699 101.618 40.6699 100.585V88.6263C40.6699 87.5933 39.8357 86.7558 38.8065 86.7558H28.0962C27.0671 86.7558 26.2328 87.5933 26.2328 88.6263V100.585C26.2328 101.618 27.0671 102.456 28.0962 102.456Z" fill="#415DA5"/>
<path d="M28.6223 101.686H38.2811C39.2094 101.686 39.9619 100.931 39.9619 99.9987V89.2132C39.9619 88.2813 39.2094 87.5259 38.2811 87.5259H28.6223C27.694 87.5259 26.9414 88.2813 26.9414 89.2132V99.9987C26.9414 100.931 27.694 101.686 28.6223 101.686Z" fill="white"/>
<path d="M30.9501 91.3765H35.1659C35.3792 91.3765 35.5837 91.4614 35.7346 91.6127C35.8856 91.7639 35.9705 91.9691 35.9709 92.1832V98.0709H30.1465V92.1832C30.1465 91.9693 30.2312 91.764 30.3819 91.6127C30.5326 91.4615 30.737 91.3765 30.9501 91.3765ZM35.1931 97.282C35.3133 97.2816 35.4285 97.2336 35.5135 97.1482C35.5985 97.0629 35.6464 96.9473 35.6467 96.8267C35.6464 96.706 35.5985 96.5904 35.5135 96.5051C35.4285 96.4198 35.3133 96.3717 35.1931 96.3713C35.0727 96.3713 34.9572 96.4193 34.8719 96.5046C34.7866 96.59 34.7386 96.7058 34.7382 96.8267C34.7384 96.8869 34.7504 96.9464 34.7736 97.002C34.7968 97.0575 34.8307 97.1079 34.8734 97.1502C34.916 97.1925 34.9666 97.2259 35.0222 97.2485C35.0778 97.2711 35.1373 97.2825 35.1972 97.282H35.1931ZM30.9174 97.282C31.0377 97.282 31.1531 97.234 31.2382 97.1486C31.3232 97.0633 31.371 96.9474 31.371 96.8267C31.371 96.7059 31.3232 96.5901 31.2382 96.5047C31.1531 96.4193 31.0377 96.3713 30.9174 96.3713C30.7972 96.3713 30.6818 96.4193 30.5967 96.5047C30.5116 96.5901 30.4639 96.7059 30.4639 96.8267C30.4639 96.9474 30.5116 97.0633 30.5967 97.1486C30.6818 97.234 30.7972 97.282 30.9174 97.282ZM30.4639 95.2816H35.7761V92.2734H30.4639V95.2816Z" fill="#415DA5"/>
<path d="M36.1711 94.606H36.6016V93.3849H36.1711V94.606Z" fill="#415DA5"/>
<path d="M29.5486 94.606H29.979V93.3849H29.5486V94.606Z" fill="#415DA5"/>
<path d="M35.2611 99.1782H34.8825C34.8124 99.1782 34.7452 99.1503 34.6956 99.1005C34.6461 99.0508 34.6182 98.9833 34.6182 98.913V98.2676H35.5254V98.913C35.5254 98.9833 35.4975 99.0508 35.448 99.1005C35.3984 99.1503 35.3312 99.1782 35.2611 99.1782Z" fill="#415DA5"/>
<path d="M31.2348 99.1782H30.8561C30.786 99.1782 30.7188 99.1503 30.6692 99.1005C30.6197 99.0508 30.5918 98.9833 30.5918 98.913V98.2676H31.499V98.913C31.499 98.9833 31.4712 99.0508 31.4216 99.1005C31.3721 99.1503 31.3049 99.1782 31.2348 99.1782Z" fill="#415DA5"/>
<path d="M156.666 4.31689H80.511C78.1135 4.31689 76.1699 6.2679 76.1699 8.67459V161.551C76.1699 163.957 78.1135 165.909 80.511 165.909H156.666C159.063 165.909 161.007 163.957 161.007 161.551V8.67459C161.007 6.2679 159.063 4.31689 156.666 4.31689Z" fill="#D3671E"/>
<path d="M164.891 4.31689H88.7351C86.3376 4.31689 84.394 6.2679 84.394 8.67459V161.551C84.394 163.957 86.3376 165.909 88.7351 165.909H164.891C167.289 165.909 169.232 163.957 169.232 161.551V8.67459C169.232 6.2679 167.289 4.31689 164.891 4.31689Z" fill="#F99746"/>
<path opacity="0.4" d="M139.246 10.4326H117.197C116.97 10.4333 116.752 10.5243 116.591 10.6857C116.43 10.8471 116.34 11.0658 116.339 11.294C116.34 11.5223 116.43 11.741 116.591 11.9024C116.752 12.0638 116.97 12.1548 117.197 12.1555H139.246C139.473 12.1548 139.691 12.0638 139.852 11.9024C140.012 11.741 140.103 11.5223 140.104 11.294C140.103 11.0658 140.012 10.8471 139.852 10.6857C139.691 10.5243 139.473 10.4333 139.246 10.4326Z" fill="#D3671E"/>
<path opacity="0.4" d="M113.275 10.4326C113.048 10.4333 112.83 10.5243 112.669 10.6857C112.508 10.8471 112.418 11.0658 112.417 11.294C112.417 11.5224 112.508 11.7413 112.669 11.9028C112.83 12.0642 113.048 12.1551 113.275 12.1555C113.502 12.1548 113.72 12.0638 113.881 11.9024C114.042 11.741 114.133 11.5223 114.133 11.294C114.133 11.0658 114.042 10.8471 113.881 10.6857C113.72 10.5243 113.502 10.4333 113.275 10.4326Z" fill="#D3671E"/>
<path opacity="0.4" d="M122.329 156.984C122.329 155.511 122.912 154.098 123.95 153.056C124.987 152.015 126.395 151.43 127.862 151.43C129.33 151.43 130.737 152.015 131.775 153.056C132.813 154.098 133.396 155.511 133.396 156.984C133.396 158.457 132.813 159.87 131.775 160.912C130.737 161.954 129.33 162.539 127.862 162.539C126.394 162.539 124.987 161.953 123.95 160.912C122.912 159.87 122.329 158.457 122.329 156.984Z" fill="#D86713"/>
<path d="M161.99 17.1299H91.4556V147.832H161.99V17.1299Z" fill="#DBE5FF"/>
<path d="M161.99 132.67H91.4556V147.842H161.99V132.67Z" fill="#D5E7F7"/>
<path d="M164.096 106.922L149.453 82.8334C152.722 80.58 154.854 77.5008 155.784 73.6476C158.476 62.5148 150.148 48.2042 147.38 43.8602C148.333 42.9353 149.09 41.8273 149.607 40.6022C150.125 39.3772 150.391 38.0601 150.39 36.7296C150.387 34.0941 149.343 31.5673 147.486 29.7038C145.63 27.8402 143.113 26.792 140.487 26.7891C137.862 26.792 135.345 27.8402 133.488 29.7038C131.632 31.5673 130.588 34.0941 130.585 36.7296C130.584 37.7267 130.732 38.7182 131.026 39.6707C120.374 45.8675 108.875 52.3869 104.811 54.4201L90.6352 30.5916C90.0523 29.6153 90.7905 32.7219 89.818 33.3071C89.5865 33.4461 89.3846 33.6295 89.2238 33.8469C89.063 34.0643 88.9464 34.3113 88.8808 34.5739C88.8151 34.8365 88.8017 35.1095 88.8412 35.3773C88.8807 35.6452 88.9724 35.9025 89.111 36.1348L107.363 66.7098C108.332 68.3382 109.89 69.5281 111.712 70.031C113.534 70.5339 115.479 70.311 117.141 69.4089L128.757 63.1287C129.551 62.6987 130.479 62.5908 131.35 62.8274C132.221 63.064 132.969 63.627 133.438 64.4003L143.74 81.3457C123.022 92.3692 93.2587 108.092 90.9635 108.99C90.463 109.142 90.0388 109.479 89.7776 109.934C89.5164 110.388 89.4378 110.926 89.5578 111.437C89.7812 112.394 88.3946 114.534 89.3263 114.534C89.4815 114.534 88.6561 114.446 88.8155 114.409C89.3371 114.286 93.3377 112.66 120.689 98.2282C131.286 92.6344 141.859 87.0161 145.888 84.8721L164.004 114.478C164.391 115.115 161.655 110.058 162.348 110.058C162.713 110.057 163.07 109.959 163.384 109.774C163.699 109.589 163.958 109.323 164.136 109.003C164.314 108.684 164.405 108.323 164.398 107.957C164.391 107.592 164.288 107.234 164.098 106.922H164.096ZM140.489 30.9157C142.025 30.9175 143.498 31.5311 144.585 32.6218C145.671 33.7125 146.282 35.1913 146.283 36.7337C146.281 38.2753 145.669 39.7531 144.583 40.8429C143.497 41.9327 142.025 42.5458 140.489 42.5476C138.952 42.5458 137.479 41.9322 136.393 40.8415C135.306 39.7508 134.695 38.2721 134.693 36.7296C134.696 35.1878 135.308 33.7101 136.394 32.6203C137.48 31.5305 138.953 30.9175 140.489 30.9157ZM126.806 59.493L115.19 65.7827C114.458 66.18 113.601 66.2781 112.799 66.0565C111.996 65.8348 111.31 65.3106 110.883 64.5931L106.925 57.9629C108.994 56.9169 112.907 54.8003 120.568 50.4426C125.677 47.5356 130.68 44.6383 133.034 43.2709C133.962 44.3396 135.108 45.196 136.394 45.7824C137.68 46.3687 139.076 46.6715 140.489 46.6701C141.654 46.6713 142.809 46.4653 143.902 46.0616C145.666 48.852 147.231 51.7639 148.585 54.7757C150.816 59.7746 153.184 66.9449 151.793 72.6809C151.119 75.4634 149.646 77.6457 147.312 79.3084L136.947 62.2522C135.931 60.5753 134.313 59.3539 132.426 58.8404C130.538 58.327 128.527 58.5606 126.806 59.493Z" fill="#F99746"/>
<path d="M146.941 33.5448C146.808 33.5446 146.678 33.5 146.572 33.4179C146.466 33.3358 146.391 33.2209 146.357 33.0911C146.323 32.9613 146.333 32.8239 146.386 32.7004C146.438 32.5769 146.529 32.4743 146.646 32.4085L162.956 23.2583C163.096 23.1798 163.261 23.1603 163.415 23.204C163.569 23.2477 163.7 23.3511 163.778 23.4915C163.856 23.6318 163.875 23.7976 163.832 23.9524C163.788 24.1071 163.685 24.2381 163.546 24.3167L147.236 33.4682C147.146 33.5184 147.044 33.5447 146.941 33.5448Z" fill="#F99746"/>
<path d="M136.32 30.8267C136.22 30.8262 136.122 30.8009 136.034 30.7532C135.947 30.7055 135.872 30.6368 135.817 30.5533L129.851 21.6656C129.807 21.5996 129.776 21.5255 129.76 21.4475C129.744 21.3696 129.744 21.2892 129.759 21.2111C129.774 21.133 129.805 21.0587 129.849 20.9924C129.892 20.9261 129.949 20.8691 130.014 20.8247C130.147 20.7348 130.311 20.7016 130.468 20.7324C130.625 20.7632 130.764 20.8554 130.854 20.9887L136.82 29.8764C136.864 29.9424 136.895 30.0165 136.911 30.0945C136.926 30.1724 136.927 30.2528 136.911 30.3309C136.896 30.409 136.866 30.4833 136.822 30.5496C136.778 30.6159 136.722 30.6729 136.656 30.7173C136.557 30.7867 136.44 30.8248 136.32 30.8267Z" fill="#F99746"/>
<path d="M140.488 39.6033C142.069 39.6033 143.351 38.3165 143.351 36.7291C143.351 35.1418 142.069 33.855 140.488 33.855C138.906 33.855 137.625 35.1418 137.625 36.7291C137.625 38.3165 138.906 39.6033 140.488 39.6033Z" fill="#F99746"/>
<path d="M126.605 132.508L117.502 117.533C116.355 115.646 114.537 114.266 112.416 113.673C110.295 113.079 108.028 113.316 106.074 114.335L91.5537 121.913V132.726L126.605 132.508Z" fill="#BBCDFE"/>
<path d="M91.5534 101.607C91.4731 100.875 119.958 86.1161 130.163 80.8533C130.614 80.6199 131.011 80.2942 131.329 79.8973C131.647 79.5004 131.879 79.0409 132.01 78.5486C132.14 78.0563 132.167 77.542 132.087 77.0389C132.008 76.5357 131.824 76.0549 131.548 75.6273L131.003 74.7809C130.647 74.2319 130.102 73.834 129.472 73.6635C128.842 73.4929 128.171 73.5617 127.588 73.8566L113.857 80.8013C112.549 81.4627 111.043 81.6123 109.632 81.2211C108.22 80.8299 107.004 79.9259 106.219 78.6847L91.4526 54.1602L91.5534 101.607Z" fill="#BBCDFE"/>
<path d="M98.9348 29.6738L105.745 41.3617C106.418 42.5149 107.514 43.3575 108.798 43.7088C110.082 44.06 111.452 43.8919 112.615 43.2405L119.792 39.2178C120.517 38.81 121.132 38.2304 121.583 37.5295C122.034 36.8286 122.307 36.0277 122.38 35.1965C122.525 33.5461 122.924 31.3829 123.938 29.5411C124.369 28.7542 124.584 27.8667 124.561 26.9691C124.539 26.0715 124.28 25.1959 123.811 24.4314C123.357 23.6859 122.72 23.07 121.96 22.6426C121.201 22.2153 120.345 21.9908 119.474 21.9907H103.325C99.3952 21.988 96.9502 26.2664 98.9348 29.6738Z" fill="#BBCDFE"/>
<path d="M161.99 34.2817V62.3791C160.396 56.4996 157.605 51.2025 155.85 48.2176C155.425 47.4869 155.172 46.6686 155.109 45.8249C155.047 44.9812 155.176 44.1343 155.489 43.3485C156.018 41.941 156.361 40.47 156.51 38.973C156.609 38.0764 156.964 37.2276 157.532 36.5285C158.1 35.8295 158.857 35.31 159.713 35.0324L161.99 34.2817Z" fill="#BBCDFE"/>
<path d="M159.355 82.3571C160.474 81.0145 161.364 79.4955 161.99 77.8613V93.6335L158.787 86.8953C158.439 86.1635 158.308 85.3471 158.408 84.5427C158.509 83.7383 158.837 82.9798 159.355 82.3571Z" fill="#BBCDFE"/>
<path d="M161.99 120.084V132.73H147.054L131.153 108.222C130.67 107.478 130.344 106.642 130.196 105.766C130.048 104.89 130.08 103.993 130.291 103.13C130.502 102.267 130.888 101.457 131.424 100.75C131.959 100.043 132.634 99.4533 133.406 99.0185L137.885 96.4985C139.76 95.4438 141.968 95.1537 144.05 95.6882C146.133 96.2228 147.931 97.541 149.072 99.3699L161.99 120.084Z" fill="#BBCDFE"/>
<path d="M114.648 57.6948L129.57 49.6276C129.933 49.4313 130.336 49.3203 130.747 49.3027C131.159 49.2852 131.569 49.3617 131.947 49.5264C133.865 50.3646 137.747 51.87 140.828 51.8508C141.341 51.8484 141.845 51.9914 142.281 52.2636C142.716 52.5357 143.067 52.9259 143.291 53.3891C144.408 55.6972 146.337 59.9783 147.388 64.0324C148.147 66.9571 144.3 68.7634 142.542 66.309L135.85 56.9606C135.49 56.4579 134.97 56.0928 134.376 55.9252C133.782 55.7575 133.149 55.7972 132.581 56.0376L116.994 62.6227C116.378 62.8822 115.689 62.9057 115.057 62.6886C114.425 62.4716 113.895 62.0292 113.567 61.4454C113.389 61.1287 113.276 60.7796 113.234 60.4185C113.192 60.0573 113.223 59.6914 113.323 59.3422C113.424 58.993 113.593 58.6674 113.821 58.3845C114.048 58.1017 114.33 57.8672 114.648 57.6948Z" fill="#BBCDFE"/>
<path d="M145.014 136.484H108.616C108.413 136.485 108.219 136.566 108.075 136.71C107.932 136.854 107.851 137.049 107.85 137.253C107.851 137.456 107.932 137.651 108.075 137.795C108.219 137.939 108.413 138.02 108.616 138.02H145.014C145.217 138.02 145.411 137.939 145.554 137.795C145.697 137.651 145.778 137.456 145.778 137.253C145.778 137.049 145.697 136.854 145.554 136.71C145.411 136.566 145.217 136.485 145.014 136.484Z" fill="#A2B8F7"/>
<path d="M145.014 139.85H108.616C108.413 139.85 108.219 139.932 108.075 140.075C107.932 140.219 107.851 140.414 107.85 140.618C107.851 140.822 107.932 141.017 108.075 141.161C108.219 141.305 108.413 141.386 108.616 141.386H145.014C145.217 141.386 145.412 141.306 145.555 141.161C145.699 141.017 145.78 140.822 145.78 140.618C145.78 140.414 145.699 140.219 145.555 140.075C145.412 139.931 145.217 139.85 145.014 139.85Z" fill="#A2B8F7"/>
<path d="M98.8082 134.3C97.9447 134.3 97.1166 134.645 96.5062 135.258C95.8957 135.871 95.5527 136.702 95.5527 137.569C95.5527 139.374 98.8082 143.387 98.8082 143.387C98.8082 143.387 102.065 139.374 102.065 137.569C102.065 136.702 101.722 135.87 101.111 135.257C100.5 134.644 99.672 134.3 98.8082 134.3ZM98.8082 139.064C98.4047 139.064 98.0177 138.903 97.7323 138.616C97.447 138.33 97.2867 137.941 97.2867 137.536C97.2865 137.336 97.3258 137.137 97.4021 136.951C97.4785 136.766 97.5906 136.597 97.7319 136.455C97.8732 136.313 98.041 136.201 98.2256 136.124C98.4103 136.047 98.6083 136.008 98.8082 136.008C99.2121 136.008 99.5994 136.169 99.885 136.455C100.171 136.742 100.331 137.131 100.331 137.536C100.331 137.941 100.17 138.33 99.8845 138.616C99.599 138.903 99.2118 139.064 98.8082 139.064Z" fill="#D3671E"/>
<path d="M122.907 72.8145C122.479 72.8143 122.055 72.8987 121.66 73.0629C121.265 73.2271 120.905 73.4679 120.603 73.7715C120.3 74.0751 120.06 74.4356 119.896 74.8323C119.733 75.2291 119.648 75.6543 119.648 76.0838C119.648 77.8887 122.905 81.9031 122.905 81.9031C122.905 81.9031 126.161 77.8887 126.161 76.0838C126.161 75.2172 125.818 74.386 125.208 73.773C124.598 73.16 123.77 72.8152 122.907 72.8145ZM122.907 77.5783C122.503 77.5783 122.116 77.4174 121.83 77.131C121.545 76.8446 121.384 76.4562 121.384 76.051C121.384 75.6456 121.545 75.257 121.83 74.9704C122.116 74.6838 122.503 74.5226 122.907 74.5223C123.31 74.5226 123.697 74.6838 123.983 74.9705C124.268 75.2571 124.428 75.6458 124.428 76.051C124.428 76.456 124.268 76.8445 123.982 77.1309C123.697 77.4173 123.31 77.5783 122.907 77.5783Z" fill="#D3671E"/>
<path d="M156.621 146.54H148.963C148.963 146.54 147.281 146.813 146.59 151.933C145.899 157.052 143.885 166.168 143.885 166.168H154.041L156.621 146.54Z" fill="#163560"/>
<path d="M151.442 166.168C152.328 166.066 192.714 166.168 192.714 166.168C192.714 166.168 194.349 165.939 192.895 158.982C192.821 158.615 192.773 158.244 192.752 157.871C192.623 155.978 192.959 153.717 192.842 151.9C192.842 151.9 193.36 146.078 185.623 146.561C177.886 147.043 163.781 147.09 158.462 146.536C153.143 145.982 151.931 150.134 152.168 152.745C152.201 153.351 152.193 153.958 152.143 154.562C151.886 158.569 150.697 166.253 151.442 166.168Z" fill="#1C468A"/>
<path d="M163.418 148.934C163.443 148.892 166.093 144.6 170.48 144.336C174.918 144.062 179.346 148.438 179.391 148.484L180.345 147.527C180.147 147.33 175.451 142.681 170.401 142.986C165.297 143.294 162.388 148.033 162.267 148.235L163.418 148.934Z" fill="#1C468A"/>
<path d="M198.469 138.15C198.487 137.437 198.322 136.732 197.99 136.102C197.658 135.471 197.171 134.937 196.574 134.55C194.607 133.262 191.252 131.743 186.642 132.037C178.857 132.533 177.127 136.873 176.881 140.222C176.634 143.57 174.039 148.408 173.421 152.129C172.802 155.849 171.771 165.315 177.285 166.058C182.799 166.8 201.277 166.058 201.277 166.058C201.277 166.058 205.582 160.998 201.277 151.26C198.724 145.489 198.403 140.684 198.469 138.15Z" fill="#AA413E"/>
<path d="M202.23 138.15C202.248 137.438 202.083 136.732 201.751 136.102C201.419 135.471 200.932 134.937 200.335 134.55C198.367 133.262 195.013 131.743 190.401 132.037C182.618 132.533 180.888 136.873 180.64 140.222C180.392 143.57 177.799 148.408 177.182 152.129C176.565 155.849 175.531 165.315 181.045 166.058C186.559 166.8 204.981 166.168 204.981 166.168C204.981 166.168 209.34 160.993 205.037 151.264C202.483 145.489 202.164 140.684 202.23 138.15Z" fill="#B64C41"/>
<path d="M179.982 153.493H191.016C191.016 153.493 191.757 161.596 186.485 161.844C181.214 162.093 179.818 158.702 179.982 153.493Z" fill="#AA413E"/>
<path d="M179.982 153.493C179.982 153.493 181.877 156.386 185.336 156.304C188.794 156.222 191.024 153.493 191.024 153.493H179.982Z" fill="#B64C41"/>
<path d="M193.26 153.493H204.293C204.293 153.493 205.034 161.596 199.763 161.844C194.492 162.093 193.095 158.702 193.26 153.493Z" fill="#AA413E"/>
<path d="M193.26 153.493C193.26 153.493 195.154 156.386 198.613 156.304C202.073 156.222 204.298 153.493 204.298 153.493H193.26Z" fill="#B64C41"/>
<path d="M194.913 137.306H189.043C186.314 137.306 184.102 139.527 184.102 142.267C184.102 145.007 186.314 147.228 189.043 147.228H194.913C197.642 147.228 199.854 145.007 199.854 142.267C199.854 139.527 197.642 137.306 194.913 137.306Z" fill="#AA413E"/>
<path d="M184.554 136.903C184.554 136.903 187.18 140.915 191.976 140.8C196.772 140.685 199.853 136.903 199.853 136.903H184.554Z" fill="#B64C41"/>
<path d="M196.081 133.144L194.606 132.994C194.626 132.487 194.462 131.991 194.144 131.596C193.744 131.137 193.078 130.88 192.166 130.836C191.303 130.794 190.618 130.984 190.175 131.405C189.553 131.996 189.536 132.895 189.536 132.909H188.054C188.054 132.848 188.054 131.382 189.144 130.34C189.89 129.618 190.934 129.31 192.243 129.347C193.584 129.413 194.607 129.848 195.286 130.638C196.215 131.73 196.087 133.088 196.081 133.144Z" fill="#B64C41"/>
<path d="M223.424 160.294C223.424 160.294 223.067 166.074 221.953 166.157C221.805 166.168 216.302 166.168 216.302 166.168H209.198C209.198 166.168 209.324 164.429 211.378 164.069C213.432 163.709 216.868 162.261 218.112 159.536C219.418 156.67 223.424 160.294 223.424 160.294Z" fill="#163560"/>
<path d="M223.829 160.695C223.829 160.695 221.693 161.412 220.026 161.412C218.826 161.397 217.633 161.226 216.476 160.904C216.476 160.904 216.068 157 213.862 148.401C212.702 143.889 211.046 138.098 208.686 130.899C202.17 110.997 200.189 99.3546 200.008 98.2512C199.999 98.1937 199.995 98.165 199.995 98.165L200.015 98.1555L220.048 89.3252C220.048 89.3252 217.573 116.755 220.729 127.284C221.209 128.941 221.591 130.626 221.876 132.328C223.875 143.763 223.829 160.695 223.829 160.695Z" fill="#699DEE"/>
<path d="M221.88 132.326L213.862 148.401C212.702 143.889 211.046 138.098 208.686 130.899C202.17 110.997 200.189 99.3546 200.008 98.2512C200.008 98.2183 200.008 98.1869 200.008 98.1555L220.041 89.3252C220.041 89.3252 217.566 116.755 220.722 127.284C221.205 128.941 221.592 130.624 221.88 132.326Z" fill="#3B76CA"/>
<path d="M207.778 160.294C207.778 160.294 207.421 166.074 206.307 166.157C206.158 166.168 193.492 166.388 193.492 166.388C193.492 166.388 193.677 164.429 195.73 164.064C197.782 163.699 201.22 162.256 202.464 159.531C203.773 156.67 207.778 160.294 207.778 160.294Z" fill="#163560"/>
<path d="M196.421 89.9707C196.421 89.9707 196.16 107.746 199.224 129.57C202.287 151.394 201.249 160.658 201.249 160.658C201.249 160.658 203.354 161.341 204.204 161.413C206.368 161.589 208.587 160.903 208.587 160.903C208.587 160.903 212.972 139.07 211.72 128.147C210.468 117.223 217.721 90.6681 217.721 90.6681L196.421 89.9707Z" fill="#699DEE"/>
<path d="M212.409 47.6777C212.409 47.6777 222.761 58.2226 223.258 62.3232C223.755 66.4239 218.266 72.8381 218.266 72.8381L212.409 47.6777Z" fill="#163560"/>
<path d="M210.625 48.3749L206.716 50.9482L201.065 49.8913C201.143 49.4332 201.516 47.5367 201.857 45.8166C201.877 45.7154 201.898 45.6142 201.917 45.5158C202.207 44.0527 202.462 42.7961 202.462 42.7961L207.738 40.4594L209.707 39.5884C209.707 39.6185 209.554 41.2114 209.534 41.4439C209.162 45.5718 210.625 48.3749 210.625 48.3749Z" fill="#FFB27D"/>
<path d="M201.6 47.1143C201.709 47.0678 209.315 45.0483 210.046 45.289C210.776 45.5296 211.203 46.942 211.203 46.942L200.255 49.4278C200.255 49.4278 200.202 47.705 201.6 47.1143Z" fill="#1C468A"/>
<path d="M220.538 92.1719C219.404 97.3677 200.515 97.9844 195.652 93.2657C195.098 92.7284 195.071 90.2275 195.279 86.8543C195.688 80.2651 196.999 70.3533 197.05 65.29C197.074 62.8439 197.409 60.3431 197.855 58.0719C198.433 55.1347 199.234 52.2462 200.251 49.4317C200.251 49.4317 209.474 46.4386 211.199 46.9486C219.517 49.3948 221.671 86.976 220.538 92.1719Z" fill="#1C468A"/>
<path d="M195.279 86.849C195.687 80.2598 196.999 70.348 197.05 65.2848C197.074 62.8386 197.409 60.3378 197.855 58.0666L203.404 57.0835C203.404 57.0835 208.829 79.326 195.279 86.849Z" fill="#163560"/>
<path d="M198.284 77.6648C198.284 77.6648 198.662 78.5728 197.868 79.1826C197.074 79.7924 196.559 80.7783 196.74 81.5002C196.922 82.2222 198.665 83.3981 199.269 83.208C199.872 83.018 200.967 82.5244 200.97 81.6876C200.97 81.2774 201.797 78.3485 200.324 77.2095C198.852 76.0705 198.284 77.6648 198.284 77.6648Z" fill="#FFB27D"/>
<path d="M204.509 48.3447C204.509 48.3447 199.081 49.1104 194.768 55.4891C190.456 61.8677 187.62 66.6096 188.414 68.9081C189.208 71.2066 196.445 79.1822 197.698 79.1822C198.951 79.1822 200.961 78.2716 201.074 76.222C201.074 76.222 196.245 68.5321 197.249 67.3835C197.678 66.8926 203.598 61.8704 204.482 64.1484C205.939 67.914 204.509 48.3447 204.509 48.3447Z" fill="#1C468A"/>
<path d="M209.14 41.5166C207.98 43.487 203.663 45.1907 201.862 45.8169C201.882 45.7157 201.903 45.6146 201.922 45.5161C202.212 44.0531 202.467 42.7965 202.467 42.7965L207.743 40.4597C208.901 40.4433 209.612 40.7058 209.14 41.5166Z" fill="#FCA56B"/>
<path d="M200.47 42.475C200.47 42.475 208.97 45.1358 210.54 39.7964C212.111 34.4569 214.264 31.2054 208.906 29.2802C203.547 27.355 201.887 29.0778 200.93 30.7323C199.974 32.3868 198.299 41.645 200.47 42.475Z" fill="#FFB27D"/>
<path d="M201.261 30.2182C201.261 30.2182 201.806 36.4313 203.084 36.162C204.362 35.8926 205.525 35.6916 205.338 37.5648C205.152 39.4381 203.375 41.6012 207.32 41.9321C211.265 42.263 216.935 32.0504 215.852 30.117C212.725 24.5382 196.745 23.4116 201.261 30.2182Z" fill="#163560"/>
<path d="M135.153 132.73L114.881 99.4721C114.797 99.3349 114.663 99.2367 114.507 99.199C114.351 99.1613 114.187 99.1873 114.05 99.2711C113.914 99.3554 113.816 99.4904 113.779 99.6467C113.741 99.803 113.767 99.9678 113.85 100.105L133.737 132.73H135.153Z" fill="#F99746"/>
<path d="M134.782 119.546C134.782 119.915 134.636 120.269 134.376 120.529C134.116 120.79 133.764 120.937 133.397 120.937C133.215 120.937 133.035 120.901 132.867 120.831C132.699 120.761 132.546 120.658 132.418 120.529C132.289 120.4 132.187 120.247 132.118 120.078C132.048 119.909 132.013 119.729 132.013 119.546C132.012 119.363 132.047 119.182 132.116 119.013C132.186 118.844 132.288 118.69 132.416 118.56C132.545 118.431 132.697 118.328 132.866 118.258C133.034 118.187 133.214 118.151 133.397 118.151C133.579 118.151 133.759 118.187 133.928 118.257C134.096 118.327 134.249 118.43 134.378 118.56C134.507 118.689 134.609 118.843 134.678 119.012C134.747 119.182 134.783 119.363 134.782 119.546Z" fill="#B64C41"/>
<path d="M133.397 116.128C132.493 116.128 131.627 116.488 130.989 117.129C130.35 117.77 129.991 118.64 129.991 119.546C129.991 120.453 130.35 121.322 130.989 121.963C131.305 122.281 131.68 122.533 132.093 122.704C132.507 122.876 132.949 122.965 133.397 122.965C134.3 122.965 135.166 122.604 135.804 121.963C136.443 121.322 136.802 120.453 136.802 119.546C136.802 118.64 136.443 117.77 135.804 117.129C135.166 116.488 134.3 116.128 133.397 116.128ZM133.397 122.349C132.656 122.349 131.946 122.054 131.422 121.528C130.898 121.003 130.604 120.29 130.604 119.546C130.604 118.803 130.898 118.09 131.422 117.564C131.946 117.039 132.656 116.743 133.397 116.743C134.137 116.743 134.847 117.039 135.371 117.564C135.895 118.09 136.189 118.803 136.189 119.546C136.189 120.29 135.895 121.003 135.371 121.528C134.847 122.054 134.137 122.349 133.397 122.349Z" fill="#B64C41"/>
<path d="M299.545 166.493H0.453596C0.333284 166.493 0.218117 166.444 0.133169 166.359C0.0482213 166.273 0.000357008 166.158 0 166.037C-5.39744e-07 165.916 0.0477452 165.8 0.13277 165.714C0.217795 165.629 0.333173 165.58 0.453596 165.58H299.545C299.665 165.58 299.781 165.629 299.866 165.714C299.951 165.8 299.999 165.916 299.999 166.037C299.998 166.158 299.95 166.273 299.865 166.359C299.781 166.444 299.665 166.493 299.545 166.493Z" fill="#283250"/>
</g>
<defs>
<clipPath id="clip0_252_6306">
<rect width="300" height="166.492" fill="white"/>
</clipPath>
</defs>
</svg>
