<svg width="21" height="15" viewBox="0 0 21 15" fill="none" xmlns="http://www.w3.org/2000/svg">
<path d="M10.3278 13.6437C9.80884 13.6427 9.2911 13.5945 8.78093 13.4996C8.62254 13.4743 8.47834 13.3934 8.37417 13.2715C8.27 13.1495 8.21269 12.9944 8.21251 12.834C8.21416 12.7352 8.2372 12.6379 8.28002 12.5488C8.32285 12.4596 8.38446 12.3809 8.46061 12.3178C8.53676 12.2548 8.62566 12.209 8.72119 12.1836C8.81672 12.1581 8.91661 12.1537 9.01403 12.1705C9.44722 12.2519 9.88698 12.2933 10.3278 12.2942C14.3251 12.2942 17.7971 8.7947 18.8879 7.57095C18.1605 6.75674 17.3612 6.00978 16.4997 5.33916C16.3582 5.22948 16.266 5.06806 16.2434 4.89043C16.2209 4.71279 16.2699 4.53349 16.3796 4.39195C16.4892 4.25041 16.6506 4.15824 16.8283 4.13571C17.0059 4.11318 17.1852 4.16214 17.3268 4.27182C18.4255 5.11834 19.4252 6.08616 20.3069 7.1569C20.3999 7.27565 20.4505 7.42214 20.4505 7.57299C20.4505 7.72384 20.3999 7.87034 20.3069 7.98909C20.1249 8.21809 15.8096 13.6437 10.3278 13.6437Z" fill="white" fill-opacity="0.8"/>
<path d="M17.5506 0.19967C17.4226 0.0718129 17.2491 0 17.0681 0C16.8872 0 16.7136 0.0718129 16.5856 0.19967L14.412 2.36604C13.5899 1.97065 12.7202 1.68304 11.8245 1.51033C11.3016 1.41206 10.7708 1.36243 10.2388 1.36208C4.69356 1.36208 0.328118 6.84292 0.145118 7.07601C0.0510979 7.19589 0 7.34384 0 7.49619C0 7.64855 0.0510979 7.7965 0.145118 7.91638C1.03632 8.99686 2.04667 9.97326 3.15696 10.827C3.68341 11.2374 4.23484 11.6147 4.80806 11.9567L2.93409 13.8276C2.86971 13.8899 2.81824 13.9643 2.7826 14.0465C2.74697 14.1287 2.72787 14.2171 2.7264 14.3066C2.72493 14.3962 2.74111 14.4852 2.77403 14.5685C2.80694 14.6518 2.85595 14.7278 2.91825 14.7922C2.98054 14.8566 3.05491 14.9081 3.1371 14.9437C3.21928 14.9793 3.30769 14.9984 3.39726 14.9999C3.48683 15.0014 3.57581 14.9852 3.65913 14.9523C3.74244 14.9194 3.81846 14.8703 3.88283 14.8081L3.89919 14.7917L17.5506 1.1617C17.6781 1.03405 17.7496 0.861057 17.7496 0.680691C17.7496 0.500326 17.6781 0.327325 17.5506 0.19967ZM3.99836 9.7515C3.12658 9.07392 2.31769 8.3191 1.58152 7.49619C2.68566 6.26119 6.19846 2.72488 10.2419 2.72488C10.6909 2.72536 11.1389 2.76746 11.5801 2.85063C12.1979 2.96793 12.8014 3.1506 13.3805 3.39554L12.123 4.65099C11.4675 4.21703 10.6822 4.02282 9.90002 4.10124C9.11782 4.17966 8.38673 4.52589 7.83043 5.08134C7.27414 5.63679 6.92681 6.36736 6.8472 7.14944C6.7676 7.93152 6.96062 8.71709 7.39359 9.37323L5.80383 10.963C5.1722 10.6055 4.56864 10.2005 3.99836 9.7515ZM8.39447 8.37133C8.26157 8.09864 8.19169 7.79954 8.19 7.49619C8.19013 6.95535 8.404 6.43649 8.78501 6.05264C9.08911 5.76403 9.4725 5.57286 9.88599 5.50364C10.2995 5.43442 10.7242 5.49031 11.1057 5.66414L8.39447 8.37133Z" fill="white" fill-opacity="0.8"/>
</svg>
