<svg width="20" height="20" viewBox="0 0 20 20" fill="none" xmlns="http://www.w3.org/2000/svg">
<path d="M2.70752 16.8251C2.70752 17.123 2.82586 17.4087 3.03651 17.6194C3.24716 17.83 3.53287 17.9484 3.83077 17.9484H15.5434C15.8413 17.9484 16.127 17.83 16.3377 17.6194C16.5483 17.4087 16.6667 17.123 16.6667 16.8251V7.86334H2.70752V16.8251ZM12.3741 10.2486H14.1955V12.07H12.3741V10.2486ZM12.3741 13.3452H14.1955V15.1667H12.3741V13.3452ZM8.77748 10.2486H10.5967V12.07H8.77748V10.2486ZM8.77748 13.3452H10.5967V15.1667H8.77748V13.3452ZM5.17647 10.2486H6.9979V12.07H5.17647V10.2486ZM5.17647 13.3452H6.9979V15.1667H5.17647V13.3452Z" fill="white"/>
<path d="M13.2107 5.11152C13.2632 5.11152 13.3137 5.09063 13.3508 5.05346C13.388 5.01629 13.4089 4.96587 13.4089 4.9133V1.62724C13.4089 1.57467 13.388 1.52425 13.3508 1.48707C13.3137 1.4499 13.2632 1.42902 13.2107 1.42902C13.1581 1.42902 13.1077 1.4499 13.0705 1.48707C13.0333 1.52425 13.0125 1.57467 13.0125 1.62724V4.9133C13.0125 4.96587 13.0333 5.01629 13.0705 5.05346C13.1077 5.09063 13.1581 5.11152 13.2107 5.11152Z" fill="white"/>
<path d="M15.5434 3.16956H13.7991V4.9139C13.7991 5.0722 13.7362 5.22401 13.6243 5.33595C13.5123 5.44788 13.3605 5.51076 13.2022 5.51076C13.0439 5.51076 12.8921 5.44788 12.7802 5.33595C12.6682 5.22401 12.6053 5.0722 12.6053 4.9139V3.16956H6.76664V4.9139C6.77158 4.99518 6.75984 5.07662 6.73214 5.15319C6.70444 5.22977 6.66136 5.29987 6.60555 5.35917C6.54974 5.41848 6.48239 5.46573 6.40764 5.49804C6.33288 5.53034 6.25231 5.547 6.17088 5.547C6.08944 5.547 6.00887 5.53034 5.93412 5.49804C5.85936 5.46573 5.79201 5.41848 5.73621 5.35917C5.6804 5.29987 5.63732 5.22977 5.60961 5.15319C5.58191 5.07662 5.57017 4.99518 5.57511 4.9139V3.16956H3.83077C3.53304 3.17014 3.24768 3.28867 3.03716 3.49919C2.82663 3.70972 2.7081 3.99508 2.70752 4.29281V7.46654H16.6667V4.29281C16.6661 3.99508 16.5476 3.70972 16.337 3.49919C16.1265 3.28867 15.8411 3.17014 15.5434 3.16956Z" fill="white"/>
<path d="M6.16306 5.1116C6.18928 5.11189 6.21529 5.10698 6.2396 5.09715C6.2639 5.08731 6.28601 5.07276 6.30465 5.05432C6.32329 5.03589 6.33809 5.01394 6.34819 4.98974C6.35829 4.96555 6.36349 4.93959 6.36349 4.91338V1.62732C6.3583 1.57807 6.33507 1.53248 6.29826 1.49935C6.26146 1.46621 6.21369 1.44788 6.16416 1.44788C6.11464 1.44788 6.06687 1.46621 6.03007 1.49935C5.99326 1.53248 5.97003 1.57807 5.96484 1.62732V4.91338C5.96484 4.96595 5.98573 5.01637 6.0229 5.05354C6.06007 5.09071 6.11049 5.1116 6.16306 5.1116Z" fill="white"/>
</svg>
