<svg width="18" height="18" viewBox="0 0 18 18" fill="none" xmlns="http://www.w3.org/2000/svg">
<g clip-path="url(#clip0_398_2707)">
<path d="M10.6875 0H2.0625C0.9225 0 0 0.9225 0 2.0625V13.6875C0 14.8275 0.9225 15.75 2.0625 15.75H7.5975L7.7625 14.8275C7.8375 14.4075 8.0325 14.0325 8.3325 13.725L12.75 9.315V2.0625C12.75 0.9225 11.8275 0 10.6875 0V0ZM3 3H6C6.4125 3 6.75 3.3375 6.75 3.75C6.75 4.1625 6.4125 4.5 6 4.5H3C2.5875 4.5 2.25 4.1625 2.25 3.75C2.25 3.3375 2.5875 3 3 3ZM6.75 10.5H3C2.5875 10.5 2.25 10.1625 2.25 9.75C2.25 9.3375 2.5875 9 3 9H6.75C7.1625 9 7.5 9.3375 7.5 9.75C7.5 10.1625 7.1625 10.5 6.75 10.5ZM9.75 7.5H3C2.5875 7.5 2.25 7.1625 2.25 6.75C2.25 6.3375 2.5875 6 3 6H9.75C10.1625 6 10.5 6.3375 10.5 6.75C10.5 7.1625 10.1625 7.5 9.75 7.5Z" fill="#33396D"/>
<path d="M9.39595 18.0001C9.2482 18.0001 9.1042 17.9416 8.99845 17.8351C8.8687 17.7053 8.8102 17.5208 8.84245 17.3393L9.23995 15.0856C9.25945 14.9723 9.31495 14.8673 9.39595 14.7856L14.9647 9.2176C15.6487 8.5321 16.3207 8.71735 16.6882 9.08485L17.616 10.0126C18.1282 10.5241 18.1282 11.3566 17.616 11.8688L12.0472 17.4376C11.9662 17.5193 11.8612 17.5741 11.7472 17.5936L9.49345 17.9911C9.4612 17.9971 9.4282 18.0001 9.39595 18.0001ZM11.6497 17.0401H11.6572H11.6497Z" fill="#33396D"/>
</g>
<defs>
<clipPath id="clip0_398_2707">
<rect width="18" height="18" fill="white"/>
</clipPath>
</defs>
</svg>
