<svg width="20" height="20" viewBox="0 0 20 20" fill="none" xmlns="http://www.w3.org/2000/svg">
<g clip-path="url(#clip0_19_557)">
<path d="M18.2423 3.55469H10.9657L12.4829 15.7297C12.5099 16.2277 12.3735 16.6965 12.0485 17.0633L9.479 20H18.2423C18.7083 19.9995 19.1551 19.8141 19.4847 19.4846C19.8142 19.155 19.9996 18.7082 20.0001 18.2422V5.35156C20.0001 4.38242 19.2114 3.55469 18.2423 3.55469ZM18.8282 8.67188L16.7657 14.6711C16.7256 14.7914 16.6368 14.8516 16.4993 14.8516H15.4251C15.2876 14.8516 15.1965 14.7914 15.1517 14.6711L13.1048 8.68125L13.0876 8.6125C13.087 8.59388 13.0906 8.57537 13.098 8.55828C13.1055 8.5412 13.1166 8.52597 13.1306 8.51367C13.1615 8.48686 13.2014 8.47289 13.2423 8.47461H14.4798C14.5712 8.47461 14.6313 8.52331 14.6603 8.6207L16.0696 12.9688C16.0751 13.0078 16.0896 13.0289 16.1126 13.0289C16.1356 13.0289 16.1556 13.0063 16.1728 12.9602L17.5399 8.62031C17.5485 8.57725 17.5724 8.53875 17.6071 8.51191C17.6419 8.48506 17.6852 8.47167 17.729 8.47422H18.6993C18.7235 8.47191 18.7479 8.47626 18.7698 8.48681C18.7917 8.49735 18.8103 8.51369 18.8236 8.53405C18.8368 8.55441 18.8443 8.57802 18.8451 8.60231C18.8459 8.62661 18.8401 8.65066 18.8282 8.67188Z" fill="#00CDA8"/>
<path d="M11.3184 15.9117C11.3184 15.8477 9.5457 1.60312 9.5375 1.53984C9.48398 1.11495 9.27736 0.724158 8.95636 0.440691C8.63535 0.157224 8.222 0.000540165 7.79375 0L1.75781 0C1.29177 0.000516964 0.844964 0.185881 0.515422 0.515422C0.185881 0.844964 0.000516964 1.29177 0 1.75781L0 14.7266C0.000516964 15.1926 0.185881 15.6394 0.515422 15.969C0.844964 16.2985 1.29177 16.4839 1.75781 16.4844H10.998C11.1691 16.2891 11.3125 16.1668 11.3184 15.9117ZM7.36406 11.4273C7.36406 11.5315 7.30677 11.5836 7.19219 11.5836H2.86094C2.80849 11.589 2.75603 11.5735 2.71484 11.5406C2.69893 11.5217 2.68694 11.4998 2.67956 11.4762C2.67219 11.4526 2.66957 11.4277 2.67188 11.4031V5.36875C2.67188 5.26016 2.71758 5.20547 2.80937 5.20547H7.14062C7.22656 5.20547 7.26953 5.25417 7.26953 5.35156L7.26094 6.125C7.26094 6.24531 7.20078 6.30547 7.08047 6.30547H4.33906C4.23008 6.30547 4.17578 6.35156 4.17578 6.44297V7.68906C4.17578 7.78672 4.21875 7.83516 4.30469 7.83516H6.12656C6.22383 7.83516 6.27266 7.88125 6.27266 7.97266V8.79766C6.27266 8.87813 6.22656 8.91797 6.13516 8.91797H4.29688C4.21641 8.91797 4.17656 8.95234 4.17656 9.02109V10.3703C4.17377 10.4006 4.18135 10.4309 4.19805 10.4562C4.20754 10.4657 4.21903 10.4729 4.23166 10.4774C4.2443 10.4818 4.25777 10.4834 4.27109 10.482H7.21016C7.31432 10.482 7.36641 10.525 7.36641 10.6109L7.36406 11.4273Z" fill="#00CDA8"/>
<path d="M6.84619 17.6562L6.94697 18.4602C7.01377 18.9984 7.37158 19.5477 7.95986 19.8219L9.92705 17.6562H6.84619Z" fill="#00CDA8"/>
</g>
<defs>
<clipPath id="clip0_19_557">
<rect width="20" height="20" fill="white"/>
</clipPath>
</defs>
</svg>
