<svg width="50" height="50" viewBox="0 0 50 50" fill="none" xmlns="http://www.w3.org/2000/svg">
<g clip-path="url(#clip0_252_5577)">
<path d="M47.889 23.8159H2.46381V49.9395H47.889V23.8159Z" fill="#4288BC"/>
<path d="M47.889 22.7817H2.46381V25.9451H47.889V22.7817Z" fill="#3679A3"/>
<path d="M44.9636 29.8066H34.224V38.1742H44.9636V29.8066Z" fill="#808080"/>
<path d="M16.1297 29.8071H5.38995V38.1743H16.1297V29.8071Z" fill="#2BA5F7"/>
<path d="M16.1297 29.8071V38.1743H10.5852L12.4675 29.8071H16.1297Z" fill="#8FD3F9"/>
<path d="M16.7378 38.7829H4.78149V29.1987H16.7378V38.7829ZM5.99819 37.5662H15.5211V30.4154H5.99819V37.5662Z" fill="#3679A3"/>
<path d="M31.0012 29.8066H19.3521V49.9395H31.0012V29.8066Z" fill="#E6E6E6"/>
<path d="M31.6704 49.9399H30.332V30.4761H20.0213V49.9399H18.6829V29.1377H31.6704V49.9399Z" fill="#3679A3"/>
<path d="M23.3735 41.1733H21.7307C21.3611 41.1733 21.0616 40.8738 21.0616 40.5041C21.0616 40.1345 21.3611 39.835 21.7307 39.835H23.3735C23.7431 39.835 24.0427 40.1345 24.0427 40.5041C24.0427 40.8738 23.7431 41.1733 23.3735 41.1733Z" fill="#666666"/>
<path d="M44.9636 33.3825H42.1488V29.8071C42.1488 29.4711 41.8764 29.1987 41.5405 29.1987C41.2045 29.1987 40.9321 29.4711 40.9321 29.8071V33.3825H38.2554V29.8071C38.2554 29.4711 37.983 29.1987 37.6471 29.1987C37.3111 29.1987 37.0387 29.4711 37.0387 29.8071V33.3825H34.224C33.8881 33.3825 33.6157 33.6549 33.6157 33.9908C33.6157 34.3267 33.8881 34.5991 34.224 34.5991H37.0387V38.1745C37.0387 38.5104 37.3111 38.7829 37.6471 38.7829C37.983 38.7829 38.2554 38.5104 38.2554 38.1745V34.5991H40.9321V38.1745C40.9321 38.5104 41.2045 38.7829 41.5405 38.7829C41.8764 38.7829 42.1488 38.5104 42.1488 38.1745V34.5991H44.9636C45.2996 34.5991 45.572 34.3267 45.572 33.9908C45.572 33.6549 45.2996 33.3825 44.9636 33.3825Z" fill="#666666"/>
<path d="M45.572 38.7829H33.6157V29.1987H45.572V38.7829ZM34.8324 37.5662H44.3553V30.4154H34.8324V37.5662Z" fill="#3679A3"/>
<path d="M50 9.92627V23.816H47.889V23.8148H2.46379V23.816H0.755554V10.5991L0.756771 10.5979L50 9.92627Z" fill="#E6E6E6"/>
<path d="M14.6003 7.36022C14.6003 8.263 14.4361 9.12807 14.1368 9.92622C13.0977 12.693 10.4295 14.6604 7.30016 14.6604C4.4312 14.6604 1.94914 13.0057 0.756783 10.5978C0.272539 9.62205 0 8.52338 0 7.36022C0 3.3281 3.26804 0.0600586 7.30016 0.0600586C11.3323 0.0600586 14.6003 3.3281 14.6003 7.36022Z" fill="#4288BC"/>
<path d="M22.2858 20.0974C20.8836 20.0974 19.7428 18.9566 19.7428 17.5544V16.1871C19.7428 14.7848 20.8836 13.644 22.2858 13.644C23.6879 13.644 24.8287 14.7848 24.8287 16.1871V17.5544C24.8288 18.9566 23.688 20.0974 22.2858 20.0974ZM22.2858 14.9825C21.6216 14.9825 21.0812 15.5229 21.0812 16.1872V17.5545C21.0812 18.2187 21.6215 18.7591 22.2858 18.7591C22.95 18.7591 23.4903 18.2188 23.4903 17.5545V16.1872C23.4905 15.523 22.95 14.9825 22.2858 14.9825Z" fill="#4288BC"/>
<path d="M38.6361 20.0974C37.2339 20.0974 36.0931 18.9566 36.0931 17.5544V16.1871C36.0931 14.7848 37.2339 13.644 38.6361 13.644C39.4822 13.644 40.2704 14.063 40.7444 14.7647C40.9512 15.071 40.8707 15.487 40.5644 15.6938C40.2582 15.9008 39.8422 15.8202 39.6352 15.5139C39.4104 15.181 39.0369 14.9823 38.636 14.9823C37.9718 14.9823 37.4313 15.5226 37.4313 16.1869V17.5543C37.4313 18.2184 37.9717 18.7589 38.636 18.7589C39.1213 18.7589 39.5571 18.4701 39.7462 18.0229C39.8901 17.6825 40.2828 17.5235 40.6232 17.6673C40.9635 17.8112 41.1228 18.2038 40.9788 18.5443C40.5799 19.4878 39.6603 20.0974 38.6361 20.0974Z" fill="#4288BC"/>
<path d="M29.6692 20.0973H27.4771C27.1074 20.0973 26.8079 19.7977 26.8079 19.4281V14.3132C26.8079 13.9436 27.1074 13.644 27.4771 13.644C27.8467 13.644 28.1463 13.9436 28.1463 14.3132V18.7589H29.6692C30.0388 18.7589 30.3384 19.0584 30.3384 19.4281C30.3384 19.7977 30.0388 20.0973 29.6692 20.0973Z" fill="#4288BC"/>
<path d="M32.7927 20.0973C32.4231 20.0973 32.1235 19.7977 32.1235 19.4281V14.3132C32.1235 13.9436 32.4231 13.644 32.7927 13.644C33.1623 13.644 33.4619 13.9436 33.4619 14.3132V19.4281C33.4619 19.7977 33.1623 20.0973 32.7927 20.0973Z" fill="#4288BC"/>
<path d="M45.7342 20.0973H43.542C43.1724 20.0973 42.8729 19.7977 42.8729 19.4281V14.3132C42.8729 13.9436 43.1724 13.644 43.542 13.644H45.7342C46.1038 13.644 46.4033 13.9436 46.4033 14.3132C46.4033 14.6829 46.1038 14.9824 45.7342 14.9824H44.2112V18.7589H45.7342C46.1038 18.7589 46.4033 19.0584 46.4033 19.4281C46.4033 19.7977 46.1038 20.0973 45.7342 20.0973Z" fill="#4288BC"/>
<path d="M45.2958 17.5762H43.542C43.1724 17.5762 42.8729 17.2766 42.8729 16.907C42.8729 16.5373 43.1724 16.2378 43.542 16.2378H45.2958C45.6654 16.2378 45.965 16.5373 45.965 16.907C45.965 17.2766 45.6654 17.5762 45.2958 17.5762Z" fill="#4288BC"/>
<path d="M14.8185 20.0973C14.4488 20.0973 14.1493 19.7977 14.1493 19.4281V14.3132C14.1493 13.9436 14.4488 13.644 14.8185 13.644H16.0972C17.2317 13.644 18.1546 14.567 18.1546 15.7015C18.1546 16.8359 17.2317 17.759 16.0972 17.759H15.4877V19.4281C15.4877 19.7977 15.1881 20.0973 14.8185 20.0973ZM15.4877 16.4207H16.0972C16.4937 16.4207 16.8163 16.0981 16.8163 15.7016C16.8163 15.3051 16.4937 14.9824 16.0972 14.9824H15.4877V16.4207Z" fill="#4288BC"/>
<path d="M7.30027 1.53906L9.28896 4.83435L13.0376 5.70745L10.5179 8.61705L10.8461 12.4519L7.30027 10.9548L3.75447 12.4519L4.08261 8.61705L1.56308 5.70745L5.31171 4.83435L7.30027 1.53906Z" fill="#FCCC8B"/>
</g>
<defs>
<clipPath id="clip0_252_5577">
<rect width="50" height="50" fill="white"/>
</clipPath>
</defs>
</svg>
