<svg width="40" height="40" viewBox="0 0 40 40" fill="none" xmlns="http://www.w3.org/2000/svg">
<g clip-path="url(#clip0_416_493)">
<path d="M0.476562 14.2914L2.42188 12.8563V19.2352L0 18.0297V15.2344C0 14.8625 0.176563 14.5125 0.476562 14.2914Z" fill="#F4B334"/>
<path d="M40 15.2344V18.0297L37.5781 19.2352V12.8563L39.5234 14.2914C39.8234 14.5125 40 14.8625 40 15.2344Z" fill="#F4B334"/>
<path d="M40 20.6476V38.8281C40 39.475 39.475 40 38.8281 40H1.17188C0.525 40 0 39.475 0 38.8281V20.6476C1.17523 21.2329 18.3309 29.7752 19.4773 30.3461C19.6422 30.4281 19.8211 30.4687 20 30.4687C20.1789 30.4687 20.3578 30.4281 20.5227 30.3461C21.6375 29.791 39.7373 20.7784 40 20.6476Z" fill="#F4B334"/>
<path d="M23.5156 2.34375H16.4844L19.2969 0.234375C19.7133 -0.078125 20.2867 -0.078125 20.7031 0.234375L23.5156 2.34375Z" fill="#F4B334"/>
<path d="M34.0625 4.6875H5.9375C5.29063 4.6875 4.76562 5.2125 4.76562 5.85938V20.4023L20 27.9883L35.2344 20.4023V5.85938C35.2344 5.2125 34.7094 4.6875 34.0625 4.6875ZM20 18.75H12.9688C12.3219 18.75 11.7969 18.225 11.7969 17.5781C11.7969 16.9312 12.3219 16.4062 12.9688 16.4062H20C20.6469 16.4062 21.1719 16.9312 21.1719 17.5781C21.1719 18.225 20.6469 18.75 20 18.75ZM27.0312 14.0625H12.9688C12.3219 14.0625 11.7969 13.5375 11.7969 12.8906C11.7969 12.2438 12.3219 11.7188 12.9688 11.7188H27.0312C27.6781 11.7188 28.2031 12.2438 28.2031 12.8906C28.2031 13.5375 27.6781 14.0625 27.0312 14.0625Z" fill="#F4B334"/>
</g>
<defs>
<clipPath id="clip0_416_493">
<rect width="40" height="40" fill="white"/>
</clipPath>
</defs>
</svg>
