<svg width="300" height="180" viewBox="0 0 300 180" fill="none" xmlns="http://www.w3.org/2000/svg">
<g clip-path="url(#clip0_252_6062)">
<path d="M20.7519 178.449C44.5884 146.593 29.1106 118.35 21.4709 80.5738C2.74691 20.4099 75.6496 -28.1556 148.556 18.8495C193.783 48.0089 236.011 18.4937 269.933 49.1343C296.911 73.5012 270.046 124.92 269.463 148.091C269.005 166.357 284.774 178.449 284.774 178.449H20.7519Z" fill="#E8EEFF"/>
<path d="M299.469 179.648H0.529861C0.389334 179.648 0.254563 179.593 0.155195 179.494C0.0558278 179.394 9.75925e-07 179.26 9.75925e-07 179.12C-0.000132743 179.051 0.0134762 178.982 0.0400441 178.918C0.0666121 178.853 0.10562 178.795 0.154835 178.746C0.20405 178.697 0.262506 178.658 0.326858 178.631C0.391209 178.605 0.460193 178.591 0.529861 178.591H299.469C299.61 178.591 299.745 178.647 299.844 178.746C299.944 178.845 300 178.98 300 179.12C300 179.26 299.944 179.395 299.844 179.494C299.745 179.593 299.61 179.648 299.469 179.648Z" fill="black"/>
<path d="M253.225 170.129C254.85 170.129 256.459 169.81 257.96 169.191C259.461 168.571 260.825 167.662 261.974 166.517C263.123 165.372 264.034 164.012 264.656 162.516C265.278 161.019 265.598 159.415 265.598 157.796V140.98H240.854V157.796C240.854 161.067 242.158 164.203 244.477 166.516C246.797 168.829 249.944 170.129 253.225 170.129Z" fill="#6D92F0"/>
<path d="M265.601 179.787H266.972V153.688H265.601V179.787Z" fill="#425899"/>
<path d="M239.484 179.787H240.855V153.688H239.484V179.787Z" fill="#425899"/>
<path d="M249.978 179.787H251.349V153.688H249.978V179.787Z" fill="#425899"/>
<path d="M266.972 171.497V170.13H240.791V171.497H266.972Z" fill="#425899"/>
<path d="M249.111 109.217C251.423 110.444 249.596 113.457 250.543 116.314C251.49 119.171 255.294 119.101 253.857 124.213C252.972 127.356 249.837 125.388 249.909 129.485C249.98 133.582 251.536 133.477 250.329 135.582C248.225 139.25 241.056 137.198 241 133.102C240.944 129.006 244.382 127.612 241.477 125.707C238.571 123.802 237.409 122.935 239.321 120.211C241.688 116.839 245.358 116.942 244.331 114.31C243.304 111.678 246.053 107.595 249.111 109.217Z" fill="#BAC8F3"/>
<path d="M247.89 140.888L247.287 141.06C243.195 126.846 247.026 113.462 247.066 113.33L247.667 113.505C247.631 113.637 243.85 126.854 247.89 140.888Z" fill="#425899"/>
<path d="M279.789 106.234C281.496 109.286 277.247 111.353 276.23 115.251C275.213 119.148 279.767 120.268 274.427 124.976C271.14 127.876 270.333 126.212 269.391 132.365C268.561 137.781 264.21 132.896 261.32 136.2C257.592 140.458 250.967 131.878 253.887 127.23C256.807 122.583 260.55 123.551 258.667 119.305C256.785 115.059 258.588 111.693 262.722 110.014C267.839 107.936 269.943 112.199 270.705 108.493C271.468 104.788 277.531 102.197 279.789 106.234Z" fill="#9AADE5"/>
<path d="M255.35 140.963C261.032 122.248 274.904 110.131 275.044 110.01L274.496 109.377C274.354 109.499 260.298 121.776 254.547 140.721L255.35 140.963Z" fill="#425899"/>
<path d="M44.6633 59.7545C44.9176 61.2905 45.7739 62.6835 46.9506 63.6892C48.1272 64.695 49.6263 65.3185 51.1671 65.3185H65.6237C67.6577 65.3185 69.2626 64.2276 69.9673 62.6024C70.345 61.7031 70.4544 60.7143 70.2826 59.7545C70.0284 58.2185 69.172 56.8265 68.0005 55.8207C66.8289 54.815 65.3247 54.1915 63.784 54.1915H49.3273C48.6561 54.1876 47.9906 54.3151 47.3686 54.5666C45.418 55.3757 44.2749 57.3953 44.6633 59.7545Z" fill="#446BD0"/>
<path d="M64.8916 70.9121C65.0205 70.9127 65.1476 70.8828 65.2626 70.8248C65.3776 70.7668 65.4772 70.6824 65.5531 70.5785C65.6289 70.4747 65.679 70.3543 65.699 70.2274C65.7191 70.1005 65.7087 69.9707 65.6686 69.8486L63.7271 63.8425C63.6744 63.6785 63.5707 63.5354 63.431 63.4341C63.2913 63.3327 63.1229 63.2784 62.9501 63.2788C62.8214 63.2783 62.6943 63.3082 62.5794 63.3661C62.4645 63.4241 62.3651 63.5084 62.2892 63.6121C62.2134 63.7158 62.1633 63.836 62.1431 63.9628C62.1229 64.0896 62.1332 64.2193 62.1731 64.3413L64.1146 70.3474C64.1671 70.5116 64.2707 70.6549 64.4105 70.7564C64.5502 70.858 64.7187 70.9125 64.8916 70.9121Z" fill="#123E80"/>
<path d="M55.3166 70.9121C55.4455 70.9127 55.5727 70.8828 55.6877 70.8248C55.8027 70.7668 55.9022 70.6824 55.9781 70.5785C56.054 70.4747 56.104 70.3543 56.1241 70.2274C56.1442 70.1005 56.1337 69.9707 56.0936 69.8486L54.1522 63.8425C54.0995 63.6785 53.9958 63.5354 53.8561 63.4341C53.7164 63.3327 53.5479 63.2784 53.3752 63.2788C53.2464 63.2783 53.1194 63.3082 53.0045 63.3661C52.8896 63.4241 52.7901 63.5084 52.7143 63.6121C52.6384 63.7158 52.5883 63.836 52.5682 63.9628C52.548 64.0896 52.5583 64.2193 52.5982 64.3413L54.5396 70.3474C54.5922 70.5116 54.6958 70.6549 54.8355 70.7564C54.9752 70.858 55.1437 70.9125 55.3166 70.9121Z" fill="#123E80"/>
<path d="M47.0576 57.4065C47.3108 58.9425 48.1671 60.3355 49.3438 61.3443C50.5205 62.3531 52.0195 62.9715 53.5603 62.9715H68.0169C68.6853 62.9768 69.3481 62.8507 69.9675 62.6004C70.3452 61.7011 70.4546 60.7123 70.2828 59.7525C70.0286 58.2166 69.1722 56.8245 68.0007 55.8188C66.8291 54.8131 65.3249 54.1895 63.7842 54.1895H49.3275C48.6563 54.1857 47.9908 54.3131 47.3688 54.5647C46.9937 55.4626 46.8857 56.4491 47.0576 57.4065Z" fill="#AFC6FF"/>
<path d="M108.741 170.812H106.016V175.868H108.741V170.812Z" fill="#0D192B"/>
<path d="M88.309 170.812H85.5845V175.868H88.309V170.812Z" fill="#0D192B"/>
<path d="M65.4733 170.812H62.7488V175.868H65.4733V170.812Z" fill="#0D192B"/>
<path d="M64.7867 179.126C65.9342 179.126 66.8644 177.66 66.8644 175.851C66.8644 174.043 65.9342 172.577 64.7867 172.577C63.6392 172.577 62.709 174.043 62.709 175.851C62.709 177.66 63.6392 179.126 64.7867 179.126Z" fill="#0D192B"/>
<path d="M66.8004 179.126C67.9479 179.126 68.8781 177.66 68.8781 175.851C68.8781 174.043 67.9479 172.577 66.8004 172.577C65.6529 172.577 64.7227 174.043 64.7227 175.851C64.7227 177.66 65.6529 179.126 66.8004 179.126Z" fill="#0D192B"/>
<path d="M67.6008 178.862C66.7363 179.534 64.321 179.229 63.9833 178.881L63.967 172.839C64.6159 172.274 66.9031 172.294 67.5998 172.809L67.6008 178.862Z" fill="#0D192B"/>
<path d="M66.9968 178.007C67.7831 178.007 68.4206 177.002 68.4206 175.762C68.4206 174.523 67.7831 173.518 66.9968 173.518C66.2105 173.518 65.573 174.523 65.573 175.762C65.573 177.002 66.2105 178.007 66.9968 178.007Z" fill="#1E62CC"/>
<path d="M66.8463 177.195C67.3254 177.195 67.7138 176.583 67.7138 175.827C67.7138 175.072 67.3254 174.459 66.8463 174.459C66.3672 174.459 65.9788 175.072 65.9788 175.827C65.9788 176.583 66.3672 177.195 66.8463 177.195Z" fill="#0D192B"/>
<path d="M86.5365 179.126C87.684 179.126 88.6142 177.66 88.6142 175.851C88.6142 174.043 87.684 172.577 86.5365 172.577C85.389 172.577 84.4587 174.043 84.4587 175.851C84.4587 177.66 85.389 179.126 86.5365 179.126Z" fill="#0D192B"/>
<path d="M84.5228 179.126C85.6703 179.126 86.6005 177.66 86.6005 175.851C86.6005 174.043 85.6703 172.577 84.5228 172.577C83.3753 172.577 82.4451 174.043 82.4451 175.851C82.4451 177.66 83.3753 179.126 84.5228 179.126Z" fill="#0D192B"/>
<path d="M83.7214 178.862C84.5859 179.534 87.0013 179.229 87.3399 178.881L87.3552 172.839C86.7063 172.274 84.4191 172.294 83.7225 172.809L83.7214 178.862Z" fill="#0D192B"/>
<path d="M84.3264 178.007C85.1127 178.007 85.7502 177.002 85.7502 175.762C85.7502 174.523 85.1127 173.518 84.3264 173.518C83.54 173.518 82.9026 174.523 82.9026 175.762C82.9026 177.002 83.54 178.007 84.3264 178.007Z" fill="#1E62CC"/>
<path d="M84.4769 177.195C84.956 177.195 85.3444 176.583 85.3444 175.827C85.3444 175.072 84.956 174.459 84.4769 174.459C83.9978 174.459 83.6094 175.072 83.6094 175.827C83.6094 176.583 83.9978 177.195 84.4769 177.195Z" fill="#0D192B"/>
<path d="M107.288 179.126C108.436 179.126 109.366 177.66 109.366 175.851C109.366 174.043 108.436 172.577 107.288 172.577C106.141 172.577 105.211 174.043 105.211 175.851C105.211 177.66 106.141 179.126 107.288 179.126Z" fill="#0D192B"/>
<path d="M105.275 179.126C106.422 179.126 107.352 177.66 107.352 175.851C107.352 174.043 106.422 172.577 105.275 172.577C104.127 172.577 103.197 174.043 103.197 175.851C103.197 177.66 104.127 179.126 105.275 179.126Z" fill="#0D192B"/>
<path d="M104.473 178.862C105.338 179.534 107.754 179.229 108.092 178.881L108.107 172.839C107.458 172.274 105.171 172.294 104.474 172.809L104.473 178.862Z" fill="#0D192B"/>
<path d="M105.078 178.007C105.865 178.007 106.502 177.002 106.502 175.762C106.502 174.523 105.865 173.518 105.078 173.518C104.292 173.518 103.655 174.523 103.655 175.762C103.655 177.002 104.292 178.007 105.078 178.007Z" fill="#1E62CC"/>
<path d="M105.23 177.195C105.709 177.195 106.097 176.583 106.097 175.827C106.097 175.072 105.709 174.459 105.23 174.459C104.751 174.459 104.362 175.072 104.362 175.827C104.362 176.583 104.751 177.195 105.23 177.195Z" fill="#0D192B"/>
<path d="M89.3321 128.738H85.3638V169.941H89.3321V128.738Z" fill="#0D192B"/>
<path d="M110.63 171.31C110.63 171.276 110.661 171.242 110.661 171.209C110.661 169.027 99.8438 167.255 86.4987 167.255C73.1536 167.255 62.3337 169.027 62.3337 171.209C62.3337 171.242 62.3592 171.276 62.3642 171.31H110.63Z" fill="#1A56B3"/>
<path d="M84.0519 140.968H90.5027V133.125H84.0519V140.968Z" fill="#1A56B3"/>
<path d="M84.0519 168.573H90.5027V160.73H84.0519V168.573Z" fill="#1A56B3"/>
<path d="M75.2265 67.2031V67.2112C75.141 67.2031 75.0556 67.2031 74.9712 67.2031H75.2265Z" fill="#4A82DB"/>
<path d="M44.6196 71.0966C44.6209 71.5047 44.6694 71.9112 44.764 72.3082L58.1356 123.831C58.1943 124.082 58.2697 124.329 58.3613 124.57C58.8414 126.479 59.9601 128.168 61.5328 129.358C63.1055 130.548 65.0382 131.168 67.012 131.116L80.9906 130.755H108.54C110.126 130.762 111.652 130.152 112.794 129.054C113.352 128.525 113.796 127.889 114.1 127.184C114.404 126.48 114.562 125.721 114.564 124.953C114.565 124.402 114.478 123.854 114.304 123.331C113.532 120.981 111.11 119.377 108.377 119.377C108.377 119.377 95.9883 119.713 92.378 116.254C88.7676 112.794 80.6174 72.5464 80.6174 72.5464C79.9268 69.6853 77.0243 67.3484 74.0526 67.2166C73.9632 67.2085 73.8737 67.2085 73.7882 67.2085C73.7882 67.2085 55.0856 67.0422 49.3517 67.0676C48.9165 67.0676 48.5544 67.0676 48.2818 67.0767C48.0296 67.0767 47.875 67.0848 47.8171 67.0889H47.7998C45.8644 67.5147 44.6196 69.0872 44.6196 71.0966ZM62.2076 119.153H62.5565L62.7141 119.838L62.4924 119.539L62.2076 119.153Z" fill="#AFC6FF"/>
<path d="M63.5217 130.772C63.5217 130.798 63.4922 130.823 63.4922 130.848C63.4922 132.488 73.8066 133.817 86.5293 133.817C99.252 133.817 109.567 132.488 109.567 130.848C109.567 130.823 109.542 130.798 109.537 130.772H63.5217Z" fill="#1A56B3"/>
<path d="M44.6196 71.0965C44.6209 71.5045 44.6694 71.9111 44.764 72.308L58.1356 123.831C58.1943 124.082 58.2697 124.329 58.3613 124.57C58.8414 126.479 59.9601 128.168 61.5328 129.358C63.1055 130.548 65.0382 131.168 67.012 131.115L80.9906 130.755H108.54C110.126 130.762 111.652 130.152 112.794 129.054C113.352 128.525 113.796 127.889 114.1 127.184C114.404 126.479 114.562 125.721 114.564 124.953C114.565 124.402 114.478 123.854 114.304 123.331C112.726 127.423 66.6804 127.71 63.4789 122.413C60.3496 119.706 53.6526 73.5977 49.3517 67.0654C48.9165 67.0654 48.5544 67.0654 48.2818 67.0746C48.0296 67.0746 47.875 67.0827 47.8171 67.0867H47.7998C45.8644 67.5146 44.6196 69.087 44.6196 71.0965Z" fill="#446BD0"/>
<path d="M67.8652 73.6646C72.1193 70.5054 86.7143 68.0519 96.0555 72.4176C97.5393 73.8187 99.675 78.9062 101.009 83.6855L104.7 123.589H73.1201L67.8652 73.6646Z" fill="#C2D7FF"/>
<path d="M84.7983 75.5158C79.7774 76.2437 76.6552 72.751 75.9209 71.29L77.9417 58.7842L82.027 60.602C83.663 60.7391 85.2708 61.1102 86.8008 61.7041L88.0964 68.3742L88.3822 69.82C89.0341 71.2434 89.8192 74.7868 84.7983 75.5158Z" fill="#F7A594"/>
<path d="M79.2485 61.9575C79.4123 63.5047 81.4544 69.7753 88.2337 69.1234L86.9757 62.6003L79.2485 61.9575Z" fill="#E6836F"/>
<path d="M95.0303 54.151C94.7984 56.1787 94.233 60.6254 93.4468 62.4838C92.2509 65.3135 88.55 67.6028 86.1336 67.2134C83.408 66.5524 80.1333 64.47 78.7969 62.06C78.1695 60.3699 77.1484 56.5274 77.1158 53.4727C77.0487 47.0986 82.5802 43.5076 87.8462 44.1037C93.1122 44.6999 95.7544 47.8104 95.0303 54.151Z" fill="#F7A594"/>
<path d="M77.5177 57.801C77.1109 55.5705 78.7798 55.3069 79.8202 57.288C80.047 55.7925 79.8782 51.1207 81.7779 50.2498C83.937 49.2248 90.7662 52.3688 95.9438 49.7429C95.9438 49.7429 95.2746 42.5729 84.7069 42.9998C72.2741 44.8957 77.5177 57.801 77.5177 57.801Z" fill="#73382A"/>
<path d="M78.3628 59.4559C79.3682 59.1433 79.8539 57.8374 79.4478 56.5389C79.0416 55.2405 77.8973 54.4413 76.8919 54.7539C75.8866 55.0664 75.4008 56.3724 75.807 57.6708C76.2131 58.9692 77.3574 59.7684 78.3628 59.4559Z" fill="#F7A594"/>
<path d="M91.049 62.6366C90.6422 62.7116 89.9303 63.0422 89.2275 63.4193C88.2044 63.9597 87.2027 64.5761 87.2027 64.5761C87.2027 64.5761 84.1771 62.7512 84.2605 59.8252C84.3012 59.8698 84.3429 59.9134 84.3846 59.957C86.7348 62.372 91.049 62.6366 91.049 62.6366Z" fill="#A65B4A"/>
<path d="M91.0489 62.6366C90.6421 62.7117 89.9302 63.0422 89.2275 63.4193C86.1592 62.7198 84.8981 61.0753 84.3845 59.957C86.7348 62.372 91.0489 62.6366 91.0489 62.6366Z" fill="white"/>
<path d="M90.8871 61.2184C90.4912 61.1836 90.1115 61.0459 89.7857 60.819C89.7723 60.8091 89.7611 60.7966 89.7525 60.7824C89.744 60.7681 89.7384 60.7523 89.736 60.7359C89.7311 60.7027 89.7397 60.669 89.7598 60.6421C89.7798 60.6152 89.8098 60.5973 89.8431 60.5925C89.8764 60.5876 89.9102 60.5962 89.9372 60.6162C89.9779 60.6466 90.9379 61.3543 91.8085 60.6841C92.2865 60.3161 92.1614 60.0708 91.8288 59.4128C91.3 58.4309 90.9742 57.3532 90.8708 56.2435C90.8674 56.2105 90.8773 56.1776 90.8983 56.1519C90.9193 56.1263 90.9496 56.11 90.9827 56.1066C91.0157 56.1032 91.0488 56.1131 91.0745 56.134C91.1002 56.1549 91.1166 56.1852 91.12 56.2181C91.2206 57.2974 91.5378 58.3455 92.0526 59.3002C92.3963 59.9785 92.6028 60.3881 91.961 60.8818C91.6578 61.1238 91.2747 61.2439 90.8871 61.2184Z" fill="#A65B4A"/>
<path d="M87.5416 55.0591C87.5705 54.5902 87.384 54.1972 87.125 54.1813C86.866 54.1654 86.6326 54.5327 86.6037 55.0016C86.5747 55.4705 86.7612 55.8635 87.0202 55.8793C87.2792 55.8952 87.5127 55.528 87.5416 55.0591Z" fill="#1E1E1E"/>
<path d="M94.1292 55.3746C94.1028 55.8014 93.8902 56.136 93.6543 56.1218C93.4184 56.1076 93.2475 55.7497 93.2739 55.3219C93.3004 54.894 93.5129 54.5605 93.7499 54.5747C93.9869 54.5888 94.1557 54.9467 94.1292 55.3746Z" fill="#1E1E1E"/>
<path d="M94.6053 50.0712C94.6053 50.0712 99.792 49.5642 98.1648 44.5244C96.5589 46.1526 94.9256 45.3568 94.9256 45.3568C94.9256 45.3568 96.8295 42.9772 93.6808 39.4937C93.1784 41.6663 88.8531 42.6224 86.3777 41.9827C82.4562 40.9688 78.4889 42.3669 78.0678 46.1394C78.0678 46.1394 75.5019 46.763 76.3959 51.8464C80.3571 51.7075 82.1104 48.1063 85.0322 47.5882C87.9541 47.0702 90.4447 50.6582 94.6053 50.0712Z" fill="#73382A"/>
<path d="M89.5987 66.4236C89.5987 66.4236 87.7488 66.8565 86.7318 66.8292C85.3893 66.7977 83.2668 66.0576 83.2668 66.0576L86.7897 67.9363L89.5987 66.4236Z" fill="#A65B4A"/>
<path d="M86.1559 75.6235L85.6566 77.4149L89.2141 99.6365L87.3357 103.247L83.9867 99.6639L84.5399 77.4423L83.7324 76.2561L84.6762 74.9087L86.1559 75.6235Z" fill="#1951A6"/>
<path d="M88.2866 69.1629C88.2185 71.7989 86.1509 73.3004 84.6691 74.804C80.2747 73.6604 76.9399 70.9767 75.9677 68.4907L73.895 70.5418C74.2642 73.7506 76.8443 77.0679 80.7649 80.4501C81.3629 78.7266 82.2812 77.146 84.8939 75.7225L90.7742 77.3913C91.1067 75.1112 91.3651 72.9861 90.0287 70.3065L88.2866 69.1629Z" fill="#6D92F0"/>
<path d="M120.853 178.873C122.952 178.873 122.952 175.47 120.853 175.47C120.853 175.47 112.5 173.146 112.257 173.146C112.014 173.146 103.094 173.395 103.094 173.395C101.917 175.024 102.309 177.325 102.433 179.094L120.853 178.873Z" fill="#73382A"/>
<path d="M73.3174 178.939C73.1628 177.178 72.9106 175.299 74.131 173.697C76.2098 172.935 80.1435 171.173 84.1993 173.451C84.1993 173.451 84.2766 174.59 87.4192 175.884C88.2002 176.769 88.5145 177.659 88.1585 178.939H73.3174Z" fill="#73382A"/>
<path d="M102.759 173.146L111.569 127.998L85.561 123.6V111.221L105.575 111.235C104.683 111.235 124.656 109.859 127.453 120.664C130.251 131.468 113.293 173.006 113.293 173.006C110.87 172.673 105.291 174.349 103.21 175C101.432 175.564 100.944 174.555 102.759 173.146Z" fill="#0D192B"/>
<path d="M101.155 111.238L81.5551 127.193L83.1722 173.361C78.0017 170.522 72.335 175.939 71.8997 175.314C71.8997 175.314 71.2733 175.016 72.3137 172.544C70.3305 162.609 63.1017 125.353 65.3533 121.21C67.9538 116.425 72.3157 110.957 72.3157 110.957L101.155 111.238Z" fill="#0D192B"/>
<path d="M74.43 70.0239C74.7301 71.2203 78.2743 106.694 77.9743 112.077C77.6743 117.461 64.5163 118.645 64.7746 129.726C65.0462 141.495 65.4031 146.593 65.4031 146.593C60.5266 145.883 57.9099 140.191 57.197 136.278C56.0783 129.485 56.8776 121.761 61.9545 111.971C61.9545 111.971 63.3091 74.931 64.9994 73.7326C68.0107 71.5944 74.43 70.0239 74.43 70.0239Z" fill="white"/>
<path d="M71.7919 85.9565C71.7919 85.9565 70.1037 90.8687 70.1037 92.9045C70.1037 94.9403 79.9879 99.2187 79.9879 99.2187H63.8369V91.6017L71.7919 85.9565Z" fill="#AFC6FF"/>
<path d="M80.7537 100.744C80.7537 100.744 82.691 98.9988 85.7624 98.7555C88.8337 98.5121 91.5278 104.34 91.5278 104.34H80.8991L80.7537 100.744Z" fill="#F7B28A"/>
<path d="M86.578 98.8281C86.578 98.8281 91.4118 100.191 92.0871 100.37C92.4024 101.641 89.0758 101.092 87.536 100.527C85.8407 99.9048 86.578 98.8281 86.578 98.8281Z" fill="#F7B28A"/>
<path d="M65.3757 73.3624C62.4264 75.1873 54.2904 94.3106 54.2101 99.4579C54.1765 101.727 55.1254 103.976 59.4548 104.252C61.8437 104.406 82.1125 104.579 82.1125 104.579L81.8552 99.2186L66.5768 94.8712L71.2438 87.1508C76.8251 84.2866 72.0452 69.8109 65.3757 73.3624Z" fill="white"/>
<path d="M117.849 73.278C117.849 73.278 115.977 68.7157 116.207 67.4707C116.437 66.2257 121.04 64.6197 121.267 65.1713C121.494 65.7228 121.973 67.0854 118.96 67.9087C120.979 69.764 123.245 73.4544 117.849 73.278Z" fill="#F7A594"/>
<path d="M117.606 73.4848C117.606 73.4848 117.223 69.3686 117.894 67.713C118.784 65.5058 121.421 64.0864 121.421 64.0864C121.421 64.0864 126.081 67.7363 126.225 68.3912C126.368 69.0462 122.485 73.0874 122.485 73.0874C122.485 73.0874 119.591 75.8278 117.606 73.4848Z" fill="#F7A594"/>
<path d="M118.158 68.0855C118.158 68.0855 119.297 57.8162 120.92 58.1143C121.669 58.2511 120.615 68.0581 120.615 68.0581L118.158 68.0855Z" fill="#F7A594"/>
<path d="M117.326 71.9837C117.337 71.9873 117.349 71.9873 117.36 71.9837C117.366 71.9813 117.373 71.9776 117.378 71.9728C117.383 71.968 117.388 71.9622 117.391 71.9557C117.394 71.9492 117.396 71.9421 117.396 71.9349C117.397 71.9277 117.396 71.9205 117.393 71.9138C116.913 70.5704 116.127 68.2091 116.262 67.4812C116.439 66.5221 119.454 65.2619 120.753 65.127C121.141 65.0865 121.206 65.1676 121.216 65.194C121.367 65.5579 121.489 65.9939 121.258 66.4613C120.969 67.0463 120.191 67.5147 118.946 67.8533L118.844 67.8786L118.918 67.9466C119.757 68.7161 120.758 69.9276 121.053 71.0175C121.057 71.0315 121.067 71.0434 121.08 71.0507C121.092 71.0579 121.107 71.0598 121.122 71.056C121.129 71.0543 121.135 71.0511 121.141 71.0468C121.147 71.0424 121.151 71.037 121.155 71.0307C121.159 71.0245 121.161 71.0176 121.162 71.0105C121.163 71.0033 121.162 70.996 121.16 70.9891C120.865 69.9073 119.897 68.7151 119.063 67.9324C120.284 67.5877 121.054 67.1091 121.349 66.513C121.634 65.9371 121.407 65.3886 121.312 65.1544C121.259 65.0297 121.072 64.9851 120.735 65.0206C119.413 65.1574 116.338 66.4278 116.146 67.465C116.007 68.2172 116.798 70.5998 117.282 71.9533C117.286 71.9618 117.292 71.9692 117.3 71.9745C117.308 71.9799 117.317 71.9831 117.326 71.9837Z" fill="#E6836F"/>
<path d="M122.928 70.0341L122.975 70.0463L123.012 70.0544L123.034 70.0219C123.695 68.9807 125.271 68.561 125.288 68.5569C125.295 68.5551 125.302 68.552 125.308 68.5477C125.314 68.5433 125.318 68.5379 125.322 68.5317C125.326 68.5255 125.328 68.5186 125.329 68.5114C125.33 68.5043 125.33 68.497 125.328 68.49C125.326 68.483 125.323 68.4764 125.319 68.4706C125.314 68.4648 125.309 68.46 125.303 68.4563C125.296 68.4526 125.289 68.4502 125.282 68.4492C125.275 68.4482 125.268 68.4486 125.261 68.4505C125.195 68.4677 123.658 68.8763 122.961 69.9297C121.971 69.6458 120.579 67.3109 120.565 67.2876C120.562 67.2813 120.557 67.2759 120.551 67.2715C120.545 67.2671 120.539 67.2639 120.532 67.2621C120.525 67.2602 120.517 67.2598 120.51 67.2608C120.503 67.2618 120.496 67.2641 120.49 67.2678C120.483 67.2715 120.478 67.2763 120.473 67.2821C120.469 67.2879 120.466 67.2945 120.464 67.3015C120.462 67.3085 120.462 67.3158 120.463 67.323C120.464 67.3302 120.466 67.3371 120.47 67.3433C120.525 67.4407 121.895 69.737 122.928 70.0341Z" fill="#E6836F"/>
<path d="M117.786 72.165L116.099 78.5766L121.3 80.2404L121.936 72.9193L117.786 72.165Z" fill="#F7A594"/>
<path d="M101.843 75.306L112.478 85.9514L117.209 73.7041L123.399 75.6477C123.399 75.6477 123.323 93.5442 117.953 97.3978C109.728 102.407 95.6356 87.1244 95.6356 87.1244C90.1234 79.4445 98.5462 70.8481 101.843 75.306Z" fill="white"/>
<path d="M90.0979 70.466C90.0979 70.466 92.9394 109.376 98.0407 112.667C103.142 115.957 121.166 113.716 121.166 113.716C121.166 113.716 103.182 107.292 102.882 102.506C102.582 97.7193 101.421 74.9087 101.421 74.9087C99.7472 72.8647 94.4466 70.4437 90.0979 70.466Z" fill="white"/>
<path d="M91.9349 89.2319C92.2386 87.5835 91.7293 86.1088 90.7974 85.9382C89.8655 85.7676 88.8639 86.9655 88.5602 88.6139C88.2565 90.2623 88.7657 91.737 89.6976 91.9076C90.6295 92.0782 91.6312 90.8803 91.9349 89.2319Z" fill="#2E4882"/>
<path d="M93.1501 89.0365C93.3496 87.9589 93.0175 86.9944 92.4083 86.8823C91.7991 86.7702 91.1434 87.5528 90.9439 88.6304C90.7443 89.708 91.0764 90.6724 91.6856 90.7846C92.2949 90.8967 92.9505 90.114 93.1501 89.0365Z" fill="#6D92F0"/>
<path d="M91.5868 86.4929C91.6551 86.493 91.7208 86.4664 91.7698 86.4189C91.8188 86.3713 91.8473 86.3066 91.8491 86.2385C91.8491 86.1797 91.9976 80.201 91.1078 73.9425C90.283 68.1483 85.442 65.343 81.2937 65.1889C77.2715 65.0388 74.1696 67.2308 73.3926 70.7701C72.6939 73.9567 73.596 79.3879 73.6377 79.6221C73.6415 79.6575 73.6525 79.6919 73.6701 79.723C73.6876 79.754 73.7114 79.7812 73.7399 79.8028C73.7684 79.8244 73.801 79.8399 73.8358 79.8485C73.8705 79.857 73.9066 79.8584 73.9419 79.8525C73.9772 79.8466 74.011 79.8336 74.041 79.8142C74.0711 79.7949 74.0969 79.7696 74.1167 79.7399C74.1366 79.7103 74.1502 79.6769 74.1567 79.6418C74.1632 79.6067 74.1624 79.5707 74.1543 79.5359C74.1452 79.4801 73.2279 73.9699 73.9052 70.8827C74.6252 67.6019 77.5206 65.5721 81.2733 65.712C85.2112 65.859 89.806 68.5204 90.5881 74.0175C91.4718 80.2304 91.3264 86.1665 91.3254 86.2263C91.3243 86.2605 91.33 86.2947 91.3423 86.3267C91.3545 86.3587 91.3729 86.3881 91.3966 86.4129C91.4202 86.4378 91.4486 86.4578 91.48 86.4717C91.5114 86.4856 91.5453 86.4932 91.5796 86.494L91.5868 86.4929Z" fill="#0D192B"/>
<path d="M71.375 94.5835L73.0398 94.3706C73.074 94.3662 73.107 94.3551 73.1369 94.338C73.1668 94.3209 73.193 94.2981 73.2141 94.2709C73.2351 94.2437 73.2506 94.2126 73.2596 94.1794C73.2686 94.1463 73.271 94.1117 73.2666 94.0776C73.2622 94.0435 73.2511 94.0106 73.2339 93.9808C73.2168 93.951 73.1939 93.9248 73.1666 93.9038C73.1393 93.8828 73.1082 93.8674 73.0749 93.8584C73.0416 93.8495 73.0069 93.8471 72.9727 93.8515L71.7126 94.0137C70.002 89.5984 69.9034 84.8556 71.4858 82.4223C72.2659 81.223 73.4181 80.5822 74.908 80.5204C75.5799 80.4838 76.2521 80.5864 76.8822 80.8216C77.5123 81.0568 78.0867 81.4196 78.5693 81.887C81.7148 84.8272 82.2213 91.6099 82.2935 93.0657L81.3406 93.0292C81.3052 93.0262 81.2695 93.0303 81.2358 93.0413C81.202 93.0524 81.1709 93.0701 81.1442 93.0936C81.1175 93.117 81.0959 93.1455 81.0807 93.1775C81.0654 93.2095 81.0568 93.2443 81.0555 93.2797C81.0541 93.3151 81.0599 93.3504 81.0726 93.3835C81.0854 93.4165 81.1047 93.4467 81.1294 93.4721C81.1542 93.4975 81.1839 93.5176 81.2167 93.5313C81.2495 93.5449 81.2847 93.5517 81.3202 93.5514L82.8356 93.6092L82.8295 93.3324C82.8223 92.9907 82.6057 84.9448 78.9293 81.5068C77.7892 80.4403 76.4295 79.9323 74.8867 79.9972C73.2168 80.0682 71.9252 80.788 71.0465 82.1385C70.1678 83.4889 69.7519 85.4385 69.8464 87.7724C69.9319 89.9066 70.4485 92.2587 71.3007 94.3949L71.375 94.5835Z" fill="#0D192B"/>
<path d="M75.9333 79.6524L75.919 80.9421C75.4332 80.7807 74.9173 80.7299 74.4092 80.7934C73.9011 80.8569 73.4138 81.0331 72.983 81.3091C72.6077 80.792 72.3433 80.4027 72.3433 80.4027C72.3433 80.4027 73.5209 79.1364 75.9333 79.6524Z" fill="#1B658F"/>
<path d="M74.8327 80.1055L74.551 78.6384C74.1442 78.4154 73.2614 78.6516 73.1272 78.971L73.4526 80.3995L74.8327 80.1055Z" fill="#1B658F"/>
<path d="M95.8867 99.252C97.5963 99.0776 101.188 96.8532 102.045 96.1172L112.478 104.532H96.3078L95.8867 99.252Z" fill="#446BD0"/>
<path d="M110.953 104.553C110.514 104.553 97.4499 96.6079 97.4499 96.6079C94.5779 98.9753 91.5737 100.127 88.5359 100.979C89.4237 102.736 90.7235 103.919 92.1727 104.58L110.953 104.553Z" fill="#A6BFFF"/>
<path d="M45.9753 104.523H62.0947V102.026H45.9753V104.523Z" fill="#CEDBFF"/>
<path d="M32.2519 104.523H45.9753V102.026H32.2519V104.523Z" fill="#B0C2F2"/>
<path d="M59.9165 102.84H47.0107L53.0009 104.034L59.9165 102.84Z" fill="#ADC4FF"/>
<path d="M53.6599 107.587H50.9517V178.396H53.6599V107.587Z" fill="#1951A6"/>
<path d="M53.6599 107.615H50.9517V113.694H53.6599V107.615Z" fill="#1951A6"/>
<path d="M173.607 178.691H176.316V166.397H173.607V178.691Z" fill="#1951A6"/>
<path d="M157.304 178.691H160.014V166.397H157.304V178.691Z" fill="#1951A6"/>
<path d="M28.0477 106.83V178.792L25.4717 178.385V106.83H28.0477Z" fill="#1951A6"/>
<path d="M123.346 178.691H126.055V166.397H123.346V178.691Z" fill="#1951A6"/>
<path d="M137.568 178.691H140.277V166.397H137.568V178.691Z" fill="#1951A6"/>
<path d="M18.0658 107.581L148.839 107.581V104.538L18.0658 104.538V107.581Z" fill="#1951A6"/>
<path d="M139.096 107.32H122.357V166.592H139.096V107.32Z" fill="#1951A6"/>
<path d="M177.95 107.32H136.772V166.592H177.95V107.32Z" fill="#1951A6"/>
<path d="M176.83 109.377H138.821V166.593H176.83V109.377Z" fill="#66A1FF"/>
<path d="M47.2364 107.581L178.01 107.581V104.538L47.2364 104.538V107.581Z" fill="#66A1FF"/>
<path d="M154.966 104.539H162.182L160.759 92.2402H153.545L154.966 104.539Z" fill="#ADADAD"/>
<path d="M152.867 92.2402L152.873 92.2899L153.641 98.9337L154.29 104.538H161.506L160.184 93.1051L160.18 93.0696L160.083 92.2402H152.867Z" fill="#474747"/>
<path d="M144.48 104.516H167.398V103.257H144.48V104.516Z" fill="#ADADAD"/>
<path d="M161.22 103.256H142.879V104.515H161.22V103.256Z" fill="#474747"/>
<path d="M152.872 92.29L153.641 98.9338L160.184 93.1052L160.217 93.0738L160.179 93.0697L152.872 92.29Z" fill="#2B2B2B"/>
<path d="M134.492 93.0314H173.647C174.066 93.0241 174.469 92.8631 174.777 92.5791C175.085 92.295 175.278 91.9079 175.318 91.4914L177.555 64.382C177.575 64.1856 177.554 63.9872 177.491 63.7998C177.429 63.6125 177.328 63.4404 177.194 63.2949C177.06 63.1495 176.897 63.034 176.715 62.9561C176.533 62.8782 176.336 62.8396 176.138 62.843H136.982C136.562 62.8502 136.16 63.0111 135.852 63.2949C135.544 63.5788 135.351 63.9657 135.311 64.382L133.074 91.4914C133.053 91.6879 133.075 91.8866 133.137 92.0741C133.2 92.2617 133.301 92.434 133.435 92.5795C133.569 92.7251 133.733 92.8406 133.915 92.9185C134.097 92.9964 134.294 93.0349 134.492 93.0314Z" fill="#ADADAD"/>
<path d="M133.766 92.9967H172.92C173.34 92.9897 173.742 92.8289 174.05 92.545C174.359 92.2611 174.551 91.8741 174.591 91.4577L176.829 64.3483C176.849 64.1519 176.827 63.9534 176.765 63.7659C176.703 63.5785 176.601 63.4063 176.467 63.2609C176.333 63.1154 176.17 62.9999 175.988 62.9221C175.806 62.8443 175.609 62.8058 175.411 62.8093H136.257C135.837 62.8163 135.435 62.9771 135.127 63.261C134.818 63.5449 134.626 63.9319 134.586 64.3483L132.348 91.4577C132.328 91.6541 132.35 91.8526 132.412 92.0401C132.474 92.2275 132.576 92.3997 132.71 92.5451C132.844 92.6906 133.007 92.8061 133.189 92.8839C133.371 92.9617 133.568 93.0002 133.766 92.9967Z" fill="#474747"/>
<path d="M134.627 90.7796H172.64L174.71 64.9233H136.698L134.627 90.7796Z" fill="white"/>
<path d="M137.727 103.256H125.744V104.516H137.727V103.256Z" fill="#ADADAD"/>
<path d="M113.208 104.031V104.516H125.744V103.256L113.208 104.031Z" fill="#474747"/>
<path d="M141.348 86.3013L167.413 85.987C168.508 85.9738 169.463 85.0492 169.548 83.9218L170.519 70.6241C170.602 69.4967 169.78 68.5964 168.689 68.6065L142.624 68.9208C141.529 68.934 140.574 69.8586 140.488 70.986L139.517 84.2837C139.431 85.4111 140.253 86.3145 141.348 86.3013Z" fill="#80B2FF"/>
<path d="M143.603 74.4442L151.257 74.352C151.378 74.3466 151.492 74.2974 151.579 74.2137C151.665 74.1301 151.718 74.0177 151.727 73.8978C151.734 73.8412 151.728 73.7839 151.71 73.7297C151.692 73.6755 151.663 73.6257 151.625 73.5837C151.586 73.5416 151.539 73.5083 151.487 73.4859C151.434 73.4634 151.378 73.4525 151.32 73.4537L143.665 73.546C143.545 73.5511 143.431 73.6003 143.344 73.684C143.258 73.7678 143.205 73.8803 143.197 74.0002C143.19 74.0568 143.196 74.1141 143.214 74.1682C143.231 74.2224 143.26 74.2722 143.299 74.3142C143.337 74.3563 143.385 74.3897 143.437 74.4121C143.49 74.4345 143.546 74.4455 143.603 74.4442Z" fill="#CEDBFF"/>
<path d="M143.423 76.899L153.622 76.7763C153.742 76.7712 153.857 76.722 153.943 76.6383C154.03 76.5546 154.083 76.442 154.092 76.3221C154.098 76.2655 154.092 76.2082 154.075 76.154C154.057 76.0998 154.028 76.0501 153.989 76.008C153.951 75.966 153.904 75.9326 153.851 75.9102C153.799 75.8878 153.742 75.8768 153.685 75.878L143.49 76.0007C143.37 76.0058 143.255 76.0549 143.169 76.1387C143.082 76.2224 143.03 76.3349 143.021 76.4549C143.015 76.511 143.022 76.5675 143.039 76.621C143.057 76.6744 143.086 76.7236 143.124 76.7654C143.162 76.8072 143.208 76.8406 143.259 76.8636C143.311 76.8866 143.367 76.8987 143.423 76.899Z" fill="#CEDBFF"/>
<path d="M143.213 79.7901L153.411 79.6674C153.532 79.662 153.646 79.6127 153.733 79.5288C153.819 79.4448 153.872 79.3322 153.88 79.2122C153.887 79.1556 153.881 79.0983 153.863 79.0441C153.845 78.99 153.816 78.9402 153.778 78.8981C153.739 78.8561 153.692 78.8227 153.64 78.8003C153.587 78.7779 153.531 78.7669 153.473 78.7682L143.278 78.8888C143.157 78.8942 143.043 78.9436 142.957 79.0275C142.87 79.1114 142.818 79.224 142.809 79.344C142.802 79.4005 142.808 79.4578 142.825 79.512C142.843 79.5662 142.871 79.6161 142.91 79.6583C142.948 79.7005 142.995 79.7341 143.047 79.7569C143.099 79.7796 143.156 79.7909 143.213 79.7901Z" fill="#CEDBFF"/>
<path d="M143.001 82.6807L153.2 82.558C153.32 82.5527 153.435 82.5035 153.521 82.4198C153.608 82.3361 153.661 82.2237 153.67 82.1038C153.676 82.0472 153.67 81.9899 153.653 81.9358C153.635 81.8816 153.606 81.8318 153.567 81.7898C153.529 81.7477 153.482 81.7143 153.429 81.6919C153.377 81.6695 153.32 81.6585 153.263 81.6598L143.064 81.7824C142.944 81.7878 142.83 81.837 142.743 81.9207C142.656 82.0044 142.604 82.1168 142.595 82.2366C142.588 82.2932 142.594 82.3505 142.612 82.4047C142.629 82.4589 142.658 82.5087 142.697 82.5507C142.735 82.5928 142.782 82.6261 142.835 82.6485C142.888 82.671 142.944 82.6819 143.001 82.6807Z" fill="#CEDBFF"/>
<path d="M162.907 74.6306C162.116 75.3099 161.56 80.219 162.587 81.5968C163.058 82.2284 163.869 82.2345 164.575 82.4079C165.409 82.6188 166.08 83.5485 166.427 83.1064C167.068 82.2953 167.222 79.0155 166.158 76.8976C165.787 76.1585 163.699 73.9463 162.907 74.6306Z" fill="#CEDBFF"/>
<path d="M159.61 74.6306C160.402 75.3099 160.958 80.219 159.93 81.5968C159.46 82.2284 158.648 82.2345 157.943 82.4079C157.108 82.6188 156.437 83.5485 156.09 83.1064C155.45 82.2953 155.295 79.0155 156.36 76.8976C156.73 76.1585 158.819 73.9463 159.61 74.6306Z" fill="#CEDBFF"/>
<path d="M160.83 76.5056V71.3076H161.57V76.4296C161.57 76.4722 161.592 77.4749 162.61 77.6979L162.487 78.2545C162.213 78.201 161.955 78.0849 161.733 77.9153C161.512 77.7458 161.333 77.5273 161.21 77.2772C161.09 77.5364 160.909 77.7635 160.684 77.9397C160.458 78.116 160.194 78.2364 159.913 78.291L159.79 77.7344C160.712 77.5347 160.818 76.6973 160.83 76.5056Z" fill="#CEDBFF"/>
<path d="M179.497 174.898H182.222V169.843H179.497V174.898Z" fill="#0D192B"/>
<path d="M199.929 174.898H202.654V169.843H199.929V174.898Z" fill="#0D192B"/>
<path d="M222.766 174.898H225.49V169.843H222.766V174.898Z" fill="#0D192B"/>
<path d="M223.451 178.157C224.599 178.157 225.529 176.691 225.529 174.883C225.529 173.074 224.599 171.608 223.451 171.608C222.304 171.608 221.374 173.074 221.374 174.883C221.374 176.691 222.304 178.157 223.451 178.157Z" fill="#0D192B"/>
<path d="M221.438 178.157C222.585 178.157 223.515 176.691 223.515 174.883C223.515 173.074 222.585 171.608 221.438 171.608C220.29 171.608 219.36 173.074 219.36 174.883C219.36 176.691 220.29 178.157 221.438 178.157Z" fill="#0D192B"/>
<path d="M220.636 177.893C221.501 178.566 223.917 178.261 224.255 177.913L224.27 171.871C223.621 171.306 221.334 171.326 220.637 171.84L220.636 177.893Z" fill="#0D192B"/>
<path d="M221.242 177.039C222.029 177.039 222.666 176.034 222.666 174.794C222.666 173.555 222.029 172.55 221.242 172.55C220.456 172.55 219.818 173.555 219.818 174.794C219.818 176.034 220.456 177.039 221.242 177.039Z" fill="#1E62CC"/>
<path d="M221.393 176.226C221.872 176.226 222.26 175.613 222.26 174.858C222.26 174.103 221.872 173.49 221.393 173.49C220.914 173.49 220.525 174.103 220.525 174.858C220.525 175.613 220.914 176.226 221.393 176.226Z" fill="#0D192B"/>
<path d="M201.702 178.157C202.849 178.157 203.779 176.691 203.779 174.883C203.779 173.074 202.849 171.608 201.702 171.608C200.554 171.608 199.624 173.074 199.624 174.883C199.624 176.691 200.554 178.157 201.702 178.157Z" fill="#0D192B"/>
<path d="M203.715 178.157C204.863 178.157 205.793 176.691 205.793 174.883C205.793 173.074 204.863 171.608 203.715 171.608C202.568 171.608 201.637 173.074 201.637 174.883C201.637 176.691 202.568 178.157 203.715 178.157Z" fill="#0D192B"/>
<path d="M204.517 177.893C203.652 178.566 201.236 178.261 200.898 177.913L200.883 171.871C201.531 171.306 203.819 171.326 204.516 171.84L204.517 177.893Z" fill="#0D192B"/>
<path d="M203.912 177.039C204.698 177.039 205.335 176.034 205.335 174.794C205.335 173.555 204.698 172.55 203.912 172.55C203.125 172.55 202.488 173.555 202.488 174.794C202.488 176.034 203.125 177.039 203.912 177.039Z" fill="#1E62CC"/>
<path d="M203.761 176.226C204.24 176.226 204.629 175.613 204.629 174.858C204.629 174.103 204.24 173.49 203.761 173.49C203.282 173.49 202.894 174.103 202.894 174.858C202.894 175.613 203.282 176.226 203.761 176.226Z" fill="#0D192B"/>
<path d="M180.95 178.157C182.097 178.157 183.028 176.691 183.028 174.883C183.028 173.074 182.097 171.608 180.95 171.608C179.802 171.608 178.872 173.074 178.872 174.883C178.872 176.691 179.802 178.157 180.95 178.157Z" fill="#0D192B"/>
<path d="M182.963 178.157C184.111 178.157 185.041 176.691 185.041 174.883C185.041 173.074 184.111 171.608 182.963 171.608C181.816 171.608 180.886 173.074 180.886 174.883C180.886 176.691 181.816 178.157 182.963 178.157Z" fill="#0D192B"/>
<path d="M183.764 177.893C182.9 178.566 180.484 178.261 180.146 177.913L180.131 171.871C180.779 171.306 183.066 171.326 183.763 171.84L183.764 177.893Z" fill="#0D192B"/>
<path d="M183.16 177.039C183.946 177.039 184.583 176.034 184.583 174.794C184.583 173.555 183.946 172.55 183.16 172.55C182.373 172.55 181.736 173.555 181.736 174.794C181.736 176.034 182.373 177.039 183.16 177.039Z" fill="#1E62CC"/>
<path d="M183.009 176.226C183.488 176.226 183.877 175.613 183.877 174.858C183.877 174.103 183.488 173.49 183.009 173.49C182.53 173.49 182.142 174.103 182.142 174.858C182.142 175.613 182.53 176.226 183.009 176.226Z" fill="#0D192B"/>
<path d="M198.906 168.972H202.874V127.769H198.906V168.972Z" fill="#0D192B"/>
<path d="M177.608 170.338C177.602 170.305 177.576 170.271 177.576 170.237C177.576 168.056 188.394 166.283 201.738 166.283C215.082 166.283 225.901 168.051 225.901 170.237C225.901 170.271 225.875 170.305 225.87 170.338H177.608Z" fill="#1A56B3"/>
<path d="M204.187 132.157H197.736V140H204.187V132.157Z" fill="#1A56B3"/>
<path d="M204.187 159.762H197.736V167.605H204.187V159.762Z" fill="#1A56B3"/>
<path d="M213.011 66.2354V66.2435C213.096 66.2354 213.182 66.2354 213.267 66.2354H213.011Z" fill="#4A82DB"/>
<path d="M240.438 66.1206C240.432 66.1214 240.427 66.1214 240.421 66.1206C240.365 66.1206 240.207 66.1115 239.956 66.1074C239.684 66.1074 239.32 66.0993 238.886 66.0993C233.152 66.074 214.45 66.2392 214.45 66.2392C214.361 66.2378 214.273 66.2408 214.185 66.2484C211.214 66.3802 208.31 68.7171 207.62 71.5772C207.62 71.5772 199.474 111.821 195.86 115.284C192.246 118.748 179.859 118.408 179.859 118.408C177.127 118.408 174.705 120.015 173.933 122.362C173.76 122.885 173.673 123.433 173.674 123.984C173.676 124.751 173.834 125.511 174.137 126.215C174.441 126.92 174.885 127.557 175.443 128.086C176.585 129.182 178.11 129.791 179.696 129.784H207.246L225.129 130.146C227.103 130.199 229.036 129.579 230.609 128.389C232.181 127.199 233.3 125.509 233.78 123.6C233.872 123.359 233.947 123.112 234.006 122.861L243.473 71.3379C243.569 70.9394 243.618 70.5311 243.618 70.1213C243.618 68.1179 242.374 66.5454 240.438 66.1206ZM229.649 118.574L229.427 118.871L229.585 118.188H229.936L229.649 118.574Z" fill="#AFC6FF"/>
<path d="M228.62 129.805C228.625 129.83 228.649 129.854 228.649 129.881C228.649 131.52 214.431 132.848 201.708 132.848C188.984 132.848 178.671 131.52 178.671 129.881C178.671 129.854 178.695 129.83 178.7 129.805H228.62Z" fill="#1A56B3"/>
<path d="M243.618 70.1283C243.618 70.5381 243.569 70.9464 243.473 71.3449C243.116 72.375 234.275 122.646 233.78 123.605C233.3 125.515 232.182 127.204 230.609 128.395C229.036 129.585 227.103 130.205 225.129 130.152C214.542 129.811 190.491 129.727 179.698 129.79C175.85 129.869 172.715 126.052 173.933 122.366C172.605 128.616 224.275 129.382 229.68 121.191C233.53 118.32 231.402 63.7664 240.437 66.1256C242.374 66.5453 243.618 68.1178 243.618 70.1283Z" fill="#446BD0"/>
<path d="M215.463 65.1959C220.529 100.766 186.677 95.6226 187.656 81.306C188.5 68.9715 195.987 67.5288 194.037 59.4403C191.9 50.563 195.065 42.7959 203.506 42.7959C211.773 42.7959 216.721 48.802 214.955 59.2446C214.605 61.3159 215.247 63.4785 215.463 65.1959Z" fill="#0E0E0E"/>
<path d="M183.736 164.776C183.798 165.129 184.969 171.948 184.969 171.948L189.674 171.543L190.356 163.187L183.736 164.776Z" fill="#FFA599"/>
<path d="M213.675 108.154C213.675 108.154 217.611 119.181 211.104 121.071C204.596 122.961 193.713 123.678 193.713 123.678L190.197 167.302C188.893 167.819 187.497 168.279 184.246 167.618C184.246 167.618 176.236 123.704 178.551 118.44C180.865 113.176 198.933 107.822 198.933 107.822L213.675 108.154Z" fill="#0D192B"/>
<path d="M191.094 172.685C190.744 173.581 188.033 174.855 184.998 175.784C182.925 176.419 180.7 176.893 178.975 176.975C177.898 177.027 177.016 176.926 176.488 176.616C176.488 176.616 175.149 173.163 178.124 171.26C181.1 169.357 184.457 168.976 184.457 168.976C184.887 169.584 185.583 169.989 186.444 170.091C187.092 170.155 187.747 170.076 188.362 169.86C188.979 169.648 189.563 169.352 190.097 168.978C190.305 169.209 190.49 169.461 190.648 169.729C190.676 169.774 190.704 169.821 190.731 169.87C191.121 170.567 191.48 171.599 191.094 172.685Z" fill="white"/>
<path d="M190.872 169.723L190.731 169.868L184.998 175.784C182.925 176.42 180.7 176.893 178.975 176.975C178.857 175.887 178.906 173.582 181.009 171.949C182.306 170.943 184.467 170.391 186.441 170.089C187.117 169.988 187.771 169.911 188.359 169.858C189.416 169.763 190.261 169.734 190.645 169.727C190.792 169.723 190.872 169.723 190.872 169.723Z" fill="#DBF2FF"/>
<path d="M188.15 165.852C188.212 166.205 188.716 173.02 188.716 173.02L192.755 172.968L193.912 165.711L188.15 165.852Z" fill="#FFA599"/>
<path d="M193.544 168.583C193.544 168.583 194.961 171.321 195.273 172.013C193.693 176.616 182.888 180.198 181.771 178.817C181.771 178.817 179.757 175.707 182.28 173.241C184.803 170.775 188.456 169.634 188.456 169.634C189.662 170.763 192.815 170.455 193.544 168.583Z" fill="white"/>
<path d="M224.387 109.71C224.387 109.71 226.517 119.317 218.403 121.922C211.951 123.992 200.862 128.216 200.862 128.216L193.821 167.31C193.525 168.141 188.838 168.45 188.239 167.782C188.239 167.782 186.604 124.747 189.848 119.997C194.832 112.705 201.583 108.248 201.583 108.248C208.416 107.469 218.38 106.739 224.387 109.71Z" fill="#0D192B"/>
<path d="M188.079 167.792C188.003 166.062 186.236 125.347 189.713 119.914C190.679 118.422 191.76 117.008 192.947 115.685L193.186 115.896C192.01 117.207 190.94 118.608 189.984 120.086C186.559 125.434 188.38 167.355 188.399 167.778L188.079 167.792Z" fill="#2A518C"/>
<path d="M197.825 73.9973C201.162 69.9166 203.648 72.3447 203.5 76.9304C203.351 81.516 200.245 101.497 196.522 100.123C192.799 98.7495 193.637 79.1193 197.825 73.9973Z" fill="#FFA599"/>
<path d="M200.306 91.7293L198.069 107.294C198.287 108.094 199.498 108.771 201.31 109.303C201.597 109.389 201.898 109.469 202.212 109.546C208.388 111.055 219.75 111.146 224.688 109.184C224.688 109.184 224.305 106.548 222.732 102.32C221.536 99.1071 219.653 94.9737 216.732 90.3769C216.546 89.0122 217.701 86.6053 218.856 83.8456C220.696 79.4506 222.537 74.1603 218.966 70.7619C213.154 65.2263 197.947 66.7967 196.948 77.7473C196.789 84.8311 200.306 91.7293 200.306 91.7293Z" fill="#FD5655"/>
<path d="M200.499 110.391C200.6 110.374 201.228 110.052 202.212 109.546C206.421 107.386 217.208 101.865 222.226 102.312C222.395 102.327 222.565 102.33 222.734 102.32C221.538 99.1071 219.655 94.9737 216.734 90.3769C216.548 89.0122 217.703 86.6053 218.858 83.8456L212.291 76.4131C212.291 76.4131 212.314 76.5824 212.355 76.8876C212.706 79.5662 214.373 92.7503 213.473 94.8784C212.649 96.826 204.053 106.104 201.318 109.303C200.716 110 200.399 110.408 200.499 110.391Z" fill="#E64847"/>
<path d="M202.108 71.6735C202.301 72.9915 204.002 76.4933 204.002 76.4933C204.002 76.4933 211.047 72.1338 210.796 70.4102L209.652 65.8104L208.907 62.8145L201.73 63.8557L201.977 68.9736L202.108 71.6735Z" fill="#FFA599"/>
<path d="M201.978 68.9685L206.992 65.6228L201.73 63.8506L201.978 68.9685Z" fill="#E87C5D"/>
<path d="M195.412 54.5059C195.006 60.9145 198.645 66.1997 203.539 66.3112C208.433 66.4227 212.311 61.3099 212.2 54.8891C212.098 48.8405 208.45 44.1079 204.052 44.0075C199.653 43.9071 195.794 48.4735 195.412 54.5059Z" fill="#FFA599"/>
<path d="M201.422 50.0043C207.533 57.8109 216.336 54.7096 214.307 50.0388C214.307 50.0388 211.949 43.6049 204.818 43.5004C195.901 43.3697 201.422 50.0043 201.422 50.0043Z" fill="#0E0E0E"/>
<path d="M203.132 59.194C202.905 59.194 202.683 59.1352 202.557 58.9771C202.252 58.5888 203.081 56.6898 203.25 56.3137C203.255 56.3014 203.262 56.29 203.271 56.2805C203.279 56.2709 203.29 56.2633 203.302 56.2582C203.314 56.253 203.327 56.2504 203.34 56.2505C203.354 56.2506 203.367 56.2534 203.378 56.2588C203.39 56.2641 203.401 56.2719 203.41 56.2816C203.419 56.2913 203.425 56.3028 203.429 56.3152C203.434 56.3276 203.435 56.3407 203.434 56.3537C203.433 56.3667 203.429 56.3793 203.422 56.3907C203.015 57.2839 202.529 58.6405 202.704 58.8605C202.908 59.117 203.613 58.973 203.868 58.895C203.891 58.8904 203.915 58.8946 203.935 58.9066C203.955 58.9186 203.97 58.9376 203.977 58.9599C203.983 58.9823 203.982 59.0064 203.972 59.0275C203.962 59.0487 203.944 59.0654 203.923 59.0744C203.666 59.1515 203.4 59.1918 203.132 59.194Z" fill="#BD4A31"/>
<path d="M201.811 61.3971C201.811 61.3971 204.538 62.2275 208.137 60.3711C206.158 63.217 203.568 64.9932 201.811 61.3971Z" fill="#BD4A31"/>
<path d="M207.596 55.6617C207.585 56.1342 207.387 56.5124 207.152 56.5073C206.917 56.5022 206.736 56.1149 206.745 55.6425C206.754 55.17 206.955 54.7919 207.19 54.7969C207.425 54.802 207.607 55.1893 207.596 55.6617Z" fill="#0E0E0E"/>
<path d="M199.408 55.2877C199.398 55.7602 199.199 56.1383 198.964 56.1333C198.729 56.1282 198.548 55.7409 198.557 55.2684C198.566 54.796 198.766 54.4178 199.001 54.4239C199.236 54.43 199.419 54.8163 199.408 55.2877Z" fill="#0E0E0E"/>
<path d="M201.382 48.5282C201.382 48.5282 200.297 54.4694 195.256 54.8607C191.881 55.1243 196.791 45.0264 200.002 45.221C201.894 45.3386 201.382 48.5282 201.382 48.5282Z" fill="#0E0E0E"/>
<path d="M220.111 73.1101C220.111 73.1101 217.489 70.2713 213.267 73.4295C209.809 76.0189 215.652 92.5223 215.652 92.5223L198.424 108.827L199.746 110.486C199.746 110.486 220.364 101.868 222.988 95.0569C223.886 90.743 222.137 76.1182 220.111 73.1101Z" fill="#FFA599"/>
<path d="M200.118 94.1789L201.054 110.299L198.829 110.67C198.829 110.67 194.018 99.607 194.237 93.3587C194.428 87.8818 200.786 89.1907 200.118 94.1789Z" fill="#FFA599"/>
<path d="M201.277 109.296C201.277 109.296 203.718 110.75 202.543 111.736C201.367 112.721 197.14 112.664 198.348 110.04C199.557 107.416 201.277 109.296 201.277 109.296Z" fill="#FFA599"/>
<path d="M198.409 108.551C198.218 108.514 193.982 111.511 195.256 112.81C196.53 114.108 202.92 110.208 201.657 108.618C200.394 107.029 198.409 108.551 198.409 108.551Z" fill="#FFA599"/>
</g>
<defs>
<clipPath id="clip0_252_6062">
<rect width="300" height="179.787" fill="white"/>
</clipPath>
</defs>
</svg>
