<svg width="50" height="50" viewBox="0 0 50 50" fill="none" xmlns="http://www.w3.org/2000/svg">
<g clip-path="url(#clip0_252_5716)">
<path d="M0.109375 13.368V40.4078C0.109375 42.0673 1.71203 43.2607 3.29185 42.7493C8.14518 41.1807 13.3395 41.0216 18.261 42.2832L18.5678 43.1698C18.7383 43.6699 19.2043 43.9995 19.7272 43.9995H26.3763C26.8992 43.9995 27.3652 43.6699 27.5357 43.1698L27.8426 42.2832C32.7641 41.0216 37.947 41.1807 42.8116 42.7493C44.3801 43.2607 45.9941 42.0673 45.9941 40.4078V13.368C45.9941 12.3565 45.3576 11.4472 44.3915 11.0607C37.5151 8.36696 29.7861 8.58292 23.0461 11.754C16.306 8.58292 8.5771 8.36696 1.70065 11.0607C0.745871 11.4472 0.109375 12.3565 0.109375 13.368Z" fill="url(#paint0_linear_252_5716)"/>
<path d="M18.6164 39.4424H27.4813L27.8426 42.2837L27.5357 43.1704C27.3652 43.6704 26.8992 44 26.3763 44H19.7272C19.2043 44 18.7383 43.6704 18.5679 43.1704L18.261 42.2837L18.6164 39.4424Z" fill="url(#paint1_linear_252_5716)"/>
<path d="M1.82059 12.6888V37.7055C1.82059 39.2349 3.30233 40.3438 4.76487 39.8754C8.98056 38.5085 13.4638 38.2981 17.7655 39.2445C18.3009 39.3592 18.7214 39.7512 18.9031 40.2673C19.056 40.7262 19.4862 41.0321 19.9738 41.0321H26.1204C26.6079 41.0321 27.038 40.7262 27.2006 40.2673C27.3727 39.7512 27.8028 39.3592 28.3286 39.2445C32.6303 38.2981 37.1136 38.5085 41.3388 39.8754C42.7918 40.3438 44.2831 39.2349 44.2831 37.7055V12.6888C44.2831 11.7424 43.6904 10.9012 42.8013 10.5475C36.4349 8.05246 29.2845 8.25322 23.0518 11.1879C16.8096 8.25322 9.65923 8.05246 3.29276 10.5475C2.40375 10.9012 1.82059 11.7424 1.82059 12.6888Z" fill="url(#paint2_linear_252_5716)"/>
<path d="M42.802 7.73455C43.6855 8.08253 44.2806 8.92034 44.2806 9.86985V34.888C44.2806 36.4199 42.7925 37.5226 41.3348 37.0512C35.3506 35.1162 28.8104 35.5042 23.0491 38.2152V8.37285C29.2851 5.43845 36.4337 5.22568 42.802 7.73455Z" fill="url(#paint3_linear_252_5716)"/>
<path d="M3.29556 7.73455C2.4121 8.08253 1.81702 8.92034 1.81702 9.86985V34.888C1.81702 36.4199 3.30506 37.5226 4.76273 37.0512C10.747 35.1162 17.2872 35.5042 23.0484 38.2152V8.37285C16.8124 5.43845 9.66385 5.22568 3.29556 7.73455Z" fill="url(#paint4_linear_252_5716)"/>
<path d="M21.0901 30.0802V32.399C21.0901 33.0655 20.4233 33.5309 19.8021 33.2893C15.0633 31.4462 9.80222 31.4462 5.06343 33.2893C4.44225 33.5309 3.77542 33.0654 3.77542 32.3989V30.0801C3.77542 29.7002 3.99762 29.3478 4.3462 29.1967C9.50458 26.9605 15.361 26.9605 20.5193 29.1968C20.8679 29.3479 21.0901 29.7002 21.0901 30.0802Z" fill="#EDF5FF"/>
<path d="M21.0901 13.9825V16.3013C21.0901 16.9678 20.4233 17.4333 19.8021 17.1917C15.0633 15.3485 9.80222 15.3485 5.06343 17.1916C4.44225 17.4332 3.77542 16.9678 3.77542 16.3013V13.9825C3.77542 13.6025 3.99762 13.2502 4.3462 13.0991C9.50458 10.8628 15.361 10.8628 20.5193 13.0991C20.8679 13.2502 21.0901 13.6026 21.0901 13.9825Z" fill="#EDF5FF"/>
<path d="M21.0901 22.0313V24.3502C21.0901 25.0167 20.4233 25.4821 19.8021 25.2405C15.0633 23.3973 9.80222 23.3973 5.06343 25.2405C4.44225 25.4821 3.77542 25.0166 3.77542 24.3501V22.0313C3.77542 21.6514 3.99762 21.299 4.3462 21.1479C9.50458 18.9116 15.361 18.9116 20.5193 21.1479C20.8679 21.299 21.0901 21.6514 21.0901 22.0313Z" fill="#EDF5FF"/>
<path d="M41.9753 32.3854L44.411 29.9497L40.4759 26.0146L38.0402 28.4503L41.9753 32.3854Z" fill="url(#paint5_linear_252_5716)"/>
<path d="M40.2969 29.927L41.9525 28.2714C42.4966 27.7273 43.3788 27.7273 43.9229 28.2714L49.4825 33.8309C50.0266 34.375 50.0266 35.2572 49.4825 35.8013L47.8269 37.4569C47.2828 38.001 46.4006 38.001 45.8565 37.4569L40.2969 31.8973C39.7528 31.3532 39.7528 30.4711 40.2969 29.927Z" fill="url(#paint6_linear_252_5716)"/>
<path d="M33.7915 30.7855C38.773 30.7855 42.8112 26.7473 42.8112 21.7658C42.8112 16.7844 38.773 12.7461 33.7915 12.7461C28.8101 12.7461 24.7718 16.7844 24.7718 21.7658C24.7718 26.7473 28.8101 30.7855 33.7915 30.7855Z" fill="url(#paint7_linear_252_5716)"/>
<path d="M33.7932 14.333C29.6894 14.3331 26.3637 17.661 26.3648 21.766C26.3659 25.871 29.6936 29.1988 33.7973 29.1986C37.9011 29.1985 41.2269 25.8706 41.2257 21.7656C41.2246 17.6606 37.8969 14.3329 33.7932 14.333Z" fill="#CFE5FF"/>
<path d="M41.1849 22.5426L36.7331 18.0908L33.6649 19.983L32.7491 24.7747L36.039 28.8528C38.809 27.9766 40.8766 25.5215 41.1849 22.5426Z" fill="url(#paint8_linear_252_5716)"/>
<path d="M33.6594 25.6963C33.1976 25.6963 32.7492 25.3318 32.7492 24.7746V19.6226H31.2158C30.7386 19.6226 30.3285 19.2604 30.3285 18.7342C30.3285 18.2195 30.7337 17.8354 31.2158 17.8354H36.1021C36.3324 17.8354 36.5507 17.9237 36.7332 18.0907C36.9106 18.2676 37.0014 18.488 37.0014 18.7342C37.0014 19.2521 36.5975 19.6226 36.1021 19.6226H34.5807V24.7746C34.5807 25.2828 34.1843 25.6963 33.6594 25.6963Z" fill="url(#paint9_linear_252_5716)"/>
<path d="M44.2805 34.8878V19.9281L41.4838 17.0527C42.5876 29.2936 36.8392 31.4302 27.4132 28.1439L34.4768 35.8572C36.794 35.9327 39.1031 36.3295 41.3349 37.0511C42.7925 37.5224 44.2805 36.4198 44.2805 34.8878Z" fill="url(#paint10_linear_252_5716)"/>
</g>
<defs>
<linearGradient id="paint0_linear_252_5716" x1="23.0523" y1="29.5484" x2="23.0523" y2="39.2267" gradientUnits="userSpaceOnUse">
<stop stop-color="#FEB190"/>
<stop offset="1" stop-color="#FA762C"/>
</linearGradient>
<linearGradient id="paint1_linear_252_5716" x1="27.8427" y1="41.7214" x2="18.2619" y2="41.7214" gradientUnits="userSpaceOnUse">
<stop stop-color="#FFB291"/>
<stop offset="1" stop-color="#FA762C"/>
</linearGradient>
<linearGradient id="paint2_linear_252_5716" x1="23.0523" y1="8.8191" x2="23.0523" y2="41.0317" gradientUnits="userSpaceOnUse">
<stop stop-color="#E7F2FC"/>
<stop offset="0.251051" stop-color="#D3E5FF"/>
<stop offset="1" stop-color="#8AC7FF"/>
</linearGradient>
<linearGradient id="paint3_linear_252_5716" x1="51.6287" y1="22.1281" x2="-9.37913" y2="22.0607" gradientUnits="userSpaceOnUse">
<stop stop-color="#C6EAFF"/>
<stop offset="0.251051" stop-color="#DFF0FA"/>
<stop offset="1" stop-color="#79BFFF"/>
</linearGradient>
<linearGradient id="paint4_linear_252_5716" x1="18.4319" y1="22.1074" x2="-10.2731" y2="22.1074" gradientUnits="userSpaceOnUse">
<stop stop-color="#D6E6FF"/>
<stop offset="0.251051" stop-color="#C9EBFF"/>
<stop offset="1" stop-color="#73DDFF"/>
</linearGradient>
<linearGradient id="paint5_linear_252_5716" x1="42.1257" y1="30.1005" x2="40.6976" y2="28.6724" gradientUnits="userSpaceOnUse">
<stop stop-color="#4C5C75"/>
<stop offset="1" stop-color="#1D2943"/>
</linearGradient>
<linearGradient id="paint6_linear_252_5716" x1="45.5119" y1="32.2421" x2="43.7394" y2="34.0145" gradientUnits="userSpaceOnUse">
<stop stop-color="#57B3FE"/>
<stop offset="1" stop-color="#497BFE"/>
</linearGradient>
<linearGradient id="paint7_linear_252_5716" x1="38.7913" y1="26.8011" x2="27.9871" y2="15.9969" gradientUnits="userSpaceOnUse">
<stop stop-color="#4C5C75"/>
<stop offset="1" stop-color="#1D2943"/>
</linearGradient>
<linearGradient id="paint8_linear_252_5716" x1="37.9773" y1="25.0629" x2="32.7627" y2="19.8484" gradientUnits="userSpaceOnUse">
<stop stop-color="#4C5C75" stop-opacity="0"/>
<stop offset="0.258711" stop-color="#475670" stop-opacity="0.181"/>
<stop offset="0.5896" stop-color="#384760" stop-opacity="0.413"/>
<stop offset="0.958427" stop-color="#202C46" stop-opacity="0.671"/>
<stop offset="1" stop-color="#1D2943" stop-opacity="0.7"/>
</linearGradient>
<linearGradient id="paint9_linear_252_5716" x1="30.3287" y1="21.7658" x2="37.0014" y2="21.7658" gradientUnits="userSpaceOnUse">
<stop stop-color="#FFAC4A"/>
<stop offset="1" stop-color="#E25302"/>
</linearGradient>
<linearGradient id="paint10_linear_252_5716" x1="41.1913" y1="29.6657" x2="33.7044" y2="22.1788" gradientUnits="userSpaceOnUse">
<stop stop-color="#4C5C75" stop-opacity="0"/>
<stop offset="0.258711" stop-color="#475670" stop-opacity="0.181"/>
<stop offset="0.5896" stop-color="#384760" stop-opacity="0.413"/>
<stop offset="0.958427" stop-color="#202C46" stop-opacity="0.671"/>
<stop offset="1" stop-color="#1D2943" stop-opacity="0.7"/>
</linearGradient>
<clipPath id="clip0_252_5716">
<rect width="50" height="50" fill="white"/>
</clipPath>
</defs>
</svg>
