<svg width="24" height="24" viewBox="0 0 24 24" fill="none" xmlns="http://www.w3.org/2000/svg">
<g clip-path="url(#clip0_252_5362)">
<path d="M17.4199 12.7572L15.0165 10.1059C14.8668 9.94089 14.7292 9.6008 14.7223 9.37783L14.6338 6.62688V6.54717C14.6338 6.12328 14.2889 5.77832 13.865 5.77832H11.5123H10.5774C10.1986 5.77832 9.77597 6.04665 9.61477 6.3893L6.44761 13.1168C6.35996 13.3033 6.35125 13.5117 6.42301 13.7042C6.49477 13.8964 6.63829 14.0481 6.82665 14.1311L7.29335 14.3369C7.39279 14.3808 7.49889 14.4031 7.60883 14.4031C7.91048 14.4031 8.19137 14.2316 8.32489 13.9663L9.80852 11.0147V13.9815C9.80237 13.9986 9.7934 14.0143 9.78776 14.0317L7.28053 21.8837C7.17623 22.2108 7.20801 22.5549 7.37023 22.8528C7.53246 23.1506 7.80412 23.3638 8.13576 23.4532L8.30336 23.4986C8.41305 23.5283 8.52684 23.5434 8.64115 23.5434C9.21804 23.5434 9.74215 23.1639 9.91591 22.62L12.2586 15.2831L13.0895 17.3183C13.2922 17.8147 13.5111 18.684 13.5674 19.2171L13.9649 22.9642C14.0288 23.5642 14.5031 23.9996 15.0931 23.9996C15.1897 23.9996 15.2879 23.9878 15.3845 23.9645L15.5534 23.9235C16.2259 23.7608 16.701 23.0698 16.6126 22.3838L16.0239 17.8147C15.9491 17.2342 15.6987 16.3252 15.4657 15.7883L14.6707 13.9574C14.6605 13.9335 14.6459 13.912 14.6341 13.889V12.6483L16.0667 14.144C16.2092 14.2929 16.3999 14.3749 16.6034 14.3749C16.8092 14.3749 17.0014 14.2913 17.1444 14.1396L17.4094 13.8582C17.6929 13.5571 17.6977 13.0635 17.4199 12.7572Z" fill="white"/>
<path d="M12.4349 5.12697C13.8486 5.12697 14.9985 3.97702 14.9985 2.56336C14.9985 1.14995 13.8486 0 12.4349 0C11.0215 0 9.87183 1.14995 9.87183 2.56336C9.87157 3.97702 11.0215 5.12697 12.4349 5.12697Z" fill="white"/>
</g>
<defs>
<clipPath id="clip0_252_5362">
<rect width="24" height="24" fill="white"/>
</clipPath>
</defs>
</svg>
