<svg width="50" height="50" viewBox="0 0 50 50" fill="none" xmlns="http://www.w3.org/2000/svg">
<g clip-path="url(#clip0_252_5444)">
<path d="M7.95786 44.8799V48.4377C7.95786 49.3002 8.65788 50.0002 9.52034 50.0002H14.5032C15.3656 50.0002 16.0657 49.3002 16.0657 48.4377V44.8799H7.95786Z" fill="#454545"/>
<path d="M33.9344 44.8799V48.4377C33.9344 49.3002 34.6344 50.0002 35.4968 50.0002H40.4797C41.3421 50.0002 42.0422 49.3002 42.0422 48.4377V44.8799H33.9344Z" fill="#454545"/>
<path d="M48.5969 12.9327C48.1484 12.9327 47.786 12.5702 47.786 12.1218C47.786 11.5484 47.3188 11.0827 46.7468 11.0827H45.8562C45.4077 11.0827 45.0453 10.7202 45.0453 10.2718C45.0453 9.82349 45.4078 9.46094 45.8562 9.46094H46.7468C48.2141 9.46094 49.4078 10.6547 49.4078 12.1203C49.4079 12.5687 49.0453 12.9327 48.5969 12.9327Z" fill="#CACACA"/>
<path d="M49.95 11.978H46.6969V20.7624H49.95V11.978Z" fill="#6F6F6F"/>
<path d="M1.40316 12.9327C1.85161 12.9327 2.21406 12.5702 2.21406 12.1218C2.21406 11.5484 2.67973 11.0827 3.25316 11.0827H4.14382C4.59227 11.0827 4.95472 10.7202 4.95472 10.2718C4.95472 9.82349 4.59217 9.46094 4.14382 9.46094H3.25316C1.78595 9.46094 0.592255 10.6547 0.592255 12.1203C0.592154 12.5687 0.954703 12.9327 1.40316 12.9327Z" fill="#CACACA"/>
<path d="M3.30313 11.978H0.0499573V20.7624H3.30313V11.978Z" fill="#6F6F6F"/>
<path d="M42.7688 0H7.23123C5.5062 0 4.10626 1.39843 4.10626 3.12497V31.2313H45.8937V3.12497C45.8937 1.39843 44.4953 0 42.7688 0Z" fill="#86DAF1"/>
<path d="M4.10626 41.4766V42.3359C4.10626 44.0609 5.5063 45.4609 7.23123 45.4609H42.7688C44.4953 45.4609 45.8937 44.0608 45.8937 42.3359V41.4766H4.10626Z" fill="#ED6262"/>
<path d="M45.8937 36.9844H4.10626V41.4703H45.8937V36.9844Z" fill="#CD484B"/>
<path d="M45.8937 30.228H4.10626V36.9906H45.8937V30.228Z" fill="#F3F3F3"/>
<path d="M45.8937 8.74854H4.10626V28.2751H45.8937V8.74854Z" fill="#6F6F6F"/>
<path d="M26.1157 8.74854H23.8844V28.2751H26.1157V8.74854Z" fill="#454545"/>
<path d="M45.8937 28.2749H4.10626V30.228H45.8937V28.2749Z" fill="#86DAF1"/>
<path d="M8.60943 40.4545C9.28426 40.4545 9.83132 39.9075 9.83132 39.2326C9.83132 38.5578 9.28426 38.0107 8.60943 38.0107C7.9346 38.0107 7.38754 38.5578 7.38754 39.2326C7.38754 39.9075 7.9346 40.4545 8.60943 40.4545Z" fill="#F3F3F3"/>
<path d="M11.7188 40.4545C12.3936 40.4545 12.9407 39.9075 12.9407 39.2326C12.9407 38.5578 12.3936 38.0107 11.7188 38.0107C11.0439 38.0107 10.4969 38.5578 10.4969 39.2326C10.4969 39.9075 11.0439 40.4545 11.7188 40.4545Z" fill="#FFE21F"/>
<path d="M38.2812 40.4545C38.956 40.4545 39.5031 39.9075 39.5031 39.2326C39.5031 38.5578 38.956 38.0107 38.2812 38.0107C37.6064 38.0107 37.0593 38.5578 37.0593 39.2326C37.0593 39.9075 37.6064 40.4545 38.2812 40.4545Z" fill="#FFE21F"/>
<path d="M41.3875 40.4545C42.0623 40.4545 42.6094 39.9075 42.6094 39.2326C42.6094 38.5578 42.0623 38.0107 41.3875 38.0107C40.7126 38.0107 40.1656 38.5578 40.1656 39.2326C40.1656 39.9075 40.7126 40.4545 41.3875 40.4545Z" fill="#F3F3F3"/>
<path d="M41.4156 31.9111H38.4203C37.4828 31.9111 36.7218 32.6721 36.7218 33.6096C36.7218 34.5471 37.4812 35.3064 38.4203 35.3064H41.4156C42.3531 35.3064 43.1141 34.5471 43.1141 33.6096C43.1125 32.6721 42.3531 31.9111 41.4156 31.9111Z" fill="#FFBD49"/>
<path d="M11.3312 31.9111H8.33589C7.3984 31.9111 6.63745 32.6721 6.63745 33.6096C6.63745 34.5471 7.39679 35.3064 8.33589 35.3064H11.3312C12.2687 35.3064 13.0281 34.5471 13.0281 33.6096C13.0297 32.6721 12.2687 31.9111 11.3312 31.9111Z" fill="#FFBD49"/>
<path d="M36.9078 1.36426H12.2124C10.55 1.36426 9.20309 2.71113 9.20309 4.37361C9.20309 6.0361 10.55 7.38458 12.2124 7.38458H36.9078C38.5702 7.38458 39.9171 6.03771 39.9171 4.37361C39.9172 2.71264 38.5703 1.36426 36.9078 1.36426Z" fill="#454545"/>
<path opacity="0.1" d="M45.8937 8.74854H4.10626V18.2111C4.10626 19.1032 4.78906 19.9189 5.69997 19.9563C6.64843 20.0141 7.44524 19.2548 7.44524 18.3063V15.2454C7.44524 14.4485 8.1093 13.8422 8.92494 13.8611C8.92494 13.8611 8.92494 13.8611 8.94367 13.8611C8.94367 13.8611 8.94367 13.8611 8.9624 13.8611C9.7593 13.8423 10.4421 14.4486 10.4421 15.2454V18.6282C10.4421 19.5391 11.1062 20.336 11.9968 20.3923C12.9484 20.4298 13.7265 19.6939 13.7516 18.7673V14.2485C13.7516 13.2985 14.5406 12.5407 15.5016 12.5829C16.3985 12.6361 17.0703 13.4376 17.0703 14.3329V18.6485C17.0969 19.5188 17.761 20.2876 18.6359 20.3438C19.6031 20.3813 20.3812 19.6236 20.3812 18.6751L20.3999 14.9986C20.3999 14.0501 21.1781 13.2908 22.1452 13.3282C23.0373 13.3845 23.7201 14.1813 23.7201 15.0923V19.072C23.7389 19.9642 24.4795 20.6845 25.3701 20.6845C26.2999 20.6845 27.0389 19.9252 27.0389 19.0158V14.2752C27.0389 13.5533 27.5748 12.8909 28.556 12.8909C29.3154 12.8346 29.9592 13.4597 29.9592 14.2003V18.8393C29.9592 19.7502 30.6233 20.5456 31.5154 20.6034C32.4826 20.6408 33.2795 19.8831 33.2795 18.9346V15.4752C33.2795 14.7502 33.8201 14.0909 34.778 14.0909C35.5936 14.0909 36.2577 14.755 36.2577 15.5519V18.2144C36.2577 19.1066 36.9405 19.9222 37.8327 19.9596C38.7811 20.0175 39.5968 19.2581 39.5968 18.3096V15.2487C39.5968 14.4518 40.2608 13.8456 41.0577 13.8644C41.0765 13.8644 41.0765 13.8644 41.0765 13.8644C41.0952 13.8644 41.0952 13.8644 41.1139 13.8644C41.9108 13.8457 42.5749 14.4519 42.5749 15.2487V18.6315C42.5749 19.5424 43.2577 20.3393 44.1499 20.3956C45.1171 20.4331 45.8951 19.6737 45.8951 18.7253V8.74854H45.8937Z" fill="white"/>
</g>
<defs>
<clipPath id="clip0_252_5444">
<rect width="50" height="50" fill="white"/>
</clipPath>
</defs>
</svg>
