<svg width="50" height="50" viewBox="0 0 50 50" fill="none" xmlns="http://www.w3.org/2000/svg">
<path d="M23.4402 18.9898V35.9347C23.4402 40.2575 26.791 43.5183 26.791 43.5183C26.9376 43.6656 27.137 43.7486 27.3449 43.7486H39.0637C39.4357 43.7486 39.7562 43.4861 39.8297 43.1215L42.1719 31.4027C42.5496 29.5142 42.3016 27.7528 40.4705 25.3115L35.7815 19.0599C35.6388 18.8692 35.1574 18.7471 35.1574 18.7471L23.4402 18.9898Z" fill="#FDD5A6"/>
<path d="M10.1589 1.55664C8.87401 1.55664 7.81061 2.6201 7.81061 3.90502V10.1566C7.81061 11.4415 8.87401 12.4972 10.1589 12.4972H39.848C41.1329 12.4972 42.1887 11.4415 42.1887 10.1566V3.90502C42.1887 2.6201 41.1329 1.55664 39.848 1.55664H10.1589Z" fill="#33658A"/>
<path d="M14.0629 7.03027V32.8093C14.0629 34.0943 15.1251 35.1507 16.4101 35.1507H33.596C34.881 35.1507 35.9375 34.0943 35.9375 32.8093V7.03027H14.0629Z" fill="#33B9EF"/>
<path d="M24.2184 42.186C24.012 42.1869 23.8143 42.2694 23.6685 42.4155C23.5227 42.5616 23.4406 42.7594 23.4402 42.9658V47.6533C23.441 47.8594 23.5233 48.0569 23.669 48.2027C23.8148 48.3484 24.0123 48.4306 24.2184 48.4315H41.4044C41.4313 48.4328 41.4583 48.4328 41.4852 48.4315C41.6781 48.4121 41.857 48.3218 41.987 48.178C42.117 48.0341 42.1889 47.8471 42.1887 47.6533V42.9658C42.1885 42.863 42.168 42.7614 42.1284 42.6666C42.0889 42.5718 42.031 42.4857 41.9582 42.4133C41.8854 42.3409 41.7989 42.2835 41.7039 42.2445C41.6089 42.2055 41.5071 42.1856 41.4044 42.186H24.2184Z" fill="#FF6B6B"/>
<path d="M27.3449 24.2158C25.1944 24.2158 23.4402 25.97 23.4402 28.1206V35.9366H31.2481V28.1206C31.2481 25.97 29.4955 24.2158 27.3449 24.2158Z" fill="#FDD5A6"/>
<path d="M19.5182 26.548C19.4156 26.5499 19.3143 26.572 19.2202 26.613C19.1261 26.654 19.041 26.7131 18.9698 26.787C18.8986 26.8609 18.8426 26.9481 18.8051 27.0437C18.7676 27.1392 18.7492 27.2412 18.7512 27.3438V31.2482C18.7511 31.3508 18.7713 31.4524 18.8106 31.5473C18.8499 31.6421 18.9074 31.7283 18.98 31.8009C19.0525 31.8735 19.1387 31.931 19.2335 31.9703C19.3283 32.0096 19.43 32.0298 19.5326 32.0298C19.6353 32.0298 19.7369 32.0096 19.8317 31.9703C19.9265 31.931 20.0127 31.8735 20.0853 31.8009C20.1578 31.7283 20.2154 31.6421 20.2546 31.5473C20.2939 31.4524 20.3141 31.3508 20.3141 31.2482V27.3438C20.316 27.2388 20.2968 27.1344 20.2575 27.0369C20.2182 26.9395 20.1596 26.851 20.0853 26.7767C20.011 26.7024 19.9225 26.6439 19.8251 26.6046C19.7276 26.5653 19.6233 26.546 19.5182 26.548Z" fill="#DBE9EE"/>
<path d="M19.5182 18.7394C19.3119 18.7432 19.1155 18.8284 18.9718 18.9764C18.8281 19.1244 18.7488 19.3232 18.7511 19.5295V23.3761C18.7511 23.4788 18.7713 23.5804 18.8106 23.6752C18.8498 23.7701 18.9074 23.8562 18.98 23.9288C19.0525 24.0014 19.1387 24.059 19.2335 24.0983C19.3283 24.1376 19.43 24.1578 19.5326 24.1578C19.6352 24.1578 19.7369 24.1376 19.8317 24.0983C19.9265 24.059 20.0127 24.0014 20.0852 23.9288C20.1578 23.8562 20.2154 23.7701 20.2546 23.6752C20.2939 23.5804 20.3141 23.4788 20.314 23.3761V19.5295C20.3152 19.4249 20.2954 19.3211 20.2558 19.2244C20.2161 19.1276 20.1574 19.0398 20.0832 18.9661C20.009 18.8924 19.9208 18.8344 19.8237 18.7954C19.7266 18.7565 19.6227 18.7374 19.5182 18.7394Z" fill="#DBE9EE"/>
<path d="M19.5182 10.9249C19.3119 10.9287 19.1155 11.0138 18.9718 11.1618C18.8281 11.3099 18.7488 11.5088 18.7511 11.715V15.6251C18.7511 15.7278 18.7713 15.8294 18.8106 15.9242C18.8498 16.019 18.9074 16.1052 18.98 16.1778C19.0525 16.2504 19.1387 16.308 19.2335 16.3473C19.3283 16.3866 19.43 16.4068 19.5326 16.4068C19.6352 16.4068 19.7369 16.3866 19.8317 16.3473C19.9265 16.308 20.0127 16.2504 20.0852 16.1778C20.1578 16.1052 20.2154 16.019 20.2546 15.9242C20.2939 15.8294 20.3141 15.7278 20.314 15.6251V11.715C20.3152 11.6105 20.2954 11.5067 20.2558 11.4099C20.2161 11.3131 20.1574 11.2253 20.0832 11.1517C20.009 11.078 19.9208 11.0199 19.8237 10.981C19.7266 10.942 19.6227 10.923 19.5182 10.9249Z" fill="#DBE9EE"/>
<path d="M25.0031 9.37402V13.2772C25.0031 14.5621 26.0588 15.6256 27.3437 15.6256H30.4703C31.7552 15.6256 32.811 14.5621 32.811 13.2772V9.37402H25.0031Z" fill="#FFBC42"/>
<path d="M25 10.9365V12.4994H28.1227V15.624H29.6856V11.7151C29.684 11.2857 29.3364 10.938 28.907 10.9365H25Z" fill="#E8AB3C"/>
<path d="M11.7214 6.24609C11.6188 6.24607 11.5171 6.26622 11.4223 6.30548C11.3275 6.34474 11.2413 6.40232 11.1687 6.47489C11.0961 6.54745 11.0385 6.63354 10.9993 6.72837C10.96 6.82319 10.9398 6.9249 10.9398 7.02754C10.9398 7.13018 10.96 7.23179 10.9993 7.32661C11.0385 7.42144 11.0961 7.50762 11.1687 7.58019C11.2413 7.65275 11.3275 7.71025 11.4223 7.74951C11.5171 7.78876 11.6188 7.80901 11.7214 7.80898H38.2847C38.3873 7.80901 38.489 7.78876 38.5838 7.74951C38.6786 7.71025 38.7648 7.65275 38.8374 7.58019C38.91 7.50762 38.9676 7.42144 39.0068 7.32661C39.0461 7.23179 39.0663 7.13018 39.0663 7.02754C39.0663 6.9249 39.0461 6.82319 39.0068 6.72837C38.9676 6.63354 38.91 6.54745 38.8374 6.47489C38.7648 6.40232 38.6786 6.34474 38.5838 6.30548C38.489 6.26622 38.3873 6.24607 38.2847 6.24609H11.7214Z" fill="#2F5C7E"/>
</svg>
