<svg width="24" height="24" viewBox="0 0 24 24" fill="none" xmlns="http://www.w3.org/2000/svg">
<path d="M12 3.32812C12.3883 3.32812 12.7031 3.01331 12.7031 2.625V0.703125C12.7031 0.314812 12.3883 0 12 0C11.6117 0 11.2969 0.314812 11.2969 0.703125V2.625C11.2969 3.01331 11.6117 3.32812 12 3.32812Z" fill="#ACAFC9"/>
<path d="M19.9972 2.50279C19.7226 2.22824 19.2774 2.22824 19.0028 2.50279L17.5028 4.00278C17.2282 4.27733 17.2282 4.72255 17.5028 4.99714C17.7774 5.27174 18.2226 5.27174 18.4972 4.99714L19.9972 3.49714C20.2718 3.22255 20.2718 2.77733 19.9972 2.50279Z" fill="#ACAFC9"/>
<path d="M6.49718 4.99714C6.77177 4.7226 6.77177 4.27738 6.49718 4.00278L4.99718 2.50279C4.72263 2.22824 4.27741 2.22824 4.00282 2.50279C3.72823 2.77733 3.72823 3.22255 4.00282 3.49714L5.50282 4.99714C5.77746 5.27179 6.22263 5.27174 6.49718 4.99714Z" fill="#ACAFC9"/>
<path d="M12 4.92188C8.09709 4.92188 4.92188 8.09709 4.92188 12C4.92188 15.6184 8.29688 17.3896 8.29688 19.5V21.7969C8.29688 23.0117 9.28519 24 10.5 24H13.5C14.7148 24 15.7031 23.0117 15.7031 21.7969V19.5C15.7031 17.3889 19.0781 15.6199 19.0781 12C19.0781 8.09709 15.9029 4.92188 12 4.92188ZM13.5 22.5938H10.5C10.0606 22.5938 9.70312 22.2363 9.70312 21.7969V20.2031H14.2969V21.7969C14.2969 22.2363 13.9394 22.5938 13.5 22.5938ZM14.3695 18.7969H12.7031V15.9624C13.5741 15.6682 14.2031 14.844 14.2031 13.875C14.2031 13.4867 13.8883 13.1719 13.5 13.1719C13.1117 13.1719 12.7969 13.4867 12.7969 13.875C12.7969 14.3144 12.4394 14.6719 12 14.6719C11.5606 14.6719 11.2031 14.3144 11.2031 13.875C11.2031 13.4867 10.8883 13.1719 10.5 13.1719C10.1117 13.1719 9.79688 13.4867 9.79688 13.875C9.79688 14.844 10.4259 15.6682 11.2969 15.9624V18.7969H9.63047C9.13481 16.379 6.32812 14.8268 6.32812 12C6.32812 8.8725 8.8725 6.32812 12 6.32812C15.1275 6.32812 17.6719 8.8725 17.6719 12C17.6719 14.8244 14.8646 16.3818 14.3695 18.7969Z" fill="#ACAFC9"/>
</svg>
