<svg width="10" height="10" viewBox="0 0 10 10" fill="none" xmlns="http://www.w3.org/2000/svg">
<g clip-path="url(#clip0_493_979)">
<path d="M5.27442 7.58656L9.88692 2.96126C10.038 2.80972 10.0377 2.56437 9.88614 2.41308C9.73459 2.26191 9.48911 2.2623 9.33795 2.41386L4.99998 6.76385L0.662035 2.41371C0.510863 2.26216 0.265532 2.26177 0.113971 2.41292C0.0379944 2.48876 5.70944e-06 2.58812 5.7051e-06 2.68747C5.70077e-06 2.78658 0.0377407 2.88554 0.11319 2.96124L4.72557 7.58656C4.79819 7.65955 4.89702 7.7005 4.99998 7.7005C5.10295 7.7005 5.20166 7.65943 5.27442 7.58656Z" fill="#8B8FB4"/>
</g>
<defs>
<clipPath id="clip0_493_979">
<rect width="10" height="10" fill="white" transform="translate(10) rotate(90)"/>
</clipPath>
</defs>
</svg>
