<svg width="30" height="30" viewBox="0 0 30 30" fill="none" xmlns="http://www.w3.org/2000/svg">
<g clip-path="url(#clip0_57_1939)">
<path d="M0.803589 12.782V25.5588C0.804452 26.6881 1.25344 27.7708 2.05196 28.5693C2.85047 29.3679 3.93325 29.8168 5.06252 29.8177H24.9375C26.0668 29.8168 27.1495 29.3679 27.9481 28.5693C28.7466 27.7708 29.1956 26.6881 29.1964 25.5588V12.782H0.803589ZM20.9725 18.7545L14.5841 25.1429C14.4523 25.2747 14.2958 25.3793 14.1236 25.4507C13.9514 25.522 13.7668 25.5588 13.5804 25.5588C13.3939 25.5588 13.2093 25.522 13.0371 25.4507C12.8649 25.3793 12.7084 25.2747 12.5766 25.1429L9.02752 21.5938C8.76131 21.3276 8.61176 20.9665 8.61176 20.59C8.61176 20.2136 8.76131 19.8525 9.02752 19.5863C9.29373 19.3201 9.65479 19.1705 10.0313 19.1705C10.4077 19.1705 10.7688 19.3201 11.035 19.5863L13.5804 22.1317L18.965 16.747C19.0967 16.6147 19.2532 16.5096 19.4256 16.4379C19.5979 16.3661 19.7827 16.3291 19.9694 16.3288C20.1561 16.3286 20.3411 16.3652 20.5136 16.4365C20.6861 16.5079 20.8429 16.6126 20.9749 16.7446C21.1069 16.8766 21.2116 17.0333 21.283 17.2059C21.3543 17.3784 21.3909 17.5633 21.3907 17.75C21.3905 17.9367 21.3534 18.1215 21.2816 18.2939C21.2099 18.4663 21.1048 18.6228 20.9725 18.7545Z" fill="#9ED357"/>
<path d="M24.9375 2.13452V2.84437C24.9375 3.9739 24.4888 5.05718 23.6901 5.85589C22.8914 6.65459 21.8081 7.1033 20.6786 7.1033C19.549 7.1033 18.4657 6.65459 17.667 5.85589C16.8683 5.05718 16.4196 3.9739 16.4196 2.84437V2.13452H13.5804V2.84437C13.5804 3.9739 13.1317 5.05718 12.333 5.85589C11.5343 6.65459 10.451 7.1033 9.32145 7.1033C8.19192 7.1033 7.10864 6.65459 6.30993 5.85589C5.51123 5.05718 5.06252 3.9739 5.06252 2.84437V2.13452C3.93325 2.1354 2.85049 2.58439 2.05197 3.38291C1.25346 4.18142 0.80447 5.26419 0.803589 6.39345V9.94261H29.1964V6.39345C29.1955 5.26419 28.7466 4.18142 27.948 3.38291C27.1495 2.58439 26.0668 2.1354 24.9375 2.13452Z" fill="#9ED357"/>
<path d="M22.0983 1.42477V2.84439C22.0957 3.21922 21.945 3.57783 21.679 3.84197C21.4131 4.10612 21.0534 4.25436 20.6786 4.25436C20.3038 4.25436 19.9441 4.10612 19.6782 3.84197C19.4122 3.57783 19.2615 3.21922 19.2589 2.84439V1.42477C19.2577 1.23752 19.2934 1.05187 19.3642 0.8785C19.435 0.705135 19.5393 0.547482 19.6713 0.414621C19.8033 0.28176 19.9602 0.176316 20.1331 0.10436C20.3059 0.0324055 20.4913 -0.00463867 20.6786 -0.00463867C20.8659 -0.00463867 21.0513 0.0324055 21.2241 0.10436C21.397 0.176316 21.5539 0.28176 21.6859 0.414621C21.8179 0.547482 21.9222 0.705135 21.993 0.8785C22.0638 1.05187 22.0995 1.23752 22.0983 1.42477Z" fill="#9ED357"/>
<path d="M10.7411 1.42477V2.84439C10.7385 3.21922 10.5878 3.57783 10.3219 3.84197C10.0559 4.10612 9.69626 4.25436 9.32142 4.25436C8.94658 4.25436 8.58695 4.10612 8.32099 3.84197C8.05503 3.57783 7.90433 3.21922 7.90177 2.84439V1.42477C7.90048 1.23752 7.93626 1.05187 8.00703 0.8785C8.0778 0.705135 8.18217 0.547482 8.31412 0.414621C8.44607 0.28176 8.60301 0.176316 8.77589 0.10436C8.94876 0.0324055 9.13417 -0.00463867 9.32142 -0.00463867C9.50868 -0.00463867 9.69408 0.0324055 9.86696 0.10436C10.0398 0.176316 10.1968 0.28176 10.3287 0.414621C10.4607 0.547482 10.565 0.705135 10.6358 0.8785C10.7066 1.05187 10.7424 1.23752 10.7411 1.42477Z" fill="#9ED357"/>
</g>
<defs>
<clipPath id="clip0_57_1939">
<rect width="30" height="30" fill="white"/>
</clipPath>
</defs>
</svg>
