<svg width="50" height="50" viewBox="0 0 50 50" fill="none" xmlns="http://www.w3.org/2000/svg">
<path d="M16.3978 0V27.163C23.8986 27.163 29.9793 21.0824 29.9793 13.5815C29.9793 6.08058 23.8986 0 16.3978 0Z" fill="#FFBC2B"/>
<path d="M26.9612 13.5815C26.9612 6.08058 22.2318 0 16.3978 0C8.89697 0 2.81628 6.08058 2.81628 13.5815C2.81628 21.0824 8.89697 27.163 16.3978 27.163C22.2318 27.163 26.9612 21.0824 26.9612 13.5815Z" fill="#FFCF66"/>
<path d="M0 31.0361C0 36.0367 4.05372 40.0905 9.05433 40.0905H40.9457C45.9463 40.0905 50 36.0367 50 31.0361H0Z" fill="#BDF2FF"/>
<path d="M9.05433 37.0726H40.9457C45.9463 37.0726 50 34.3701 50 31.0364C50 27.0613 47.4381 23.6846 43.8755 22.4669C43.3888 19.6213 40.912 17.4549 37.9276 17.4549C37.6783 17.4549 37.433 17.4718 37.1916 17.5012C34.9781 13.0044 30.3508 9.90967 25 9.90967C19.6492 9.90967 15.0219 13.0044 12.8083 17.5012C12.567 17.4718 12.3217 17.4549 12.0724 17.4549C9.08803 17.4549 6.61117 19.6213 6.12455 22.4669C2.56187 23.6846 0 27.0613 0 31.0364C0 34.3701 4.05372 37.0726 9.05433 37.0726Z" fill="#E5FAFF"/>
<path d="M40.9907 30.0828C40.991 30.0828 38.741 26.6182 37.1916 24.2324C37.1915 24.2325 37.1915 37.0725 37.1915 37.0725C39.6918 37.0725 41.7186 35.0456 41.7186 32.5453C41.7186 31.6372 41.451 30.7916 40.9907 30.0828Z" fill="#28A6FA"/>
<path d="M38.7005 32.5452C38.7005 31.637 38.6113 30.7915 38.4579 30.0827C38.458 30.0827 37.708 26.6181 37.1916 24.2324C35.642 26.6182 33.392 30.0827 33.392 30.0827C32.9319 30.7915 32.6643 31.637 32.6643 32.5452C32.6643 35.0455 34.6912 37.0724 37.1915 37.0724C38.0249 37.0724 38.7005 35.0455 38.7005 32.5452Z" fill="#24C0FF"/>
<path d="M14.0023 40.0908C14.0023 41.7577 15.3535 43.1089 17.0204 43.1089C18.6873 43.1089 20.0385 41.7577 20.0385 40.0908C20.0385 39.4853 19.8602 38.9217 19.5532 38.4491C19.5534 38.4491 18.0534 36.1394 17.0205 34.5488C15.9874 36.1394 14.4874 38.4491 14.4874 38.4491C14.1807 38.9217 14.0023 39.4853 14.0023 40.0908Z" fill="#24C0FF"/>
<path d="M33.5046 40.6805C33.505 40.6805 30.505 36.061 28.4392 32.8799C28.4391 32.88 28.439 50 28.439 50C31.7727 50 34.4752 47.2975 34.4752 43.9638C34.4752 42.7529 34.1184 41.6256 33.5046 40.6805Z" fill="#28A6FA"/>
<path d="M31.457 43.9637C31.457 42.7528 31.2787 41.6255 30.9717 40.6804C30.9719 40.6804 29.4719 36.061 28.439 32.8799C26.3729 36.061 23.3729 40.6804 23.3729 40.6804C22.7596 41.6255 22.4027 42.7528 22.4027 43.9637C22.4027 47.2974 25.1052 49.9999 28.4389 49.9999C30.1058 49.9999 31.457 47.2974 31.457 43.9637Z" fill="#24C0FF"/>
</svg>
