<svg width="12" height="12" viewBox="0 0 12 12" fill="none" xmlns="http://www.w3.org/2000/svg">
<g clip-path="url(#clip0_493_1161)">
<path d="M0.585559 11.9996C0.469655 11.9996 0.356349 11.9653 0.259972 11.9009C0.163595 11.8365 0.0884772 11.745 0.0441199 11.6379C-0.000237285 11.5308 -0.011841 11.413 0.0107766 11.2993C0.0333942 11.1856 0.0892169 11.0812 0.171184 10.9993L10.9993 0.171151C11.1092 0.0612524 11.2583 -0.000488281 11.4137 -0.000488281C11.5691 -0.000488281 11.7182 0.0612524 11.8281 0.171151C11.938 0.281051 11.9997 0.430106 11.9997 0.585527C11.9997 0.740947 11.938 0.890002 11.8281 0.999902L0.999934 11.828C0.945567 11.8825 0.880974 11.9257 0.809862 11.9551C0.738751 11.9846 0.662524 11.9997 0.585559 11.9996Z" fill="#9F9F9F"/>
<path d="M11.4137 11.9996C11.3367 11.9997 11.2605 11.9846 11.1893 11.9551C11.1182 11.9257 11.0536 11.8825 10.9993 11.828L0.171151 0.999902C0.0612524 0.890002 -0.000488281 0.740947 -0.000488281 0.585527C-0.000488281 0.430106 0.0612524 0.281051 0.171151 0.171151C0.281051 0.0612524 0.430106 -0.000488281 0.585526 -0.000488281C0.740947 -0.000488281 0.890002 0.0612524 0.999902 0.171151L11.828 10.9993C11.91 11.0812 11.9658 11.1856 11.9884 11.2993C12.0111 11.413 11.9994 11.5308 11.9551 11.6379C11.9107 11.745 11.8356 11.8365 11.7392 11.9009C11.6429 11.9653 11.5296 11.9996 11.4137 11.9996Z" fill="#9F9F9F"/>
</g>
<defs>
<clipPath id="clip0_493_1161">
<rect width="12" height="12" fill="white"/>
</clipPath>
</defs>
</svg>
