<svg width="20" height="20" viewBox="0 0 20 20" fill="none" xmlns="http://www.w3.org/2000/svg">
<g clip-path="url(#clip0_137_2750)">
<path d="M10.0001 0.384644C4.68492 0.384644 0.384766 4.69922 0.384766 10C0.384766 15.2886 4.66938 19.6154 10.0001 19.6154C15.3136 19.6154 19.6155 15.3021 19.6155 10C19.6155 4.70264 15.3179 0.384644 10.0001 0.384644ZM16.79 15.6697C16.0374 15.2829 15.1845 14.9807 14.3556 14.7655C14.744 13.4403 14.9648 11.9449 14.996 10.3846H18.8379C18.754 12.325 18.0361 14.1789 16.79 15.6697ZM3.21023 15.6697C1.96415 14.1789 1.24634 12.325 1.16234 10.3846H5.0043C5.03553 11.9449 5.25626 13.4403 5.64465 14.7655C4.81499 14.9811 3.97638 15.2774 3.21023 15.6697ZM3.21023 4.33033C3.97515 4.72222 4.81623 5.01887 5.64465 5.23453C5.25626 6.5598 5.03553 8.0551 5.0043 9.61541H1.16234C1.24634 7.67499 1.96415 5.82114 3.21023 4.33033ZM14.1179 4.50272C13.7285 3.41703 13.1489 2.28318 12.338 1.46968C13.8057 1.87284 15.1577 2.65091 16.2495 3.73995C15.5821 4.06203 14.8166 4.32803 14.1179 4.50272ZM10.3848 4.99556V1.19184C11.324 1.37587 12.2125 2.23037 12.9197 3.64491C13.0815 3.96845 13.2292 4.31283 13.3626 4.67483C12.3822 4.87156 11.3765 4.97457 10.3848 4.99556ZM9.61553 4.99556C8.61534 4.97441 7.60692 4.86972 6.63772 4.67483C6.77107 4.3128 6.91884 3.96841 7.08057 3.64491C7.78784 2.23037 8.6763 1.37584 9.61553 1.19184V4.99556ZM9.61553 5.76495V9.61541H5.77365C5.80484 8.11037 6.0188 6.67376 6.39426 5.40926C7.39053 5.61545 8.48065 5.74187 9.61553 5.76495ZM9.61553 10.3846V14.2351C8.54365 14.2569 7.4398 14.3735 6.3943 14.5908C6.0188 13.3263 5.80484 11.8897 5.77365 10.3846H9.61553ZM9.61553 15.0045V18.8082C8.6763 18.6242 7.78784 17.7696 7.08057 16.3551C6.9188 16.0316 6.77107 15.6872 6.63772 15.3252C7.56957 15.1371 8.58361 15.0263 9.61553 15.0045ZM10.3848 15.0045C11.4143 15.0263 12.4242 15.1362 13.3626 15.3252C13.2292 15.6872 13.0815 16.0316 12.9197 16.3551C12.2125 17.7696 11.324 18.6242 10.3848 18.8082V15.0045ZM10.3848 14.2351V10.3846H14.2267C14.1955 11.8897 13.9815 13.3263 13.606 14.5908C12.6156 14.3851 11.5181 14.2582 10.3848 14.2351ZM10.3848 9.61541V5.76495C11.5324 5.7416 12.6183 5.61337 13.606 5.40926C13.9815 6.67372 14.1955 8.11037 14.2267 9.61541H10.3848ZM5.88238 4.50272C5.16123 4.3206 4.41849 4.06268 3.7508 3.73995C4.84261 2.65091 6.19461 1.87284 7.66238 1.46968C6.85022 2.28437 6.27088 3.41968 5.88238 4.50272ZM5.88238 15.4973C6.27073 16.5801 6.85015 17.7156 7.66238 18.5304C6.19461 18.1272 4.84261 17.3491 3.7508 16.2601C4.4195 15.9367 5.16257 15.68 5.88238 15.4973ZM14.1179 15.4973C14.8071 15.6696 15.5824 15.9373 16.2495 16.2601C15.1577 17.3491 13.8057 18.1272 12.338 18.5304C13.1501 17.7156 13.7296 16.58 14.1179 15.4973ZM14.996 9.61541C14.9648 8.0551 14.744 6.5598 14.3556 5.23453C15.1984 5.01568 16.0423 4.7138 16.7901 4.33037C18.0361 5.82114 18.754 7.67503 18.838 9.61545H14.996V9.61541Z" fill="#00D16D"/>
</g>
<defs>
<clipPath id="clip0_137_2750">
<rect width="20" height="20" fill="white"/>
</clipPath>
</defs>
</svg>
