<svg width="52" height="28" viewBox="0 0 52 28" fill="none" xmlns="http://www.w3.org/2000/svg">
<g clip-path="url(#clip0_57_1820)">
<path d="M10 24C15.5228 24 20 19.5228 20 14C20 8.47715 15.5228 4 10 4C4.47715 4 0 8.47715 0 14C0 19.5228 4.47715 24 10 24Z" fill="#D80027"/>
<path d="M10 9.21738L11.0792 12.5388H14.5716L11.7462 14.5916L12.8254 17.913L10 15.8603L7.17461 17.913L8.25383 14.5916L5.42844 12.5388H8.92078L10 9.21738Z" fill="#FFDA44"/>
</g>
<g clip-path="url(#clip1_57_1820)">
<path d="M33.7612 8.33377C33.1163 9.26976 32.6262 10.3207 32.3291 11.4503H36.8779L33.7612 8.33377Z" fill="#29337A"/>
<path d="M39.1994 4.40027C38.0473 4.73581 36.9802 5.27124 36.0406 5.9696L39.1994 9.12844V4.40027Z" fill="#29337A"/>
<path d="M36.2755 22.1972C37.1569 22.8139 38.1415 23.2914 39.1994 23.5994V19.2737L36.2755 22.1972Z" fill="#29337A"/>
<path d="M32.4438 16.9527C32.7745 18.0237 33.2812 19.0173 33.9287 19.9012L36.8772 16.9527H32.4438Z" fill="#29337A"/>
<path d="M33.9262 8.10165C33.8703 8.17808 33.8152 8.2556 33.7611 8.33392L36.8779 11.4504H32.329C32.2553 11.731 32.1952 12.017 32.1456 12.3069H38.1317L33.9262 8.10165Z" fill="white"/>
<path d="M36.0435 22.0322C36.1196 22.0889 36.1978 22.1428 36.2755 22.1972L39.1994 19.2736V23.5993C39.4803 23.6814 39.7656 23.7523 40.0558 23.8093V18.02L36.0435 22.0322Z" fill="white"/>
<path d="M32.2217 16.0962C32.2837 16.3864 32.357 16.6722 32.4437 16.9527H36.8771L33.9286 19.9012C34.2492 20.3393 34.6048 20.7505 34.9912 21.1307L40.0257 16.0962H32.2217Z" fill="white"/>
<path d="M39.1994 4.40026V9.12843L36.0405 5.96976C35.6051 6.29361 35.198 6.65313 34.8208 7.04234L40.0557 12.2772V4.19025C39.7656 4.24758 39.4803 4.31865 39.1994 4.40026Z" fill="white"/>
<path d="M39.1994 16.9225L39.1694 16.9527H39.1994V16.9225Z" fill="#D32030"/>
<path d="M40.0258 16.0962H40.0558V16.0661L40.0258 16.0962Z" fill="#D32030"/>
<path d="M43.8742 12.3067H43.8454V12.3358L43.8742 12.3067Z" fill="#D32030"/>
<path d="M39.2289 11.4505L39.1994 11.4208V11.4505H39.2289Z" fill="#D32030"/>
<path d="M40.0558 12.2772V12.3068H40.0854L40.0558 12.2772Z" fill="#D32030"/>
<path d="M44.7016 21.3857V23.6274C45.7733 23.3274 46.7724 22.8545 47.6661 22.2384L45.2372 19.8095C45.0431 20.4914 44.9721 20.844 44.7016 21.3857Z" fill="#252F6C"/>
<path d="M45.25 8.57992L47.9015 5.92839C46.9489 5.23078 45.8683 4.69916 44.7016 4.37231V6.67505C45.0134 7.29952 45.0396 7.77402 45.25 8.57992Z" fill="#252F6C"/>
<path d="M50.0303 19.9594C50.698 19.0612 51.2184 18.0472 51.5565 16.9526H47.0235L50.0303 19.9594Z" fill="#252F6C"/>
<path d="M51.671 11.4505C51.3675 10.297 50.8627 9.22635 50.1975 8.27567L47.0223 11.4505H51.671Z" fill="#252F6C"/>
<path d="M45.8337 16.2657L46.5209 16.9528L49.8102 20.2421C49.8849 20.1486 49.959 20.0555 50.0304 19.9597L47.0236 16.9528H51.5567C51.643 16.6726 51.7164 16.3866 51.7783 16.0964H45.898C45.8884 16.2178 45.8453 16.145 45.8337 16.2657Z" fill="#E7E7E7"/>
<path d="M45.1461 9.08141L48.1273 6.09987C48.0526 6.04194 47.9778 5.98431 47.9015 5.92841L45.25 8.57994C45.2775 8.68477 45.1205 8.97404 45.1461 9.08141Z" fill="#E7E7E7"/>
<path d="M44.7016 6.49081V4.37216C44.421 4.29354 44.1354 4.22692 43.8452 4.17258V5.20602C44.1638 5.55148 44.4495 5.9854 44.7016 6.49081Z" fill="#E7E7E7"/>
<path d="M45.7663 12.3067H51.8546C51.8051 12.0168 51.7448 11.731 51.6711 11.4503H47.0225L50.1976 8.27551C49.8855 7.8296 49.5386 7.41024 49.1596 7.02167L45.5833 10.5977C45.6796 11.2463 45.7227 11.623 45.7663 12.3067Z" fill="#E7E7E7"/>
<path d="M45.0927 19.6647L47.6663 22.2385C48.0943 21.9437 48.4974 21.6156 48.8736 21.2594L45.4884 17.8741C45.3804 18.5002 45.2522 19.1049 45.0927 19.6647Z" fill="#E7E7E7"/>
<path d="M43.8453 22.6751V23.8269C44.1355 23.7729 44.421 23.706 44.7018 23.6273V21.3857C44.4494 21.8913 44.1638 22.3301 43.8453 22.6751Z" fill="#E7E7E7"/>
<path d="M45.5833 10.5977L49.1593 7.02166C48.8373 6.69101 48.4922 6.38329 48.1271 6.09985L45.3172 8.91023C45.4421 9.43223 45.4988 10.0297 45.5833 10.5977Z" fill="#D71F28"/>
<path d="M41.5009 4.01233C41.6675 4.00426 41.8336 4 41.9998 4C41.8326 4 41.6662 4.00426 41.5009 4.01233Z" fill="#D32030"/>
<path d="M41.9998 24C41.8335 24 41.6674 23.9954 41.5012 23.9874C41.6665 23.9957 41.8326 24 41.9998 24Z" fill="#D32030"/>
<path d="M41.9998 24C42.6308 24 43.2469 23.9389 43.8453 23.8269V22.6751C43.32 23.2445 42.7055 24 41.9998 24Z" fill="#D32030"/>
<path d="M51.8544 12.3068H45.8453C45.9249 13.5609 45.9152 14.8506 45.8165 16.0962H51.7783C51.9226 15.42 52 14.7192 52 14.0002C52 13.4226 51.9485 12.8576 51.8544 12.3068Z" fill="#D71F28"/>
<path d="M45.8337 16.2657C45.7782 16.8565 45.5846 17.3169 45.4883 17.8743L48.8734 21.2594C49.2083 20.9421 49.5214 20.6026 49.81 20.2421L46.5209 16.9527L45.8337 16.2657Z" fill="#D71F28"/>
<path d="M43.8453 5.28036V4.17273C43.2471 4.0611 42.631 4 41.9998 4C42.7055 4 43.32 4.71116 43.8453 5.28036Z" fill="#D32030"/>
<path d="M44.7016 21.8182C44.9721 21.2763 45.204 20.6525 45.3982 19.9707L44.7016 19.2741V21.8182Z" fill="#29337A"/>
<path d="M45.4849 8.34496C45.2743 7.53906 45.0135 6.80642 44.7016 6.18195V9.12794L45.4849 8.34496Z" fill="#29337A"/>
<path d="M46.0278 16.4596C46.0391 16.3389 46.0494 16.2179 46.0592 16.0963H45.6645L46.0278 16.4596Z" fill="white"/>
<path d="M44.7016 9.12799V6.18183C44.4493 5.67642 44.1638 5.2422 43.8452 4.89703V10.382L45.5651 8.66206C45.5392 8.55469 45.512 8.44952 45.4849 8.34468L44.7016 9.12799Z" fill="white"/>
<path d="M43.8742 12.3067H46.0879C46.0445 11.6231 45.9753 10.9504 45.8792 10.3019L43.8742 12.3067Z" fill="white"/>
<path d="M43.8453 23.1029C44.164 22.7574 44.4495 22.3235 44.7018 21.8181V19.2739L45.3984 19.9706C45.5582 19.4105 45.6922 18.8122 45.8006 18.1862L43.8454 16.2311L43.8453 23.1029Z" fill="white"/>
<path d="M43.8453 23.1029V16.2311L45.8004 18.1863C45.8966 17.6287 45.9722 17.0505 46.0276 16.4596L45.6643 16.0962H46.059C46.1577 14.8506 46.1673 13.5609 46.0878 12.3067H43.8741L45.8789 10.3019C45.7944 9.73383 45.6899 9.18434 45.565 8.66218L43.8454 10.3821V4.89715C43.32 4.32777 42.7055 4 41.9998 4C41.8336 4 41.6675 4.00426 41.5009 4.01233C41.009 4.03694 40.5267 4.09745 40.0558 4.1903V12.2772L34.8208 7.04235C34.4992 7.37426 34.2 7.72792 33.9262 8.10167L37.275 11.4505L38.1317 12.3069H32.1456C32.0518 12.8576 32 13.4226 32 14.0002C32 14.7194 32.0777 15.4199 32.2217 16.0962H40.0258L34.9913 21.1307C35.321 21.4546 35.672 21.7562 36.0436 22.0321L40.0557 18.02V23.8094C40.5265 23.9023 41.0092 23.9627 41.5011 23.9874C41.6673 23.9954 41.8334 24 41.9997 24C42.7055 24 43.32 23.6722 43.8453 23.1029Z" fill="#E51D35"/>
</g>
<defs>
<clipPath id="clip0_57_1820">
<rect width="20" height="20" fill="white" transform="translate(0 4)"/>
</clipPath>
<clipPath id="clip1_57_1820">
<rect width="20" height="20" fill="white" transform="translate(32 4)"/>
</clipPath>
</defs>
</svg>
