<svg width="40" height="40" viewBox="0 0 40 40" fill="none" xmlns="http://www.w3.org/2000/svg">
<g clip-path="url(#clip0_3_2847)">
<path d="M9.82522 33.6541C6.46429 33.6541 2.89233 34.7661 2.89233 36.8269C2.89233 38.8877 6.46436 39.9998 9.82522 39.9998C13.1861 39.9998 16.7581 38.8877 16.7581 36.8269C16.7581 34.7661 13.1861 33.6541 9.82522 33.6541Z" fill="#FFDB56"/>
<path d="M9.82549 12.0236C4.41768 12.0236 0.0180664 16.4232 0.0180664 21.831C0.0180664 25.1886 1.61525 28.7986 4.76533 32.5608C7.08455 35.3307 9.37025 37.1107 9.4665 37.1852C9.57213 37.267 9.69885 37.3078 9.82549 37.3078C9.95213 37.3078 10.0788 37.267 10.1845 37.1852C10.2806 37.1107 12.5665 35.3307 14.8856 32.5608C18.0357 28.7986 19.6329 25.1885 19.6329 21.831C19.6329 16.4232 15.2333 12.0236 9.82549 12.0236ZM13.5032 21.831C13.5032 23.8621 11.8567 25.5087 9.82549 25.5087C7.79439 25.5087 6.14783 23.8621 6.14783 21.831C6.14783 19.7999 7.79439 18.1533 9.82549 18.1533C11.8567 18.1533 13.5032 19.7999 13.5032 21.831Z" fill="#FF4A4A"/>
<path d="M35.9784 17.2502C34.9886 16.8469 33.685 16.6247 32.308 16.6247C30.9312 16.6247 29.6276 16.8469 28.6377 17.2502C27.4809 17.7216 26.8438 18.4138 26.8438 19.199C26.8438 19.9842 27.4808 20.6764 28.6377 21.1477C29.6275 21.5511 30.931 21.7733 32.308 21.7733C33.685 21.7733 34.9885 21.5511 35.9784 21.1477C37.1352 20.6764 37.7722 19.9842 37.7722 19.199C37.7722 18.4138 37.1352 17.7217 35.9784 17.2502Z" fill="#FFDB56"/>
<path d="M9.82522 38.5349C6.88726 38.5349 3.78812 37.6851 3.0546 36.0945C2.94905 36.3234 2.89233 36.5677 2.89233 36.8271C2.89233 38.8879 6.46436 40 9.82522 40C13.1861 40 16.7581 38.8878 16.7581 36.8271C16.7581 36.5678 16.7014 36.3235 16.5958 36.0945C15.8624 37.685 12.7633 38.5349 9.82522 38.5349Z" fill="#FFBB24"/>
<path d="M35.9784 19.6826C34.9885 20.086 33.685 20.3081 32.308 20.3081C30.931 20.3081 29.6275 20.086 28.6376 19.6826C27.8573 19.3647 27.3147 18.946 27.0434 18.4664C26.9124 18.6979 26.8438 18.9433 26.8438 19.199C26.8438 19.9842 27.4808 20.6764 28.6377 21.1478C29.6275 21.5511 30.931 21.7733 32.308 21.7733C33.685 21.7733 34.9885 21.5511 35.9784 21.1478C37.1352 20.6764 37.7722 19.9842 37.7722 19.199C37.7722 18.9435 37.7035 18.6979 37.5726 18.4664C37.3013 18.946 36.7585 19.3647 35.9784 19.6826Z" fill="#FFBB24"/>
<path d="M32.3082 0C28.077 0 24.6348 3.44234 24.6348 7.67344C24.6348 10.2867 25.873 13.0905 28.3151 16.0073C30.1069 18.1473 31.8749 19.5241 31.9493 19.5816C32.055 19.6634 32.1816 19.7043 32.3083 19.7043C32.4349 19.7043 32.5615 19.6634 32.6673 19.5816C32.7416 19.5241 34.5098 18.1473 36.3015 16.0073C38.7435 13.0906 39.9817 10.2868 39.9817 7.67344C39.9816 3.44234 36.5393 0 32.3082 0ZM35.1348 7.67344C35.1348 9.23453 33.8693 10.5001 32.3082 10.5001C30.7471 10.5001 29.4816 9.23453 29.4816 7.67344C29.4816 6.11234 30.7471 4.84688 32.3082 4.84688C33.8693 4.84688 35.1348 6.11234 35.1348 7.67344Z" fill="#FF4A4A"/>
<path d="M9.82547 12.0236C9.45195 12.0236 9.08352 12.0453 8.72078 12.0862C13.6104 12.6368 17.4234 16.7967 17.4234 21.831C17.4234 25.1886 15.8262 28.7986 12.6762 32.5608C11.1291 34.4085 9.59805 35.8146 8.7207 36.5689C9.15867 36.9455 9.43445 37.1603 9.46648 37.1851C9.57211 37.2669 9.69883 37.3078 9.82547 37.3078C9.95211 37.3078 10.0788 37.2669 10.1845 37.1851C10.2806 37.1107 12.5665 35.3307 14.8856 32.5607C18.0357 28.7985 19.6329 25.1885 19.6329 21.831C19.6329 16.4232 15.2333 12.0236 9.82547 12.0236Z" fill="#E7343F"/>
<path d="M32.3081 0C31.9331 0 31.5642 0.0275 31.2034 0.0798437C34.9128 0.617031 37.7721 3.81742 37.7721 7.67344C37.7721 10.2867 36.5338 13.0905 34.0919 16.0073C32.9906 17.3226 31.8991 18.3488 31.2034 18.9584C31.6395 19.3405 31.9205 19.5595 31.9491 19.5816C32.0549 19.6634 32.1815 19.7042 32.3081 19.7042C32.4348 19.7042 32.5613 19.6634 32.6671 19.5816C32.7415 19.524 34.5096 18.1472 36.3013 16.0072C38.7434 13.0905 39.9816 10.2867 39.9816 7.67336C39.9815 3.44234 36.5392 0 32.3081 0Z" fill="#E7343F"/>
<path d="M18.9239 37.4143C18.6012 37.4143 18.3389 37.1535 18.3374 36.8304C18.3359 36.5064 18.5973 36.2426 18.9213 36.2411L19.696 36.2376C19.6969 36.2376 19.6978 36.2376 19.6987 36.2376C20.0214 36.2376 20.2838 36.4984 20.2852 36.8215C20.2867 37.1455 20.0253 37.4094 19.7013 37.4108L18.9266 37.4143C18.9257 37.4143 18.9248 37.4143 18.9239 37.4143ZM22.0227 37.4002C21.7001 37.4002 21.4377 37.1394 21.4362 36.8163C21.4348 36.4923 21.6962 36.2285 22.0201 36.2271L22.7948 36.2236C22.7958 36.2236 22.7966 36.2236 22.7976 36.2236C23.1202 36.2236 23.3826 36.4844 23.3841 36.8075C23.3855 37.1315 23.1241 37.3953 22.8001 37.3967L22.0255 37.4002C22.0245 37.4002 22.0236 37.4002 22.0227 37.4002ZM25.1216 37.3861C24.799 37.3861 24.5366 37.1253 24.5351 36.8022C24.5337 36.4783 24.7951 36.2144 25.119 36.2129L25.8937 36.2094C25.8946 36.2094 25.8955 36.2094 25.8964 36.2094C26.219 36.2094 26.4814 36.4702 26.4829 36.7933C26.4843 37.1173 26.223 37.3811 25.899 37.3826L25.1244 37.3861C25.1234 37.3861 25.1225 37.3861 25.1216 37.3861ZM28.2205 37.372C27.8979 37.372 27.6355 37.1112 27.6341 36.7881C27.6326 36.4642 27.894 36.2003 28.218 36.1989L28.9926 36.1954C28.9936 36.1954 28.9944 36.1954 28.9954 36.1954C29.318 36.1954 29.5804 36.4561 29.5819 36.7793C29.5833 37.1032 29.3219 37.3671 28.998 37.3685L28.2233 37.372C28.2223 37.372 28.2214 37.372 28.2205 37.372ZM31.3194 37.358C30.9967 37.358 30.7344 37.0972 30.7329 36.7741C30.7314 36.4501 30.9928 36.1863 31.3168 36.1849L32.0915 36.1814C32.0924 36.1814 32.0933 36.1814 32.0942 36.1814C32.4169 36.1814 32.6792 36.4422 32.6807 36.7653C32.6822 37.0893 32.4208 37.3531 32.0968 37.3545L31.3221 37.358C31.3212 37.358 31.3203 37.358 31.3194 37.358ZM34.4183 37.344C34.0957 37.344 33.8333 37.0833 33.8318 36.7602C33.8301 36.4363 34.0915 36.1724 34.4155 36.1708L34.5253 36.1703C34.7215 36.1694 34.9182 36.1555 35.1103 36.129C35.4306 36.0843 35.7272 36.3088 35.7716 36.6297C35.8159 36.9506 35.5918 37.2467 35.2708 37.2911C35.0275 37.3247 34.7784 37.3423 34.5307 37.3434L34.4212 37.344C34.4202 37.344 34.4192 37.344 34.4183 37.344ZM37.3363 36.4603C37.1505 36.4603 36.9676 36.3722 36.8537 36.2079C36.6693 35.9416 36.7354 35.5762 37.0016 35.3915C37.1885 35.2621 37.3665 35.1169 37.5312 34.9601C37.7655 34.7365 38.1369 34.7455 38.3605 34.9801C38.5839 35.2145 38.575 35.5858 38.3405 35.8093C38.1321 36.0079 37.9065 36.1917 37.6701 36.3556C37.568 36.4264 37.4516 36.4603 37.3363 36.4603ZM39.1913 34.0415C39.1259 34.0415 39.0594 34.0305 38.9943 34.0073C38.6891 33.8985 38.5301 33.5629 38.6387 33.2579C38.715 33.0442 38.7748 32.8227 38.8169 32.5994C38.8769 32.2811 39.1839 32.0717 39.5018 32.1316C39.8201 32.1915 40.0296 32.4983 39.9696 32.8165C39.9162 33.0997 39.8403 33.3808 39.7436 33.6518C39.6582 33.8918 39.4323 34.0415 39.1913 34.0415ZM39.2862 30.9947C39.0313 30.9947 38.7966 30.8271 38.7228 30.5697C38.6602 30.3518 38.5798 30.1368 38.4837 29.9309C38.3467 29.6373 38.4737 29.2883 38.7672 29.1513C39.0611 29.0144 39.4098 29.1413 39.5468 29.4348C39.6688 29.6962 39.7708 29.9691 39.8504 30.2461C39.9397 30.5574 39.7598 30.8823 39.4484 30.9717C39.3943 30.9872 39.3398 30.9947 39.2862 30.9947ZM37.5851 28.4643C37.4577 28.4643 37.3297 28.4231 37.2219 28.3381C37.0436 28.1972 36.8527 28.0694 36.6551 27.9579C36.3728 27.799 36.2729 27.4412 36.4319 27.159C36.5908 26.8768 36.9487 26.7768 37.2308 26.9358C37.4812 27.0769 37.7229 27.2389 37.9489 27.4172C38.2031 27.6179 38.2465 27.9868 38.0458 28.2411C37.9301 28.3878 37.7584 28.4643 37.5851 28.4643ZM34.7298 27.4011C34.721 27.4011 34.7122 27.401 34.7033 27.4005C34.6378 27.3976 34.5718 27.3961 34.5055 27.3961H33.9547C33.6307 27.3961 33.3681 27.1336 33.3681 26.8096C33.3681 26.4857 33.6306 26.223 33.9547 26.223H34.5055C34.5883 26.223 34.6723 26.2248 34.7552 26.2286C35.0788 26.2429 35.3296 26.5169 35.3151 26.8404C35.3014 27.1554 35.0417 27.4011 34.7298 27.4011ZM31.6305 27.3962H30.8558C30.5319 27.3962 30.2693 27.1337 30.2693 26.8097C30.2693 26.4858 30.5319 26.2231 30.8558 26.2231H31.6305C31.9545 26.2231 32.2171 26.4858 32.2171 26.8097C32.2171 27.1336 31.9545 27.3962 31.6305 27.3962ZM28.5316 27.3962H27.7569C27.433 27.3962 27.1704 27.1337 27.1704 26.8097C27.1704 26.4858 27.433 26.2231 27.7569 26.2231H28.5316C28.8556 26.2231 29.1182 26.4858 29.1182 26.8097C29.1182 27.1336 28.8556 27.3962 28.5316 27.3962ZM25.4326 27.3962H24.658C24.334 27.3962 24.0714 27.1337 24.0714 26.8097C24.0714 26.4858 24.334 26.2231 24.658 26.2231H25.4326C25.7566 26.2231 26.0192 26.4858 26.0192 26.8097C26.0192 27.1336 25.7567 27.3962 25.4326 27.3962ZM22.4444 26.8128C22.3375 26.8128 22.2292 26.7836 22.1321 26.7223C21.8806 26.5637 21.6444 26.3785 21.4297 26.1722C21.1962 25.9476 21.189 25.5763 21.4136 25.3429C21.638 25.1096 22.0094 25.1022 22.2429 25.3268C22.4003 25.4781 22.5736 25.614 22.758 25.7301C23.032 25.9029 23.114 26.2652 22.9412 26.5392C22.8295 26.7159 22.6391 26.8128 22.4444 26.8128ZM20.7397 24.3279C20.4645 24.3279 20.2191 24.1336 20.1645 23.8536C20.1108 23.5776 20.0835 23.2942 20.0835 23.0109L20.0837 22.9647C20.0875 22.6431 20.3494 22.3849 20.6701 22.3849C20.6725 22.3849 20.6748 22.3849 20.6771 22.385C21.0011 22.3887 21.2606 22.6544 21.2568 22.9783L21.2566 23.0108C21.2566 23.219 21.2766 23.427 21.316 23.6291C21.378 23.9471 21.1705 24.2551 20.8525 24.317C20.8146 24.3244 20.7768 24.3279 20.7397 24.3279ZM21.3807 21.3841C21.2621 21.3841 21.1426 21.3483 21.039 21.274C20.7758 21.085 20.7158 20.7185 20.9047 20.4554C21.0783 20.2136 21.2772 19.9889 21.4958 19.7872C21.7341 19.5676 22.1051 19.5827 22.3247 19.8207C22.5444 20.0588 22.5294 20.4299 22.2912 20.6495C22.1308 20.7975 21.9849 20.9624 21.8576 21.1397C21.743 21.2992 21.5632 21.3841 21.3807 21.3841ZM23.9629 19.8319C23.6733 19.8319 23.4215 19.6176 23.3822 19.3226C23.3394 19.0015 23.5651 18.7065 23.8862 18.6638C24.078 18.6383 24.2739 18.6254 24.4689 18.6254H24.7367C25.0607 18.6254 25.3233 18.8879 25.3233 19.2119C25.3233 19.5359 25.0607 19.7985 24.7367 19.7985H24.4689C24.3255 19.7985 24.1815 19.8079 24.0409 19.8266C24.0147 19.8303 23.9887 19.8319 23.9629 19.8319Z" fill="#1EA4E9"/>
</g>
<defs>
<clipPath id="clip0_3_2847">
<rect width="40" height="40" fill="white"/>
</clipPath>
</defs>
</svg>
