<svg width="40" height="40" viewBox="0 0 40 40" fill="none" xmlns="http://www.w3.org/2000/svg">
<g clip-path="url(#clip0_416_292)">
<path d="M31.297 20.7031C26.4981 20.7031 22.594 24.6072 22.594 29.4061C22.594 34.205 26.4981 38.1094 31.297 38.1094C36.0959 38.1094 40 34.2053 40 29.4061C40 24.6072 36.0956 20.7031 31.297 20.7031ZM33.8074 30.578H32.4689V31.9165C32.4689 32.5638 31.9443 33.0884 31.297 33.0884C30.6497 33.0884 30.1251 32.5638 30.1251 31.9165V30.578H28.7866C28.1393 30.578 27.6147 30.0534 27.6147 29.4061C27.6147 28.7592 28.1393 28.2343 28.7866 28.2343H30.1251V26.8958C30.1251 26.2488 30.6497 25.7239 31.297 25.7239C31.9443 25.7239 32.4689 26.2488 32.4689 26.8958V28.2343H33.8074C34.4547 28.2343 34.9792 28.7592 34.9792 29.4061C34.9792 30.0534 34.4547 30.578 33.8074 30.578Z" fill="#55AAFF"/>
<path d="M12.4689 19.2813C17.2678 19.2813 21.1719 15.3769 21.1719 10.578C21.1719 5.77911 17.2675 1.875 12.4689 1.875C7.66998 1.875 3.76556 5.77911 3.76556 10.578C3.76556 15.3772 7.66998 19.2813 12.4689 19.2813Z" fill="#55AAFF"/>
<path d="M22.7698 22.3907C21.8893 21.102 20.7739 19.985 19.4852 19.1043C17.576 20.6784 15.1309 21.6251 12.4689 21.6251C9.80682 21.6251 7.36176 20.6784 5.45227 19.1043C2.16339 21.3516 0 25.1309 0 29.4061V33.7994C0 36.1761 1.93329 38.1094 4.30969 38.1094H20.6274C21.676 38.1094 22.6379 37.7328 23.3859 37.1082C21.4468 35.1166 20.2499 32.3987 20.2499 29.4061C20.2499 26.7447 21.1963 24.2999 22.7698 22.3907Z" fill="#55AAFF"/>
</g>
<defs>
<clipPath id="clip0_416_292">
<rect width="40" height="40" fill="white"/>
</clipPath>
</defs>
</svg>
