<svg width="24" height="24" viewBox="0 0 24 24" fill="none" xmlns="http://www.w3.org/2000/svg">
<g clip-path="url(#clip0_398_2880)">
<path d="M13.0445 9.53998V10.7466C13.0445 11.1299 13.121 11.4514 13.2721 11.7019C13.4804 12.0476 13.8225 12.2457 14.2108 12.2457C14.5913 12.2457 14.9694 12.0604 15.3346 11.6953L19.32 7.70984C20.1951 6.83478 20.1951 5.41095 19.32 4.53589L15.3346 0.550415C14.9694 0.18512 14.5913 0 14.2108 0C13.6302 0 13.0445 0.463623 13.0445 1.49908V2.59497C7.38613 2.92914 2.70193 7.27148 2.00576 12.9567C1.96676 13.2742 2.1473 13.5782 2.44485 13.6959C2.52907 13.7292 2.61678 13.7454 2.70339 13.7454C2.92275 13.7454 3.13552 13.6426 3.27102 13.4575C5.13833 10.9061 8.1365 9.38287 11.291 9.38287C11.8755 9.38287 12.4633 9.43561 13.0445 9.53998Z" fill="#00BF91"/>
<path d="M22.5433 10.3041C22.2457 10.1862 21.9063 10.2843 21.7171 10.5427C19.85 13.0939 16.8518 14.6172 13.6973 14.6172C13.1128 14.6172 12.525 14.5644 11.9439 14.4601V13.2534C11.9439 12.2179 11.3579 11.7543 10.7775 11.7543C10.397 11.7543 10.0189 11.9396 9.65357 12.3049L5.6681 16.2902C4.79322 17.1652 4.79322 18.5891 5.66828 19.4643L9.65357 23.4496C10.0189 23.8149 10.397 24 10.7775 24C11.3579 24 11.9439 23.5364 11.9439 22.5009V21.4051C17.6024 21.0709 22.2864 16.7285 22.9826 11.0435C23.0216 10.7258 22.841 10.4218 22.5433 10.3041Z" fill="#00BF91"/>
</g>
<defs>
<clipPath id="clip0_398_2880">
<rect width="24" height="24" fill="white"/>
</clipPath>
</defs>
</svg>
