<svg width="40" height="40" viewBox="0 0 40 40" fill="none" xmlns="http://www.w3.org/2000/svg">
<g clip-path="url(#clip0_416_352)">
<path d="M10.7663 12.3647C10.7663 7.6549 14.5977 3.82353 19.3075 3.82353C24.0165 3.82353 27.8478 7.6549 27.8478 12.3647V16.3937H31.6714V12.3647C31.6714 5.54667 26.1247 0 19.3075 0C12.4894 0 6.94275 5.54667 6.94275 12.3647V16.3937H10.7663V12.3647Z" fill="#F4B334"/>
<path d="M35.6957 18.7467H4.30435C3.43768 18.7467 2.73572 19.4486 2.73572 20.3153V38.4314C2.73572 39.298 3.43768 40 4.30435 40H35.6957C36.5624 40 37.2643 39.298 37.2643 38.4314V20.3153C37.2643 19.4486 36.5624 18.7467 35.6957 18.7467ZM21.1765 35.8235C21.1765 36.4729 20.6494 37 20 37C19.3506 37 18.8236 36.4729 18.8236 35.8235V35.7192C18.8236 35.069 19.3506 34.5428 20 34.5428C20.6494 34.5428 21.1765 35.069 21.1765 35.7192V35.8235ZM21.3373 30.1694C21.2408 30.2008 21.1765 30.2847 21.1765 30.3773V31.4188C21.1765 32.069 20.6494 32.5953 20 32.5953C19.3506 32.5953 18.8236 32.069 18.8236 31.4188V30.3773C18.8236 29.2698 19.5349 28.2831 20.6063 27.9326C21.4549 27.6549 22.0047 26.8353 21.9436 25.9396C21.8769 24.9788 21.102 24.2039 20.1404 24.1373C18.993 24.0565 18.0518 24.9647 18.0518 26.0808C18.0518 26.7294 17.5271 27.2573 16.8753 27.2573C16.2259 27.2573 15.6989 26.7302 15.6989 26.0808C15.6989 23.6447 17.7522 21.6141 20.3028 21.7898C22.4298 21.9365 24.1443 23.651 24.291 25.778C24.4267 27.7506 23.2126 29.5561 21.3373 30.1694Z" fill="#F4B334"/>
</g>
<defs>
<clipPath id="clip0_416_352">
<rect width="40" height="40" fill="white"/>
</clipPath>
</defs>
</svg>
