<svg width="48" height="48" viewBox="0 0 48 48" fill="none" xmlns="http://www.w3.org/2000/svg">
<path d="M13.5 4.5H10.5V3C10.5 2.17529 11.1753 1.5 12 1.5C12.8247 1.5 13.5 2.17529 13.5 3V4.5ZM37.5 3C37.5 2.17529 36.8247 1.5 36 1.5C35.1753 1.5 34.5 2.17529 34.5 3V4.5H37.5V3ZM42 4.5H37.5V6C37.5 6.82471 36.8247 7.5 36 7.5C35.1753 7.5 34.5 6.82471 34.5 6V4.5H13.5V6C13.5 6.82471 12.8247 7.5 12 7.5C11.1753 7.5 10.5 6.82471 10.5 6V4.5H6C3.52515 4.5 1.5 6.52515 1.5 9V13.5H46.5V9C46.5 6.52515 44.4749 4.5 42 4.5ZM46.5 16.5V42C46.5 44.4814 44.4814 46.5 42 46.5H6C3.51855 46.5 1.5 44.4814 1.5 42V16.5H46.5ZM36.3105 22.9395C35.7246 22.3535 34.7754 22.3535 34.1895 22.9395L20.25 36.8789L13.8105 30.4395C13.2246 29.8535 12.2754 29.8535 11.6895 30.4395C11.1035 31.0254 11.1035 31.9746 11.6895 32.5605L19.1895 40.0605C19.4824 40.3535 19.8662 40.5 20.25 40.5C20.6338 40.5 21.0176 40.3535 21.3105 40.0605L36.3105 25.0605C36.8965 24.4746 36.8965 23.5254 36.3105 22.9395Z" fill="#ACAFC9"/>
</svg>
