<svg width="24" height="24" viewBox="0 0 24 24" fill="none" xmlns="http://www.w3.org/2000/svg">
<g clip-path="url(#clip0_354_15600)">
<path d="M2.40002 14.4001C3.72551 14.4001 4.80003 13.3256 4.80003 12.0001C4.80003 10.6746 3.72551 9.6001 2.40002 9.6001C1.07452 9.6001 0 10.6746 0 12.0001C0 13.3256 1.07452 14.4001 2.40002 14.4001Z" fill="#ACAFC9"/>
<path d="M12.0001 14.4001C13.3256 14.4001 14.4001 13.3256 14.4001 12.0001C14.4001 10.6746 13.3256 9.6001 12.0001 9.6001C10.6746 9.6001 9.6001 10.6746 9.6001 12.0001C9.6001 13.3256 10.6746 14.4001 12.0001 14.4001Z" fill="#ACAFC9"/>
<path d="M21.6002 14.4001C22.9257 14.4001 24.0002 13.3256 24.0002 12.0001C24.0002 10.6746 22.9257 9.6001 21.6002 9.6001C20.2747 9.6001 19.2002 10.6746 19.2002 12.0001C19.2002 13.3256 20.2747 14.4001 21.6002 14.4001Z" fill="#ACAFC9"/>
</g>
<defs>
<clipPath id="clip0_354_15600">
<rect width="24" height="24" fill="white"/>
</clipPath>
</defs>
</svg>
