<svg width="40" height="40" viewBox="0 0 40 40" fill="none" xmlns="http://www.w3.org/2000/svg">
<g clip-path="url(#clip0_3_2955)">
<path d="M10.0096 39.6214H1.06078C0.474902 39.6214 0 39.1465 0 38.5606V17.8417C0 17.2559 0.474902 16.7809 1.06078 16.7809H10.0096V39.6214H10.0096Z" fill="url(#paint0_linear_3_2955)"/>
<path d="M29.9902 39.6214H38.9391C39.525 39.6214 39.9999 39.1465 39.9999 38.5606V17.8417C39.9999 17.2559 39.525 16.7809 38.9391 16.7809H29.9902V39.6214Z" fill="url(#paint1_linear_3_2955)"/>
<path d="M40.0001 25.1189V38.5605C40.0001 39.1468 39.5253 39.6216 38.939 39.6216H29.9902V16.781H31.663L40.0001 25.1189Z" fill="url(#paint2_linear_3_2955)"/>
<path d="M8.33374 8.58893H31.6661V39.6213H8.33374V8.58893Z" fill="url(#paint3_linear_3_2955)"/>
<path d="M29.6417 39.6214H10.3581C9.81155 39.6214 9.36841 39.1783 9.36841 38.6317V10.7646C9.36841 10.218 9.81155 9.77484 10.3581 9.77484H29.6417C30.1883 9.77484 30.6314 10.218 30.6314 10.7646V38.6317C30.6313 39.1783 30.1883 39.6214 29.6417 39.6214Z" fill="url(#paint4_linear_3_2955)"/>
<path d="M28.3811 11.3925C29.0068 11.3925 29.5157 11.9015 29.5157 12.5271V16.2205C29.5157 16.846 29.0067 17.355 28.3811 17.355H24.6878C24.0622 17.355 23.5532 16.846 23.5532 16.2205V12.5271C23.5532 11.9015 24.0622 11.3925 24.6878 11.3925H28.3811Z" fill="url(#paint5_linear_3_2955)"/>
<path d="M28.3811 17.8802C29.0068 17.8802 29.5157 18.3892 29.5157 19.0148V22.7082C29.5157 23.3338 29.0067 23.8428 28.3811 23.8428H24.6878C24.0622 23.8428 23.5532 23.3338 23.5532 22.7082V19.0148C23.5532 18.3892 24.0622 17.8802 24.6878 17.8802H28.3811Z" fill="url(#paint6_linear_3_2955)"/>
<path d="M28.3811 24.3679C29.0068 24.3679 29.5157 24.8769 29.5157 25.5024V29.1958C29.5157 29.8213 29.0067 30.3304 28.3811 30.3304H24.6878C24.0622 30.3304 23.5532 29.8213 23.5532 29.1958V25.5024C23.5532 24.8769 24.0622 24.3679 24.6878 24.3679H28.3811Z" fill="url(#paint7_linear_3_2955)"/>
<path d="M15.3118 11.3925C15.9375 11.3925 16.4464 11.9015 16.4464 12.5271V16.2205C16.4464 16.846 15.9374 17.355 15.3118 17.355H11.6185C10.9928 17.355 10.4839 16.846 10.4839 16.2205V12.5271C10.4839 11.9015 10.9929 11.3925 11.6185 11.3925H15.3118Z" fill="url(#paint8_linear_3_2955)"/>
<path d="M15.3118 17.8802C15.9375 17.8802 16.4464 18.3892 16.4464 19.0148V22.7082C16.4464 23.3338 15.9374 23.8428 15.3118 23.8428H11.6185C10.9928 23.8428 10.4839 23.3338 10.4839 22.7082V19.0148C10.4839 18.3892 10.9929 17.8802 11.6185 17.8802H15.3118Z" fill="url(#paint9_linear_3_2955)"/>
<path d="M15.3118 24.3679C15.9375 24.3679 16.4464 24.8769 16.4464 25.5024V29.1958C16.4464 29.8213 15.9374 30.3304 15.3118 30.3304H11.6185C10.9928 30.3304 10.4839 29.8213 10.4839 29.1958V25.5024C10.4839 24.8769 10.9929 24.3679 11.6185 24.3679H15.3118Z" fill="url(#paint10_linear_3_2955)"/>
<path d="M21.8465 11.3925C22.4721 11.3925 22.9811 11.9015 22.9811 12.5271V16.2205C22.9811 16.846 22.472 17.355 21.8465 17.355H18.1531C17.5275 17.355 17.0186 16.846 17.0186 16.2205V12.5271C17.0186 11.9015 17.5276 11.3925 18.1531 11.3925H21.8465Z" fill="url(#paint11_linear_3_2955)"/>
<path d="M21.8465 17.8802C22.4721 17.8802 22.9811 18.3892 22.9811 19.0148V22.7082C22.9811 23.3338 22.472 23.8428 21.8465 23.8428H18.1531C17.5275 23.8428 17.0186 23.3338 17.0186 22.7082V19.0148C17.0186 18.3892 17.5276 17.8802 18.1531 17.8802H21.8465Z" fill="url(#paint12_linear_3_2955)"/>
<path d="M21.8465 24.3679C22.4721 24.3679 22.9811 24.8769 22.9811 25.5024V29.1958C22.9811 29.8213 22.472 30.3304 21.8465 30.3304H18.1531C17.5275 30.3304 17.0186 29.8213 17.0186 29.1958V25.5024C17.0186 24.8769 17.5276 24.3679 18.1531 24.3679H21.8465Z" fill="url(#paint13_linear_3_2955)"/>
<path d="M31.6661 8.58893H8.33374V8.94579L31.6661 32.2782V8.58893Z" fill="url(#paint14_linear_3_2955)"/>
<path d="M20 39.6214H30.5462C31.1647 39.6214 31.6662 39.1807 31.6662 38.6371V8.58893H20V39.6214Z" fill="url(#paint15_linear_3_2955)"/>
<path d="M25.0269 32.0046C24.9687 31.883 24.8455 31.7985 24.7017 31.7985H15.298C15.0982 31.7985 14.9363 31.9604 14.9363 32.1602V32.6426C14.9363 32.7865 15.0208 32.9096 15.1424 32.9679L21.796 39.6215H29.6415H29.6416H30.616C31.1728 39.6215 31.6269 39.188 31.6626 38.6403L25.0269 32.0046Z" fill="url(#paint16_linear_3_2955)"/>
<path d="M15.6375 32.8539H24.3627V39.6214H15.6375V32.8539Z" fill="url(#paint17_linear_3_2955)"/>
<path d="M21.7964 39.6214H24.3627V32.8539H15.6375V33.4625L21.7964 39.6214Z" fill="url(#paint18_linear_3_2955)"/>
<path d="M23.9634 39.6214H16.0366V33.8215C16.0366 33.5733 16.2379 33.3719 16.4861 33.3719H23.5139C23.7621 33.3719 23.9634 33.5732 23.9634 33.8215V39.6214H23.9634Z" fill="url(#paint19_linear_3_2955)"/>
<path d="M20 32.8539H24.3626V39.6214H20V32.8539Z" fill="url(#paint20_linear_3_2955)"/>
<path d="M24.7017 33.0041H15.298C15.0982 33.0041 14.9363 32.8422 14.9363 32.6424V32.1601C14.9363 31.9603 15.0982 31.7983 15.298 31.7983H24.7017C24.9015 31.7983 25.0634 31.9603 25.0634 32.1601V32.6424C25.0633 32.8423 24.9015 33.0041 24.7017 33.0041Z" fill="url(#paint21_linear_3_2955)"/>
<path d="M11.6185 29.7563C11.3094 29.7563 11.0579 29.5048 11.0579 29.1957V25.5024C11.0579 25.1933 11.3093 24.9418 11.6185 24.9418H15.3118C15.6209 24.9418 15.8725 25.1933 15.8725 25.5024V29.1957C15.8725 29.5048 15.621 29.7563 15.3118 29.7563H11.6185Z" fill="url(#paint22_linear_3_2955)"/>
<path d="M11.6185 23.2686C11.3094 23.2686 11.0579 23.0172 11.0579 22.7081V19.0147C11.0579 18.7056 11.3093 18.4541 11.6185 18.4541H15.3118C15.6209 18.4541 15.8725 18.7056 15.8725 19.0147V22.7081C15.8725 23.0172 15.621 23.2686 15.3118 23.2686H11.6185Z" fill="url(#paint23_linear_3_2955)"/>
<path d="M11.6185 16.7809C11.3094 16.7809 11.0579 16.5295 11.0579 16.2204V12.527C11.0579 12.2179 11.3093 11.9665 11.6185 11.9665H15.3118C15.6209 11.9665 15.8725 12.2179 15.8725 12.527V16.2204C15.8725 16.5295 15.621 16.7809 15.3118 16.7809H11.6185Z" fill="url(#paint24_linear_3_2955)"/>
<path d="M24.6878 29.7563C24.3787 29.7563 24.1272 29.5048 24.1272 29.1957V25.5024C24.1272 25.1933 24.3786 24.9418 24.6878 24.9418H28.3812C28.6903 24.9418 28.9418 25.1933 28.9418 25.5024V29.1957C28.9418 29.5048 28.6903 29.7563 28.3812 29.7563H24.6878Z" fill="url(#paint25_linear_3_2955)"/>
<path d="M24.6878 23.2686C24.3787 23.2686 24.1272 23.0172 24.1272 22.7081V19.0147C24.1272 18.7056 24.3786 18.4541 24.6878 18.4541H28.3812C28.6903 18.4541 28.9418 18.7056 28.9418 19.0147V22.7081C28.9418 23.0172 28.6903 23.2686 28.3812 23.2686H24.6878Z" fill="url(#paint26_linear_3_2955)"/>
<path d="M24.6878 16.7809C24.3787 16.7809 24.1272 16.5295 24.1272 16.2204V12.527C24.1272 12.2179 24.3786 11.9665 24.6878 11.9665H28.3812C28.6903 11.9665 28.9418 12.2179 28.9418 12.527V16.2204C28.9418 16.5295 28.6903 16.7809 28.3812 16.7809H24.6878Z" fill="url(#paint27_linear_3_2955)"/>
<path d="M18.1532 29.7563C17.8441 29.7563 17.5925 29.5048 17.5925 29.1957V25.5024C17.5925 25.1933 17.844 24.9418 18.1532 24.9418H21.8465C22.1556 24.9418 22.4071 25.1933 22.4071 25.5024V29.1957C22.4071 29.5048 22.1557 29.7563 21.8465 29.7563H18.1532Z" fill="url(#paint28_linear_3_2955)"/>
<path d="M18.1532 23.2686C17.8441 23.2686 17.5925 23.0172 17.5925 22.7081V19.0147C17.5925 18.7056 17.844 18.4541 18.1532 18.4541H21.8465C22.1556 18.4541 22.4071 18.7056 22.4071 19.0147V22.7081C22.4071 23.0172 22.1557 23.2686 21.8465 23.2686H18.1532Z" fill="url(#paint29_linear_3_2955)"/>
<path d="M18.1532 16.7809C17.8441 16.7809 17.5925 16.5295 17.5925 16.2204V12.527C17.5925 12.2179 17.844 11.9665 18.1532 11.9665H21.8465C22.1556 11.9665 22.4071 12.2179 22.4071 12.527V16.2204C22.4071 16.5295 22.1557 16.7809 21.8465 16.7809H18.1532Z" fill="url(#paint30_linear_3_2955)"/>
<path d="M8.82422 6.13617H9.45057V7.8375H8.82422V6.13617Z" fill="url(#paint31_linear_3_2955)"/>
<path d="M11.8137 6.13617H12.4401V7.8375H11.8137V6.13617Z" fill="url(#paint32_linear_3_2955)"/>
<path d="M15.4634 6.13617H16.0897V7.8375H15.4634V6.13617Z" fill="url(#paint33_linear_3_2955)"/>
<path d="M20.1785 6.13617H20.8048V7.8375H20.1785V6.13617Z" fill="url(#paint34_linear_3_2955)"/>
<path d="M24.9702 6.13617H25.5966V7.8375H24.9702V6.13617Z" fill="url(#paint35_linear_3_2955)"/>
<path d="M29.3987 6.13617H30.025V7.8375H29.3987V6.13617Z" fill="url(#paint36_linear_3_2955)"/>
<path d="M8.4541 6.21757V0.780161C8.4541 0.649102 8.51959 0.549337 8.65073 0.480945C8.78179 0.412553 8.93849 0.378357 9.12092 0.378357C9.30328 0.378357 9.45998 0.412553 9.59112 0.480945C9.72218 0.549337 9.78775 0.649102 9.78775 0.780161V2.87475H11.4891V0.780161C11.4891 0.649102 11.5546 0.549337 11.6857 0.480945C11.8168 0.412553 11.9735 0.378357 12.1559 0.378357C12.3383 0.378357 12.495 0.412553 12.6261 0.480945C12.7572 0.549337 12.8227 0.649102 12.8227 0.780161V6.21757C12.8227 6.34879 12.7572 6.44989 12.6261 6.5211C12.4949 6.5924 12.3382 6.62801 12.1559 6.62801C11.9735 6.62801 11.8168 6.59248 11.6857 6.5211C11.5545 6.44997 11.4891 6.34879 11.4891 6.21757V3.90071H9.78775V6.21757C9.78775 6.34879 9.72218 6.44989 9.59112 6.5211C9.45991 6.5924 9.30328 6.62801 9.12092 6.62801C8.93842 6.62801 8.78171 6.59248 8.65073 6.5211C8.51951 6.44989 8.4541 6.34879 8.4541 6.21757Z" fill="url(#paint37_linear_3_2955)"/>
<path d="M13.6777 4.66157V2.396C13.6777 1.70071 13.8686 1.19051 14.2505 0.865651C14.6323 0.540788 15.1397 0.378357 15.7723 0.378357C16.4106 0.378357 16.9207 0.540788 17.3027 0.865651C17.6845 1.19051 17.8755 1.70063 17.8755 2.396V4.66157C17.8755 5.35702 17.6844 5.86706 17.3027 6.19193C16.9208 6.51679 16.4106 6.67922 15.7723 6.67922C15.1397 6.67922 14.6323 6.51679 14.2505 6.19193C13.8686 5.86706 13.6777 5.35702 13.6777 4.66157ZM15.0115 4.66157C15.0115 5.23161 15.265 5.51655 15.7723 5.51655C16.2853 5.51655 16.5417 5.23161 16.5417 4.66157V2.396C16.5417 1.82612 16.2853 1.54102 15.7723 1.54102C15.2649 1.54102 15.0115 1.82612 15.0115 2.396V4.66157Z" fill="url(#paint38_linear_3_2955)"/>
<path d="M18.2432 0.951455C18.2432 0.796475 18.2774 0.6622 18.3458 0.548631C18.4141 0.435063 18.5138 0.378357 18.645 0.378357H22.3383C22.4694 0.378357 22.5691 0.435063 22.6375 0.548631C22.7059 0.6622 22.7401 0.796475 22.7401 0.951455C22.7401 1.11757 22.7044 1.25734 22.6333 1.37091C22.562 1.4844 22.4636 1.54102 22.3383 1.54102H21.1585V6.21475C21.1585 6.34675 21.0929 6.44863 20.9618 6.5204C20.8306 6.59216 20.674 6.62793 20.4916 6.62793C20.3091 6.62793 20.1524 6.59216 20.0214 6.5204C19.8902 6.44863 19.8248 6.34675 19.8248 6.21475V1.54102H18.645C18.5196 1.54102 18.4212 1.4844 18.35 1.37091C18.2787 1.25734 18.2432 1.11765 18.2432 0.951455Z" fill="url(#paint39_linear_3_2955)"/>
<path d="M23.27 6.21757V0.78871C23.27 0.657651 23.327 0.556553 23.441 0.485259C23.555 0.414043 23.6917 0.378357 23.8514 0.378357H26.895C27.026 0.378357 27.1258 0.435377 27.1942 0.549337C27.2626 0.663455 27.2968 0.797259 27.2968 0.951141C27.2968 1.11655 27.2611 1.25608 27.1899 1.37004C27.1186 1.48416 27.0202 1.54102 26.895 1.54102H24.6037V2.98589H25.8861C26.0114 2.98589 26.1097 3.03718 26.1811 3.13977C26.2523 3.24236 26.288 3.36502 26.288 3.50738C26.288 3.63859 26.2538 3.7553 26.1854 3.85789C26.117 3.96047 26.0172 4.01177 25.8862 4.01177H24.6038V5.46518H26.895C27.0203 5.46518 27.1186 5.5222 27.1899 5.63616C27.2612 5.7502 27.2968 5.88981 27.2968 6.05506C27.2968 6.20895 27.2626 6.34291 27.1943 6.45687C27.1259 6.57098 27.0261 6.62785 26.895 6.62785H23.8514C23.6918 6.62785 23.555 6.59232 23.4411 6.52095C23.327 6.44989 23.27 6.34879 23.27 6.21757Z" fill="url(#paint40_linear_3_2955)"/>
<path d="M27.8779 6.21757V0.780161C27.8779 0.649102 27.9434 0.549337 28.0746 0.480945C28.2056 0.412553 28.3623 0.378357 28.5448 0.378357C28.7271 0.378357 28.8838 0.412553 29.0149 0.480945C29.146 0.549337 29.2116 0.649102 29.2116 0.780161V5.46526H31.1608C31.2805 5.46526 31.3746 5.52228 31.4429 5.63624C31.5113 5.75028 31.5455 5.88706 31.5455 6.04659C31.5455 6.20628 31.5113 6.34306 31.4429 6.45703C31.3746 6.57114 31.2805 6.62801 31.1608 6.62801H28.4593C28.2997 6.62801 28.1628 6.59248 28.0489 6.5211C27.9349 6.44989 27.8779 6.34879 27.8779 6.21757Z" fill="url(#paint41_linear_3_2955)"/>
<path d="M32.0802 8.94579H7.91993C7.70487 8.94579 7.53052 8.77144 7.53052 8.55638V7.51246C7.53052 7.2974 7.70487 7.12305 7.91993 7.12305H32.0802C32.2952 7.12305 32.4696 7.2974 32.4696 7.51246V8.55638C32.4695 8.77144 32.2952 8.94579 32.0802 8.94579Z" fill="url(#paint42_linear_3_2955)"/>
<path d="M15.312 11.9664H11.6186C11.5408 11.9664 11.4666 11.9824 11.3992 12.0112L15.8277 16.4398C15.8565 16.3723 15.8726 16.2982 15.8726 16.2203V12.527C15.8726 12.2179 15.6211 11.9664 15.312 11.9664Z" fill="url(#paint43_linear_3_2955)"/>
<path d="M21.8467 11.9664H20V16.7809H21.8467C22.1558 16.7809 22.4073 16.5294 22.4073 16.2203V12.527C22.4073 12.2179 22.1558 11.9664 21.8467 11.9664Z" fill="url(#paint44_linear_3_2955)"/>
<path d="M6.14872 17.8802C6.77437 17.8802 7.28331 18.3892 7.28331 19.0149V22.7082C7.28331 23.3338 6.77429 23.8428 6.14872 23.8428H2.45539C1.82974 23.8428 1.3208 23.3338 1.3208 22.7082V19.0149C1.3208 18.3892 1.82982 17.8802 2.45539 17.8802H6.14872Z" fill="url(#paint45_linear_3_2955)"/>
<path d="M6.14872 24.3679C6.77437 24.3679 7.28331 24.8769 7.28331 25.5024V29.1959C7.28331 29.8214 6.77429 30.3304 6.14872 30.3304H2.45539C1.82974 30.3304 1.3208 29.8214 1.3208 29.1959V25.5024C1.3208 24.8769 1.82982 24.3679 2.45539 24.3679H6.14872Z" fill="url(#paint46_linear_3_2955)"/>
<path d="M6.14872 30.8555C6.77437 30.8555 7.28331 31.3645 7.28331 31.9901V35.6835C7.28331 36.309 6.77429 36.818 6.14872 36.818H2.45539C1.82974 36.818 1.3208 36.309 1.3208 35.6835V31.9901C1.3208 31.3645 1.82982 30.8555 2.45539 30.8555H6.14872Z" fill="url(#paint47_linear_3_2955)"/>
<path d="M2.4554 36.244C2.1463 36.244 1.89478 35.9925 1.89478 35.6834V31.9901C1.89478 31.681 2.14623 31.4295 2.4554 31.4295H6.14874C6.45783 31.4295 6.70936 31.681 6.70936 31.9901V35.6834C6.70936 35.9925 6.45791 36.244 6.14874 36.244H2.4554Z" fill="url(#paint48_linear_3_2955)"/>
<path d="M2.4554 29.7563C2.1463 29.7563 1.89478 29.5049 1.89478 29.1958V25.5024C1.89478 25.1933 2.14623 24.9418 2.4554 24.9418H6.14874C6.45783 24.9418 6.70936 25.1933 6.70936 25.5024V29.1958C6.70936 29.5049 6.45791 29.7563 6.14874 29.7563H2.4554Z" fill="url(#paint49_linear_3_2955)"/>
<path d="M2.4554 23.2687C2.1463 23.2687 1.89478 23.0172 1.89478 22.7081V19.0148C1.89478 18.7057 2.14623 18.4542 2.4554 18.4542H6.14874C6.45783 18.4542 6.70936 18.7057 6.70936 19.0148V22.7081C6.70936 23.0172 6.45791 23.2687 6.14874 23.2687H2.4554Z" fill="url(#paint50_linear_3_2955)"/>
<path d="M37.5447 17.8802C38.1704 17.8802 38.6793 18.3892 38.6793 19.0149V22.7082C38.6793 23.3338 38.1703 23.8428 37.5447 23.8428H33.8514C33.2257 23.8428 32.7168 23.3338 32.7168 22.7082V19.0149C32.7168 18.3892 33.2258 17.8802 33.8514 17.8802H37.5447Z" fill="url(#paint51_linear_3_2955)"/>
<path d="M37.5447 24.3679C38.1704 24.3679 38.6793 24.8769 38.6793 25.5024V29.1959C38.6793 29.8214 38.1703 30.3304 37.5447 30.3304H33.8514C33.2257 30.3304 32.7168 29.8214 32.7168 29.1959V25.5024C32.7168 24.8769 33.2258 24.3679 33.8514 24.3679H37.5447Z" fill="url(#paint52_linear_3_2955)"/>
<path d="M37.5447 30.8555C38.1704 30.8555 38.6793 31.3645 38.6793 31.9901V35.6835C38.6793 36.309 38.1703 36.818 37.5447 36.818H33.8514C33.2257 36.818 32.7168 36.309 32.7168 35.6835V31.9901C32.7168 31.3645 33.2258 30.8555 33.8514 30.8555H37.5447Z" fill="url(#paint53_linear_3_2955)"/>
<path d="M33.8514 36.244C33.5423 36.244 33.2908 35.9925 33.2908 35.6834V31.9901C33.2908 31.681 33.5422 31.4295 33.8514 31.4295H37.5447C37.8538 31.4295 38.1054 31.681 38.1054 31.9901V35.6834C38.1054 35.9925 37.8539 36.244 37.5447 36.244H33.8514Z" fill="url(#paint54_linear_3_2955)"/>
<path d="M33.8514 29.7563C33.5423 29.7563 33.2908 29.5049 33.2908 29.1958V25.5024C33.2908 25.1933 33.5422 24.9418 33.8514 24.9418H37.5447C37.8538 24.9418 38.1054 25.1933 38.1054 25.5024V29.1958C38.1054 29.5049 37.8539 29.7563 37.5447 29.7563H33.8514Z" fill="url(#paint55_linear_3_2955)"/>
<path d="M33.8514 23.2687C33.5423 23.2687 33.2908 23.0172 33.2908 22.7081V19.0148C33.2908 18.7057 33.5422 18.4542 33.8514 18.4542H37.5447C37.8538 18.4542 38.1054 18.7057 38.1054 19.0148V22.7081C38.1054 23.0172 37.8539 23.2687 37.5447 23.2687H33.8514Z" fill="url(#paint56_linear_3_2955)"/>
<path d="M33.4789 18.597C33.3638 18.6998 33.2908 18.8487 33.2908 19.0148V22.7081C33.2908 23.0172 33.5422 23.2687 33.8514 23.2687H37.5447C37.7106 23.2687 37.8595 23.1958 37.9622 23.0809L33.4789 18.597Z" fill="url(#paint57_linear_3_2955)"/>
</g>
<defs>
<linearGradient id="paint0_linear_3_2955" x1="0.418039" y1="22.0723" x2="10.4666" y2="34.7422" gradientUnits="userSpaceOnUse">
<stop stop-color="#4A98F7"/>
<stop offset="1" stop-color="#0469BC"/>
</linearGradient>
<linearGradient id="paint1_linear_3_2955" x1="30.639" y1="24.1559" x2="40.1087" y2="33.6255" gradientUnits="userSpaceOnUse">
<stop stop-color="#4A98F7"/>
<stop offset="1" stop-color="#0469BC"/>
</linearGradient>
<linearGradient id="paint2_linear_3_2955" x1="38" y1="28.2013" x2="25.9534" y2="28.2013" gradientUnits="userSpaceOnUse">
<stop stop-color="#0469BC" stop-opacity="0"/>
<stop offset="1" stop-color="#0469BC"/>
</linearGradient>
<linearGradient id="paint3_linear_3_2955" x1="11.2747" y1="15.3798" x2="41.2683" y2="45.3735" gradientUnits="userSpaceOnUse">
<stop stop-color="#4A98F7"/>
<stop offset="1" stop-color="#0469BC"/>
</linearGradient>
<linearGradient id="paint4_linear_3_2955" x1="16.8564" y1="22.5108" x2="1.25327" y2="11.6541" gradientUnits="userSpaceOnUse">
<stop stop-color="#18CFFC" stop-opacity="0"/>
<stop offset="1" stop-color="#65E1DC"/>
</linearGradient>
<linearGradient id="paint5_linear_3_2955" x1="29.4183" y1="15.7276" x2="20.1796" y2="11.3903" gradientUnits="userSpaceOnUse">
<stop stop-color="#4A98F7"/>
<stop offset="1" stop-color="#0469BC"/>
</linearGradient>
<linearGradient id="paint6_linear_3_2955" x1="29.4183" y1="22.2153" x2="20.1796" y2="17.8781" gradientUnits="userSpaceOnUse">
<stop stop-color="#4A98F7"/>
<stop offset="1" stop-color="#0469BC"/>
</linearGradient>
<linearGradient id="paint7_linear_3_2955" x1="29.4183" y1="28.703" x2="20.1796" y2="24.3657" gradientUnits="userSpaceOnUse">
<stop stop-color="#4A98F7"/>
<stop offset="1" stop-color="#0469BC"/>
</linearGradient>
<linearGradient id="paint8_linear_3_2955" x1="16.349" y1="15.7276" x2="7.11024" y2="11.3903" gradientUnits="userSpaceOnUse">
<stop stop-color="#4A98F7"/>
<stop offset="1" stop-color="#0469BC"/>
</linearGradient>
<linearGradient id="paint9_linear_3_2955" x1="16.349" y1="22.2153" x2="7.11024" y2="17.8781" gradientUnits="userSpaceOnUse">
<stop stop-color="#4A98F7"/>
<stop offset="1" stop-color="#0469BC"/>
</linearGradient>
<linearGradient id="paint10_linear_3_2955" x1="16.349" y1="28.703" x2="7.11024" y2="24.3657" gradientUnits="userSpaceOnUse">
<stop stop-color="#4A98F7"/>
<stop offset="1" stop-color="#0469BC"/>
</linearGradient>
<linearGradient id="paint11_linear_3_2955" x1="22.8837" y1="15.7276" x2="13.6449" y2="11.3903" gradientUnits="userSpaceOnUse">
<stop stop-color="#4A98F7"/>
<stop offset="1" stop-color="#0469BC"/>
</linearGradient>
<linearGradient id="paint12_linear_3_2955" x1="22.8837" y1="22.2153" x2="13.6449" y2="17.8781" gradientUnits="userSpaceOnUse">
<stop stop-color="#4A98F7"/>
<stop offset="1" stop-color="#0469BC"/>
</linearGradient>
<linearGradient id="paint13_linear_3_2955" x1="22.8837" y1="28.703" x2="13.6449" y2="24.3657" gradientUnits="userSpaceOnUse">
<stop stop-color="#4A98F7"/>
<stop offset="1" stop-color="#0469BC"/>
</linearGradient>
<linearGradient id="paint14_linear_3_2955" x1="21.0863" y1="14.1255" x2="18.4472" y2="1.10893" gradientUnits="userSpaceOnUse">
<stop stop-color="#0469BC" stop-opacity="0"/>
<stop offset="1" stop-color="#0469BC"/>
</linearGradient>
<linearGradient id="paint15_linear_3_2955" x1="24.2533" y1="21.755" x2="9.94981" y2="0.477082" gradientUnits="userSpaceOnUse">
<stop stop-color="#0469BC" stop-opacity="0"/>
<stop offset="1" stop-color="#0469BC"/>
</linearGradient>
<linearGradient id="paint16_linear_3_2955" x1="24.1067" y1="38.6447" x2="22.6118" y2="33.1277" gradientUnits="userSpaceOnUse">
<stop stop-color="#0469BC" stop-opacity="0"/>
<stop offset="1" stop-color="#0469BC"/>
</linearGradient>
<linearGradient id="paint17_linear_3_2955" x1="15.6738" y1="34.2066" x2="29.5337" y2="40.7133" gradientUnits="userSpaceOnUse">
<stop stop-color="#F9F7FC"/>
<stop offset="1" stop-color="#F0DDFC"/>
</linearGradient>
<linearGradient id="paint18_linear_3_2955" x1="21.1757" y1="36.9599" x2="18.2447" y2="27.4816" gradientUnits="userSpaceOnUse">
<stop stop-color="#F0DDFC" stop-opacity="0"/>
<stop offset="0.2889" stop-color="#C8B7E0" stop-opacity="0.289"/>
<stop offset="0.5915" stop-color="#A595C8" stop-opacity="0.592"/>
<stop offset="0.8395" stop-color="#8F81B8" stop-opacity="0.84"/>
<stop offset="1" stop-color="#8779B3"/>
</linearGradient>
<linearGradient id="paint19_linear_3_2955" x1="20.2358" y1="37.1506" x2="18.4851" y2="33.5763" gradientUnits="userSpaceOnUse">
<stop stop-color="#E9EDF5" stop-opacity="0"/>
<stop offset="1" stop-color="white"/>
</linearGradient>
<linearGradient id="paint20_linear_3_2955" x1="22.5714" y1="36.3593" x2="15.0373" y2="34.0095" gradientUnits="userSpaceOnUse">
<stop stop-color="#F0DDFC" stop-opacity="0"/>
<stop offset="0.2889" stop-color="#C8B7E0" stop-opacity="0.289"/>
<stop offset="0.5915" stop-color="#A595C8" stop-opacity="0.592"/>
<stop offset="0.8395" stop-color="#8F81B8" stop-opacity="0.84"/>
<stop offset="1" stop-color="#8779B3"/>
</linearGradient>
<linearGradient id="paint21_linear_3_2955" x1="19.9998" y1="31.9584" x2="19.9998" y2="33.0306" gradientUnits="userSpaceOnUse">
<stop stop-color="#FFDA45"/>
<stop offset="1" stop-color="#FFA425"/>
</linearGradient>
<linearGradient id="paint22_linear_3_2955" x1="11.0423" y1="26.2116" x2="18.8044" y2="29.8556" gradientUnits="userSpaceOnUse">
<stop stop-color="#F9F7FC"/>
<stop offset="1" stop-color="#F0DDFC"/>
</linearGradient>
<linearGradient id="paint23_linear_3_2955" x1="11.0423" y1="19.7238" x2="18.8044" y2="23.3678" gradientUnits="userSpaceOnUse">
<stop stop-color="#F9F7FC"/>
<stop offset="1" stop-color="#F0DDFC"/>
</linearGradient>
<linearGradient id="paint24_linear_3_2955" x1="11.0423" y1="13.2362" x2="18.8044" y2="16.8802" gradientUnits="userSpaceOnUse">
<stop stop-color="#F9F7FC"/>
<stop offset="1" stop-color="#F0DDFC"/>
</linearGradient>
<linearGradient id="paint25_linear_3_2955" x1="24.1116" y1="26.2116" x2="31.8737" y2="29.8556" gradientUnits="userSpaceOnUse">
<stop stop-color="#F9F7FC"/>
<stop offset="1" stop-color="#F0DDFC"/>
</linearGradient>
<linearGradient id="paint26_linear_3_2955" x1="24.1116" y1="19.7238" x2="31.8737" y2="23.3678" gradientUnits="userSpaceOnUse">
<stop stop-color="#F9F7FC"/>
<stop offset="1" stop-color="#F0DDFC"/>
</linearGradient>
<linearGradient id="paint27_linear_3_2955" x1="24.1117" y1="13.2362" x2="31.8737" y2="16.8802" gradientUnits="userSpaceOnUse">
<stop stop-color="#F9F7FC"/>
<stop offset="1" stop-color="#F0DDFC"/>
</linearGradient>
<linearGradient id="paint28_linear_3_2955" x1="17.5769" y1="26.2116" x2="25.339" y2="29.8556" gradientUnits="userSpaceOnUse">
<stop stop-color="#F9F7FC"/>
<stop offset="1" stop-color="#F0DDFC"/>
</linearGradient>
<linearGradient id="paint29_linear_3_2955" x1="17.5769" y1="19.7238" x2="25.339" y2="23.3678" gradientUnits="userSpaceOnUse">
<stop stop-color="#F9F7FC"/>
<stop offset="1" stop-color="#F0DDFC"/>
</linearGradient>
<linearGradient id="paint30_linear_3_2955" x1="17.577" y1="13.2362" x2="25.339" y2="16.8802" gradientUnits="userSpaceOnUse">
<stop stop-color="#F9F7FC"/>
<stop offset="1" stop-color="#F0DDFC"/>
</linearGradient>
<linearGradient id="paint31_linear_3_2955" x1="8.81151" y1="6.98676" x2="9.38563" y2="6.98676" gradientUnits="userSpaceOnUse">
<stop stop-color="#7E8595"/>
<stop offset="1" stop-color="#555A66"/>
</linearGradient>
<linearGradient id="paint32_linear_3_2955" x1="11.801" y1="6.98676" x2="12.3751" y2="6.98676" gradientUnits="userSpaceOnUse">
<stop stop-color="#7E8595"/>
<stop offset="1" stop-color="#555A66"/>
</linearGradient>
<linearGradient id="paint33_linear_3_2955" x1="15.4507" y1="6.98676" x2="16.0248" y2="6.98676" gradientUnits="userSpaceOnUse">
<stop stop-color="#7E8595"/>
<stop offset="1" stop-color="#555A66"/>
</linearGradient>
<linearGradient id="paint34_linear_3_2955" x1="20.1658" y1="6.98676" x2="20.7399" y2="6.98676" gradientUnits="userSpaceOnUse">
<stop stop-color="#7E8595"/>
<stop offset="1" stop-color="#555A66"/>
</linearGradient>
<linearGradient id="paint35_linear_3_2955" x1="24.9575" y1="6.98676" x2="25.5316" y2="6.98676" gradientUnits="userSpaceOnUse">
<stop stop-color="#7E8595"/>
<stop offset="1" stop-color="#555A66"/>
</linearGradient>
<linearGradient id="paint36_linear_3_2955" x1="29.386" y1="6.98676" x2="29.9601" y2="6.98676" gradientUnits="userSpaceOnUse">
<stop stop-color="#7E8595"/>
<stop offset="1" stop-color="#555A66"/>
</linearGradient>
<linearGradient id="paint37_linear_3_2955" x1="10.6384" y1="1.21577" x2="10.6384" y2="12.0884" gradientUnits="userSpaceOnUse">
<stop stop-color="#FF7044"/>
<stop offset="1" stop-color="#F92814"/>
</linearGradient>
<linearGradient id="paint38_linear_3_2955" x1="15.7766" y1="1.21577" x2="15.7766" y2="12.0884" gradientUnits="userSpaceOnUse">
<stop stop-color="#FF7044"/>
<stop offset="1" stop-color="#F92814"/>
</linearGradient>
<linearGradient id="paint39_linear_3_2955" x1="20.4916" y1="1.21577" x2="20.4916" y2="12.0884" gradientUnits="userSpaceOnUse">
<stop stop-color="#FF7044"/>
<stop offset="1" stop-color="#F92814"/>
</linearGradient>
<linearGradient id="paint40_linear_3_2955" x1="25.2834" y1="1.21577" x2="25.2834" y2="12.0884" gradientUnits="userSpaceOnUse">
<stop stop-color="#FF7044"/>
<stop offset="1" stop-color="#F92814"/>
</linearGradient>
<linearGradient id="paint41_linear_3_2955" x1="29.7118" y1="1.21577" x2="29.7118" y2="12.0884" gradientUnits="userSpaceOnUse">
<stop stop-color="#FF7044"/>
<stop offset="1" stop-color="#F92814"/>
</linearGradient>
<linearGradient id="paint42_linear_3_2955" x1="20" y1="7.24179" x2="20" y2="10.2365" gradientUnits="userSpaceOnUse">
<stop stop-color="#FFDA45"/>
<stop offset="1" stop-color="#FFA425"/>
</linearGradient>
<linearGradient id="paint43_linear_3_2955" x1="16.7413" y1="16.2678" x2="7.97305" y2="4.71169" gradientUnits="userSpaceOnUse">
<stop stop-color="#F0DDFC" stop-opacity="0"/>
<stop offset="0.2889" stop-color="#C8B7E0" stop-opacity="0.289"/>
<stop offset="0.5915" stop-color="#A595C8" stop-opacity="0.592"/>
<stop offset="0.8395" stop-color="#8F81B8" stop-opacity="0.84"/>
<stop offset="1" stop-color="#8779B3"/>
</linearGradient>
<linearGradient id="paint44_linear_3_2955" x1="21.5087" y1="16.2204" x2="19.4243" y2="5.33498" gradientUnits="userSpaceOnUse">
<stop stop-color="#F0DDFC" stop-opacity="0"/>
<stop offset="0.2889" stop-color="#C8B7E0" stop-opacity="0.289"/>
<stop offset="0.5915" stop-color="#A595C8" stop-opacity="0.592"/>
<stop offset="0.8395" stop-color="#8F81B8" stop-opacity="0.84"/>
<stop offset="1" stop-color="#8779B3"/>
</linearGradient>
<linearGradient id="paint45_linear_3_2955" x1="7.1859" y1="22.2153" x2="-2.05292" y2="17.8781" gradientUnits="userSpaceOnUse">
<stop stop-color="#4A98F7"/>
<stop offset="1" stop-color="#0469BC"/>
</linearGradient>
<linearGradient id="paint46_linear_3_2955" x1="7.1859" y1="28.703" x2="-2.05293" y2="24.3657" gradientUnits="userSpaceOnUse">
<stop stop-color="#4A98F7"/>
<stop offset="1" stop-color="#0469BC"/>
</linearGradient>
<linearGradient id="paint47_linear_3_2955" x1="7.18582" y1="35.1907" x2="-2.05292" y2="30.8533" gradientUnits="userSpaceOnUse">
<stop stop-color="#4A98F7"/>
<stop offset="1" stop-color="#0469BC"/>
</linearGradient>
<linearGradient id="paint48_linear_3_2955" x1="1.87917" y1="32.6992" x2="9.64121" y2="36.3432" gradientUnits="userSpaceOnUse">
<stop stop-color="#F9F7FC"/>
<stop offset="1" stop-color="#F0DDFC"/>
</linearGradient>
<linearGradient id="paint49_linear_3_2955" x1="1.87917" y1="26.2116" x2="9.64121" y2="29.8556" gradientUnits="userSpaceOnUse">
<stop stop-color="#F9F7FC"/>
<stop offset="1" stop-color="#F0DDFC"/>
</linearGradient>
<linearGradient id="paint50_linear_3_2955" x1="1.87917" y1="19.7239" x2="9.64121" y2="23.368" gradientUnits="userSpaceOnUse">
<stop stop-color="#F9F7FC"/>
<stop offset="1" stop-color="#F0DDFC"/>
</linearGradient>
<linearGradient id="paint51_linear_3_2955" x1="38.5819" y1="22.2153" x2="29.3431" y2="17.8781" gradientUnits="userSpaceOnUse">
<stop stop-color="#4A98F7"/>
<stop offset="1" stop-color="#0469BC"/>
</linearGradient>
<linearGradient id="paint52_linear_3_2955" x1="38.5819" y1="28.703" x2="29.3431" y2="24.3657" gradientUnits="userSpaceOnUse">
<stop stop-color="#4A98F7"/>
<stop offset="1" stop-color="#0469BC"/>
</linearGradient>
<linearGradient id="paint53_linear_3_2955" x1="38.5819" y1="35.1907" x2="29.3431" y2="30.8533" gradientUnits="userSpaceOnUse">
<stop stop-color="#4A98F7"/>
<stop offset="1" stop-color="#0469BC"/>
</linearGradient>
<linearGradient id="paint54_linear_3_2955" x1="33.2752" y1="32.6992" x2="41.0372" y2="36.3432" gradientUnits="userSpaceOnUse">
<stop stop-color="#F9F7FC"/>
<stop offset="1" stop-color="#F0DDFC"/>
</linearGradient>
<linearGradient id="paint55_linear_3_2955" x1="33.2752" y1="26.2116" x2="41.0373" y2="29.8556" gradientUnits="userSpaceOnUse">
<stop stop-color="#F9F7FC"/>
<stop offset="1" stop-color="#F0DDFC"/>
</linearGradient>
<linearGradient id="paint56_linear_3_2955" x1="33.2752" y1="19.7239" x2="41.0372" y2="23.368" gradientUnits="userSpaceOnUse">
<stop stop-color="#F9F7FC"/>
<stop offset="1" stop-color="#F0DDFC"/>
</linearGradient>
<linearGradient id="paint57_linear_3_2955" x1="36.9768" y1="24.5152" x2="26.7029" y2="12.9948" gradientUnits="userSpaceOnUse">
<stop stop-color="#F0DDFC" stop-opacity="0"/>
<stop offset="0.2889" stop-color="#C8B7E0" stop-opacity="0.289"/>
<stop offset="0.5915" stop-color="#A595C8" stop-opacity="0.592"/>
<stop offset="0.8395" stop-color="#8F81B8" stop-opacity="0.84"/>
<stop offset="1" stop-color="#8779B3"/>
</linearGradient>
<clipPath id="clip0_3_2955">
<rect width="40" height="40" fill="white"/>
</clipPath>
</defs>
</svg>
