<svg width="20" height="20" viewBox="0 0 20 20" fill="none" xmlns="http://www.w3.org/2000/svg">
<g clip-path="url(#clip0_19_760)">
<path d="M5.25513 8.70971C4.2881 7.74265 4.1983 6.22554 4.9856 5.15625H2.27709C1.39401 5.15625 0.675537 5.87472 0.675537 6.75781V18.3984C0.675537 19.2815 1.39401 19.9999 2.27709 19.9999H8.05832C8.9414 19.9999 9.65988 19.2815 9.65988 18.3984V12.1203C8.98293 12.0858 8.35137 11.806 7.86856 11.3231L5.25513 8.70971ZM7.18637 17.0703C7.18637 17.3939 6.92403 17.6562 6.60044 17.6562C6.27684 17.6562 6.0145 17.3939 6.0145 17.0703V15.3125H4.32091V17.0703C4.32091 17.3939 4.05857 17.6562 3.73498 17.6562C3.41139 17.6562 3.14904 17.3939 3.14904 17.0703V12.3828C3.14904 12.0592 3.41139 11.7968 3.73498 11.7968C4.05857 11.7968 4.32091 12.0592 4.32091 12.3828V14.1406H6.0145V12.3828C6.0145 12.0592 6.27684 11.7968 6.60044 11.7968C6.92403 11.7968 7.18637 12.0592 7.18637 12.3828V17.0703Z" fill="#FFA800"/>
<path d="M19.3179 15.3276L18.9846 13.4896L17.6872 12.8453L17.3965 11.9015L16.4527 11.6108L16.1619 10.667L15.2182 10.3762L14.9274 9.43244L13.4956 8.00061C13.5184 7.94803 13.5395 7.89491 13.5598 7.84155L14.0304 7.37092C14.6406 6.76073 14.6406 5.7714 14.0304 5.16121L11.417 2.54782C11.0011 2.132 10.4093 1.99981 9.88138 2.15071C10.2352 2.77067 10.4377 3.4877 10.4377 4.25121C10.4377 4.92121 10.2776 5.58886 9.97478 6.18194C9.87122 6.38479 9.6656 6.50155 9.45244 6.50159C9.36279 6.50159 9.27181 6.48097 9.18646 6.43737C8.89826 6.29022 8.78388 5.9373 8.93103 5.64909C9.1531 5.2141 9.26572 4.74379 9.26572 4.25125C9.26572 3.74098 9.14021 3.25969 8.91959 2.83551L6.08362 5.67148C5.47343 6.28167 5.47343 7.271 6.08362 7.88119L8.69705 10.4946C9.30724 11.1048 10.2966 11.1048 10.9068 10.4946L11.3774 10.024C11.4308 10.0037 11.4839 9.98263 11.5365 9.95982L17.0255 15.4489L18.864 15.7818C19.1323 15.8303 19.3666 15.5959 19.3179 15.3276Z" fill="#FFA800"/>
<path d="M9.88153 2.1507C9.14899 0.867187 7.7672 0 6.18657 0C3.92497 0 2.07048 1.7752 1.94263 4.00531C2.05235 3.99203 2.16384 3.98441 2.27708 3.98441H3.1195C3.25528 2.41102 4.57853 1.17188 6.18657 1.17188C7.37423 1.17188 8.40626 1.84816 8.91978 2.83547L9.20743 2.54781C9.40177 2.35344 9.6347 2.22125 9.88153 2.1507Z" fill="#FFA800"/>
</g>
<defs>
<clipPath id="clip0_19_760">
<rect width="20" height="20" fill="white"/>
</clipPath>
</defs>
</svg>
