<svg width="24" height="24" viewBox="0 0 24 24" fill="none" xmlns="http://www.w3.org/2000/svg">
<g clip-path="url(#clip0_354_14309)">
<path d="M23.4795 13.0638C23.4176 13.2144 23.3125 13.3433 23.1775 13.4343C23.0425 13.5253 22.8836 13.5743 22.7208 13.5751H20.2467V21.8218C20.2467 22.478 19.9861 23.1073 19.5221 23.5712C19.0582 24.0352 18.4289 24.2959 17.7727 24.2959H14.474C14.2553 24.2959 14.0455 24.209 13.8909 24.0543C13.7362 23.8997 13.6493 23.6899 13.6493 23.4712V18.5231C13.6493 18.3044 13.5625 18.0947 13.4078 17.94C13.2532 17.7854 13.0434 17.6985 12.8247 17.6985H11.1753C10.9566 17.6985 10.7469 17.7854 10.5922 17.94C10.4375 18.0947 10.3507 18.3044 10.3507 18.5231V23.4712C10.3507 23.6899 10.2638 23.8997 10.1091 24.0543C9.95445 24.209 9.74469 24.2959 9.52598 24.2959H6.22728C5.57113 24.2959 4.94185 24.0352 4.47788 23.5712C4.01391 23.1073 3.75326 22.478 3.75326 21.8218V13.5751H1.27923C1.11642 13.5743 0.957494 13.5253 0.822478 13.4343C0.687462 13.3433 0.5824 13.2144 0.520533 13.0638C0.45738 12.9136 0.440125 12.7481 0.470947 12.5881C0.501768 12.4281 0.579285 12.2809 0.693715 12.1649L11.4145 1.44413C11.4911 1.36684 11.5824 1.30549 11.6828 1.26362C11.7833 1.22175 11.8911 1.2002 12 1.2002C12.1089 1.2002 12.2167 1.22175 12.3172 1.26362C12.4176 1.30549 12.5089 1.36684 12.5855 1.44413L23.3063 12.1649C23.4207 12.2809 23.4982 12.4281 23.5291 12.5881C23.5599 12.7481 23.5426 12.9136 23.4795 13.0638Z" fill="#ACAFC9"/>
</g>
<defs>
<clipPath id="clip0_354_14309">
<rect width="24" height="24" fill="white"/>
</clipPath>
</defs>
</svg>
