<svg width="24" height="24" viewBox="0 0 24 24" fill="none" xmlns="http://www.w3.org/2000/svg">
<g clip-path="url(#clip0_354_15571)">
<path d="M7.3847 4.15385V0.923103C7.3847 0.415393 6.96931 0 6.46168 0C5.95404 0 5.53857 0.415393 5.53857 0.923103V4.15385C5.53857 4.66156 5.95397 5.07695 6.46168 5.07695C6.96939 5.07695 7.3847 4.66156 7.3847 4.15385Z" fill="#B881EF"/>
<path d="M18.4619 4.15385V0.923103C18.4619 0.415393 18.0465 0 17.5388 0C17.0311 0 16.6157 0.415393 16.6157 0.923103V4.15385C16.6157 4.66156 17.0311 5.07695 17.5388 5.07695C18.0465 5.07695 18.4619 4.66156 18.4619 4.15385Z" fill="#B881EF"/>
<path d="M3.30485 2.76904C1.98949 2.76904 0.92334 3.8352 0.92334 5.15056V21.6182C0.92334 22.9336 1.98949 23.9997 3.30485 23.9997H20.6956C22.011 23.9997 23.0771 22.9336 23.0771 21.6182V5.15056C23.0771 3.8352 22.011 2.76904 20.6956 2.76904H19.3849V4.15366C19.3849 5.17369 18.5587 5.99979 17.5387 5.99979C16.5188 5.99979 15.6926 5.17362 15.6926 4.15366V2.76904H8.30801V4.15366C8.30801 5.17369 7.48184 5.99979 6.46188 5.99979C5.44192 5.99979 4.6156 5.17362 4.6156 4.15366V2.76904H3.30485ZM8.30794 12.9229H11.0772V10.1536C11.0772 9.64593 11.4926 9.23054 12.0003 9.23054C12.508 9.23054 12.9234 9.64593 12.9234 10.1536V12.9229H15.6926C16.2003 12.9229 16.6157 13.3383 16.6157 13.846C16.6157 14.3537 16.2003 14.7691 15.6926 14.7691H12.9234V17.5383C12.9234 18.046 12.508 18.4614 12.0003 18.4614C11.4926 18.4614 11.0772 18.046 11.0772 17.5383V14.7691H8.30794C7.80023 14.7691 7.38483 14.3537 7.38483 13.846C7.38483 13.3383 7.80023 12.9229 8.30794 12.9229Z" fill="#B881EF"/>
</g>
<defs>
<clipPath id="clip0_354_15571">
<rect width="24" height="24" fill="white"/>
</clipPath>
</defs>
</svg>
