<svg width="24" height="24" viewBox="0 0 24 24" fill="none" xmlns="http://www.w3.org/2000/svg">
<g clip-path="url(#clip0_174_3732)">
<path d="M6.01776 12.7766H4.94147C4.65912 12.7766 4.40424 12.9447 4.29254 13.2036L1.31305 20.1413L8.38898 16.5273C7.54193 15.3553 6.70386 14.0626 6.01776 12.7766Z" fill="#F2726A"/>
<path d="M19.7073 13.2036C19.5958 12.9447 19.3407 12.7766 19.0585 12.7766H17.9822C16.6866 15.2046 14.799 17.7137 13.5981 19.0941C12.7537 20.0627 11.2452 20.0616 10.402 19.0941C10.3158 18.9951 9.86554 18.4738 9.24536 17.6721L7.96967 18.324L12.7952 23.1402L21.9388 18.4L19.7073 13.2036Z" fill="#F2726A"/>
<path d="M0.442563 22.1689L0.0576758 23.0652C-0.141543 23.529 0.199766 24.047 0.706418 24.047H11.0682C11.133 23.9988 11.1337 24.0018 11.4816 23.8214L6.64892 18.9988L0.442563 22.1689Z" fill="#F2726A"/>
<path d="M23.9423 23.0651L22.4965 19.6985L14.1088 24.0469H23.2936C23.7991 24.0469 24.1419 23.5298 23.9423 23.0651Z" fill="#F2726A"/>
<path d="M12.7059 6.3902C12.7059 6.00165 12.3891 5.68579 12 5.68579C11.6107 5.68579 11.2941 6.00165 11.2941 6.3902C11.2941 6.77856 11.6107 7.0946 12 7.0946C12.3891 7.0946 12.7059 6.77856 12.7059 6.3902Z" fill="#F2726A"/>
<path d="M12.5327 18.1227C12.7703 17.8499 18.3527 11.3925 18.3527 6.95363C18.3527 -2.19945 5.64734 -2.31114 5.64734 6.95363C5.64734 11.3925 11.2297 17.8499 11.4673 18.1227C11.7488 18.4455 12.2518 18.4451 12.5327 18.1227ZM9.88239 6.39022C9.88239 5.22493 10.8323 4.277 12 4.277C13.1675 4.277 14.1174 5.22493 14.1174 6.39022C14.1174 7.55532 13.1675 8.50325 12 8.50325C10.8323 8.50325 9.88239 7.55532 9.88239 6.39022Z" fill="#F2726A"/>
</g>
<defs>
<clipPath id="clip0_174_3732">
<rect width="24" height="24" fill="white"/>
</clipPath>
</defs>
</svg>
