<svg width="24" height="24" viewBox="0 0 24 24" fill="none" xmlns="http://www.w3.org/2000/svg">
<g clip-path="url(#clip0_3_2751)">
<path d="M23.4795 13.0636C23.4176 13.2142 23.3125 13.3431 23.1775 13.4341C23.0425 13.5251 22.8836 13.574 22.7208 13.5749H20.2467V21.8216C20.2467 22.4777 19.9861 23.107 19.5221 23.571C19.0582 24.035 18.4289 24.2956 17.7727 24.2956H14.474C14.2553 24.2956 14.0455 24.2087 13.8909 24.0541C13.7362 23.8994 13.6493 23.6897 13.6493 23.4709V18.5229C13.6493 18.3042 13.5625 18.0944 13.4078 17.9398C13.2532 17.7851 13.0434 17.6982 12.8247 17.6982H11.1753C10.9566 17.6982 10.7469 17.7851 10.5922 17.9398C10.4375 18.0944 10.3507 18.3042 10.3507 18.5229V23.4709C10.3507 23.6897 10.2638 23.8994 10.1091 24.0541C9.95445 24.2087 9.74469 24.2956 9.52598 24.2956H6.22728C5.57113 24.2956 4.94185 24.035 4.47788 23.571C4.01391 23.107 3.75326 22.4777 3.75326 21.8216V13.5749H1.27923C1.11642 13.574 0.957494 13.5251 0.822478 13.4341C0.687462 13.3431 0.5824 13.2142 0.520533 13.0636C0.45738 12.9134 0.440125 12.7478 0.470947 12.5879C0.501768 12.4279 0.579285 12.2806 0.693715 12.1647L11.4145 1.44389C11.4911 1.36659 11.5824 1.30524 11.6828 1.26337C11.7833 1.22151 11.8911 1.19995 12 1.19995C12.1089 1.19995 12.2167 1.22151 12.3172 1.26337C12.4176 1.30524 12.5089 1.36659 12.5855 1.44389L23.3063 12.1647C23.4207 12.2806 23.4982 12.4279 23.5291 12.5879C23.5599 12.7478 23.5426 12.9134 23.4795 13.0636Z" fill="#F2726A"/>
</g>
<defs>
<clipPath id="clip0_3_2751">
<rect width="24" height="24" fill="white"/>
</clipPath>
</defs>
</svg>
