<svg width="24" height="24" viewBox="0 0 24 24" fill="none" xmlns="http://www.w3.org/2000/svg">
<g clip-path="url(#clip0_174_3570)">
<path d="M-0.1875 8.5V7.09375C-0.186135 5.97529 0.258777 4.90302 1.04965 4.11215C1.84052 3.32128 2.91279 2.87636 4.03125 2.875H5.4375V4.28125C5.4375 4.77853 5.63504 5.25544 5.98668 5.60708C6.33831 5.95871 6.81522 6.15625 7.3125 6.15625C7.80978 6.15625 8.28669 5.95871 8.63832 5.60708C8.98996 5.25544 9.1875 4.77853 9.1875 4.28125V2.875H14.8125V4.28125C14.8125 4.77853 15.01 5.25544 15.3617 5.60708C15.7133 5.95871 16.1902 6.15625 16.6875 6.15625C17.1848 6.15625 17.6617 5.95871 18.0133 5.60708C18.365 5.25544 18.5625 4.77853 18.5625 4.28125V2.875H19.9688C21.0872 2.87636 22.1595 3.32128 22.9503 4.11215C23.7412 4.90302 24.1861 5.97529 24.1875 7.09375V8.5H-0.1875ZM6.375 4.28125C6.375 4.52989 6.47377 4.76835 6.64959 4.94416C6.8254 5.11998 7.06386 5.21875 7.3125 5.21875C7.56114 5.21875 7.7996 5.11998 7.97541 4.94416C8.15123 4.76835 8.25 4.52989 8.25 4.28125V1.9375C8.25 1.68886 8.15123 1.4504 7.97541 1.27459C7.7996 1.09877 7.56114 1 7.3125 1C7.06386 1 6.8254 1.09877 6.64959 1.27459C6.47377 1.4504 6.375 1.68886 6.375 1.9375V4.28125ZM15.75 1.9375V4.28125C15.75 4.52989 15.8488 4.76835 16.0246 4.94416C16.2004 5.11998 16.4389 5.21875 16.6875 5.21875C16.9361 5.21875 17.1746 5.11998 17.3504 4.94416C17.5262 4.76835 17.625 4.52989 17.625 4.28125V1.9375C17.625 1.68886 17.5262 1.4504 17.3504 1.27459C17.1746 1.09877 16.9361 1 16.6875 1C16.4389 1 16.2004 1.09877 16.0246 1.27459C15.8488 1.4504 15.75 1.68886 15.75 1.9375ZM24.1875 9.4375V19.2812C24.1861 20.3997 23.7412 21.472 22.9503 22.2628C22.1595 23.0537 21.0872 23.4986 19.9688 23.5H4.03125C2.91279 23.4986 1.84052 23.0537 1.04965 22.2628C0.258777 21.472 -0.186135 20.3997 -0.1875 19.2812V9.4375H24.1875ZM15.4252 14.7386H13.4897L12.8906 12.8978C12.829 12.7102 12.7097 12.5469 12.5498 12.4312C12.3898 12.3154 12.1974 12.253 12 12.253C11.8026 12.253 11.6102 12.3154 11.4502 12.4312C11.2903 12.5469 11.171 12.7102 11.1094 12.8978L10.5112 14.7386H8.57484C8.37685 14.7386 8.18393 14.8012 8.02373 14.9176C7.86353 15.0339 7.74429 15.198 7.68308 15.3863C7.62188 15.5746 7.62186 15.7774 7.68303 15.9657C7.7442 16.154 7.86342 16.3181 8.02359 16.4345L9.58969 17.5722L8.99156 19.413C8.93035 19.6013 8.93034 19.8041 8.99152 19.9925C9.05271 20.1808 9.17195 20.3449 9.33215 20.4613C9.49234 20.5776 9.68528 20.6403 9.88329 20.6403C10.0813 20.6402 10.2742 20.5775 10.4344 20.4611L12 19.3234L13.5656 20.4611C13.7258 20.5775 13.9187 20.6402 14.1167 20.6403C14.3147 20.6403 14.5077 20.5776 14.6679 20.4613C14.8281 20.3449 14.9473 20.1808 15.0085 19.9925C15.0697 19.8041 15.0696 19.6013 15.0084 19.413L14.4103 17.5722L15.9764 16.4345C16.1366 16.3181 16.2558 16.154 16.317 15.9657C16.3781 15.7774 16.3781 15.5746 16.3169 15.3863C16.2557 15.198 16.1365 15.0339 15.9763 14.9176C15.8161 14.8012 15.6231 14.7386 15.4252 14.7386Z" fill="#F2726A"/>
</g>
<defs>
<clipPath id="clip0_174_3570">
<rect width="24" height="24" fill="white"/>
</clipPath>
</defs>
</svg>
