<svg width="24" height="24" viewBox="0 0 24 24" fill="none" xmlns="http://www.w3.org/2000/svg">
<g clip-path="url(#clip0_252_5355)">
<path d="M23.8623 8.76314C23.745 8.61996 23.5698 8.53639 23.3861 8.53639H21.0503C20.4739 7.01607 19.7229 5.52648 18.8694 4.96419C15.9166 3.0217 8.08458 3.0217 5.13182 4.96419C4.27764 5.52709 3.52978 7.01853 2.95028 8.53639H0.614501C0.428917 8.53639 0.254394 8.61996 0.13825 8.76314C0.0214915 8.90571 -0.0252118 9.09437 0.0128883 9.27565L0.358862 10.9521C0.417856 11.2378 0.669808 11.4418 0.960475 11.4418H1.65242C0.984441 12.2124 0.66059 13.1828 0.656289 14.1537C0.651987 15.3532 1.10734 16.4372 1.94002 17.2042C1.94923 17.2122 1.95845 17.2177 1.96706 17.2257V19.5713C1.96706 20.0795 2.38001 20.4931 2.88883 20.4931H5.04333C5.55215 20.4931 5.96511 20.0795 5.96511 19.5713V18.6286H18.0349V19.5713C18.0349 20.0795 18.4478 20.4931 18.9566 20.4931H21.1111C21.6187 20.4931 22.0329 20.0795 22.0329 19.5713V17.2718C22.9166 16.4624 23.3388 15.3489 23.3443 14.2373C23.348 13.2331 23.0094 12.2272 22.3021 11.4406H23.0401C23.332 11.4406 23.584 11.2366 23.6417 10.9502L23.9883 9.27442C24.024 9.09437 23.9791 8.90694 23.8623 8.76314ZM6.14393 6.50356C8.49754 4.95436 15.5024 4.95436 17.8548 6.50356C18.312 6.80345 18.9001 8.01589 19.439 9.50056H4.56094C5.09864 8.0165 5.68673 6.80467 6.14393 6.50356ZM3.38721 14.3848C3.38721 13.3831 4.1996 12.5719 5.20065 12.5719C6.20293 12.5719 7.01409 13.3831 7.01409 14.3848C7.01409 15.3864 6.20293 16.1982 5.20065 16.1982C4.1996 16.1982 3.38721 15.3864 3.38721 14.3848ZM18.8233 16.1982C17.8222 16.1982 17.0098 15.3864 17.0098 14.3848C17.0098 13.3831 17.8222 12.5719 18.8233 12.5719C19.8256 12.5719 20.6367 13.3831 20.6367 14.3848C20.6367 15.3864 19.8243 16.1982 18.8233 16.1982Z" fill="white"/>
</g>
<defs>
<clipPath id="clip0_252_5355">
<rect width="24" height="24" fill="white"/>
</clipPath>
</defs>
</svg>
