<svg width="40" height="40" viewBox="0 0 40 40" fill="none" xmlns="http://www.w3.org/2000/svg">
<g clip-path="url(#clip0_421_161)">
<path d="M10.7663 12.3647C10.7663 7.6549 14.5977 3.82353 19.3075 3.82353C24.0165 3.82353 27.8478 7.6549 27.8478 12.3647V16.3937H31.6714V12.3647C31.6714 5.54667 26.1247 0 19.3075 0C12.4894 0 6.94275 5.54667 6.94275 12.3647V16.3937H10.7663V12.3647Z" fill="#F4B334"/>
<path fill-rule="evenodd" clip-rule="evenodd" d="M4.30435 18.7467H35.6957C36.5624 18.7467 37.2643 19.4486 37.2643 20.3153V38.4314C37.2643 39.298 36.5624 40 35.6957 40H4.30435C3.43768 40 2.73572 39.298 2.73572 38.4314V20.3153C2.73572 19.4486 3.43768 18.7467 4.30435 18.7467Z" fill="#F4B334"/>
<path d="M25.1798 23.4276L18.6196 30.4749L15.8202 27.4675C15.2894 26.8974 14.4287 26.8974 13.8981 27.4675C13.3673 28.0379 13.3673 28.9623 13.8981 29.5326L17.6586 33.5725C17.9239 33.8575 18.2718 34 18.6196 34C18.9674 34 19.3153 33.8575 19.5806 33.5725L27.1017 25.4927C27.6327 24.9224 27.6327 23.9978 27.1019 23.4278C26.5713 22.8575 25.7106 22.8573 25.1798 23.4276Z" fill="#FFF1E0"/>
</g>
<defs>
<clipPath id="clip0_421_161">
<rect width="40" height="40" fill="white"/>
</clipPath>
</defs>
</svg>
