<svg width="24" height="24" viewBox="0 0 24 24" fill="none" xmlns="http://www.w3.org/2000/svg">
<g clip-path="url(#clip0_354_14328)">
<path d="M6.0177 12.7764H4.94141C4.65906 12.7764 4.40417 12.9445 4.29248 13.2034L1.31299 20.1411L8.38892 16.5271C7.54187 15.355 6.7038 14.0623 6.0177 12.7764Z" fill="#ACAFC9"/>
<path d="M19.7073 13.2034C19.5958 12.9445 19.3408 12.7764 19.0586 12.7764H17.9823C16.6866 15.2043 14.799 17.7134 13.5982 19.0939C12.7537 20.0625 11.2453 20.0614 10.4021 19.0939C10.3159 18.9948 9.8656 18.4735 9.24542 17.6719L7.96973 18.3237L12.7953 23.14L21.9388 18.3997L19.7073 13.2034Z" fill="#ACAFC9"/>
<path d="M0.442563 22.1686L0.0576758 23.0649C-0.141543 23.5287 0.199766 24.0468 0.706418 24.0468H11.0682C11.133 23.9986 11.1337 24.0015 11.4816 23.8212L6.64892 18.9985L0.442563 22.1686Z" fill="#ACAFC9"/>
<path d="M23.9424 23.0653L22.4966 19.6987L14.1089 24.0471H23.2936C23.7992 24.0471 24.142 23.53 23.9424 23.0653Z" fill="#ACAFC9"/>
<path d="M12.7059 6.39044C12.7059 6.00189 12.3892 5.68604 12.0001 5.68604C11.6108 5.68604 11.2942 6.00189 11.2942 6.39044C11.2942 6.77881 11.6108 7.09485 12.0001 7.09485C12.3892 7.09485 12.7059 6.77881 12.7059 6.39044Z" fill="#ACAFC9"/>
<path d="M12.5325 18.1227C12.7702 17.8499 18.3525 11.3925 18.3525 6.95363C18.3525 -2.19945 5.64722 -2.31114 5.64722 6.95363C5.64722 11.3925 11.2296 17.8499 11.4672 18.1227C11.7487 18.4455 12.2516 18.4451 12.5325 18.1227ZM9.88226 6.39022C9.88226 5.22493 10.8322 4.277 11.9999 4.277C13.1674 4.277 14.1173 5.22493 14.1173 6.39022C14.1173 7.55532 13.1674 8.50325 11.9999 8.50325C10.8322 8.50325 9.88226 7.55532 9.88226 6.39022Z" fill="#ACAFC9"/>
</g>
<defs>
<clipPath id="clip0_354_14328">
<rect width="24" height="24" fill="white"/>
</clipPath>
</defs>
</svg>
