<svg width="16" height="16" viewBox="0 0 16 16" fill="none" xmlns="http://www.w3.org/2000/svg">
<path d="M2.16602 13.4602C2.16602 13.6985 2.26069 13.9271 2.42921 14.0956C2.59773 14.2641 2.82629 14.3588 3.06462 14.3588H12.4347C12.6731 14.3588 12.9016 14.2641 13.0701 14.0956C13.2387 13.9271 13.3333 13.6985 13.3333 13.4602V6.29077H2.16602V13.4602ZM9.89927 8.19898H11.3564V9.65612H9.89927V8.19898ZM9.89927 10.6763H11.3564V12.1334H9.89927V10.6763ZM7.02198 8.19898H8.47736V9.65612H7.02198V8.19898ZM7.02198 10.6763H8.47736V12.1334H7.02198V10.6763ZM4.14118 8.19898H5.59832V9.65612H4.14118V8.19898ZM4.14118 10.6763H5.59832V12.1334H4.14118V10.6763Z" fill="#68BC5B"/>
<path d="M10.5686 4.08931C10.6106 4.08931 10.6509 4.0726 10.6807 4.04287C10.7104 4.01313 10.7271 3.97279 10.7271 3.93073V1.30189C10.7271 1.25983 10.7104 1.2195 10.6807 1.18976C10.6509 1.16002 10.6106 1.14331 10.5686 1.14331C10.5265 1.14331 10.4862 1.16002 10.4564 1.18976C10.4267 1.2195 10.41 1.25983 10.41 1.30189V3.93073C10.41 3.97279 10.4267 4.01313 10.4564 4.04287C10.4862 4.0726 10.5265 4.08931 10.5686 4.08931Z" fill="#68BC5B"/>
<path d="M12.4347 2.53564H11.0393V3.93112C11.0393 4.05776 10.989 4.17921 10.8994 4.26876C10.8099 4.3583 10.6884 4.40861 10.5618 4.40861C10.4351 4.40861 10.3137 4.3583 10.2241 4.26876C10.1346 4.17921 10.0843 4.05776 10.0843 3.93112V2.53564H5.41331V3.93112C5.41727 3.99615 5.40787 4.06129 5.38571 4.12256C5.36355 4.18382 5.32908 4.23989 5.28444 4.28734C5.23979 4.33478 5.18591 4.37259 5.12611 4.39843C5.06631 4.42427 5.00185 4.4376 4.9367 4.4376C4.87155 4.4376 4.8071 4.42427 4.74729 4.39843C4.68749 4.37259 4.63361 4.33478 4.58896 4.28734C4.54432 4.23989 4.50985 4.18382 4.48769 4.12256C4.46553 4.06129 4.45614 3.99615 4.46009 3.93112V2.53564H3.06462C2.82644 2.53611 2.59814 2.63093 2.42972 2.79935C2.2613 2.96777 2.16648 3.19606 2.16602 3.43425V5.97323H13.3333V3.43425C13.3329 3.19606 13.238 2.96777 13.0696 2.79935C12.9012 2.63093 12.6729 2.53611 12.4347 2.53564Z" fill="#68BC5B"/>
<path d="M4.93037 4.08942C4.95134 4.08966 4.97215 4.08573 4.99159 4.07786C5.01103 4.07 5.02872 4.05835 5.04364 4.04361C5.05855 4.02886 5.07039 4.0113 5.07847 3.99194C5.08655 3.97259 5.0907 3.95182 5.0907 3.93085V1.302C5.08656 1.2626 5.06797 1.22613 5.03852 1.19962C5.00908 1.17312 4.97086 1.15845 4.93125 1.15845C4.89163 1.15845 4.85341 1.17312 4.82397 1.19962C4.79452 1.22613 4.77594 1.2626 4.77179 1.302V3.93085C4.77179 3.97291 4.7885 4.01324 4.81824 4.04298C4.84797 4.07272 4.88831 4.08942 4.93037 4.08942Z" fill="#68BC5B"/>
</svg>
