<svg width="24" height="24" viewBox="0 0 24 24" fill="none" xmlns="http://www.w3.org/2000/svg">
<g clip-path="url(#clip0_354_15550)">
<path d="M17.5874 15.6977C17.3783 15.488 17.13 15.3215 16.8565 15.208C16.583 15.0944 16.2898 15.036 15.9936 15.036C15.6975 15.036 15.4043 15.0944 15.1308 15.208C14.8573 15.3215 14.6089 15.488 14.3999 15.6977L13.3124 16.7852C12.0879 16.0081 10.9535 15.0975 9.92988 14.0702C8.90256 13.0466 7.99199 11.9122 7.21488 10.6877L8.30238 9.60023C8.51214 9.3912 8.67857 9.14281 8.79213 8.86932C8.90569 8.59583 8.96415 8.30261 8.96415 8.00648C8.96415 7.71035 8.90569 7.41713 8.79213 7.14364C8.67857 6.87015 8.51214 6.62176 8.30238 6.41273L6.17988 4.29773C5.9738 4.08728 5.72751 3.9204 5.45565 3.80702C5.1838 3.69364 4.89192 3.63607 4.59738 3.63773C4.30074 3.637 4.00688 3.69494 3.73272 3.80821C3.45856 3.92148 3.2095 4.08784 2.99988 4.29773L1.97988 5.31023C1.49371 5.83296 1.13086 6.45799 0.918001 7.13938C0.705147 7.82078 0.647698 8.54121 0.749878 9.24773C0.989878 12.0602 2.83488 15.4427 5.67738 18.2927C8.51988 21.1427 11.9399 22.9802 14.7524 23.2502C14.9622 23.2614 15.1725 23.2614 15.3824 23.2502C15.9878 23.2756 16.5922 23.1799 17.1602 22.9687C17.7281 22.7575 18.2482 22.4351 18.6899 22.0202L19.7024 21.0002C19.9123 20.7906 20.0786 20.5415 20.1919 20.2674C20.3052 19.9932 20.3631 19.6994 20.3624 19.4027C20.364 19.1082 20.3065 18.8163 20.1931 18.5445C20.0797 18.2726 19.9128 18.0263 19.7024 17.8202L17.5874 15.6977Z" fill="#63A9FF"/>
<path d="M19.95 4.04252C18.9077 2.99625 17.6686 2.16665 16.3041 1.60156C14.9397 1.03647 13.4768 0.747059 12 0.750023C11.8011 0.750023 11.6103 0.82904 11.4697 0.969692C11.329 1.11034 11.25 1.30111 11.25 1.50002C11.25 1.69893 11.329 1.8897 11.4697 2.03035C11.6103 2.171 11.8011 2.25002 12 2.25002C13.2874 2.24998 14.562 2.50488 15.7503 3.00001C16.9387 3.49514 18.0172 4.22071 18.9236 5.13484C19.8301 6.04896 20.5465 7.13355 21.0316 8.32602C21.5167 9.51848 21.7609 10.7952 21.75 12.0825C21.75 12.2814 21.829 12.4722 21.9697 12.6129C22.1103 12.7535 22.3011 12.8325 22.5 12.8325C22.6989 12.8325 22.8897 12.7535 23.0303 12.6129C23.171 12.4722 23.25 12.2814 23.25 12.0825C23.2644 10.59 22.9798 9.10965 22.413 7.72882C21.8463 6.34799 21.0088 5.09459 19.95 4.04252Z" fill="#63A9FF"/>
<path d="M15.6823 8.33273C16.1079 8.7558 16.4446 9.25973 16.6726 9.81486C16.9006 10.37 17.0152 10.9651 17.0098 11.5652C17.0098 11.7641 17.0888 11.9549 17.2294 12.0956C17.3701 12.2362 17.5609 12.3152 17.7598 12.3152C17.9587 12.3152 18.1494 12.2362 18.2901 12.0956C18.4307 11.9549 18.5098 11.7641 18.5098 11.5652C18.5197 10.771 18.3718 9.98273 18.0748 9.24609C17.7777 8.50946 17.3373 7.83915 16.7791 7.27403C16.221 6.70891 15.5562 6.26023 14.8233 5.95402C14.0904 5.64782 13.304 5.49017 12.5098 5.49023C12.3109 5.49023 12.1201 5.56925 11.9794 5.7099C11.8388 5.85056 11.7598 6.04132 11.7598 6.24023C11.7598 6.43915 11.8388 6.62991 11.9794 6.77056C12.1201 6.91122 12.3109 6.99023 12.5098 6.99023C13.1008 6.99469 13.6852 7.11554 14.2296 7.34589C14.7739 7.57624 15.2675 7.91157 15.6823 8.33273Z" fill="#63A9FF"/>
</g>
<defs>
<clipPath id="clip0_354_15550">
<rect width="24" height="24" fill="white"/>
</clipPath>
</defs>
</svg>
