<svg width="18" height="18" viewBox="0 0 18 18" fill="none" xmlns="http://www.w3.org/2000/svg">
<g clip-path="url(#clip0_354_15634)">
<path d="M14.9021 7.875C13.1963 7.87676 11.8098 9.27422 11.8115 10.9905C11.8122 11.9282 12.2795 12.9969 13.2002 14.1676C13.8573 15.0033 14.5084 15.5841 14.5358 15.6083C14.7494 15.798 15.071 15.7967 15.2832 15.6076C15.3106 15.5834 15.9607 15.0012 16.6163 14.1645C17.3197 13.2665 17.999 12.121 17.999 10.9846C17.9976 9.27155 16.6215 7.875 14.9021 7.875ZM14.0615 10.9695C14.0608 10.5035 14.4379 10.1257 14.9042 10.125C15.6549 10.125 16.0306 11.0363 15.5022 11.5646C14.9764 12.0916 14.0615 11.7246 14.0615 10.9695Z" fill="#F2726A"/>
<path d="M2.72102 7.73297C2.93417 7.92218 3.25497 7.9225 3.46844 7.73297C3.49586 7.70871 4.1466 7.12723 4.80297 6.29121C5.7223 5.11945 6.18848 4.05035 6.18848 3.11238C6.18848 1.39641 4.80051 0 3.09473 0C1.38895 0 0.000976562 1.39641 0.000976562 3.11238C0.000976562 4.05035 0.467148 5.11945 1.38648 6.29121C2.04285 7.12723 2.69359 7.70871 2.72102 7.73297ZM3.09473 2.25C3.55984 2.25 3.93848 2.62863 3.93848 3.09375C3.93848 3.55887 3.55984 3.9375 3.09473 3.9375C2.62961 3.9375 2.25098 3.55887 2.25098 3.09375C2.25098 2.62863 2.62961 2.25 3.09473 2.25Z" fill="#F2726A"/>
<path d="M15.7548 17.1555C15.7548 17.9262 14.799 18.2948 14.2828 17.7187H2.53222C1.13652 17.7187 0.000976562 16.5832 0.000976562 15.1875C0.000976562 13.7918 1.13652 12.6562 2.53222 12.6562H8.17477C8.94047 12.6562 9.56344 12.0333 9.56344 11.2676C9.56344 10.5019 8.94047 9.87891 8.17477 9.87891H3.72366C3.55385 10.0663 3.32783 10.1602 3.09471 10.1602C2.34673 10.1602 1.96895 9.24898 2.49741 8.72051C2.84482 8.37233 3.40922 8.39785 3.72331 8.75391H8.17477C9.56098 8.75391 10.6884 9.88137 10.6884 11.2676C10.6884 12.6538 9.56098 13.7812 8.17477 13.7812H2.53222C1.75667 13.7812 1.12597 14.4119 1.12597 15.1875C1.12597 15.963 1.75667 16.5937 2.53222 16.5937C15.189 16.5937 14.2642 16.6102 14.3141 16.5603C14.8412 16.032 15.7542 16.4031 15.7548 17.1555Z" fill="#F2726A"/>
</g>
<defs>
<clipPath id="clip0_354_15634">
<rect width="18" height="18" fill="white"/>
</clipPath>
</defs>
</svg>
