<svg width="16" height="16" viewBox="0 0 16 16" fill="none" xmlns="http://www.w3.org/2000/svg">
<path d="M15.1999 2.40011H0.799997C0.587825 2.40011 0.384342 2.4844 0.234314 2.63442C0.0842851 2.78445 0 2.98793 0 3.20011C0 3.41228 0.0842851 3.61576 0.234314 3.76579C0.384342 3.91582 0.587825 4.0001 0.799997 4.0001H2.39999V13.6001C2.40018 14.2365 2.6531 14.8469 3.10314 15.2969C3.55319 15.747 4.16352 15.9999 4.79998 16.0001H11.2C11.8364 15.9999 12.4468 15.747 12.8968 15.2969C13.3469 14.8469 13.5998 14.2365 13.5999 13.6001V4.0001H15.1999C15.4121 4.0001 15.6156 3.91582 15.7656 3.76579C15.9157 3.61576 15.9999 3.41228 15.9999 3.20011C15.9999 2.98793 15.9157 2.78445 15.7656 2.63442C15.6156 2.4844 15.4121 2.40011 15.1999 2.40011ZM7.19997 11.2001C7.19997 11.4122 7.11569 11.6157 6.96566 11.7658C6.81563 11.9158 6.61215 12.0001 6.39998 12.0001C6.1878 12.0001 5.98432 11.9158 5.83429 11.7658C5.68426 11.6157 5.59998 11.4122 5.59998 11.2001V7.20009C5.59998 6.98792 5.68426 6.78444 5.83429 6.63441C5.98432 6.48438 6.1878 6.40009 6.39998 6.40009C6.61215 6.40009 6.81563 6.48438 6.96566 6.63441C7.11569 6.78444 7.19997 6.98792 7.19997 7.20009V11.2001ZM10.4 11.2001C10.4 11.4122 10.3157 11.6157 10.1656 11.7658C10.0156 11.9158 9.81214 12.0001 9.59996 12.0001C9.38779 12.0001 9.18431 11.9158 9.03428 11.7658C8.88425 11.6157 8.79997 11.4122 8.79997 11.2001V7.20009C8.79997 6.98792 8.88425 6.78444 9.03428 6.63441C9.18431 6.48438 9.38779 6.40009 9.59996 6.40009C9.81214 6.40009 10.0156 6.48438 10.1656 6.63441C10.3157 6.78444 10.4 6.98792 10.4 7.20009V11.2001Z" fill="white"/>
<path d="M6.39976 1.59999H9.59975C9.81192 1.59999 10.0154 1.51571 10.1654 1.36568C10.3155 1.21565 10.3997 1.01217 10.3997 0.799997C10.3997 0.587825 10.3155 0.384342 10.1654 0.234314C10.0154 0.0842851 9.81192 0 9.59975 0H6.39976C6.18759 0 5.98411 0.0842851 5.83408 0.234314C5.68405 0.384342 5.59977 0.587825 5.59977 0.799997C5.59977 1.01217 5.68405 1.21565 5.83408 1.36568C5.98411 1.51571 6.18759 1.59999 6.39976 1.59999Z" fill="white"/>
</svg>
