<svg width="29" height="30" viewBox="0 0 29 30" fill="none" xmlns="http://www.w3.org/2000/svg">
<path d="M13.9286 23.5715C13.9314 21.4459 14.7229 19.3969 16.1498 17.8214C17.5768 16.2458 19.5375 15.2558 21.6525 15.043C21.1122 14.3595 20.4237 13.8076 19.639 13.429C18.8542 13.0504 17.9938 12.8549 17.1225 12.8573C16.9562 12.8573 16.7921 12.896 16.6434 12.9704C16.4946 13.0448 16.3652 13.1528 16.2654 13.2858C14.4997 15.6183 9.07501 15.6183 7.30929 13.2858C7.20915 13.1531 7.07966 13.0454 6.93097 12.971C6.78227 12.8967 6.61839 12.8577 6.45215 12.8573C5.00585 12.85 3.60976 13.3872 2.54138 14.362C1.473 15.3369 0.810551 16.6781 0.685715 18.119L0 25.7144C0 26.851 0.45153 27.9411 1.25526 28.7449C2.05899 29.5486 3.14907 30.0001 4.28572 30.0001H16.8493C15.9325 29.1986 15.1977 28.2103 14.6939 27.1016C14.1902 25.9929 13.9293 24.7893 13.9286 23.5715Z" fill="#ED4B4B"/>
<path d="M11.7856 0C3.2142 0 3.2142 12.8571 11.7856 12.8571C20.3571 12.8571 20.3571 0 11.7856 0Z" fill="#ED4B4B"/>
<path d="M22.5002 17.1428C21.2288 17.1428 19.9859 17.5199 18.9287 18.2262C17.8715 18.9326 17.0476 19.9366 16.561 21.1113C16.0744 22.286 15.9471 23.5785 16.1952 24.8256C16.4432 26.0726 17.0555 27.218 17.9545 28.1171C18.8536 29.0161 19.9991 29.6284 21.2461 29.8765C22.4931 30.1245 23.7857 29.9972 24.9603 29.5106C26.135 29.0241 27.139 28.2001 27.8454 27.1429C28.5518 26.0857 28.9288 24.8428 28.9288 23.5714C28.9268 21.867 28.2489 20.2331 27.0437 19.0279C25.8386 17.8227 24.2046 17.1448 22.5002 17.1428ZM24.6431 24.6428H20.3574C20.0732 24.6428 19.8007 24.5299 19.5998 24.329C19.3988 24.1281 19.286 23.8556 19.286 23.5714C19.286 23.2872 19.3988 23.0147 19.5998 22.8138C19.8007 22.6128 20.0732 22.5 20.3574 22.5H24.6431C24.9273 22.5 25.1998 22.6128 25.4007 22.8138C25.6016 23.0147 25.7145 23.2872 25.7145 23.5714C25.7145 23.8556 25.6016 24.1281 25.4007 24.329C25.1998 24.5299 24.9273 24.6428 24.6431 24.6428Z" fill="#ED4B4B"/>
</svg>
