<svg width="30" height="30" viewBox="0 0 30 30" fill="none" xmlns="http://www.w3.org/2000/svg">
<g clip-path="url(#clip0_57_1924)">
<path d="M14.7959 14.4511C16.7812 14.4511 18.5004 13.7391 19.905 12.3342C21.3097 10.9296 22.0217 9.21089 22.0217 7.22534C22.0217 5.24048 21.3097 3.52158 19.9048 2.11647C18.4999 0.712051 16.781 0 14.7959 0C12.8104 0 11.0917 0.712051 9.68706 2.1167C8.28241 3.52135 7.57013 5.24025 7.57013 7.22534C7.57013 9.21089 8.28241 10.9298 9.68729 12.3344C11.0922 13.7389 12.8111 14.4511 14.7959 14.4511Z" fill="#44C6F0"/>
<path d="M27.4391 23.0685C27.3986 22.484 27.3166 21.8463 27.196 21.1729C27.0743 20.4945 26.9175 19.8532 26.7298 19.267C26.5359 18.6612 26.2723 18.0629 25.9463 17.4896C25.608 16.8945 25.2107 16.3763 24.7649 15.9499C24.2986 15.5038 23.7278 15.1451 23.0677 14.8835C22.4099 14.6233 21.6809 14.4914 20.9011 14.4914C20.5949 14.4914 20.2987 14.6171 19.7267 14.9895C19.3747 15.2191 18.9629 15.4846 18.5034 15.7782C18.1104 16.0286 17.578 16.2632 16.9204 16.4756C16.2789 16.6832 15.6275 16.7885 14.9845 16.7885C14.3416 16.7885 13.6904 16.6832 13.0482 16.4756C12.3913 16.2634 11.8589 16.0288 11.4664 15.7784C11.0112 15.4875 10.5992 15.222 10.2419 14.9893C9.67061 14.6169 9.37421 14.4912 9.06797 14.4912C8.28794 14.4912 7.55918 14.6233 6.90161 14.8837C6.24197 15.1449 5.67092 15.5036 5.20423 15.9501C4.7586 16.3767 4.36103 16.8947 4.0232 17.4896C3.6975 18.0629 3.43383 18.661 3.23974 19.2673C3.05229 19.8534 2.89551 20.4945 2.77374 21.1729C2.65312 21.8454 2.57118 22.4833 2.53067 23.0692C2.49084 23.6432 2.4707 24.239 2.4707 24.8407C2.4707 26.4068 2.96852 27.6745 3.95019 28.6095C4.91973 29.5321 6.20261 30.0002 7.76266 30.0002H22.2078C23.7678 30.0002 25.0503 29.5323 26.02 28.6095C27.0019 27.6752 27.4997 26.4072 27.4997 24.8405C27.4995 24.236 27.4791 23.6398 27.4391 23.0685Z" fill="#44C6F0"/>
</g>
<defs>
<clipPath id="clip0_57_1924">
<rect width="30" height="30" fill="white"/>
</clipPath>
</defs>
</svg>
