<svg width="24" height="24" viewBox="0 0 24 24" fill="none" xmlns="http://www.w3.org/2000/svg">
<g clip-path="url(#clip0_354_15559)">
<path d="M6.0177 12.7764H4.94141C4.65906 12.7764 4.40417 12.9445 4.29248 13.2034L1.31299 20.1411L8.38892 16.5271C7.54187 15.355 6.7038 14.0623 6.0177 12.7764Z" fill="#FF7757"/>
<path d="M19.7073 13.2034C19.5958 12.9445 19.3408 12.7764 19.0586 12.7764H17.9823C16.6866 15.2043 14.799 17.7134 13.5982 19.0939C12.7537 20.0625 11.2453 20.0614 10.4021 19.0939C10.3159 18.9948 9.8656 18.4735 9.24542 17.6719L7.96973 18.3237L12.7953 23.14L21.9388 18.3997L19.7073 13.2034Z" fill="#FF7757"/>
<path d="M0.442563 22.1686L0.0576758 23.0649C-0.141543 23.5287 0.199766 24.0468 0.706418 24.0468H11.0682C11.133 23.9986 11.1337 24.0015 11.4816 23.8212L6.64892 18.9985L0.442563 22.1686Z" fill="#FF7757"/>
<path d="M23.9424 23.0653L22.4966 19.6987L14.1089 24.0471H23.2936C23.7992 24.0471 24.142 23.53 23.9424 23.0653Z" fill="#FF7757"/>
<path d="M12.7057 6.39044C12.7057 6.00189 12.3889 5.68604 11.9998 5.68604C11.6105 5.68604 11.2939 6.00189 11.2939 6.39044C11.2939 6.77881 11.6105 7.09485 11.9998 7.09485C12.3889 7.09485 12.7057 6.77881 12.7057 6.39044Z" fill="#FF7757"/>
<path d="M12.5328 18.1227C12.7704 17.8499 18.3528 11.3925 18.3528 6.95363C18.3528 -2.19945 5.64746 -2.31114 5.64746 6.95363C5.64746 11.3925 11.2298 17.8499 11.4675 18.1227C11.7489 18.4455 12.2519 18.4451 12.5328 18.1227ZM9.88251 6.39022C9.88251 5.22493 10.8325 4.277 12.0001 4.277C13.1676 4.277 14.1176 5.22493 14.1176 6.39022C14.1176 7.55532 13.1676 8.50325 12.0001 8.50325C10.8325 8.50325 9.88251 7.55532 9.88251 6.39022Z" fill="#FF7757"/>
</g>
<defs>
<clipPath id="clip0_354_15559">
<rect width="24" height="24" fill="white"/>
</clipPath>
</defs>
</svg>
