<svg width="24" height="24" viewBox="0 0 24 24" fill="none" xmlns="http://www.w3.org/2000/svg">
<path d="M10.333 20.0637C10.1562 20.0637 9.98658 19.9935 9.86154 19.8684C9.73649 19.7434 9.66625 19.5738 9.66625 19.3969V12.9859L3.48527 6.18819C3.24196 5.92007 3.0817 5.58709 3.02395 5.22966C2.96619 4.87223 3.01343 4.50572 3.15992 4.17461C3.30642 3.8435 3.54586 3.56203 3.84921 3.36436C4.15256 3.16669 4.50676 3.06132 4.86882 3.06104H19.1311C19.4931 3.06132 19.8473 3.16669 20.1507 3.36436C20.454 3.56203 20.6935 3.8435 20.84 4.17461C20.9865 4.50572 21.0337 4.87223 20.9759 5.22966C20.9182 5.58709 20.7579 5.92007 20.5146 6.18819L14.3336 12.9859V16.7299C14.3336 16.8297 14.3111 16.9283 14.2678 17.0183C14.2245 17.1084 14.1616 17.1875 14.0836 17.2499L10.7497 19.917C10.6315 20.0119 10.4846 20.0636 10.333 20.0637ZM4.86882 4.39458C4.76507 4.39484 4.66361 4.42516 4.57673 4.48189C4.48985 4.53861 4.42127 4.61929 4.3793 4.71418C4.33732 4.80907 4.32375 4.91408 4.34022 5.01653C4.35669 5.11897 4.40249 5.21444 4.47209 5.29139L10.8264 12.2925C10.9353 12.4122 10.9969 12.5674 10.9998 12.7292V18.0101L13.0001 16.3965V12.7292C12.9997 12.5628 13.0615 12.4023 13.1735 12.2792L19.5278 5.27805C19.5933 5.20076 19.6355 5.10652 19.6497 5.00623C19.6638 4.90594 19.6493 4.80369 19.6078 4.7113C19.5663 4.6189 19.4996 4.54013 19.4152 4.48408C19.3308 4.42804 19.2323 4.39701 19.1311 4.39458H4.86882Z" fill="#ACAFC9"/>
</svg>
