<svg width="40" height="40" viewBox="0 0 40 40" fill="none" xmlns="http://www.w3.org/2000/svg">
<g clip-path="url(#clip0_3_3015)">
<path d="M20.0001 39.4541C23.5361 39.4541 26.4025 37.7751 26.4025 35.704C26.4025 33.6329 23.5361 31.954 20.0001 31.954C16.4641 31.954 13.5977 33.6329 13.5977 35.704C13.5977 37.7751 16.4641 39.4541 20.0001 39.4541Z" fill="url(#paint0_linear_3_3015)"/>
<path d="M40 17.6247C40 28.6698 31.0451 37.6247 20 37.6247C8.9549 37.6247 0 28.6699 0 17.6247C0 15.4016 8.9549 13.6003 20 13.6003C31.0451 13.6003 40 15.4016 40 17.6247Z" fill="url(#paint1_linear_3_3015)"/>
<path d="M20 21.6491C31.0457 21.6491 40 19.8473 40 17.6247C40 15.4021 31.0457 13.6003 20 13.6003C8.95431 13.6003 0 15.4021 0 17.6247C0 19.8473 8.95431 21.6491 20 21.6491Z" fill="url(#paint2_linear_3_3015)"/>
<path d="M20 20.585C30.2371 20.585 38.536 19.1894 38.536 17.4679C38.536 15.7463 30.2371 14.3508 20 14.3508C9.76293 14.3508 1.46411 15.7463 1.46411 17.4679C1.46411 19.1894 9.76293 20.585 20 20.585Z" fill="url(#paint3_linear_3_3015)"/>
<path d="M20.0001 20.585C29.8384 20.585 37.8139 19.5762 37.8139 18.3319C37.8139 17.0876 29.8384 16.0789 20.0001 16.0789C10.1618 16.0789 2.18628 17.0876 2.18628 18.3319C2.18628 19.5762 10.1618 20.585 20.0001 20.585Z" fill="url(#paint4_linear_3_3015)"/>
<path d="M38.7974 3.08567L13.0113 7.87485C12.7058 7.92967 12.4126 7.73006 12.3516 7.42575C12.2905 7.12144 12.4841 6.82418 12.7871 6.75689L38.2924 0.568103C38.7959 0.456339 39.293 0.780025 39.3944 1.28567L39.5374 1.99861C39.6389 2.50426 39.3051 2.99461 38.7974 3.08567Z" fill="url(#paint5_linear_3_3015)"/>
<path d="M39.2063 5.93562L13.2056 9.37774C12.8982 9.42056 12.613 9.20958 12.5639 8.90315C12.5148 8.59664 12.7198 8.30723 13.0252 8.25185L38.8001 3.40025C39.3075 3.30825 39.7916 3.65115 39.8732 4.1604L39.9881 4.87836C40.0698 5.38754 39.7171 5.86448 39.2063 5.93562Z" fill="url(#paint6_linear_3_3015)"/>
<path d="M18.804 8.63664L20.4502 8.41868L19.1336 7.10205L18.804 7.16417V8.63664Z" fill="url(#paint7_linear_3_3015)"/>
<path d="M18.7058 6.81721L20.2697 6.52678L18.9937 5.25085L18.7058 5.32074V6.81721Z" fill="url(#paint8_linear_3_3015)"/>
<path d="M23.4239 15.2219C23.4239 16.8642 17.4763 16.8642 17.4763 15.2219C17.4763 13.5795 18.8077 12.248 20.4501 12.248C22.0926 12.248 23.4239 13.5794 23.4239 15.2219Z" fill="url(#paint9_linear_3_3015)"/>
<path d="M15.6596 5.60461C16.1119 5.49496 16.5474 5.83763 16.5474 6.30296V16.2655C16.5474 16.3619 16.5208 16.4521 16.4753 16.529C16.3851 16.6796 16.2204 16.7808 16.0313 16.7808H15.6235C15.3385 16.7808 15.1074 16.5497 15.1074 16.2647V6.30367C15.1074 5.97198 15.3344 5.68343 15.6568 5.60524L15.6596 5.60461Z" fill="url(#paint10_linear_3_3015)"/>
<path d="M16.9534 5.29066C17.4058 5.18078 17.8416 5.52345 17.8416 5.98894V16.2655C17.8416 16.362 17.8149 16.4522 17.7695 16.529C17.6793 16.6796 17.5146 16.7808 17.3255 16.7808H16.9177C16.7295 16.7808 16.564 16.6796 16.4753 16.529C16.4283 16.4522 16.4016 16.362 16.4016 16.2655V5.98964C16.4016 5.65811 16.6284 5.36956 16.9506 5.29137L16.9534 5.29066Z" fill="url(#paint11_linear_3_3015)"/>
<path d="M19.1356 16.2655C19.1356 16.5502 18.905 16.7808 18.6195 16.7808H18.2116C18.0234 16.7808 17.8579 16.6796 17.7693 16.529C17.7222 16.4522 17.6956 16.362 17.6956 16.2655V5.67538C17.6956 5.34377 17.9225 5.05515 18.2448 4.97703C18.697 4.86738 19.1325 5.20911 19.1328 5.67436C19.1345 8.39522 19.1356 16.2655 19.1356 16.2655Z" fill="url(#paint12_linear_3_3015)"/>
<path d="M20.7529 20.5816C20.5027 20.5839 20.2517 20.5847 19.9999 20.5847C18.7772 20.5847 17.5819 20.5651 16.4258 20.5267C15.6415 20.5008 14.8752 20.4671 14.1301 20.4255C13.3411 20.3808 12.5772 20.3282 11.8399 20.2671C11.0454 20.202 10.2831 20.1267 9.55836 20.0435C8.75679 19.9518 7.99993 19.849 7.29562 19.7377C6.47915 19.6082 5.73327 19.4663 5.06738 19.3149C5.2164 18.562 5.47287 17.8482 5.81954 17.1886C7.14425 14.6663 9.78895 12.9455 12.8368 12.9455C13.2274 12.9455 13.6117 12.9737 13.9866 13.0286C14.0266 13.0341 14.0658 13.0404 14.1058 13.0475C14.1286 13.0506 14.1521 13.0545 14.1748 13.0584C14.2101 13.0639 14.2454 13.0702 14.2799 13.0773C14.3631 13.0922 14.4454 13.1086 14.527 13.1267C14.549 13.1314 14.5701 13.1361 14.5913 13.1408C14.6258 13.1486 14.6603 13.1565 14.694 13.1651C14.7395 13.1753 14.785 13.1871 14.8297 13.1988C14.8635 13.2075 14.8972 13.2161 14.9301 13.2255C14.9858 13.2404 15.0415 13.2561 15.0964 13.2733C15.1097 13.2765 15.1239 13.2804 15.1372 13.2851H15.138C15.1662 13.2937 15.1944 13.3024 15.2219 13.311C15.2721 13.3267 15.3215 13.3431 15.3709 13.3604C15.3748 13.3612 15.3788 13.362 15.3819 13.3635C15.4423 13.3839 15.5011 13.4043 15.5607 13.4263C15.6815 13.471 15.8015 13.518 15.9199 13.5682C15.9693 13.5886 16.0188 13.6106 16.0674 13.6326C16.0831 13.6388 16.0995 13.6459 16.1152 13.6537C16.1654 13.6765 16.2164 13.7 16.2666 13.7243C16.2737 13.7275 16.2807 13.7314 16.2878 13.7345C16.4956 13.8357 16.698 13.9447 16.8948 14.0631C16.9364 14.0875 16.9772 14.1118 17.0172 14.1377C17.0203 14.1392 17.0235 14.1416 17.0266 14.1439C17.0642 14.1667 17.1003 14.1894 17.1372 14.2129C17.1803 14.2412 17.2235 14.2694 17.2658 14.2984C17.3027 14.3235 17.3388 14.3478 17.3748 14.3737C17.396 14.3878 17.4172 14.4028 17.4376 14.4177C17.4846 14.4514 17.5309 14.4851 17.5764 14.5196C17.6133 14.5463 17.6493 14.5745 17.6854 14.6028C17.709 14.62 17.7309 14.638 17.7537 14.6561C17.8007 14.6929 17.8462 14.7298 17.8925 14.7682C18.1372 14.9714 18.3701 15.1894 18.589 15.42C18.6266 15.46 18.6642 15.5 18.7003 15.5408C18.7435 15.5878 18.785 15.6349 18.8266 15.6828C18.847 15.7055 18.8666 15.729 18.8854 15.7526C18.909 15.7792 18.9309 15.8051 18.9529 15.8326C18.9968 15.8843 19.0391 15.9377 19.0807 15.9918C19.1042 16.0216 19.1278 16.0522 19.1497 16.0828C19.1976 16.1439 19.2431 16.2067 19.2886 16.2694C19.3042 16.2906 19.3191 16.3118 19.3333 16.3337C19.3576 16.3682 19.3819 16.4028 19.4054 16.438C19.4478 16.5 19.4893 16.5628 19.5286 16.6263C19.5568 16.6702 19.5842 16.7149 19.6117 16.7596C19.6807 16.8733 19.7474 16.9886 19.8101 17.1055C19.8376 17.1565 19.865 17.2082 19.8917 17.2608C19.9168 17.3102 19.9419 17.3604 19.9662 17.4106C19.9764 17.431 19.9866 17.4514 19.9952 17.4718C20.0133 17.5086 20.0305 17.5447 20.047 17.5816C20.0564 17.6004 20.0642 17.6192 20.0729 17.638C20.094 17.6867 20.1152 17.7345 20.1356 17.7839C20.1607 17.8428 20.185 17.9024 20.2086 17.9628C20.2321 18.0208 20.254 18.0796 20.276 18.1384C20.2776 18.1416 20.2784 18.1447 20.2791 18.1478C20.3003 18.2043 20.3199 18.2616 20.3388 18.3188C20.3427 18.3267 20.345 18.3337 20.3466 18.3416C20.3615 18.3831 20.3748 18.4263 20.3882 18.4686C20.396 18.4914 20.4039 18.5149 20.4101 18.5377C20.4227 18.5792 20.4352 18.6208 20.447 18.6631C20.4541 18.6843 20.4603 18.7055 20.4658 18.7267C20.4776 18.7682 20.4886 18.8098 20.4988 18.8514C20.5042 18.8694 20.509 18.8875 20.5137 18.9055C20.5262 18.9549 20.5388 19.0051 20.5497 19.0553C20.5529 19.0671 20.556 19.0796 20.5584 19.0922C20.5686 19.1345 20.578 19.1769 20.5866 19.22C20.5921 19.2443 20.5968 19.2686 20.6015 19.2922C20.6109 19.3353 20.6188 19.3792 20.6266 19.4231C20.6305 19.4435 20.6344 19.4631 20.6376 19.4835C20.6439 19.518 20.6501 19.5526 20.6548 19.5878C20.6603 19.6184 20.6658 19.6498 20.6697 19.6804C20.6744 19.711 20.6791 19.7416 20.6831 19.7722C20.6886 19.8122 20.694 19.8529 20.6988 19.8929C20.7066 19.9573 20.7137 20.0208 20.7199 20.0851C20.7364 20.2498 20.7474 20.4145 20.7529 20.5816Z" fill="url(#paint13_linear_3_3015)"/>
<path d="M20 20.5847C20.2517 20.5847 20.5027 20.5839 20.7529 20.5815C20.7474 20.4145 20.7364 20.2498 20.72 20.0851C20.7137 20.0208 20.7066 19.9572 20.6988 19.8929C20.6941 19.8529 20.6886 19.8121 20.6831 19.7721C20.6792 19.7415 20.6745 19.711 20.6698 19.6804C20.6659 19.6498 20.6604 19.6184 20.6549 19.5878C20.6502 19.5525 20.6439 19.518 20.6376 19.4835C20.6345 19.4631 20.6306 19.4435 20.6266 19.4231C20.6188 19.3792 20.611 19.3353 20.6015 19.2921C20.5968 19.2686 20.5921 19.2443 20.5866 19.22C20.578 19.1768 20.5686 19.1345 20.5584 19.0921C20.5561 19.0796 20.5529 19.067 20.5498 19.0553C20.5388 19.0051 20.5263 18.9549 20.5137 18.9055C20.509 18.8874 20.5043 18.8694 20.4988 18.8514C20.4886 18.8098 20.4776 18.7682 20.4659 18.7266C20.4604 18.7055 20.4541 18.6843 20.447 18.6631C20.4353 18.6208 20.4227 18.5792 20.4102 18.5376C20.4039 18.5149 20.3961 18.4914 20.3882 18.4686C20.3749 18.4263 20.3615 18.3831 20.3466 18.3415C20.3451 18.3337 20.3427 18.3266 20.3388 18.3188C20.32 18.2615 20.3004 18.2043 20.2792 18.1478C20.2784 18.1447 20.2776 18.1415 20.2761 18.1384C20.2541 18.0796 20.2321 18.0208 20.2086 17.9627C20.1851 17.9023 20.1608 17.8427 20.1357 17.7839C20.1153 17.7345 20.0941 17.6866 20.0729 17.638C20.0643 17.6192 20.0564 17.6004 20.047 17.5815C20.0306 17.5447 20.0133 17.5086 19.9953 17.4717C19.9866 17.4514 19.9764 17.431 19.9663 17.4106C19.9419 17.3604 19.9168 17.3102 19.8917 17.2608C19.8651 17.2082 19.8376 17.1564 19.8102 17.1055C19.7474 16.9886 19.6808 16.8733 19.6117 16.7596C19.5843 16.7149 19.5568 16.6702 19.5286 16.6263C19.4894 16.5627 19.4478 16.5 19.4055 16.438C19.3819 16.4027 19.3576 16.3682 19.3333 16.3337C19.3192 16.3117 19.3043 16.2906 19.2886 16.2694C19.2431 16.2066 19.1976 16.1439 19.1498 16.0827C19.1278 16.0521 19.1043 16.0215 19.0808 15.9917C19.0392 15.9376 18.9968 15.8843 18.9529 15.8325C18.931 15.8051 18.909 15.7792 18.8855 15.7525C18.8666 15.729 18.847 15.7055 18.8266 15.6827C18.7851 15.6349 18.7435 15.5878 18.7004 15.5408C18.6643 15.5 18.6266 15.46 18.589 15.42C18.3702 15.1894 18.1372 14.9714 17.8925 14.7682C17.8463 14.7298 17.8008 14.6929 17.7537 14.6561C17.731 14.638 17.709 14.62 17.6855 14.6027C17.6494 14.5745 17.6133 14.5463 17.5764 14.5196C17.531 14.4851 17.4847 14.4514 17.4376 14.4176C17.4172 14.4027 17.3961 14.3878 17.3749 14.3737C17.3388 14.3478 17.3027 14.3235 17.2659 14.2984C17.2235 14.2694 17.1804 14.2412 17.1372 14.2129C17.1004 14.1894 17.0643 14.1666 17.0266 14.1439C17.0235 14.1415 17.0204 14.1392 17.0172 14.1376C16.9772 14.1117 16.9364 14.0874 16.8949 14.0631C16.698 13.9447 16.4957 13.8357 16.2878 13.7345C16.2808 13.7314 16.2737 13.7274 16.2666 13.7243C16.2164 13.7 16.1655 13.6764 16.1153 13.6537C16.0996 13.6459 16.0831 13.6388 16.0674 13.6325C16.0188 13.6106 15.9694 13.5886 15.92 13.5682C15.8015 13.518 15.6815 13.471 15.5608 13.4263C15.5012 13.4043 15.4423 13.3839 15.3819 13.3635C15.3788 13.3619 15.3749 13.3612 15.371 13.3604C15.3215 13.3431 15.2721 13.3266 15.2219 13.311C15.1945 13.3023 15.1663 13.2937 15.138 13.2851H15.1372C15.1239 13.2804 15.1098 13.2764 15.0964 13.2733C15.0415 13.2561 14.9859 13.2404 14.9302 13.2255C14.8972 13.2161 14.8635 13.2074 14.8298 13.1988C14.7851 13.187 14.7396 13.1753 14.6941 13.1651C14.6604 13.1564 14.6259 13.1486 14.5913 13.1408C14.5702 13.1361 14.549 13.1314 14.527 13.1266C14.4455 13.1086 14.3631 13.0921 14.28 13.0772C14.2455 13.0702 14.2102 13.0639 14.1749 13.0584C14.1521 13.0545 14.1286 13.0506 14.1059 13.0474C14.0659 13.0404 14.0266 13.0341 13.9866 13.0286C13.8381 13.0069 13.6877 12.9905 13.5363 12.9772C11.2575 13.4628 9.32139 14.9404 8.15566 16.9623C7.67425 17.7964 7.32453 18.7234 7.13574 19.7117C7.189 19.7204 7.24178 19.7292 7.29566 19.7377C7.99998 19.8491 8.75684 19.9518 9.55841 20.0436C10.2831 20.1267 11.0455 20.202 11.84 20.2671C12.5772 20.3283 13.3412 20.3808 14.1302 20.4255C14.8753 20.4671 15.6415 20.5008 16.4259 20.5267C17.5819 20.5651 18.7772 20.5847 20 20.5847Z" fill="url(#paint14_linear_3_3015)"/>
<path d="M20.0001 20.5847C20.2518 20.5847 20.5028 20.5839 20.753 20.5816C20.7475 20.4145 20.7365 20.2498 20.7201 20.0851C20.7138 20.0208 20.7067 19.9572 20.6989 19.8929C20.6942 19.8529 20.6887 19.8121 20.6832 19.7721C20.6793 19.7416 20.6746 19.711 20.6699 19.6804C20.6659 19.6498 20.6604 19.6184 20.655 19.5878C20.6502 19.5525 20.644 19.518 20.6377 19.4835C20.6346 19.4631 20.6306 19.4435 20.6267 19.4231C20.6189 19.3792 20.611 19.3353 20.6016 19.2921C20.5969 19.2686 20.5922 19.2443 20.5867 19.22C20.5781 19.1769 20.5687 19.1345 20.5585 19.0921C20.5561 19.0796 20.553 19.067 20.5499 19.0553C20.5389 19.0051 20.5263 18.9549 20.5138 18.9055C20.5091 18.8874 20.5044 18.8694 20.4989 18.8514C20.4887 18.8098 20.4777 18.7682 20.4659 18.7267C20.4604 18.7055 20.4542 18.6843 20.4471 18.6631C20.4353 18.6208 20.4228 18.5792 20.4102 18.5376C20.404 18.5149 20.3961 18.4914 20.3883 18.4686C20.375 18.4263 20.3616 18.3831 20.3467 18.3416C20.3452 18.3337 20.3428 18.3267 20.3389 18.3188C20.3201 18.2616 20.3004 18.2043 20.2793 18.1478C20.2785 18.1447 20.2777 18.1416 20.2761 18.1384C20.2542 18.0796 20.2322 18.0208 20.2087 17.9627C20.1852 17.9023 20.1608 17.8427 20.1357 17.7839C20.1153 17.7345 20.0942 17.6867 20.073 17.638C20.0644 17.6192 20.0565 17.6004 20.0471 17.5816C20.0306 17.5447 20.0134 17.5086 19.9953 17.4718C19.9867 17.4514 19.9765 17.431 19.9663 17.4106C19.942 17.3604 19.9169 17.3102 19.8918 17.2608C19.8651 17.2082 19.8377 17.1565 19.8102 17.1055C19.7475 16.9886 19.6808 16.8733 19.6118 16.7596C19.5844 16.7149 19.5569 16.6702 19.5287 16.6263C19.4895 16.5627 19.4479 16.5 19.4055 16.438C19.382 16.4027 19.3577 16.3682 19.3334 16.3337C19.3193 16.3118 19.3044 16.2906 19.2887 16.2694C19.2432 16.2067 19.1977 16.1439 19.1499 16.0827C19.1279 16.0521 19.1044 16.0216 19.0808 15.9918C19.0393 15.9376 18.9969 15.8843 18.953 15.8325C18.931 15.8051 18.9091 15.7792 18.8855 15.7525C18.8667 15.729 18.8471 15.7055 18.8267 15.6827C18.7851 15.6349 18.7436 15.5878 18.7004 15.5408C18.6644 15.5 18.6267 15.46 18.5891 15.42C18.3702 15.1894 18.1373 14.9714 17.8926 14.7682C17.8463 14.7298 17.8008 14.6929 17.7538 14.6561C17.731 14.638 17.7091 14.62 17.6855 14.6027C17.6495 14.5745 17.6134 14.5463 17.5765 14.5196C17.531 14.4851 17.4848 14.4514 17.4377 14.4176C17.4173 14.4027 17.3961 14.3878 17.375 14.3737C17.3389 14.3478 17.3028 14.3235 17.2659 14.2984C17.2236 14.2694 17.1804 14.2412 17.1373 14.2129C17.1004 14.1894 17.0644 14.1667 17.0267 14.1439C17.0236 14.1416 17.0204 14.1392 17.0173 14.1376C16.9773 14.1118 16.9365 14.0874 16.895 14.0631C16.6981 13.9447 16.4957 13.8357 16.2879 13.7345C16.2808 13.7314 16.2738 13.7274 16.2667 13.7243C16.2165 13.7 16.1655 13.6765 16.1153 13.6537C16.0997 13.6459 16.0832 13.6388 16.0675 13.6325C16.0189 13.6106 15.9695 13.5886 15.9201 13.5682C15.8016 13.518 15.6816 13.471 15.5608 13.4263C15.5012 13.4043 15.4424 13.3839 15.382 13.3635C15.3789 13.362 15.375 13.3612 15.371 13.3604C15.3216 13.3431 15.2722 13.3267 15.222 13.311C15.1946 13.3023 15.1663 13.2937 15.1381 13.2851H15.1373C15.124 13.2804 15.1099 13.2765 15.0965 13.2733C15.0589 13.2615 15.0207 13.2511 14.9825 13.2405C13.2251 13.8504 11.7299 15.0659 10.725 16.6529C10.0914 17.652 9.65221 18.7981 9.4624 20.0324C9.49448 20.0361 9.52617 20.0399 9.5584 20.0436C10.2831 20.1267 11.0455 20.202 11.84 20.2671C12.5772 20.3283 13.3411 20.3809 14.1302 20.4256C14.8753 20.4671 15.6415 20.5009 16.4259 20.5267C17.582 20.5651 18.7773 20.5847 20.0001 20.5847Z" fill="url(#paint15_linear_3_3015)"/>
<path d="M19.9999 20.5847C20.2517 20.5847 20.5026 20.5839 20.7528 20.5816C20.7473 20.4145 20.7364 20.2498 20.7199 20.0851C20.7136 20.0208 20.7066 19.9573 20.6987 19.8929C20.694 19.8529 20.6885 19.8122 20.683 19.7722C20.6791 19.7416 20.6744 19.711 20.6697 19.6804C20.6658 19.6498 20.6603 19.6184 20.6548 19.5878C20.6501 19.5526 20.6438 19.518 20.6375 19.4835C20.6344 19.4631 20.6305 19.4435 20.6266 19.4231C20.6187 19.3792 20.6109 19.3353 20.6015 19.2922C20.5968 19.2686 20.592 19.2443 20.5866 19.22C20.5779 19.1769 20.5685 19.1345 20.5583 19.0922C20.556 19.0796 20.5528 19.0671 20.5497 19.0553C20.5387 19.0051 20.5262 18.9549 20.5136 18.9055C20.5089 18.8875 20.5042 18.8694 20.4987 18.8514C20.4885 18.8098 20.4775 18.7682 20.4658 18.7267C20.4603 18.7055 20.454 18.6843 20.4469 18.6631C20.4352 18.6208 20.4226 18.5792 20.4101 18.5377C20.4038 18.5149 20.396 18.4914 20.3881 18.4686C20.3748 18.4263 20.3615 18.3831 20.3466 18.3416C20.345 18.3337 20.3426 18.3267 20.3387 18.3188C20.3199 18.2616 20.3003 18.2043 20.2791 18.1478C20.2783 18.1447 20.2775 18.1416 20.276 18.1384C20.254 18.0796 20.232 18.0208 20.2085 17.9628C20.185 17.9024 20.1607 17.8428 20.1356 17.7839C20.1152 17.7345 20.094 17.6867 20.0728 17.638C20.0642 17.6192 20.0564 17.6004 20.0469 17.5816C20.0305 17.5447 20.0132 17.5086 19.9952 17.4718C19.9866 17.4514 19.9764 17.431 19.9662 17.4106C19.9419 17.3604 19.9168 17.3102 19.8917 17.2608C19.865 17.2082 19.8375 17.1565 19.8101 17.1055C19.7473 16.9886 19.6807 16.8733 19.6117 16.7596C19.5842 16.7149 19.5568 16.6702 19.5285 16.6263C19.4893 16.5628 19.4477 16.5 19.4054 16.438C19.3819 16.4028 19.3575 16.3682 19.3332 16.3337C19.3191 16.3118 19.3042 16.2906 19.2885 16.2694C19.243 16.2067 19.1975 16.1439 19.1497 16.0828C19.1277 16.0522 19.1042 16.0216 19.0807 15.9918C19.0391 15.9377 18.9968 15.8843 18.9528 15.8326C18.9309 15.8051 18.9089 15.7792 18.8854 15.7526C18.8666 15.729 18.8469 15.7055 18.8266 15.6828C18.785 15.6349 18.7434 15.5878 18.7003 15.5408C18.6642 15.5 18.6266 15.46 18.5889 15.42C18.3701 15.1894 18.1371 14.9714 17.8924 14.7682C17.8462 14.7298 17.8007 14.6929 17.7536 14.6561C17.7309 14.638 17.7089 14.62 17.6854 14.6028C17.6493 14.5745 17.6132 14.5463 17.5764 14.5196C17.5309 14.4851 17.4846 14.4514 17.4375 14.4177C17.4171 14.4028 17.396 14.3878 17.3748 14.3737C17.3387 14.3478 17.3026 14.3235 17.2658 14.2984C17.2234 14.2694 17.1803 14.2412 17.1371 14.2129C17.1003 14.1894 17.0642 14.1667 17.0266 14.1439C17.0234 14.1416 17.0203 14.1392 17.0171 14.1377C16.9771 14.1118 16.9364 14.0875 16.8948 14.0631C16.6979 13.9447 16.4956 13.8357 16.2877 13.7345C16.2807 13.7314 16.2736 13.7275 16.2666 13.7243C16.2637 13.723 16.2609 13.7217 16.2581 13.7204C15.0539 14.3569 14.0193 15.2947 13.2455 16.4406C12.4964 17.5498 11.992 18.8536 11.813 20.2648C11.822 20.2655 11.8309 20.2664 11.84 20.2671C12.5772 20.3283 13.3411 20.3809 14.1302 20.4256C14.8753 20.4671 15.6415 20.5009 16.4259 20.5268C17.5819 20.5651 18.7771 20.5847 19.9999 20.5847Z" fill="url(#paint16_linear_3_3015)"/>
<path d="M15.7223 16.3041C14.8916 17.4844 14.3425 18.8951 14.176 20.4279C14.9068 20.4682 15.6575 20.5013 16.4259 20.5266C17.582 20.565 18.7773 20.5846 20 20.5846C20.2518 20.5846 20.5028 20.5839 20.753 20.5815C20.7475 20.4144 20.7365 20.2497 20.72 20.085C20.7138 20.0207 20.7067 19.9572 20.6988 19.8929C20.6941 19.8529 20.6887 19.8121 20.6832 19.7721C20.6792 19.7415 20.6745 19.7109 20.6698 19.6803C20.6659 19.6497 20.6604 19.6184 20.6549 19.5878C20.6502 19.5525 20.6439 19.518 20.6377 19.4835C20.6345 19.4631 20.6306 19.4435 20.6267 19.4231C20.6188 19.3791 20.611 19.3352 20.6016 19.2921C20.5969 19.2686 20.5922 19.2442 20.5867 19.2199C20.5781 19.1768 20.5687 19.1344 20.5585 19.0921C20.5561 19.0795 20.553 19.067 20.5498 19.0552C20.5388 19.005 20.5263 18.9548 20.5138 18.9054C20.509 18.8874 20.5043 18.8693 20.4988 18.8513C20.4887 18.8097 20.4777 18.7682 20.4659 18.7266C20.4604 18.7054 20.4541 18.6842 20.4471 18.6631C20.4353 18.6207 20.4228 18.5791 20.4102 18.5376C20.4039 18.5148 20.3961 18.4913 20.3883 18.4686C20.3749 18.4262 20.3616 18.3831 20.3467 18.3415C20.3451 18.3337 20.3428 18.3266 20.3388 18.3188C20.32 18.2615 20.3004 18.2042 20.2792 18.1478C20.2785 18.1446 20.2777 18.1415 20.2761 18.1384C20.2541 18.0795 20.2322 18.0207 20.2087 17.9627C20.1851 17.9023 20.1608 17.8427 20.1357 17.7839C20.1153 17.7344 20.0941 17.6866 20.073 17.638C20.0643 17.6191 20.0565 17.6003 20.0471 17.5815C20.0306 17.5446 20.0134 17.5086 19.9953 17.4717C19.9867 17.4513 19.9765 17.4309 19.9663 17.4105C19.942 17.3603 19.9169 17.3101 19.8918 17.2607C19.8651 17.2082 19.8377 17.1564 19.8102 17.1054C19.7475 16.9886 19.6808 16.8733 19.6118 16.7595C19.5843 16.7148 19.5569 16.6701 19.5287 16.6262C19.4894 16.5627 19.4479 16.4999 19.4055 16.438C19.382 16.4027 19.3577 16.3682 19.3334 16.3337C19.3192 16.3117 19.3043 16.2905 19.2887 16.2693C19.2432 16.2066 19.1977 16.1439 19.1498 16.0827C19.1279 16.0521 19.1043 16.0215 19.0808 15.9917C19.0392 15.9376 18.9969 15.8842 18.953 15.8325C18.931 15.805 18.909 15.7791 18.8855 15.7525C18.8667 15.729 18.8471 15.7054 18.8267 15.6827C18.7851 15.6348 18.7436 15.5878 18.7004 15.5407C18.6643 15.4999 18.6267 15.4599 18.589 15.4199C18.3702 15.1893 18.1373 14.9713 17.8926 14.7682C17.8463 14.7297 17.8008 14.6929 17.7538 14.656C17.731 14.638 17.709 14.6199 17.6855 14.6027C17.6494 14.5744 17.6134 14.5462 17.5765 14.5195C17.5487 14.4984 17.5199 14.4778 17.4914 14.457C16.816 14.9749 16.2182 15.5979 15.7223 16.3041Z" fill="url(#paint17_linear_3_3015)"/>
<path d="M18.7049 15.546C18.5114 15.7642 18.3275 15.992 18.1566 16.2299C17.2771 17.4507 16.7031 18.9256 16.5474 20.5301C17.6658 20.566 18.8196 20.5846 19.9998 20.5846C20.2516 20.5846 20.5026 20.5838 20.7528 20.5815C20.7473 20.4144 20.7363 20.2497 20.7198 20.085C20.7136 20.0207 20.7065 19.9572 20.6987 19.8929C20.694 19.8529 20.6885 19.8121 20.683 19.7721C20.679 19.7415 20.6743 19.7109 20.6696 19.6803C20.6657 19.6497 20.6602 19.6184 20.6547 19.5878C20.65 19.5525 20.6438 19.518 20.6375 19.4835C20.6343 19.4631 20.6304 19.4434 20.6265 19.4231C20.6187 19.3791 20.6108 19.3352 20.6014 19.2921C20.5967 19.2685 20.592 19.2442 20.5865 19.2199C20.5779 19.1768 20.5685 19.1344 20.5583 19.0921C20.5559 19.0795 20.5528 19.067 20.5496 19.0552C20.5387 19.005 20.5261 18.9548 20.5136 18.9054C20.5089 18.8874 20.5041 18.8693 20.4987 18.8513C20.4885 18.8097 20.4775 18.7682 20.4657 18.7266C20.4602 18.7054 20.454 18.6842 20.4469 18.6631C20.4351 18.6207 20.4226 18.5791 20.41 18.5376C20.4038 18.5148 20.3959 18.4913 20.3881 18.4685C20.3747 18.4262 20.3614 18.3831 20.3465 18.3415C20.3449 18.3336 20.3426 18.3266 20.3387 18.3187C20.3198 18.2615 20.3002 18.2042 20.279 18.1478C20.2783 18.1446 20.2775 18.1415 20.2759 18.1384C20.254 18.0795 20.232 18.0207 20.2085 17.9627C20.1849 17.9023 20.1606 17.8427 20.1355 17.7838C20.1151 17.7344 20.094 17.6866 20.0728 17.638C20.0641 17.6191 20.0563 17.6003 20.0469 17.5815C20.0304 17.5446 20.0132 17.5085 19.9951 17.4717C19.9865 17.4513 19.9763 17.4309 19.9661 17.4105C19.9418 17.3603 19.9167 17.3101 19.8916 17.2607C19.8649 17.2082 19.8375 17.1564 19.81 17.1054C19.7473 16.9885 19.6806 16.8733 19.6116 16.7595C19.5841 16.7148 19.5567 16.6701 19.5285 16.6262C19.4892 16.5627 19.4477 16.4999 19.4053 16.438C19.3818 16.4027 19.3575 16.3682 19.3332 16.3336C19.319 16.3117 19.3041 16.2905 19.2885 16.2693C19.243 16.2066 19.1975 16.1438 19.1496 16.0827C19.1277 16.0521 19.1041 16.0215 19.0806 15.9917C19.039 15.9376 18.9967 15.8842 18.9528 15.8325C18.9308 15.805 18.9089 15.7791 18.8853 15.7525C18.8665 15.7289 18.8469 15.7054 18.8265 15.6827C18.7864 15.6366 18.7463 15.5913 18.7049 15.546Z" fill="url(#paint18_linear_3_3015)"/>
<path d="M32.9098 18.5168C31.7484 19.6781 27.5429 15.4726 28.7042 14.3112C29.8655 13.1499 31.7484 13.1499 32.9098 14.3112C34.0711 15.4726 34.0711 17.3555 32.9098 18.5168Z" fill="url(#paint19_linear_3_3015)"/>
<path d="M34.3952 19.4318C30.9967 20.1353 25.8109 20.5847 19.9999 20.5847C18.6281 20.5847 17.2916 20.5596 16.0054 20.5118C16.3607 18.8286 17.1771 17.311 18.3175 16.0914C20.0618 14.2255 22.5662 13.0561 25.3489 13.0561C28.5575 13.0561 31.396 14.6106 33.1269 16.9949C33.6634 17.7345 34.094 18.5541 34.3952 19.4318Z" fill="url(#paint20_linear_3_3015)"/>
<path d="M18.3175 16.0914C17.1771 17.311 16.3607 18.8286 16.0054 20.5118C17.2916 20.5596 18.6281 20.5847 19.9999 20.5847C24.6046 20.5847 28.8156 20.3023 32.057 19.8352C31.8429 19.2978 31.5888 18.7809 31.298 18.2903C30.9795 17.7532 30.6183 17.2457 30.2177 16.7728C28.6568 14.929 26.5104 13.6166 24.0753 13.1389C21.8072 13.4359 19.7912 14.5151 18.3175 16.0914Z" fill="url(#paint21_linear_3_3015)"/>
<path d="M18.3175 16.0914C17.1771 17.311 16.3607 18.8287 16.0054 20.5118C17.2916 20.5596 18.6281 20.5847 19.9999 20.5847C23.2845 20.5847 26.3691 20.4411 29.0443 20.1891C28.7512 19.3741 28.3662 18.6043 27.9027 17.8922C27.5729 17.3847 27.2029 16.9069 26.7967 16.4627C25.5904 15.1397 24.0699 14.1193 22.3571 13.5258C20.7924 14.0327 19.4068 14.9262 18.3175 16.0914Z" fill="url(#paint22_linear_3_3015)"/>
<path d="M18.3175 16.0914C17.1771 17.311 16.3607 18.8287 16.0054 20.5118C17.2916 20.5596 18.6281 20.5847 19.9999 20.5847C22.0913 20.5847 24.1008 20.5262 25.976 20.4189C25.6381 19.4123 25.1631 18.4712 24.5726 17.6192C24.246 17.1479 23.884 16.7046 23.4907 16.2917C22.6978 15.4586 21.7776 14.7533 20.7625 14.2076C19.8454 14.7022 19.0198 15.3402 18.3175 16.0914Z" fill="url(#paint23_linear_3_3015)"/>
<path d="M18.3175 16.0914C17.1771 17.311 16.3607 18.8287 16.0054 20.5118C17.2916 20.5596 18.6281 20.5847 19.9999 20.5847C20.9767 20.5847 21.9352 20.5718 22.8711 20.5473C22.508 19.4222 21.9739 18.3771 21.2996 17.444C20.9891 17.0139 20.6497 16.6068 20.2829 16.2276C19.9462 15.8795 19.5865 15.5547 19.2075 15.2547C18.8929 15.5146 18.5955 15.7941 18.3175 16.0914Z" fill="url(#paint24_linear_3_3015)"/>
<path d="M19.7361 20.5841C19.3608 19.4065 18.7982 18.3155 18.0829 17.3486C17.9555 17.1757 17.8228 17.0072 17.6856 16.8425C16.8752 17.9129 16.291 19.1587 16.0054 20.5118C17.2089 20.5565 18.4569 20.5811 19.7361 20.5841Z" fill="url(#paint25_linear_3_3015)"/>
<path d="M16.9076 15.2071C16.8788 15.1093 16.9658 15.0139 17.1019 14.9939C17.238 14.9739 17.3716 15.0369 17.4004 15.1346C17.4292 15.2323 17.3422 15.3278 17.2061 15.3478C17.07 15.3678 16.9364 15.3048 16.9076 15.2071Z" fill="url(#paint26_linear_3_3015)"/>
<path d="M16.8933 14.6553C16.9221 14.7531 16.8351 14.8485 16.699 14.8685C16.563 14.8885 16.4293 14.8255 16.4005 14.7278C16.3717 14.6301 16.4587 14.5346 16.5948 14.5146C16.7309 14.4946 16.8645 14.5576 16.8933 14.6553Z" fill="url(#paint27_linear_3_3015)"/>
<path d="M16.4417 16.0703C16.5777 16.0503 16.7114 16.1133 16.7403 16.211C16.769 16.3087 16.6821 16.4042 16.546 16.4242C16.4099 16.4442 16.2763 16.3812 16.2475 16.2835C16.2186 16.1857 16.3056 16.0903 16.4417 16.0703Z" fill="url(#paint28_linear_3_3015)"/>
<path d="M15.8677 16.7086C16.0038 16.6886 16.1375 16.7516 16.1663 16.8493C16.195 16.947 16.1081 17.0425 15.972 17.0625C15.8359 17.0825 15.7023 17.0195 15.6735 16.9218C15.6447 16.8241 15.7317 16.7286 15.8677 16.7086Z" fill="url(#paint29_linear_3_3015)"/>
<path d="M17.5279 16.7383C17.664 16.7183 17.7976 16.7813 17.8264 16.879C17.8552 16.9768 17.7682 17.0722 17.6321 17.0922C17.496 17.1122 17.3624 17.0492 17.3336 16.9515C17.3049 16.8538 17.3918 16.7583 17.5279 16.7383Z" fill="url(#paint30_linear_3_3015)"/>
<path d="M16.7318 15.7815C16.703 15.6837 16.79 15.5883 16.9261 15.5683C17.0622 15.5483 17.1958 15.6113 17.2246 15.709C17.2534 15.8067 17.1664 15.9022 17.0303 15.9222C16.8943 15.9422 16.7606 15.8792 16.7318 15.7815Z" fill="url(#paint31_linear_3_3015)"/>
<path d="M15.3607 16.2294C15.4967 16.2094 15.6304 16.2723 15.6592 16.3701C15.688 16.4678 15.601 16.5632 15.4649 16.5832C15.3288 16.6032 15.1952 16.5403 15.1664 16.4425C15.1376 16.3448 15.2246 16.2494 15.3607 16.2294Z" fill="url(#paint32_linear_3_3015)"/>
<path d="M14.1114 13.3952C14.2475 13.3752 14.3811 13.4382 14.4099 13.5359C14.4387 13.6336 14.3517 13.7291 14.2156 13.7491C14.0796 13.7691 13.9459 13.7061 13.9171 13.6084C13.8883 13.5106 13.9752 13.4153 14.1114 13.3952Z" fill="url(#paint33_linear_3_3015)"/>
<path d="M12.3888 13.4642C12.5248 13.4442 12.6585 13.5071 12.6873 13.6049C12.7161 13.7026 12.6291 13.798 12.493 13.818C12.3569 13.838 12.2233 13.7751 12.1945 13.6773C12.1656 13.5796 12.2527 13.4842 12.3888 13.4642Z" fill="url(#paint34_linear_3_3015)"/>
<path d="M11.6205 14.3156C11.5917 14.2178 11.6787 14.1224 11.8148 14.1024C11.9508 14.0824 12.0845 14.1454 12.1133 14.2431C12.1421 14.3408 12.0551 14.4363 11.919 14.4563C11.783 14.4763 11.6494 14.4133 11.6205 14.3156Z" fill="url(#paint35_linear_3_3015)"/>
<path d="M13.4749 14.1321C13.611 14.1121 13.7446 14.1751 13.7734 14.2728C13.8022 14.3706 13.7152 14.466 13.5792 14.486C13.4431 14.506 13.3094 14.443 13.2806 14.3453C13.2519 14.2476 13.3388 14.1521 13.4749 14.1321Z" fill="url(#paint36_linear_3_3015)"/>
<path d="M11.4119 13.9771C11.2758 13.9971 11.1422 13.9341 11.1134 13.8364C11.0846 13.7387 11.1716 13.6432 11.3077 13.6232C11.4438 13.6032 11.5774 13.6662 11.6062 13.7639C11.6349 13.8616 11.548 13.9571 11.4119 13.9771Z" fill="url(#paint37_linear_3_3015)"/>
<path d="M14.1107 14.4976C14.0819 14.3999 14.1689 14.3045 14.305 14.2845C14.4411 14.2645 14.5747 14.3274 14.6035 14.4251C14.6323 14.5228 14.5453 14.6183 14.4092 14.6383C14.2732 14.6583 14.1395 14.5954 14.1107 14.4976Z" fill="url(#paint38_linear_3_3015)"/>
<path d="M12.8773 15.1099C13.0133 15.0899 13.147 15.1529 13.1758 15.2506C13.2046 15.3483 13.1176 15.4438 12.9815 15.4638C12.8454 15.4838 12.7118 15.4208 12.683 15.3231C12.6542 15.2254 12.7412 15.1299 12.8773 15.1099Z" fill="url(#paint39_linear_3_3015)"/>
<path d="M14.0382 15.1236C14.1742 15.1036 14.3079 15.1666 14.3367 15.2643C14.3655 15.3621 14.2785 15.4575 14.1424 15.4775C14.0063 15.4975 13.8727 15.4345 13.8439 15.3368C13.8151 15.2391 13.9021 15.1436 14.0382 15.1236Z" fill="url(#paint40_linear_3_3015)"/>
<path d="M12.4318 14.4702C12.403 14.3725 12.49 14.2771 12.626 14.2571C12.7621 14.2371 12.8958 14.3 12.9246 14.3978C12.9533 14.4955 12.8664 14.5909 12.7303 14.6109C12.5942 14.6309 12.4606 14.568 12.4318 14.4702Z" fill="url(#paint41_linear_3_3015)"/>
<path d="M11.1546 15.1788C11.2907 15.1588 11.4243 15.2218 11.4531 15.3195C11.4819 15.4172 11.3949 15.5127 11.2588 15.5327C11.1228 15.5527 10.9891 15.4897 10.9603 15.392C10.9316 15.2943 11.0185 15.1989 11.1546 15.1788Z" fill="url(#paint42_linear_3_3015)"/>
<path d="M10.5806 15.8171C10.7167 15.7971 10.8504 15.86 10.8791 15.9578C10.9079 16.0555 10.821 16.1509 10.6849 16.1709C10.5488 16.1909 10.4151 16.128 10.3864 16.0302C10.3576 15.9326 10.4446 15.8371 10.5806 15.8171Z" fill="url(#paint43_linear_3_3015)"/>
<path d="M12.2408 15.8468C12.3769 15.8268 12.5105 15.8898 12.5393 15.9875C12.5681 16.0852 12.4811 16.1807 12.345 16.2007C12.209 16.2207 12.0753 16.1577 12.0465 16.06C12.0177 15.9623 12.1047 15.8668 12.2408 15.8468Z" fill="url(#paint44_linear_3_3015)"/>
<path d="M14.984 15.716C15.12 15.696 15.2537 15.759 15.2825 15.8567C15.3113 15.9544 15.2243 16.0499 15.0882 16.0699C14.9521 16.0899 14.8185 16.0269 14.7897 15.9292C14.7609 15.8314 14.8479 15.736 14.984 15.716Z" fill="url(#paint45_linear_3_3015)"/>
<path d="M15.5319 15.2731C15.5031 15.1754 15.5901 15.0799 15.7261 15.0599C15.8622 15.0399 15.9959 15.1029 16.0247 15.2006C16.0534 15.2983 15.9665 15.3938 15.8304 15.4138C15.6943 15.4338 15.5607 15.3708 15.5319 15.2731Z" fill="url(#paint46_linear_3_3015)"/>
<path d="M11.4447 14.8899C11.4159 14.7922 11.5029 14.6967 11.639 14.6767C11.7751 14.6567 11.9087 14.7197 11.9375 14.8174C11.9663 14.9152 11.8793 15.0106 11.7432 15.0306C11.6071 15.0506 11.4735 14.9876 11.4447 14.8899Z" fill="url(#paint47_linear_3_3015)"/>
<path d="M10.0736 15.3379C10.2096 15.3179 10.3433 15.3809 10.3721 15.4786C10.4009 15.5763 10.3139 15.6718 10.1778 15.6918C10.0417 15.7118 9.90807 15.6488 9.87928 15.551C9.8505 15.4534 9.93748 15.358 10.0736 15.3379Z" fill="url(#paint48_linear_3_3015)"/>
<path d="M16.9893 15.6324C17.1254 15.6524 17.2591 15.5894 17.2878 15.4917C17.3166 15.394 17.2296 15.2985 17.0936 15.2785C16.9575 15.2585 16.8238 15.3215 16.7951 15.4193C16.7663 15.517 16.8532 15.6124 16.9893 15.6324Z" fill="#8BC53F"/>
<path d="M16.2213 14.781C16.1925 14.8787 16.2795 14.9742 16.4156 14.9942C16.5517 15.0142 16.6853 14.9512 16.7141 14.8535C16.7429 14.7558 16.6559 14.6603 16.5198 14.6403C16.3838 14.6203 16.2501 14.6833 16.2213 14.781Z" fill="#8BC53F"/>
<path d="M17.5782 15.7806C17.4421 15.7606 17.3085 15.8235 17.2797 15.9213C17.2509 16.019 17.3379 16.1144 17.4739 16.1344C17.61 16.1544 17.7437 16.0915 17.7725 15.9938C17.8012 15.8961 17.7143 15.8006 17.5782 15.7806Z" fill="#8BC53F"/>
<path d="M16.207 15.3327C16.2358 15.235 16.1488 15.1395 16.0128 15.1195C15.8767 15.0995 15.743 15.1625 15.7142 15.2603C15.6855 15.358 15.7724 15.4534 15.9085 15.4734C16.0446 15.4934 16.1782 15.4304 16.207 15.3327Z" fill="#8BC53F"/>
<path d="M14.9571 17.0644C14.821 17.0444 14.6874 17.1074 14.6586 17.2051C14.6298 17.3029 14.7168 17.3983 14.8529 17.4183C14.9889 17.4383 15.1226 17.3753 15.1514 17.2776C15.1801 17.18 15.0932 17.0845 14.9571 17.0644Z" fill="#8BC53F"/>
<path d="M13.4251 16.5928C13.5612 16.6128 13.6948 16.5498 13.7236 16.4521C13.7524 16.3544 13.6654 16.2589 13.5294 16.2389C13.3933 16.2189 13.2596 16.2819 13.2308 16.3796C13.2021 16.4774 13.289 16.5728 13.4251 16.5928Z" fill="#8BC53F"/>
<path d="M14.8845 16.4384C14.9133 16.3407 14.8263 16.2452 14.6902 16.2252C14.5542 16.2052 14.4205 16.2682 14.3917 16.3659C14.3629 16.4636 14.4499 16.5591 14.586 16.5791C14.7221 16.5991 14.8557 16.5361 14.8845 16.4384Z" fill="#8BC53F"/>
<path d="M12.9794 17.2325C12.9506 17.3302 13.0376 17.4257 13.1737 17.4457C13.3097 17.4657 13.4434 17.4027 13.4722 17.305C13.5009 17.2072 13.414 17.1118 13.2779 17.0918C13.1419 17.0718 13.0082 17.1348 12.9794 17.2325Z" fill="#8BC53F"/>
<path d="M11.7022 16.524C11.8383 16.544 11.9719 16.481 12.0007 16.3833C12.0295 16.2855 11.9425 16.1901 11.8065 16.1701C11.6704 16.1501 11.5367 16.2131 11.5079 16.3108C11.4792 16.4084 11.5661 16.5039 11.7022 16.524Z" fill="#8BC53F"/>
<path d="M10.9342 15.6724C10.9054 15.7702 10.9924 15.8656 11.1285 15.8856C11.2646 15.9056 11.3982 15.8426 11.427 15.7449C11.4558 15.6472 11.3688 15.5517 11.2327 15.5317C11.0966 15.5117 10.963 15.5747 10.9342 15.6724Z" fill="#8BC53F"/>
<path d="M12.7886 15.8559C12.9247 15.8759 13.0584 15.813 13.0872 15.7152C13.1159 15.6175 13.029 15.5221 12.8929 15.5021C12.7568 15.4821 12.6232 15.545 12.5944 15.6428C12.5656 15.7404 12.6526 15.8359 12.7886 15.8559Z" fill="#8BC53F"/>
<path d="M15.636 15.6329C15.5 15.6129 15.3663 15.6759 15.3375 15.7736C15.3088 15.8713 15.3957 15.9668 15.5318 15.9868C15.6679 16.0068 15.8015 15.9438 15.8303 15.8461C15.8591 15.7484 15.7721 15.6529 15.636 15.6329Z" fill="#8BC53F"/>
<path d="M16.3782 16.289C16.2422 16.269 16.1085 16.332 16.0797 16.4297C16.0509 16.5274 16.1379 16.6229 16.274 16.6429C16.4101 16.6629 16.5437 16.5999 16.5725 16.5022C16.6013 16.4045 16.5143 16.309 16.3782 16.289Z" fill="#8BC53F"/>
<path d="M12.2911 16.6721C12.155 16.6521 12.0213 16.7151 11.9926 16.8128C11.9638 16.9105 12.0508 17.006 12.1868 17.026C12.3229 17.046 12.4566 16.983 12.4853 16.8853C12.5141 16.7876 12.4272 16.6921 12.2911 16.6721Z" fill="#8BC53F"/>
<path d="M10.7256 16.011C10.5896 15.991 10.4559 16.0539 10.4271 16.1517C10.3983 16.2494 10.4853 16.3448 10.6214 16.3648C10.7575 16.3848 10.8911 16.3219 10.9199 16.2241C10.9487 16.1265 10.8617 16.031 10.7256 16.011Z" fill="#8BC53F"/>
<path d="M13.4244 15.4904C13.3957 15.5881 13.4826 15.6836 13.6187 15.7036C13.7548 15.7236 13.8884 15.6606 13.9172 15.5629C13.946 15.4652 13.859 15.3697 13.723 15.3497C13.587 15.3297 13.4533 15.3927 13.4244 15.4904Z" fill="#8BC53F"/>
<path d="M12.191 14.8782C12.3271 14.8982 12.4607 14.8352 12.4895 14.7374C12.5183 14.6397 12.4313 14.5443 12.2952 14.5243C12.1591 14.5043 12.0255 14.5673 11.9967 14.665C11.9679 14.7626 12.0549 14.8581 12.191 14.8782Z" fill="#8BC53F"/>
<path d="M13.3519 14.8644C13.488 14.8844 13.6216 14.8214 13.6504 14.7237C13.6792 14.6259 13.5922 14.5305 13.4561 14.5105C13.3201 14.4905 13.1864 14.5535 13.1576 14.6512C13.1288 14.7489 13.2157 14.8444 13.3519 14.8644Z" fill="#8BC53F"/>
<path d="M11.7452 15.5177C11.7165 15.6155 11.8034 15.7109 11.9395 15.7309C12.0756 15.7509 12.2092 15.6879 12.238 15.5902C12.2668 15.4925 12.1798 15.397 12.0438 15.377C11.9078 15.3571 11.774 15.42 11.7452 15.5177Z" fill="#8BC53F"/>
<path d="M10.4683 14.8092C10.6044 14.8292 10.7381 14.7663 10.7668 14.6685C10.7956 14.5708 10.7086 14.4754 10.5726 14.4554C10.4365 14.4354 10.3028 14.4983 10.2741 14.5961C10.2453 14.6938 10.3323 14.7892 10.4683 14.8092Z" fill="#8BC53F"/>
<path d="M9.89436 14.1709C10.0304 14.1909 10.1641 14.128 10.1929 14.0302C10.2217 13.9325 10.1347 13.8371 9.99859 13.8171C9.86251 13.7971 9.72887 13.86 9.70008 13.9578C9.6713 14.0555 9.75828 14.1509 9.89436 14.1709Z" fill="#8BC53F"/>
<path d="M11.5545 14.1412C11.6906 14.1612 11.8242 14.0982 11.853 14.0005C11.8818 13.9028 11.7948 13.8073 11.6587 13.7873C11.5227 13.7673 11.389 13.8303 11.3602 13.928C11.3315 14.0258 11.4184 14.1212 11.5545 14.1412Z" fill="#8BC53F"/>
<path d="M14.2977 14.272C14.4338 14.292 14.5674 14.229 14.5962 14.1313C14.625 14.0336 14.538 13.9381 14.4019 13.9181C14.2658 13.8981 14.1322 13.9611 14.1034 14.0588C14.0746 14.1566 14.1616 14.252 14.2977 14.272Z" fill="#8BC53F"/>
<path d="M14.8456 14.7149C14.8168 14.8126 14.9038 14.9081 15.0399 14.9281C15.1759 14.9481 15.3096 14.8851 15.3384 14.7875C15.3672 14.6897 15.2802 14.5943 15.1441 14.5743C15.008 14.5542 14.8744 14.6172 14.8456 14.7149Z" fill="#8BC53F"/>
<path d="M10.7584 15.0981C10.7296 15.1958 10.8166 15.2913 10.9527 15.3113C11.0888 15.3313 11.2224 15.2683 11.2512 15.1706C11.28 15.0728 11.193 14.9774 11.0569 14.9574C10.9209 14.9374 10.7872 15.0004 10.7584 15.0981Z" fill="#8BC53F"/>
<path d="M9.38728 14.6501C9.52336 14.6701 9.657 14.6071 9.68579 14.5094C9.71457 14.4117 9.62759 14.3162 9.49151 14.2962C9.35543 14.2762 9.22179 14.3392 9.193 14.437C9.16422 14.5346 9.2512 14.6301 9.38728 14.6501Z" fill="#8BC53F"/>
<path d="M28.5541 14.3587C28.5253 14.261 28.6123 14.1656 28.7484 14.1456C28.8844 14.1256 29.0181 14.1885 29.0469 14.2863C29.0757 14.384 28.9887 14.4794 28.8526 14.4994C28.7165 14.5194 28.5829 14.4565 28.5541 14.3587Z" fill="url(#paint49_linear_3_3015)"/>
<path d="M27.3206 14.9709C27.4567 14.9509 27.5904 15.0139 27.6191 15.1116C27.6479 15.2094 27.5609 15.3048 27.4249 15.3248C27.2888 15.3448 27.1551 15.2818 27.1264 15.1841C27.0976 15.0865 27.1846 14.991 27.3206 14.9709Z" fill="url(#paint50_linear_3_3015)"/>
<path d="M28.5858 15.3387C28.4497 15.3587 28.316 15.2957 28.2872 15.198C28.2585 15.1002 28.3454 15.0048 28.4815 14.9848C28.6176 14.9648 28.7512 15.0278 28.78 15.1255C28.8089 15.2231 28.7219 15.3187 28.5858 15.3387Z" fill="url(#paint51_linear_3_3015)"/>
<path d="M26.8749 14.3313C26.8461 14.2336 26.9331 14.1381 27.0692 14.1181C27.2052 14.0981 27.3389 14.1611 27.3677 14.2589C27.3965 14.3566 27.3095 14.452 27.1734 14.472C27.0373 14.492 26.9037 14.429 26.8749 14.3313Z" fill="url(#paint52_linear_3_3015)"/>
<path d="M25.598 15.0399C25.734 15.0199 25.8677 15.0829 25.8965 15.1806C25.9253 15.2783 25.8383 15.3738 25.7022 15.3938C25.5661 15.4138 25.4325 15.3508 25.4037 15.2531C25.3749 15.1553 25.4619 15.0599 25.598 15.0399Z" fill="url(#paint53_linear_3_3015)"/>
<path d="M24.8297 15.8913C24.8009 15.7936 24.8879 15.6981 25.024 15.6781C25.1601 15.6581 25.2937 15.7211 25.3225 15.8188C25.3513 15.9166 25.2643 16.012 25.1282 16.032C24.9922 16.052 24.8585 15.989 24.8297 15.8913Z" fill="url(#paint54_linear_3_3015)"/>
<path d="M26.6842 15.7079C26.8202 15.6879 26.9539 15.7508 26.9827 15.8486C27.0114 15.9463 26.9245 16.0418 26.7884 16.0618C26.6523 16.0818 26.5187 16.0188 26.4899 15.921C26.4611 15.8233 26.5481 15.7279 26.6842 15.7079Z" fill="url(#paint55_linear_3_3015)"/>
<path d="M29.233 15.7902C29.2043 15.6925 29.2912 15.5971 29.4273 15.5771C29.5634 15.5571 29.697 15.62 29.7258 15.7178C29.7546 15.8155 29.6676 15.911 29.5316 15.931C29.3955 15.951 29.2618 15.888 29.233 15.7902Z" fill="url(#paint56_linear_3_3015)"/>
<path d="M30.1695 14.921C30.3056 14.901 30.4392 14.964 30.468 15.0617C30.4968 15.1594 30.4098 15.2549 30.2737 15.2749C30.1377 15.2949 30.004 15.2319 29.9752 15.1342C29.9464 15.0365 30.0334 14.941 30.1695 14.921Z" fill="url(#paint57_linear_3_3015)"/>
<path d="M26.1866 14.8917C26.0505 14.9117 25.9169 14.8487 25.8881 14.751C25.8593 14.6533 25.9463 14.5578 26.0823 14.5378C26.2184 14.5178 26.3521 14.5808 26.3809 14.6785C26.4097 14.7762 26.3227 14.8716 26.1866 14.8917Z" fill="url(#paint58_linear_3_3015)"/>
<path d="M24.8154 15.3397C24.8442 15.4374 24.7572 15.5328 24.6212 15.5528C24.4851 15.5728 24.3514 15.5099 24.3226 15.4121C24.2939 15.3144 24.3808 15.219 24.5169 15.199C24.6529 15.179 24.7866 15.2419 24.8154 15.3397Z" fill="url(#paint59_linear_3_3015)"/>
<path d="M27.32 16.0734C27.2912 15.9757 27.3782 15.8802 27.5142 15.8602C27.6503 15.8402 27.784 15.9032 27.8127 16.0009C27.8415 16.0986 27.7545 16.1941 27.6185 16.2141C27.4824 16.2341 27.3487 16.1711 27.32 16.0734Z" fill="url(#paint60_linear_3_3015)"/>
<path d="M26.0865 16.6857C26.2226 16.6657 26.3562 16.7287 26.385 16.8264C26.4138 16.9241 26.3268 17.0196 26.1907 17.0396C26.0547 17.0596 25.921 16.9966 25.8922 16.8989C25.8634 16.8012 25.9504 16.7057 26.0865 16.6857Z" fill="url(#paint61_linear_3_3015)"/>
<path d="M27.2474 16.6994C27.3835 16.6794 27.5171 16.7424 27.5459 16.8401C27.5747 16.9379 27.4877 17.0333 27.3516 17.0533C27.2155 17.0734 27.0819 17.0103 27.0531 16.9126C27.0243 16.815 27.1113 16.7195 27.2474 16.6994Z" fill="url(#paint62_linear_3_3015)"/>
<path d="M25.6408 16.046C25.612 15.9483 25.699 15.8528 25.835 15.8328C25.9711 15.8128 26.1048 15.8758 26.1335 15.9735C26.1623 16.0712 26.0753 16.1667 25.9393 16.1867C25.8032 16.2067 25.6695 16.1437 25.6408 16.046Z" fill="url(#paint63_linear_3_3015)"/>
<path d="M24.3638 16.7546C24.4999 16.7346 24.6336 16.7975 24.6624 16.8953C24.6911 16.993 24.6042 17.0884 24.4681 17.1084C24.332 17.1284 24.1984 17.0655 24.1696 16.9677C24.1408 16.8701 24.2278 16.7746 24.3638 16.7546Z" fill="url(#paint64_linear_3_3015)"/>
<path d="M23.7899 17.3928C23.9259 17.3728 24.0596 17.4358 24.0884 17.5335C24.1172 17.6312 24.0302 17.7267 23.8941 17.7467C23.758 17.7667 23.6244 17.7037 23.5956 17.606C23.5668 17.5083 23.6537 17.4129 23.7899 17.3928Z" fill="url(#paint65_linear_3_3015)"/>
<path d="M25.45 17.4226C25.5861 17.4026 25.7197 17.4656 25.7485 17.5633C25.7773 17.661 25.6903 17.7565 25.5543 17.7765C25.4182 17.7965 25.2845 17.7335 25.2557 17.6358C25.227 17.5381 25.3139 17.4427 25.45 17.4226Z" fill="url(#paint66_linear_3_3015)"/>
<path d="M28.1932 17.2917C28.3293 17.2717 28.4629 17.3347 28.4917 17.4324C28.5205 17.5302 28.4335 17.6256 28.2974 17.6456C28.1613 17.6656 28.0277 17.6026 27.9989 17.5049C27.9701 17.4073 28.0571 17.3118 28.1932 17.2917Z" fill="url(#paint67_linear_3_3015)"/>
<path d="M28.9354 16.6357C29.0715 16.6157 29.2051 16.6786 29.2339 16.7764C29.2627 16.8741 29.1757 16.9695 29.0396 16.9895C28.9035 17.0095 28.7699 16.9466 28.7411 16.8488C28.7123 16.7512 28.7993 16.6557 28.9354 16.6357Z" fill="url(#paint68_linear_3_3015)"/>
<path d="M24.6539 16.4658C24.6252 16.3681 24.7121 16.2726 24.8482 16.2526C24.9843 16.2326 25.1179 16.2956 25.1467 16.3933C25.1755 16.491 25.0885 16.5865 24.9525 16.6065C24.8164 16.6265 24.6827 16.5635 24.6539 16.4658Z" fill="url(#paint69_linear_3_3015)"/>
<path d="M23.2828 16.9137C23.4189 16.8937 23.5525 16.9567 23.5813 17.0544C23.6101 17.1521 23.5231 17.2476 23.387 17.2676C23.2509 17.2876 23.1173 17.2246 23.0885 17.1269C23.0597 17.0291 23.1467 16.9337 23.2828 16.9137Z" fill="url(#paint70_linear_3_3015)"/>
<path d="M22.0335 14.0795C22.1696 14.0595 22.3032 14.1225 22.332 14.2202C22.3608 14.3179 22.2738 14.4134 22.1378 14.4334C22.0017 14.4534 21.868 14.3904 21.8392 14.2927C21.8105 14.195 21.8974 14.0996 22.0335 14.0795Z" fill="url(#paint71_linear_3_3015)"/>
<path d="M23.4929 14.2339C23.5217 14.3317 23.4347 14.4271 23.2986 14.4471C23.1626 14.4671 23.0289 14.4041 23.0001 14.3064C22.9713 14.2087 23.0583 14.1132 23.1944 14.0932C23.3305 14.0732 23.4641 14.1362 23.4929 14.2339Z" fill="url(#paint72_linear_3_3015)"/>
<path d="M21.397 14.8164C21.5331 14.7964 21.6668 14.8594 21.6956 14.9572C21.7243 15.0549 21.6374 15.1503 21.5013 15.1703C21.3652 15.1903 21.2316 15.1274 21.2028 15.0296C21.174 14.9319 21.2609 14.8364 21.397 14.8164Z" fill="url(#paint73_linear_3_3015)"/>
<path d="M24.2444 15.0395C24.1084 15.0595 23.9747 14.9965 23.9459 14.8988C23.9171 14.801 24.0041 14.7056 24.1402 14.6856C24.2763 14.6656 24.4099 14.7286 24.4387 14.8263C24.4675 14.9239 24.3805 15.0194 24.2444 15.0395Z" fill="url(#paint74_linear_3_3015)"/>
<path d="M24.9866 14.3833C24.8506 14.4033 24.7169 14.3404 24.6881 14.2426C24.6593 14.1449 24.7463 14.0495 24.8824 14.0295C25.0185 14.0095 25.1521 14.0724 25.1809 14.1702C25.2097 14.2679 25.1227 14.3633 24.9866 14.3833Z" fill="url(#paint75_linear_3_3015)"/>
<path d="M22.0328 15.1819C22.0041 15.0842 22.091 14.9887 22.2271 14.9687C22.3632 14.9487 22.4968 15.0117 22.5256 15.1094C22.5544 15.2071 22.4674 15.3025 22.3314 15.3225C22.1953 15.3425 22.0616 15.2796 22.0328 15.1819Z" fill="url(#paint76_linear_3_3015)"/>
<path d="M20.7994 15.7942C20.9355 15.7742 21.0691 15.8372 21.0979 15.9349C21.1267 16.0327 21.0397 16.1281 20.9036 16.1481C20.7675 16.1681 20.6339 16.1051 20.6051 16.0074C20.5763 15.9097 20.6633 15.8142 20.7994 15.7942Z" fill="url(#paint77_linear_3_3015)"/>
<path d="M21.9603 15.808C22.0964 15.788 22.23 15.8509 22.2588 15.9487C22.2876 16.0464 22.2006 16.1418 22.0645 16.1618C21.9284 16.1818 21.7948 16.1189 21.766 16.0211C21.7372 15.9234 21.8242 15.828 21.9603 15.808Z" fill="url(#paint78_linear_3_3015)"/>
<path d="M18.5027 16.5014C18.6388 16.4814 18.7725 16.5444 18.8012 16.6421C18.83 16.7398 18.743 16.8353 18.607 16.8553C18.4709 16.8753 18.3372 16.8123 18.3085 16.7146C18.2798 16.6169 18.3667 16.5214 18.5027 16.5014Z" fill="url(#paint79_linear_3_3015)"/>
<path d="M20.1629 16.5311C20.299 16.5111 20.4326 16.5741 20.4614 16.6718C20.4902 16.7695 20.4032 16.865 20.2671 16.885C20.1311 16.905 19.9974 16.842 19.9686 16.7443C19.9399 16.6466 20.0268 16.5511 20.1629 16.5311Z" fill="url(#paint80_linear_3_3015)"/>
<path d="M22.9061 16.4003C23.0422 16.3803 23.1758 16.4433 23.2046 16.541C23.2334 16.6387 23.1464 16.7342 23.0103 16.7542C22.8742 16.7742 22.7406 16.7112 22.7118 16.6135C22.683 16.5158 22.77 16.4204 22.9061 16.4003Z" fill="url(#paint81_linear_3_3015)"/>
<path d="M23.454 15.9574C23.4252 15.8596 23.5122 15.7642 23.6483 15.7442C23.7843 15.7242 23.918 15.7872 23.9468 15.8849C23.9756 15.9826 23.8886 16.0781 23.7525 16.0981C23.6165 16.1181 23.4828 16.0551 23.454 15.9574Z" fill="url(#paint82_linear_3_3015)"/>
<path d="M27.8678 16.9979C27.839 17.0956 27.926 17.1911 28.0621 17.2111C28.1982 17.2311 28.3318 17.1681 28.3606 17.0704C28.3894 16.9727 28.3024 16.8772 28.1663 16.8572C28.0303 16.8372 27.8967 16.9003 27.8678 16.9979Z" fill="#8BC53F"/>
<path d="M26.6341 16.3857C26.7702 16.4057 26.9038 16.3427 26.9326 16.245C26.9614 16.1472 26.8744 16.0518 26.7383 16.0318C26.6023 16.0118 26.4686 16.0748 26.4398 16.1725C26.411 16.2701 26.498 16.3656 26.6341 16.3857Z" fill="#8BC53F"/>
<path d="M27.8995 16.018C27.7634 15.998 27.6297 16.061 27.601 16.1587C27.5722 16.2564 27.6592 16.3519 27.7952 16.3719C27.9313 16.3919 28.065 16.3289 28.0937 16.2312C28.1225 16.1335 28.0356 16.0381 27.8995 16.018Z" fill="#8BC53F"/>
<path d="M26.1886 17.0253C26.1598 17.123 26.2468 17.2184 26.3829 17.2384C26.519 17.2584 26.6526 17.1955 26.6814 17.0977C26.7102 17 26.6232 16.9046 26.4871 16.8846C26.3511 16.8646 26.2175 16.9276 26.1886 17.0253Z" fill="#8BC53F"/>
<path d="M24.9114 16.3168C25.0475 16.3368 25.1812 16.2738 25.21 16.176C25.2387 16.0783 25.1518 15.9829 25.0157 15.9629C24.8796 15.9429 24.746 16.0059 24.7172 16.1036C24.6884 16.2013 24.7754 16.2968 24.9114 16.3168Z" fill="#8BC53F"/>
<path d="M24.1434 15.4653C24.1147 15.563 24.2016 15.6584 24.3377 15.6784C24.4738 15.6984 24.6074 15.6355 24.6362 15.5377C24.665 15.44 24.578 15.3446 24.442 15.3246C24.306 15.3046 24.1722 15.3675 24.1434 15.4653Z" fill="#8BC53F"/>
<path d="M25.9979 15.6487C26.134 15.6687 26.2676 15.6057 26.2964 15.508C26.3252 15.4103 26.2382 15.3148 26.1021 15.2948C25.966 15.2748 25.8324 15.3378 25.8036 15.4355C25.7748 15.5333 25.8618 15.6287 25.9979 15.6487Z" fill="#8BC53F"/>
<path d="M28.5468 15.5664C28.518 15.6641 28.605 15.7596 28.741 15.7796C28.8771 15.7996 29.0108 15.7366 29.0395 15.6389C29.0683 15.5412 28.9814 15.4457 28.8453 15.4257C28.7092 15.4057 28.5755 15.4687 28.5468 15.5664Z" fill="#8BC53F"/>
<path d="M29.4832 16.4357C29.6193 16.4557 29.7529 16.3927 29.7817 16.295C29.8105 16.1973 29.7235 16.1018 29.5875 16.0818C29.4514 16.0618 29.3177 16.1248 29.289 16.2225C29.2602 16.3202 29.3471 16.4156 29.4832 16.4357Z" fill="#8BC53F"/>
<path d="M25.5003 16.4649C25.3642 16.4449 25.2306 16.5079 25.2018 16.6056C25.173 16.7033 25.26 16.7988 25.3961 16.8188C25.5321 16.8388 25.6658 16.7758 25.6946 16.6781C25.7234 16.5804 25.6364 16.485 25.5003 16.4649Z" fill="#8BC53F"/>
<path d="M24.1291 16.017C24.1579 15.9193 24.071 15.8238 23.9349 15.8038C23.7988 15.7838 23.6651 15.8468 23.6364 15.9445C23.6076 16.0422 23.6946 16.1377 23.8306 16.1577C23.9667 16.1777 24.1004 16.1147 24.1291 16.017Z" fill="#8BC53F"/>
<path d="M26.6337 15.2832C26.6049 15.3809 26.6919 15.4764 26.828 15.4964C26.964 15.5165 27.0977 15.4534 27.1265 15.3558C27.1552 15.258 27.0683 15.1626 26.9322 15.1426C26.7961 15.1225 26.6625 15.1855 26.6337 15.2832Z" fill="#8BC53F"/>
<path d="M25.4 14.6709C25.5361 14.6909 25.6698 14.6279 25.6985 14.5302C25.7273 14.4325 25.6403 14.337 25.5043 14.317C25.3682 14.2969 25.2345 14.36 25.2057 14.4577C25.177 14.5555 25.2639 14.6509 25.4 14.6709Z" fill="#8BC53F"/>
<path d="M26.5611 14.6572C26.6972 14.6772 26.8308 14.6142 26.8596 14.5165C26.8884 14.4188 26.8014 14.3233 26.6653 14.3033C26.5293 14.2833 26.3956 14.3463 26.3668 14.444C26.338 14.5417 26.425 14.6371 26.5611 14.6572Z" fill="#8BC53F"/>
<path d="M24.9545 15.3106C24.9257 15.4083 25.0127 15.5038 25.1488 15.5238C25.2848 15.5438 25.4185 15.4808 25.4473 15.3831C25.476 15.2854 25.3891 15.1899 25.253 15.1699C25.117 15.1499 24.9833 15.2129 24.9545 15.3106Z" fill="#8BC53F"/>
<path d="M23.6773 14.6021C23.8134 14.6221 23.947 14.5591 23.9758 14.4614C24.0046 14.3637 23.9176 14.2682 23.7816 14.2482C23.6455 14.2282 23.5118 14.2912 23.483 14.3889C23.4543 14.4866 23.5412 14.582 23.6773 14.6021Z" fill="#8BC53F"/>
<path d="M24.7637 13.9341C24.8998 13.9541 25.0335 13.8911 25.0623 13.7934C25.091 13.6956 25.0041 13.6002 24.868 13.5802C24.7319 13.5602 24.5983 13.6232 24.5695 13.7209C24.5407 13.8185 24.6277 13.914 24.7637 13.9341Z" fill="#8BC53F"/>
<path d="M27.5069 14.0649C27.643 14.0849 27.7766 14.0219 27.8054 13.9242C27.8342 13.8264 27.7472 13.731 27.6111 13.711C27.4751 13.691 27.3414 13.754 27.3126 13.8517C27.2838 13.9493 27.3708 14.0448 27.5069 14.0649Z" fill="#8BC53F"/>
<path d="M28.2491 14.721C28.3852 14.741 28.5188 14.678 28.5476 14.5803C28.5764 14.4826 28.4894 14.3871 28.3533 14.3671C28.2173 14.3471 28.0836 14.4101 28.0548 14.5078C28.026 14.6055 28.113 14.701 28.2491 14.721Z" fill="#8BC53F"/>
<path d="M23.9677 14.8909C23.9389 14.9887 24.0259 15.0841 24.1619 15.1041C24.298 15.1241 24.4317 15.0611 24.4604 14.9634C24.4892 14.8657 24.4022 14.7702 24.2662 14.7502C24.1301 14.7302 23.9964 14.7932 23.9677 14.8909Z" fill="#8BC53F"/>
<path d="M22.5965 14.4429C22.7326 14.4629 22.8662 14.3999 22.895 14.3022C22.9238 14.2045 22.8368 14.109 22.7007 14.089C22.5647 14.069 22.431 14.132 22.4022 14.2297C22.3734 14.3275 22.4604 14.4229 22.5965 14.4429Z" fill="#8BC53F"/>
<path d="M22.8792 17.7488C22.7431 17.7288 22.6095 17.7917 22.5807 17.8895C22.5519 17.9872 22.6389 18.0826 22.775 18.1026C22.9111 18.1226 23.0447 18.0597 23.0735 17.9619C23.1023 17.8643 23.0153 17.7688 22.8792 17.7488Z" fill="#8BC53F"/>
<path d="M21.3472 17.2771C21.4833 17.2971 21.617 17.2342 21.6458 17.1364C21.6745 17.0387 21.5876 16.9433 21.4515 16.9233C21.3154 16.9033 21.1817 16.9662 21.153 17.064C21.1242 17.1617 21.2112 17.2571 21.3472 17.2771Z" fill="#8BC53F"/>
<path d="M22.8066 17.1227C22.8354 17.025 22.7484 16.9295 22.6124 16.9095C22.4763 16.8895 22.3426 16.9525 22.3139 17.0502C22.2851 17.148 22.372 17.2434 22.5081 17.2634C22.6442 17.2834 22.7779 17.2204 22.8066 17.1227Z" fill="#8BC53F"/>
<path d="M20.9015 17.9168C20.8727 18.0145 20.9597 18.11 21.0958 18.13C21.2319 18.15 21.3655 18.087 21.3943 17.9893C21.4231 17.8916 21.3361 17.7961 21.2 17.7761C21.064 17.7561 20.9304 17.8191 20.9015 17.9168Z" fill="#8BC53F"/>
<path d="M19.6246 17.2082C19.7607 17.2282 19.8943 17.1653 19.9231 17.0675C19.9519 16.9698 19.8649 16.8744 19.7288 16.8544C19.5927 16.8344 19.4591 16.8973 19.4303 16.9951C19.4015 17.0927 19.4885 17.1882 19.6246 17.2082Z" fill="#8BC53F"/>
<path d="M18.8563 16.3568C18.8275 16.4545 18.9145 16.5499 19.0506 16.5699C19.1867 16.5899 19.3203 16.5269 19.3491 16.4292C19.3779 16.3315 19.2909 16.236 19.1548 16.216C19.0188 16.196 18.8851 16.259 18.8563 16.3568Z" fill="#8BC53F"/>
<path d="M20.7108 16.5403C20.8468 16.5603 20.9805 16.4973 21.0093 16.3996C21.0381 16.3018 20.9511 16.2064 20.815 16.1864C20.6789 16.1664 20.5453 16.2294 20.5165 16.3271C20.4877 16.4247 20.5747 16.5202 20.7108 16.5403Z" fill="#8BC53F"/>
<path d="M23.5582 16.3172C23.4221 16.2972 23.2884 16.3602 23.2597 16.4579C23.2309 16.5556 23.3179 16.6511 23.4539 16.6711C23.59 16.6911 23.7237 16.6281 23.7524 16.5304C23.7812 16.4326 23.6942 16.3372 23.5582 16.3172Z" fill="#8BC53F"/>
<path d="M24.3004 16.9733C24.1643 16.9533 24.0306 17.0163 24.0018 17.114C23.9731 17.2117 24.06 17.3072 24.1961 17.3272C24.3322 17.3472 24.4658 17.2842 24.4946 17.1865C24.5234 17.0888 24.4364 16.9933 24.3004 16.9733Z" fill="#8BC53F"/>
<path d="M20.2132 17.3564C20.0771 17.3364 19.9435 17.3994 19.9147 17.4971C19.8859 17.5949 19.9729 17.6903 20.109 17.7103C20.245 17.7303 20.3787 17.6673 20.4075 17.5696C20.4363 17.4719 20.3493 17.3764 20.2132 17.3564Z" fill="#8BC53F"/>
<path d="M18.6478 16.6952C18.5117 16.6752 18.378 16.7382 18.3493 16.8359C18.3205 16.9337 18.4074 17.0291 18.5435 17.0491C18.6796 17.0691 18.8133 17.0061 18.842 16.9085C18.8708 16.8108 18.7838 16.7153 18.6478 16.6952Z" fill="#8BC53F"/>
<path d="M21.3466 16.1747C21.3178 16.2724 21.4048 16.3679 21.5408 16.3879C21.6769 16.4079 21.8106 16.3449 21.8394 16.2472C21.8681 16.1494 21.7812 16.054 21.6451 16.034C21.509 16.014 21.3754 16.077 21.3466 16.1747Z" fill="#8BC53F"/>
<path d="M21.274 15.5486C21.4101 15.5686 21.5437 15.5056 21.5725 15.4079C21.6013 15.3102 21.5143 15.2147 21.3782 15.1947C21.2422 15.1747 21.1085 15.2377 21.0797 15.3354C21.0509 15.4332 21.1378 15.5286 21.274 15.5486Z" fill="#8BC53F"/>
<path d="M19.6674 16.2021C19.6386 16.2998 19.7256 16.3953 19.8616 16.4153C19.9977 16.4353 20.1314 16.3723 20.1602 16.2746C20.1889 16.1768 20.102 16.0814 19.9659 16.0614C19.8299 16.0414 19.6962 16.1044 19.6674 16.2021Z" fill="#8BC53F"/>
<path d="M22.2198 14.9563C22.3559 14.9763 22.4895 14.9134 22.5183 14.8156C22.5471 14.7179 22.4601 14.6225 22.324 14.6025C22.188 14.5825 22.0543 14.6454 22.0255 14.7432C21.9967 14.8409 22.0837 14.9363 22.2198 14.9563Z" fill="#8BC53F"/>
<path d="M22.7677 15.3992C22.7389 15.497 22.8259 15.5924 22.962 15.6124C23.0981 15.6324 23.2317 15.5694 23.2605 15.4718C23.2893 15.3741 23.2023 15.2786 23.0662 15.2586C22.9301 15.2385 22.7965 15.3015 22.7677 15.3992Z" fill="#8BC53F"/>
</g>
<defs>
<linearGradient id="paint0_linear_3_3015" x1="19.189" y1="33.4267" x2="21.432" y2="39.7244" gradientUnits="userSpaceOnUse">
<stop stop-color="#8A7889"/>
<stop offset="1" stop-color="#6E566E"/>
</linearGradient>
<linearGradient id="paint1_linear_3_3015" x1="15.7239" y1="17.7421" x2="26.7827" y2="28.0951" gradientUnits="userSpaceOnUse">
<stop stop-color="#534854"/>
<stop offset="1" stop-color="#342434"/>
</linearGradient>
<linearGradient id="paint2_linear_3_3015" x1="20" y1="12.0455" x2="20" y2="18.9107" gradientUnits="userSpaceOnUse">
<stop stop-color="#534854"/>
<stop offset="1" stop-color="#342434"/>
</linearGradient>
<linearGradient id="paint3_linear_3_3015" x1="20" y1="21.7893" x2="20" y2="16.4719" gradientUnits="userSpaceOnUse">
<stop stop-color="#F8F6FB"/>
<stop offset="1" stop-color="#EFDCFB"/>
</linearGradient>
<linearGradient id="paint4_linear_3_3015" x1="20.0001" y1="16.6503" x2="20.0001" y2="24.9124" gradientUnits="userSpaceOnUse">
<stop stop-color="#FF7044"/>
<stop offset="1" stop-color="#F82814"/>
</linearGradient>
<linearGradient id="paint5_linear_3_3015" x1="25.7812" y1="3.84566" x2="26.1134" y2="5.4999" gradientUnits="userSpaceOnUse">
<stop stop-color="#FF7044"/>
<stop offset="1" stop-color="#F82814"/>
</linearGradient>
<linearGradient id="paint6_linear_3_3015" x1="26.1595" y1="6.22205" x2="26.4259" y2="7.88641" gradientUnits="userSpaceOnUse">
<stop stop-color="#FF7044"/>
<stop offset="1" stop-color="#F82814"/>
</linearGradient>
<linearGradient id="paint7_linear_3_3015" x1="20.3305" y1="8.50236" x2="18.4272" y2="7.61758" gradientUnits="userSpaceOnUse">
<stop stop-color="#F82814" stop-opacity="0"/>
<stop offset="0.1294" stop-color="#EC2819" stop-opacity="0.129"/>
<stop offset="0.4537" stop-color="#D42724" stop-opacity="0.454"/>
<stop offset="0.7526" stop-color="#C5272B" stop-opacity="0.753"/>
<stop offset="1" stop-color="#C0272D"/>
</linearGradient>
<linearGradient id="paint8_linear_3_3015" x1="20.1424" y1="6.63493" x2="18.3287" y2="5.7918" gradientUnits="userSpaceOnUse">
<stop stop-color="#F82814" stop-opacity="0"/>
<stop offset="0.1294" stop-color="#EC2819" stop-opacity="0.129"/>
<stop offset="0.4537" stop-color="#D42724" stop-opacity="0.454"/>
<stop offset="0.7526" stop-color="#C5272B" stop-opacity="0.753"/>
<stop offset="1" stop-color="#C0272D"/>
</linearGradient>
<linearGradient id="paint9_linear_3_3015" x1="19.2393" y1="13.0906" x2="21.7718" y2="16.8022" gradientUnits="userSpaceOnUse">
<stop stop-color="#91F27F"/>
<stop offset="1" stop-color="#4AB172"/>
</linearGradient>
<linearGradient id="paint10_linear_3_3015" x1="15.4508" y1="11.1824" x2="16.3552" y2="11.1824" gradientUnits="userSpaceOnUse">
<stop stop-color="#FFD945"/>
<stop offset="1" stop-color="#FFA325"/>
</linearGradient>
<linearGradient id="paint11_linear_3_3015" x1="16.745" y1="11.0254" x2="17.6494" y2="11.0254" gradientUnits="userSpaceOnUse">
<stop stop-color="#FFD945"/>
<stop offset="1" stop-color="#FFA325"/>
</linearGradient>
<linearGradient id="paint12_linear_3_3015" x1="18.0389" y1="10.8686" x2="18.9433" y2="10.8686" gradientUnits="userSpaceOnUse">
<stop stop-color="#FFD945"/>
<stop offset="1" stop-color="#FFA325"/>
</linearGradient>
<linearGradient id="paint13_linear_3_3015" x1="12.8009" y1="18.1741" x2="5.40072" y2="21.4947" gradientUnits="userSpaceOnUse">
<stop stop-color="#FFD945"/>
<stop offset="1" stop-color="#FFA325"/>
</linearGradient>
<linearGradient id="paint14_linear_3_3015" x1="13.7223" y1="18.219" x2="7.20986" y2="21.1412" gradientUnits="userSpaceOnUse">
<stop stop-color="#FFD945"/>
<stop offset="1" stop-color="#FFA325"/>
</linearGradient>
<linearGradient id="paint15_linear_3_3015" x1="14.7886" y1="18.276" x2="9.30115" y2="20.7383" gradientUnits="userSpaceOnUse">
<stop stop-color="#FFD945"/>
<stop offset="1" stop-color="#FFA325"/>
</linearGradient>
<linearGradient id="paint16_linear_3_3015" x1="15.8826" y1="18.3278" x2="11.4502" y2="20.3168" gradientUnits="userSpaceOnUse">
<stop stop-color="#FFD945"/>
<stop offset="1" stop-color="#FFA325"/>
</linearGradient>
<linearGradient id="paint17_linear_3_3015" x1="17.0323" y1="18.4571" x2="13.6752" y2="19.9635" gradientUnits="userSpaceOnUse">
<stop stop-color="#FFD945"/>
<stop offset="1" stop-color="#FFA325"/>
</linearGradient>
<linearGradient id="paint18_linear_3_3015" x1="18.2601" y1="18.7228" x2="15.9951" y2="19.7391" gradientUnits="userSpaceOnUse">
<stop stop-color="#FFD945"/>
<stop offset="1" stop-color="#FFA325"/>
</linearGradient>
<linearGradient id="paint19_linear_3_3015" x1="31.4632" y1="14.0296" x2="30.6296" y2="18.4443" gradientUnits="userSpaceOnUse">
<stop stop-color="#91F27F"/>
<stop offset="1" stop-color="#4AB172"/>
</linearGradient>
<linearGradient id="paint20_linear_3_3015" x1="28.7339" y1="20.4602" x2="35.0287" y2="23.8469" gradientUnits="userSpaceOnUse">
<stop stop-color="#FFD945"/>
<stop offset="1" stop-color="#FFA325"/>
</linearGradient>
<linearGradient id="paint21_linear_3_3015" x1="26.2988" y1="20.063" x2="32.9794" y2="23.8537" gradientUnits="userSpaceOnUse">
<stop stop-color="#FFD945"/>
<stop offset="1" stop-color="#FFA325"/>
</linearGradient>
<linearGradient id="paint22_linear_3_3015" x1="23.4639" y1="19.0711" x2="30.4" y2="22.4653" gradientUnits="userSpaceOnUse">
<stop stop-color="#FFD945"/>
<stop offset="1" stop-color="#FFA325"/>
</linearGradient>
<linearGradient id="paint23_linear_3_3015" x1="20.5528" y1="18.5942" x2="28.5527" y2="23.1553" gradientUnits="userSpaceOnUse">
<stop stop-color="#FFD945"/>
<stop offset="1" stop-color="#FFA325"/>
</linearGradient>
<linearGradient id="paint24_linear_3_3015" x1="18.3165" y1="18.4384" x2="24.1576" y2="23.0051" gradientUnits="userSpaceOnUse">
<stop stop-color="#FFD945"/>
<stop offset="1" stop-color="#FFA325"/>
</linearGradient>
<linearGradient id="paint25_linear_3_3015" x1="16.8302" y1="18.5861" x2="19.1031" y2="22.0623" gradientUnits="userSpaceOnUse">
<stop stop-color="#FFD945"/>
<stop offset="0.1903" stop-color="#FFCF3F"/>
<stop offset="1" stop-color="#FFA325"/>
</linearGradient>
<linearGradient id="paint26_linear_3_3015" x1="17.4059" y1="15.1708" x2="16.902" y2="15.1708" gradientUnits="userSpaceOnUse">
<stop stop-color="#FFD945"/>
<stop offset="1" stop-color="#FFA325"/>
</linearGradient>
<linearGradient id="paint27_linear_3_3015" x1="16.8988" y1="14.6916" x2="16.395" y2="14.6916" gradientUnits="userSpaceOnUse">
<stop stop-color="#FFD945"/>
<stop offset="1" stop-color="#FFA325"/>
</linearGradient>
<linearGradient id="paint28_linear_3_3015" x1="16.7457" y1="16.2472" x2="16.2418" y2="16.2472" gradientUnits="userSpaceOnUse">
<stop stop-color="#FFD945"/>
<stop offset="1" stop-color="#FFA325"/>
</linearGradient>
<linearGradient id="paint29_linear_3_3015" x1="16.1718" y1="16.8855" x2="15.668" y2="16.8855" gradientUnits="userSpaceOnUse">
<stop stop-color="#FFD945"/>
<stop offset="1" stop-color="#FFA325"/>
</linearGradient>
<linearGradient id="paint30_linear_3_3015" x1="17.832" y1="16.9153" x2="17.3281" y2="16.9153" gradientUnits="userSpaceOnUse">
<stop stop-color="#FFD945"/>
<stop offset="1" stop-color="#FFA325"/>
</linearGradient>
<linearGradient id="paint31_linear_3_3015" x1="17.2301" y1="15.7452" x2="16.7263" y2="15.7452" gradientUnits="userSpaceOnUse">
<stop stop-color="#FFD945"/>
<stop offset="1" stop-color="#FFA325"/>
</linearGradient>
<linearGradient id="paint32_linear_3_3015" x1="15.6647" y1="16.4063" x2="15.1609" y2="16.4063" gradientUnits="userSpaceOnUse">
<stop stop-color="#FFD945"/>
<stop offset="1" stop-color="#FFA325"/>
</linearGradient>
<linearGradient id="paint33_linear_3_3015" x1="14.4154" y1="13.5721" x2="13.9116" y2="13.5721" gradientUnits="userSpaceOnUse">
<stop stop-color="#FFD945"/>
<stop offset="1" stop-color="#FFA325"/>
</linearGradient>
<linearGradient id="paint34_linear_3_3015" x1="12.6928" y1="13.6411" x2="12.1889" y2="13.6411" gradientUnits="userSpaceOnUse">
<stop stop-color="#FFD945"/>
<stop offset="1" stop-color="#FFA325"/>
</linearGradient>
<linearGradient id="paint35_linear_3_3015" x1="12.1188" y1="14.2793" x2="11.615" y2="14.2793" gradientUnits="userSpaceOnUse">
<stop stop-color="#FFD945"/>
<stop offset="1" stop-color="#FFA325"/>
</linearGradient>
<linearGradient id="paint36_linear_3_3015" x1="13.779" y1="14.3091" x2="13.2752" y2="14.3091" gradientUnits="userSpaceOnUse">
<stop stop-color="#FFD945"/>
<stop offset="1" stop-color="#FFA325"/>
</linearGradient>
<linearGradient id="paint37_linear_3_3015" x1="11.6116" y1="13.8002" x2="11.1078" y2="13.8002" gradientUnits="userSpaceOnUse">
<stop stop-color="#FFD945"/>
<stop offset="1" stop-color="#FFA325"/>
</linearGradient>
<linearGradient id="paint38_linear_3_3015" x1="14.609" y1="14.4614" x2="14.1052" y2="14.4614" gradientUnits="userSpaceOnUse">
<stop stop-color="#FFD945"/>
<stop offset="1" stop-color="#FFA325"/>
</linearGradient>
<linearGradient id="paint39_linear_3_3015" x1="13.1813" y1="15.2868" x2="12.6774" y2="15.2868" gradientUnits="userSpaceOnUse">
<stop stop-color="#FFD945"/>
<stop offset="1" stop-color="#FFA325"/>
</linearGradient>
<linearGradient id="paint40_linear_3_3015" x1="14.3422" y1="15.3006" x2="13.8383" y2="15.3006" gradientUnits="userSpaceOnUse">
<stop stop-color="#FFD945"/>
<stop offset="1" stop-color="#FFA325"/>
</linearGradient>
<linearGradient id="paint41_linear_3_3015" x1="12.93" y1="14.434" x2="12.4262" y2="14.434" gradientUnits="userSpaceOnUse">
<stop stop-color="#FFD945"/>
<stop offset="1" stop-color="#FFA325"/>
</linearGradient>
<linearGradient id="paint42_linear_3_3015" x1="11.4586" y1="15.3558" x2="10.9548" y2="15.3558" gradientUnits="userSpaceOnUse">
<stop stop-color="#FFD945"/>
<stop offset="1" stop-color="#FFA325"/>
</linearGradient>
<linearGradient id="paint43_linear_3_3015" x1="10.8847" y1="15.994" x2="10.3809" y2="15.994" gradientUnits="userSpaceOnUse">
<stop stop-color="#FFD945"/>
<stop offset="1" stop-color="#FFA325"/>
</linearGradient>
<linearGradient id="paint44_linear_3_3015" x1="12.5449" y1="16.0237" x2="12.041" y2="16.0237" gradientUnits="userSpaceOnUse">
<stop stop-color="#FFD945"/>
<stop offset="1" stop-color="#FFA325"/>
</linearGradient>
<linearGradient id="paint45_linear_3_3015" x1="15.288" y1="15.8929" x2="14.7841" y2="15.8929" gradientUnits="userSpaceOnUse">
<stop stop-color="#FFD945"/>
<stop offset="1" stop-color="#FFA325"/>
</linearGradient>
<linearGradient id="paint46_linear_3_3015" x1="16.0301" y1="15.2369" x2="15.5264" y2="15.2369" gradientUnits="userSpaceOnUse">
<stop stop-color="#FFD945"/>
<stop offset="1" stop-color="#FFA325"/>
</linearGradient>
<linearGradient id="paint47_linear_3_3015" x1="11.943" y1="14.8537" x2="11.4391" y2="14.8537" gradientUnits="userSpaceOnUse">
<stop stop-color="#FFD945"/>
<stop offset="1" stop-color="#FFA325"/>
</linearGradient>
<linearGradient id="paint48_linear_3_3015" x1="10.3776" y1="15.5148" x2="9.87379" y2="15.5148" gradientUnits="userSpaceOnUse">
<stop stop-color="#FFD945"/>
<stop offset="1" stop-color="#FFA325"/>
</linearGradient>
<linearGradient id="paint49_linear_3_3015" x1="29.0524" y1="14.3225" x2="28.5485" y2="14.3225" gradientUnits="userSpaceOnUse">
<stop stop-color="#FFD945"/>
<stop offset="1" stop-color="#FFA325"/>
</linearGradient>
<linearGradient id="paint50_linear_3_3015" x1="27.6246" y1="15.1479" x2="27.1208" y2="15.1479" gradientUnits="userSpaceOnUse">
<stop stop-color="#FFD945"/>
<stop offset="1" stop-color="#FFA325"/>
</linearGradient>
<linearGradient id="paint51_linear_3_3015" x1="28.7855" y1="15.1617" x2="28.2818" y2="15.1617" gradientUnits="userSpaceOnUse">
<stop stop-color="#FFD945"/>
<stop offset="1" stop-color="#FFA325"/>
</linearGradient>
<linearGradient id="paint52_linear_3_3015" x1="27.3732" y1="14.295" x2="26.8693" y2="14.295" gradientUnits="userSpaceOnUse">
<stop stop-color="#FFD945"/>
<stop offset="1" stop-color="#FFA325"/>
</linearGradient>
<linearGradient id="paint53_linear_3_3015" x1="25.902" y1="15.2168" x2="25.3981" y2="15.2168" gradientUnits="userSpaceOnUse">
<stop stop-color="#FFD945"/>
<stop offset="1" stop-color="#FFA325"/>
</linearGradient>
<linearGradient id="paint54_linear_3_3015" x1="25.328" y1="15.8551" x2="24.8242" y2="15.8551" gradientUnits="userSpaceOnUse">
<stop stop-color="#FFD945"/>
<stop offset="1" stop-color="#FFA325"/>
</linearGradient>
<linearGradient id="paint55_linear_3_3015" x1="26.9882" y1="15.8848" x2="26.4843" y2="15.8848" gradientUnits="userSpaceOnUse">
<stop stop-color="#FFD945"/>
<stop offset="1" stop-color="#FFA325"/>
</linearGradient>
<linearGradient id="paint56_linear_3_3015" x1="29.7313" y1="15.754" x2="29.2276" y2="15.754" gradientUnits="userSpaceOnUse">
<stop stop-color="#FFD945"/>
<stop offset="1" stop-color="#FFA325"/>
</linearGradient>
<linearGradient id="paint57_linear_3_3015" x1="30.4735" y1="15.0979" x2="29.9697" y2="15.0979" gradientUnits="userSpaceOnUse">
<stop stop-color="#FFD945"/>
<stop offset="1" stop-color="#FFA325"/>
</linearGradient>
<linearGradient id="paint58_linear_3_3015" x1="26.3863" y1="14.7148" x2="25.8826" y2="14.7148" gradientUnits="userSpaceOnUse">
<stop stop-color="#FFD945"/>
<stop offset="1" stop-color="#FFA325"/>
</linearGradient>
<linearGradient id="paint59_linear_3_3015" x1="24.8209" y1="15.3759" x2="24.3171" y2="15.3759" gradientUnits="userSpaceOnUse">
<stop stop-color="#FFD945"/>
<stop offset="1" stop-color="#FFA325"/>
</linearGradient>
<linearGradient id="paint60_linear_3_3015" x1="27.8182" y1="16.0372" x2="27.3144" y2="16.0372" gradientUnits="userSpaceOnUse">
<stop stop-color="#FFD945"/>
<stop offset="1" stop-color="#FFA325"/>
</linearGradient>
<linearGradient id="paint61_linear_3_3015" x1="26.3905" y1="16.8627" x2="25.8867" y2="16.8627" gradientUnits="userSpaceOnUse">
<stop stop-color="#FFD945"/>
<stop offset="1" stop-color="#FFA325"/>
</linearGradient>
<linearGradient id="paint62_linear_3_3015" x1="27.5514" y1="16.8764" x2="27.0476" y2="16.8764" gradientUnits="userSpaceOnUse">
<stop stop-color="#FFD945"/>
<stop offset="1" stop-color="#FFA325"/>
</linearGradient>
<linearGradient id="paint63_linear_3_3015" x1="26.139" y1="16.0097" x2="25.6352" y2="16.0097" gradientUnits="userSpaceOnUse">
<stop stop-color="#FFD945"/>
<stop offset="1" stop-color="#FFA325"/>
</linearGradient>
<linearGradient id="paint64_linear_3_3015" x1="24.6678" y1="16.9315" x2="24.1641" y2="16.9315" gradientUnits="userSpaceOnUse">
<stop stop-color="#FFD945"/>
<stop offset="1" stop-color="#FFA325"/>
</linearGradient>
<linearGradient id="paint65_linear_3_3015" x1="24.0939" y1="17.5698" x2="23.59" y2="17.5698" gradientUnits="userSpaceOnUse">
<stop stop-color="#FFD945"/>
<stop offset="1" stop-color="#FFA325"/>
</linearGradient>
<linearGradient id="paint66_linear_3_3015" x1="25.754" y1="17.5995" x2="25.2502" y2="17.5995" gradientUnits="userSpaceOnUse">
<stop stop-color="#FFD945"/>
<stop offset="1" stop-color="#FFA325"/>
</linearGradient>
<linearGradient id="paint67_linear_3_3015" x1="28.4972" y1="17.4687" x2="27.9934" y2="17.4687" gradientUnits="userSpaceOnUse">
<stop stop-color="#FFD945"/>
<stop offset="1" stop-color="#FFA325"/>
</linearGradient>
<linearGradient id="paint68_linear_3_3015" x1="29.2395" y1="16.8126" x2="28.7356" y2="16.8126" gradientUnits="userSpaceOnUse">
<stop stop-color="#FFD945"/>
<stop offset="1" stop-color="#FFA325"/>
</linearGradient>
<linearGradient id="paint69_linear_3_3015" x1="25.1522" y1="16.4295" x2="24.6485" y2="16.4295" gradientUnits="userSpaceOnUse">
<stop stop-color="#FFD945"/>
<stop offset="1" stop-color="#FFA325"/>
</linearGradient>
<linearGradient id="paint70_linear_3_3015" x1="23.5869" y1="17.0906" x2="23.083" y2="17.0906" gradientUnits="userSpaceOnUse">
<stop stop-color="#FFD945"/>
<stop offset="1" stop-color="#FFA325"/>
</linearGradient>
<linearGradient id="paint71_linear_3_3015" x1="22.3375" y1="14.2565" x2="21.8337" y2="14.2565" gradientUnits="userSpaceOnUse">
<stop stop-color="#FFD945"/>
<stop offset="1" stop-color="#FFA325"/>
</linearGradient>
<linearGradient id="paint72_linear_3_3015" x1="23.4984" y1="14.2703" x2="22.9946" y2="14.2703" gradientUnits="userSpaceOnUse">
<stop stop-color="#FFD945"/>
<stop offset="1" stop-color="#FFA325"/>
</linearGradient>
<linearGradient id="paint73_linear_3_3015" x1="21.701" y1="14.9934" x2="21.1972" y2="14.9934" gradientUnits="userSpaceOnUse">
<stop stop-color="#FFD945"/>
<stop offset="1" stop-color="#FFA325"/>
</linearGradient>
<linearGradient id="paint74_linear_3_3015" x1="24.4442" y1="14.8625" x2="23.9404" y2="14.8625" gradientUnits="userSpaceOnUse">
<stop stop-color="#FFD945"/>
<stop offset="1" stop-color="#FFA325"/>
</linearGradient>
<linearGradient id="paint75_linear_3_3015" x1="25.1863" y1="14.2064" x2="24.6826" y2="14.2064" gradientUnits="userSpaceOnUse">
<stop stop-color="#FFD945"/>
<stop offset="1" stop-color="#FFA325"/>
</linearGradient>
<linearGradient id="paint76_linear_3_3015" x1="22.5311" y1="15.1457" x2="22.0273" y2="15.1457" gradientUnits="userSpaceOnUse">
<stop stop-color="#FFD945"/>
<stop offset="1" stop-color="#FFA325"/>
</linearGradient>
<linearGradient id="paint77_linear_3_3015" x1="21.1034" y1="15.9712" x2="20.5996" y2="15.9712" gradientUnits="userSpaceOnUse">
<stop stop-color="#FFD945"/>
<stop offset="1" stop-color="#FFA325"/>
</linearGradient>
<linearGradient id="paint78_linear_3_3015" x1="22.2643" y1="15.9849" x2="21.7605" y2="15.9849" gradientUnits="userSpaceOnUse">
<stop stop-color="#FFD945"/>
<stop offset="1" stop-color="#FFA325"/>
</linearGradient>
<linearGradient id="paint79_linear_3_3015" x1="18.8068" y1="16.6783" x2="18.303" y2="16.6783" gradientUnits="userSpaceOnUse">
<stop stop-color="#FFD945"/>
<stop offset="1" stop-color="#FFA325"/>
</linearGradient>
<linearGradient id="paint80_linear_3_3015" x1="20.4669" y1="16.7081" x2="19.9631" y2="16.7081" gradientUnits="userSpaceOnUse">
<stop stop-color="#FFD945"/>
<stop offset="1" stop-color="#FFA325"/>
</linearGradient>
<linearGradient id="paint81_linear_3_3015" x1="23.2101" y1="16.5773" x2="22.7063" y2="16.5773" gradientUnits="userSpaceOnUse">
<stop stop-color="#FFD945"/>
<stop offset="1" stop-color="#FFA325"/>
</linearGradient>
<linearGradient id="paint82_linear_3_3015" x1="23.9523" y1="15.9211" x2="23.4485" y2="15.9211" gradientUnits="userSpaceOnUse">
<stop stop-color="#FFD945"/>
<stop offset="1" stop-color="#FFA325"/>
</linearGradient>
<clipPath id="clip0_3_3015">
<rect width="40" height="40" fill="white"/>
</clipPath>
</defs>
</svg>
