<svg width="24" height="24" viewBox="0 0 24 24" fill="none" xmlns="http://www.w3.org/2000/svg">
<g clip-path="url(#clip0_398_3042)">
<path d="M20.4844 15.5156H19.6517C19.3605 14.699 18.5873 14.1094 17.6719 14.1094C16.7564 14.1094 15.9832 14.699 15.692 15.5156H14.1562C13.381 15.5156 12.75 14.8846 12.75 14.1094C12.75 13.3342 13.381 12.7031 14.1562 12.7031H19.0781C19.3057 12.7031 19.545 12.5496 19.6405 12.4216L23.0174 7.87308C23.6601 7.01616 24 5.99578 24 4.92188C24 2.20823 21.7918 0 19.0781 0C16.3645 0 14.1562 2.20823 14.1562 4.92188C14.1562 5.99578 14.4961 7.01616 15.1388 7.87238L17.6722 11.2969H14.1562C12.6051 11.2969 11.3438 12.5582 11.3438 14.1094C11.3438 15.6605 12.6051 16.9219 14.1562 16.9219H15.692C15.9832 17.7385 16.7564 18.3281 17.6719 18.3281C18.5873 18.3281 19.3605 17.7385 19.6517 16.9219H20.4844C21.6475 16.9219 22.5938 17.8681 22.5938 19.0312C22.5938 20.1944 21.6475 21.1875 20.4844 21.1875H15.433C15.1418 20.3708 14.3686 19.7812 13.4531 19.7812C12.5377 19.7812 11.7645 20.3708 11.4733 21.1875H6.32812L8.86116 17.7637C9.50386 16.9068 9.84375 15.8864 9.84375 14.8125C9.84375 12.0989 7.63552 9.89062 4.92188 9.89062C2.20823 9.89062 0 12.0989 0 14.8125C0 15.8864 0.339891 16.9068 0.982594 17.763C1.06444 17.8721 4.37517 22.352 4.47966 22.4378C4.47966 22.4378 4.65384 22.5937 4.92117 22.5937C4.92394 22.5937 4.926 22.5937 4.92872 22.5937H11.4733C11.7645 23.4104 12.5377 24 13.4531 24C14.3686 24 15.1418 23.4104 15.433 22.5937H20.4844C22.4228 22.5937 24 20.9696 24 19.0312C24 17.0928 22.4228 15.5156 20.4844 15.5156ZM16.9688 4.92188C16.9688 3.75872 17.915 2.8125 19.0781 2.8125C20.2413 2.8125 21.1875 3.75872 21.1875 4.92188C21.1875 6.08503 20.2413 7.03125 19.0781 7.03125C17.915 7.03125 16.9688 6.08503 16.9688 4.92188ZM4.92188 16.9219C3.75872 16.9219 2.8125 15.9757 2.8125 14.8125C2.8125 13.6493 3.75872 12.7031 4.92188 12.7031C6.08503 12.7031 7.03125 13.6493 7.03125 14.8125C7.03125 15.9757 6.08503 16.9219 4.92188 16.9219Z" fill="#63A9FF"/>
<path d="M19.0781 4.21875C18.6902 4.21875 18.375 4.53394 18.375 4.92188C18.375 5.30981 18.6902 5.625 19.0781 5.625C19.4661 5.625 19.7812 5.30981 19.7812 4.92188C19.7812 4.53394 19.4661 4.21875 19.0781 4.21875Z" fill="#63A9FF"/>
<path d="M4.92188 14.1094C4.53394 14.1094 4.21875 14.4246 4.21875 14.8125C4.21875 15.2004 4.53394 15.5156 4.92188 15.5156C5.30981 15.5156 5.625 15.2004 5.625 14.8125C5.625 14.4246 5.30981 14.1094 4.92188 14.1094Z" fill="#63A9FF"/>
</g>
<defs>
<clipPath id="clip0_398_3042">
<rect width="24" height="24" fill="white"/>
</clipPath>
</defs>
</svg>
