<svg width="16" height="16" viewBox="0 0 16 16" fill="none" xmlns="http://www.w3.org/2000/svg">
<g clip-path="url(#clip0_111_878)">
<path d="M1.19995 14.9121C1.19995 15.2006 1.31457 15.4773 1.5186 15.6814C1.72263 15.8854 1.99935 16 2.28789 16H13.6323C13.9208 16 14.1976 15.8854 14.4016 15.6814C14.6056 15.4773 14.7202 15.2006 14.7202 14.9121V6.23206H1.19995V14.9121ZM10.5626 8.54232H12.3268V10.3065H10.5626V8.54232ZM10.5626 11.5416H12.3268V13.3058H10.5626V11.5416ZM7.07908 8.54232H8.84111V10.3065H7.07908V8.54232ZM7.07908 11.5416H8.84111V13.3058H7.07908V11.5416ZM3.59128 8.54232H5.35544V10.3065H3.59128V8.54232ZM3.59128 11.5416H5.35544V13.3058H3.59128V11.5416Z" fill="#60BE80"/>
<path d="M11.3731 3.56673C11.4241 3.56673 11.4729 3.5465 11.5089 3.51049C11.5449 3.47449 11.5651 3.42566 11.5651 3.37474V0.191989C11.5651 0.14107 11.5449 0.0922371 11.5089 0.0562322C11.4729 0.0202273 11.4241 0 11.3731 0C11.3222 0 11.2734 0.0202273 11.2374 0.0562322C11.2014 0.0922371 11.1812 0.14107 11.1812 0.191989V3.37474C11.1812 3.42566 11.2014 3.47449 11.2374 3.51049C11.2734 3.5465 11.3222 3.56673 11.3731 3.56673Z" fill="#60BE80"/>
<path d="M13.6323 1.68582H11.9428V3.37532C11.9428 3.52864 11.8819 3.67569 11.7735 3.7841C11.6651 3.89252 11.518 3.95342 11.3647 3.95342C11.2114 3.95342 11.0643 3.89252 10.9559 3.7841C10.8475 3.67569 10.7866 3.52864 10.7866 3.37532V1.68582H5.13146V3.37532C5.13625 3.45405 5.12487 3.53293 5.09804 3.6071C5.07121 3.68126 5.02948 3.74916 4.97543 3.8066C4.92138 3.86404 4.85614 3.90981 4.78374 3.9411C4.71134 3.97238 4.6333 3.98852 4.55442 3.98852C4.47555 3.98852 4.39751 3.97238 4.32511 3.9411C4.2527 3.90981 4.18747 3.86404 4.13342 3.8066C4.07937 3.74916 4.03764 3.68126 4.01081 3.6071C3.98397 3.53293 3.9726 3.45405 3.97739 3.37532V1.68582H2.28789C1.99952 1.68639 1.72313 1.80119 1.51922 2.00509C1.31532 2.209 1.20051 2.48539 1.19995 2.77376V5.84771H14.7202V2.77376C14.7197 2.48539 14.6049 2.209 14.401 2.00509C14.1971 1.80119 13.9207 1.68639 13.6323 1.68582Z" fill="#60BE80"/>
<path d="M4.54672 3.56682C4.57212 3.5671 4.59731 3.56234 4.62085 3.55282C4.64439 3.5433 4.66581 3.5292 4.68386 3.51134C4.70192 3.49349 4.71625 3.47223 4.72603 3.44879C4.73581 3.42536 4.74085 3.40022 4.74085 3.37483V0.19208C4.73582 0.144378 4.71332 0.100224 4.67767 0.0681311C4.64202 0.0360384 4.59576 0.01828 4.54779 0.01828C4.49982 0.01828 4.45356 0.0360384 4.41791 0.0681311C4.38226 0.100224 4.35976 0.144378 4.35474 0.19208V3.37483C4.35474 3.42575 4.37496 3.47458 4.41097 3.51058C4.44697 3.54659 4.49581 3.56682 4.54672 3.56682Z" fill="#60BE80"/>
</g>
<defs>
<clipPath id="clip0_111_878">
<rect width="16" height="16" fill="white"/>
</clipPath>
</defs>
</svg>
