<svg width="30" height="30" viewBox="0 0 30 30" fill="none" xmlns="http://www.w3.org/2000/svg">
<g clip-path="url(#clip0_57_1949)">
<path d="M24.4507 0H21.8679V8.74104C21.8679 9.35517 21.247 9.65882 20.7659 8.88775L19.06 6.15831L17.3541 8.88775C16.8696 9.65541 16.2521 9.35517 16.2521 8.74104V0H7.59295C5.49972 0.00562948 3.80585 1.70411 3.80585 3.79734V26.2129C3.81148 28.3021 5.50373 29.9944 7.59295 30H24.4541C24.9152 29.9992 25.3571 29.8152 25.6823 29.4882C26.0093 29.163 26.1933 28.7211 26.1941 28.26V1.74343C26.1922 0.781303 25.4128 0.00187649 24.4507 0ZM24.7748 25.4964L8.32308 25.5169C7.9645 25.5416 7.67918 25.827 7.65445 26.1855C7.62707 26.5821 7.92646 26.9259 8.32308 26.9533H24.7748L24.7714 28.277C24.7716 28.3559 24.7409 28.4318 24.6861 28.4886C24.6294 28.5434 24.5535 28.574 24.4746 28.5739H7.59295C6.29749 28.5739 5.24733 27.5237 5.24733 26.2282C5.24733 24.9328 6.29749 23.8826 7.59295 23.8826H24.4746C24.6396 23.8845 24.7729 24.0178 24.7748 24.1829V25.4964Z" fill="#B881EF"/>
</g>
<defs>
<clipPath id="clip0_57_1949">
<rect width="30" height="30" fill="white"/>
</clipPath>
</defs>
</svg>
