<svg width="300" height="212" viewBox="0 0 300 212" fill="none" xmlns="http://www.w3.org/2000/svg">
<g clip-path="url(#clip0_252_5826)">
<path d="M220.649 187.374C246.344 189.185 278.469 178.98 292.64 156.604C298.51 147.33 302.407 135.44 298.319 125.184C295.225 117.415 282.136 108.6 279.309 100.767C276.482 92.9342 276.852 83.7874 278.329 75.3934C282.543 51.2573 259.051 13.5988 209.444 9.58035C171.818 6.53144 154.794 35.8341 122.783 39.827C90.4673 43.8582 52.5869 19.6456 29.4639 39.827C0.763969 64.8817 14.1845 89.9618 17.7242 101.698C22.2189 116.777 0.280125 133.986 4.80031 156.183C14.923 205.808 88.43 172.346 109.974 170.216C131.862 168.098 153.584 174.336 175.027 179.337C196.469 184.338 219.146 188.152 240.143 181.212L220.649 187.374Z" fill="#E8EEFF"/>
<path d="M148.147 211.268C229.967 211.268 296.295 207.966 296.295 203.894C296.295 199.822 229.967 196.521 148.147 196.521C66.3278 196.521 0 199.822 0 203.894C0 207.966 66.3278 211.268 148.147 211.268Z" fill="#DDE6FF"/>
<path d="M7.33415 77.3709H6.86304C5.81894 68.1732 8.63291 59.2433 15.7761 49.3057L16.158 49.5736C9.05308 59.4602 6.30278 68.3008 7.33415 77.3709Z" fill="#6D92F0"/>
<path d="M4.3801 83.5325L3.92173 83.6728C-1.43882 66.5275 7.74161 52.6352 17.495 41.3198L17.8515 41.626C8.21273 52.8521 -0.929523 66.6041 4.3801 83.5325Z" fill="#6D92F0"/>
<path d="M231.051 10.5117C220.279 5.00074 211.15 3.50817 202.339 5.82993L202.211 5.38344C211.124 3.02341 220.381 4.51597 231.268 10.0908L231.051 10.5117Z" fill="#6D92F0"/>
<path d="M239.149 11.1115C226.684 3.17668 211.774 -3.90343 195.858 3.78901L195.654 3.36802C211.812 -4.42646 226.849 2.70467 239.43 10.716L239.149 11.1115Z" fill="#6D92F0"/>
<path d="M102.194 58.1335H101.519C101.519 57.7763 101.519 57.4318 101.519 57.0874H102.194C102.22 57.4701 102.207 57.8018 102.194 58.1335Z" fill="#3F5A9F"/>
<path d="M148.784 52.3674C148.606 51.704 148.389 51.0917 148.147 50.3901L148.784 50.1477C149.026 50.8238 149.255 51.4999 149.446 52.1888L148.784 52.3674ZM102.487 55.0208L101.812 54.906C101.927 54.2172 102.067 53.5028 102.232 52.8139L102.895 52.9797C102.729 53.6431 102.589 54.383 102.487 55.0591V55.0208ZM147.332 48.5403C147.027 47.928 146.696 47.2646 146.352 46.7161L146.938 46.3589C147.294 46.9712 147.638 47.6346 147.944 48.2469L147.332 48.5403ZM103.493 51.0917L102.844 50.8748C103.086 50.1987 103.34 49.5991 103.633 48.8848L104.257 49.1654C103.977 49.7267 103.722 50.3773 103.493 51.0917ZM145.219 45.0067C144.811 44.4581 144.378 43.9095 143.946 43.3738L144.468 42.9273C144.926 43.4758 145.372 44.0371 145.741 44.6112L145.219 45.0067ZM105.187 47.2646L104.601 46.9329C104.942 46.3058 105.316 45.6969 105.721 45.1087L106.282 45.4914C105.9 45.9889 105.53 46.6395 105.187 47.2646ZM142.507 41.8302C142.018 41.3402 141.503 40.8761 140.966 40.4397L141.399 39.9166C141.946 40.3631 142.481 40.8351 142.991 41.3326L142.507 41.8302ZM107.517 43.8203L106.995 43.3993C107.438 42.84 107.91 42.3035 108.408 41.7919L108.892 42.2767C108.37 42.7487 107.95 43.2589 107.517 43.7947V43.8203ZM139.349 39.1895C138.789 38.8068 138.19 38.4368 137.592 38.0924L137.923 37.5056C138.547 37.85 139.196 38.2327 139.744 38.6282L139.349 39.1895ZM110.407 40.8862L109.961 40.3631C110.496 39.9039 111.056 39.4574 111.629 39.0874L112.037 39.6487C111.472 40.0324 110.928 40.4454 110.407 40.8862ZM135.682 37.1994C135.058 36.9188 134.409 36.6509 133.759 36.4212L133.988 35.7834C134.65 36.013 135.325 36.2809 135.975 36.5743L135.682 37.1994ZM113.769 38.4751L113.412 37.8883C114.023 37.5183 114.685 37.1866 115.296 36.8677L115.589 37.4928C114.968 37.7416 114.36 38.0226 113.769 38.3348V38.4751ZM131.773 35.7834C131.111 35.6175 130.423 35.4772 129.748 35.3624L129.85 34.6863C130.55 34.8011 131.251 34.9414 131.938 35.12L131.773 35.7834ZM117.499 36.5998L117.257 35.962C117.919 35.7068 118.531 35.49 119.282 35.2986L119.46 35.9492C118.798 36.1151 118.136 36.3319 117.499 36.5743V36.5998ZM127.686 35.12C126.998 35.12 126.298 35.0435 125.61 35.12V34.4312C126.323 34.4312 127.036 34.4312 127.749 34.4312L127.686 35.12ZM121.485 35.4772L121.357 34.8011C122.058 34.6735 122.771 34.5715 123.471 34.4949L123.535 35.1838C122.86 35.2221 122.159 35.3241 121.485 35.4517V35.4772Z" fill="#3F5A9F"/>
<path d="M150.095 55.3653L149.421 55.4546C149.421 55.123 149.319 54.7913 149.255 54.4596L149.93 54.332C149.994 54.6765 150.045 55.0209 150.095 55.3653Z" fill="#3F5A9F"/>
<path d="M104.283 58.3501L101.8 59.5365L99.2275 58.5797L102.016 64.4734L104.283 58.3501Z" fill="#3F5A9F"/>
<path d="M80.994 92.22C80.8921 90.6637 81.5288 88.8394 81.949 89.018C82.3692 89.1966 81.949 90.6509 82.2673 91.0974C82.5297 91.4437 82.7049 91.8483 82.7781 92.2769C82.8512 92.7055 82.8201 93.1455 82.6875 93.5595L80.994 92.22Z" fill="#FCB47E"/>
<path d="M66.9751 201.011L65.7273 190.971H73.0741L73.4052 201.011H66.9751Z" fill="#FCB47E"/>
<path d="M73.2651 196.674C70.4894 197.401 66.3639 196.087 66.3639 196.087L66.0711 193.701L73.1887 194.301L73.2651 196.674Z" fill="#FCA377"/>
<path d="M31.9214 201.011L32.5962 190.971H39.9431L38.3515 201.011H31.9214Z" fill="#FCB47E"/>
<path d="M39.6121 193.115L39.1028 196.291C36.7362 196.451 34.3783 195.872 32.3543 194.633L32.558 191.545L39.6121 193.115Z" fill="#FCA377"/>
<path d="M82.6111 194.722C82.6111 194.722 77.6962 132.966 64.4412 102.872L52.1285 103.497C53.2924 134.098 56.7314 164.57 62.4167 194.658C62.4167 194.658 73.9909 197.465 82.6111 194.722Z" fill="#3F5A9F"/>
<path d="M47.6975 194.722C47.6975 194.722 35.563 196.686 28.5981 191.966C28.5981 191.966 32.2779 125.005 43.5593 103.05H56.8269C56.8269 103.05 56.445 139.114 47.6975 194.722Z" fill="#3F5A9F"/>
<path d="M43.9031 71.2603C44.2341 70.0994 44.8453 68.6069 44.8453 68.6069C44.6743 69.605 44.6103 70.6185 44.6543 71.6303C47.5319 72.906 53.5673 74.6792 62.8878 72.3829C62.7605 71.4262 62.7096 70.5204 62.7096 70.5204C62.8791 71.1177 63.0918 71.7018 63.3462 72.2681L64.3521 72.0002C64.148 70.9259 64.0161 69.8392 63.9574 68.7472C64.2656 69.7962 64.6929 70.8063 65.2307 71.7578L66.9624 71.2093C66.9624 71.2093 65.1033 68.3645 63.881 61.0037C62.8751 54.9187 59.7555 52.0739 54.968 52.1632C45.2273 52.4311 42.6298 70.5459 42.6298 70.5459C43.0372 70.8132 43.4627 71.0519 43.9031 71.2603Z" fill="#374263"/>
<path d="M77.5816 92.7431C77.5816 92.7431 73.6853 75.1386 58.1639 74.2328C34.2643 72.7785 26.8792 88.393 26.8792 88.393L77.5816 92.7431Z" fill="white"/>
<path d="M52.8543 56.577C55.49 55.0717 60.1248 55.0079 61.1816 58.5799C62.1493 61.8839 61.9965 71.8343 57.5909 71.643C55.9895 71.6116 54.4532 71.002 53.2648 69.9261C52.0763 68.8503 51.3156 67.3806 51.1226 65.7875C50.9698 65.0221 50.2186 58.0951 52.8543 56.577Z" fill="#FCB47E"/>
<path d="M51.2245 65.609C51.2245 65.609 49.1745 66.2468 48.7798 64.3971C48.3851 62.5473 50.4223 62.0753 51.0589 62.8024L51.2245 65.609Z" fill="#FCB47E"/>
<path d="M79.7462 113.958C82.7002 108.166 85.0049 94.631 85.0049 94.631C85.9504 93.2524 86.5887 91.6861 86.8766 90.0385C86.8766 89.2603 86.5201 88.7628 85.9853 89.0434C85.8071 88.4184 85.425 88.2908 84.9157 88.6735C84.6356 88.1122 84.2918 88.1377 83.9481 88.4056C83.1968 87.1299 81.6816 91.1483 81.6943 91.6586C81.707 92.1689 81.7962 93.2277 81.8471 93.5849C81.8981 93.9421 72.9977 109.314 72.9977 109.314L79.7462 113.958Z" fill="#FCB47E"/>
<path d="M31.0556 193.051H30.6608C30.6608 192.387 35.1937 125.847 46.6024 104.224L46.9462 104.403C35.5885 125.924 31.1065 192.387 31.0556 193.051Z" fill="white"/>
<path d="M40.7326 92.3349L36.5434 116.292C47.4555 119.571 59.7682 116.624 69.84 109.914L65.6763 86.2881L57.9092 74.4497C57.4245 75.0419 56.813 75.5173 56.1199 75.8404C55.4269 76.1636 54.6701 76.3263 53.9057 76.3165C53.1414 76.3067 52.389 76.1246 51.7044 75.7838C51.0198 75.443 50.4206 74.9521 49.9512 74.3477L39.09 78.9146L40.7326 92.3349Z" fill="white"/>
<path d="M80.4592 97.5265L78.2437 92.0538C78.2437 92.0538 72.7176 80.815 68.1975 77.8809L65.2944 97.5265H80.4592Z" fill="white"/>
<path d="M54.6878 140.888H54.2931C54.9298 134.178 55.4518 127.62 55.8465 121.382H56.2412C55.8338 127.633 55.3117 134.178 54.6878 140.888Z" fill="#47393D"/>
<path d="M65.358 194.862C65.2816 194.467 57.0944 155.15 54.777 135.338H55.1717C57.4891 155.124 65.6636 194.429 65.7527 194.811L65.358 194.862Z" fill="white"/>
<path d="M65.866 86.2332L65.4899 86.2998L69.6571 109.93L70.0332 109.863L65.866 86.2332Z" fill="#3F5A9F"/>
<path d="M49.5437 62.4325C49.7955 62.3251 50.0752 62.3018 50.3412 62.3661C50.6073 62.4305 50.8456 62.579 51.0207 62.7897C51.1305 61.9084 51.3708 61.0485 51.7338 60.2383L52.0648 61.986C53.4217 62.2049 54.7912 62.337 56.1648 62.3814C56.6869 62.3814 58.1639 62.3814 58.1639 62.3814L58.5077 59.4729L59.1316 62.3304L60.2521 62.2028L60.494 60.4807L60.9651 62.1008C61.4363 62.0242 61.7546 61.9477 61.9201 61.9094C62.0092 60.6337 62.0475 57.3935 59.8701 55.531C57.3235 53.3368 52.0903 54.5487 50.868 57.1639C50.1142 58.8261 49.6656 60.6108 49.5437 62.4325Z" fill="#374263"/>
<path d="M54.4841 76.3757C55.1713 76.338 55.8414 76.1465 56.4451 75.8154C57.0488 75.4843 57.5709 75.0219 57.9729 74.4622L57.4254 68.0837L51.4028 64.499L49.8875 74.3219C51.1078 75.5608 52.7488 76.294 54.4841 76.3757Z" fill="#FCB47E"/>
<path d="M57.4381 72V71.6172C56.265 71.4794 55.1465 71.0438 54.1884 70.3518C53.2302 69.6597 52.4643 68.7341 51.963 67.6626L51.6192 67.854C52.1552 68.9852 52.9714 69.9601 53.99 70.6858C55.0086 71.4116 56.1956 71.864 57.4381 72Z" fill="#374263"/>
<path d="M65.2944 205.744L83.8717 205.807C84.0249 205.81 84.1768 205.78 84.318 205.72C84.4591 205.66 84.5864 205.572 84.6917 205.461C84.797 205.349 84.878 205.217 84.9298 205.072C84.9815 204.928 85.0027 204.774 84.9922 204.621C84.9922 204.481 84.9922 204.34 84.9922 204.187C84.9495 203.734 84.8012 203.297 84.5592 202.912C83.6806 201.738 82.0126 201.202 78.9313 199.978C77.4476 199.366 76.0275 198.609 74.6912 197.72C74.5899 197.633 74.4613 197.586 74.3284 197.586C74.1954 197.586 74.0668 197.633 73.9655 197.72C70.2729 201.304 68.0192 200.539 67.3443 198.995C66.835 197.86 66.071 198.102 65.9055 198.434C65.2542 200.23 64.8765 202.113 64.785 204.022C64.785 204.187 64.785 204.34 64.785 204.455V204.915C64.7605 205.003 64.7543 205.095 64.7671 205.185C64.7798 205.276 64.811 205.363 64.8588 205.441C64.9067 205.518 64.97 205.586 65.045 205.638C65.1199 205.69 65.2048 205.726 65.2944 205.744Z" fill="#374263"/>
<path d="M77.8108 201.878C78.1858 201.703 78.4966 201.414 78.6997 201.053C78.9029 200.691 78.9883 200.275 78.944 199.863H78.6257C78.6627 200.208 78.5904 200.557 78.4191 200.859C78.2477 201.161 77.986 201.402 77.6707 201.547L77.8108 201.878Z" fill="white"/>
<path d="M79.4533 202.427C79.8037 202.253 80.0939 201.977 80.2868 201.636C80.4797 201.295 80.5663 200.904 80.5356 200.514H80.2173C80.2371 200.84 80.1607 201.165 79.9977 201.449C79.8348 201.732 79.5924 201.962 79.3006 202.108L79.4533 202.427Z" fill="white"/>
<path d="M68.9741 201.623C69.7995 201.603 70.6111 201.408 71.3552 201.049L71.2152 200.756C71.2152 200.756 68.363 202.185 66.9242 200.373L66.6695 200.577C66.9487 200.916 67.3015 201.186 67.7009 201.368C68.1004 201.549 68.5358 201.636 68.9741 201.623Z" fill="white"/>
<path d="M66.9564 204.305L66.9553 204.624L77.7782 204.663L77.7793 204.344L66.9564 204.305Z" fill="white"/>
<path d="M79.1714 204.346L79.1702 204.665L81.7296 204.674L81.7307 204.355L79.1714 204.346Z" fill="white"/>
<path d="M30.508 205.744L49.0853 205.808C49.2385 205.81 49.3905 205.78 49.5317 205.72C49.6728 205.661 49.8001 205.572 49.9054 205.461C50.0107 205.349 50.0917 205.217 50.1434 205.072C50.1952 204.928 50.2164 204.774 50.2058 204.621C50.2058 204.481 50.2058 204.341 50.2058 204.187C50.1632 203.734 50.0149 203.297 49.7729 202.912C48.8944 201.738 47.2263 201.202 44.145 199.978C42.6613 199.366 41.2412 198.609 39.9049 197.72C39.8005 197.635 39.6701 197.588 39.5357 197.588C39.4012 197.588 39.2708 197.635 39.1664 197.72C35.4866 201.304 33.2329 200.539 32.558 198.995C32.0487 197.86 31.2847 198.102 31.1192 198.434C30.4679 200.23 30.0902 202.113 29.9987 204.022C29.9987 204.187 29.9987 204.341 29.9987 204.455V204.915C29.9721 205.003 29.9645 205.095 29.9763 205.187C29.9881 205.278 30.0191 205.366 30.0672 205.444C30.1154 205.522 30.1796 205.59 30.2555 205.641C30.3315 205.693 30.4176 205.728 30.508 205.744Z" fill="#374263"/>
<path d="M43.0372 201.878C43.4122 201.703 43.723 201.414 43.9262 201.053C44.1294 200.691 44.2147 200.275 44.1704 199.863H43.8521C43.8891 200.208 43.8168 200.557 43.6455 200.859C43.4741 201.161 43.2124 201.402 42.8971 201.547L43.0372 201.878Z" fill="white"/>
<path d="M44.7052 202.427C45.0556 202.253 45.3458 201.977 45.5387 201.636C45.7316 201.295 45.8182 200.904 45.7875 200.514H45.4692C45.4889 200.84 45.4126 201.165 45.2496 201.449C45.0867 201.732 44.8443 201.962 44.5524 202.108L44.7052 202.427Z" fill="white"/>
<path d="M34.1878 201.623C35.0129 201.601 35.8241 201.405 36.5689 201.049L36.4288 200.756C36.4288 200.756 33.5767 202.185 32.1379 200.373L31.8832 200.577C32.1624 200.916 32.5152 201.186 32.9146 201.368C33.3141 201.549 33.7495 201.636 34.1878 201.623Z" fill="white"/>
<path d="M32.17 204.305L32.1688 204.624L42.9917 204.663L42.9929 204.344L32.17 204.305Z" fill="white"/>
<path d="M44.3849 204.345L44.3838 204.664L46.9431 204.673L46.9443 204.355L44.3849 204.345Z" fill="white"/>
<path d="M96.5389 88.7181L34.4957 98.53C33.2106 98.7332 32.3333 99.9417 32.5362 101.229L38.8374 141.224C39.0403 142.512 40.2465 143.391 41.5315 143.188L103.575 133.376C104.86 133.173 105.737 131.964 105.534 130.677L99.233 90.6813C99.0301 89.3938 97.8239 88.5149 96.5389 88.7181Z" fill="#6D92F0"/>
<path d="M53.2533 123.542L42.0848 125.309C41.7375 125.364 41.5004 125.69 41.5552 126.038L41.8947 128.193C41.9495 128.541 42.2755 128.779 42.6228 128.724L53.7913 126.957C54.1386 126.902 54.3758 126.576 54.3209 126.228L53.9814 124.073C53.9266 123.725 53.6006 123.488 53.2533 123.542Z" fill="white"/>
<path d="M68.0271 121.2L56.8585 122.966C56.5112 123.021 56.2741 123.348 56.3289 123.696L56.6684 125.851C56.7232 126.199 57.0492 126.436 57.3965 126.381L68.5651 124.615C68.9124 124.56 69.1495 124.234 69.0947 123.886L68.7552 121.731C68.7004 121.383 68.3744 121.145 68.0271 121.2Z" fill="white"/>
<path d="M82.7882 118.873L71.6197 120.639C71.2724 120.694 71.0353 121.02 71.0901 121.368L71.4296 123.523C71.4844 123.871 71.8104 124.109 72.1577 124.054L83.3262 122.287C83.6736 122.233 83.9107 121.906 83.8558 121.558L83.5164 119.403C83.4615 119.055 83.1355 118.818 82.7882 118.873Z" fill="white"/>
<path d="M97.5493 116.542L86.3807 118.309C86.0334 118.364 85.7963 118.69 85.8511 119.038L86.1906 121.193C86.2454 121.541 86.5714 121.779 86.9187 121.724L98.0873 119.957C98.4346 119.902 98.6717 119.576 98.6169 119.228L98.2774 117.073C98.2226 116.725 97.8966 116.488 97.5493 116.542Z" fill="white"/>
<path d="M98.4583 123.239L83.7681 125.562C83.3444 125.629 83.0552 126.028 83.1221 126.452L83.4179 128.33C83.4847 128.754 83.8824 129.044 84.3062 128.977L98.9963 126.654C99.4201 126.587 99.7093 126.188 99.6424 125.764L99.3466 123.886C99.2797 123.462 98.882 123.172 98.4583 123.239Z" fill="white"/>
<path d="M42.0822 110.82L41.3692 106.342C41.333 106.108 41.3431 105.87 41.3991 105.64C41.455 105.41 41.5557 105.194 41.6953 105.003C41.8348 104.812 42.0106 104.651 42.2124 104.528C42.4143 104.405 42.6383 104.324 42.8717 104.288L51.5555 102.91C52.0248 102.837 52.504 102.953 52.8882 103.232C53.2725 103.512 53.5304 103.933 53.6055 104.403L54.3058 108.893C54.3439 109.126 54.3355 109.365 54.281 109.594C54.2266 109.824 54.1272 110.041 53.9887 110.232C53.8501 110.423 53.6752 110.584 53.4739 110.707C53.2726 110.83 53.049 110.911 52.8161 110.947L44.1322 112.325C43.8989 112.361 43.6608 112.351 43.4315 112.295C43.2021 112.239 42.986 112.138 42.7956 111.998C42.6052 111.858 42.4442 111.682 42.3218 111.48C42.1994 111.278 42.118 111.053 42.0822 110.82ZM42.9481 104.76C42.7751 104.781 42.6083 104.838 42.4581 104.927C42.3079 105.015 42.1774 105.134 42.0747 105.275C41.9721 105.416 41.8995 105.577 41.8613 105.747C41.8232 105.917 41.8204 106.094 41.8531 106.265L42.5534 110.743C42.5747 110.916 42.6313 111.083 42.7196 111.234C42.808 111.384 42.9263 111.515 43.0671 111.618C43.208 111.721 43.3684 111.794 43.5385 111.832C43.7085 111.87 43.8846 111.873 44.0558 111.84L52.7397 110.462C52.9114 110.441 53.0769 110.385 53.2261 110.297C53.3753 110.209 53.5052 110.092 53.6076 109.952C53.7101 109.812 53.7831 109.653 53.8221 109.484C53.8612 109.315 53.8655 109.14 53.8347 108.97L53.1344 104.479C53.1115 104.307 53.0538 104.142 52.9647 103.992C52.8756 103.843 52.7571 103.714 52.6165 103.613C52.4758 103.511 52.3159 103.439 52.1466 103.402C51.9773 103.365 51.8022 103.362 51.6319 103.395L42.9481 104.76Z" fill="white"/>
<path d="M99.9186 93.5911L99.491 93.6587L101.002 103.248L101.429 103.18L99.9186 93.5911Z" fill="#2E4882"/>
<path d="M68.4521 139.114L68.3757 138.681L103.557 133.119C103.833 133.075 104.098 132.977 104.336 132.831C104.574 132.684 104.781 132.491 104.945 132.264C105.112 132.038 105.232 131.78 105.298 131.506C105.364 131.232 105.373 130.947 105.327 130.669L102.271 111.279L102.704 111.202L105.76 130.605C105.813 130.939 105.801 131.28 105.722 131.608C105.643 131.937 105.5 132.246 105.301 132.519C105.104 132.795 104.853 133.028 104.565 133.205C104.276 133.383 103.955 133.501 103.62 133.552L68.4521 139.114Z" fill="#2E4882"/>
<path d="M62.3344 139.632L49.3052 141.697L49.3729 142.125L62.4021 140.06L62.3344 139.632Z" fill="#2E4882"/>
<path d="M86.3928 89.0054C86.4563 89.0265 86.5148 89.0605 86.5646 89.1054C86.6143 89.1504 86.6542 89.2051 86.6817 89.2663C86.7093 89.3274 86.7238 89.3936 86.7245 89.4607C86.7252 89.5278 86.7119 89.5943 86.6856 89.656C86.4692 90.1152 86.1127 90.6 85.858 90.6255C85.6033 90.651 85.6415 89.8856 85.858 89.3498C85.874 89.2894 85.9021 89.2328 85.9406 89.1836C85.9792 89.1345 86.0274 89.0937 86.0822 89.0638C86.137 89.034 86.1974 89.0157 86.2596 89.01C86.3217 89.0043 86.3844 89.0114 86.4437 89.0309L86.3928 89.0054Z" fill="#FCB47E"/>
<path d="M85.6288 88.9925C85.7224 89.0508 85.7919 89.1408 85.8247 89.2463C85.8574 89.3517 85.8512 89.4654 85.807 89.5666C85.616 90.0769 85.1959 90.8423 84.7757 90.753C84.3555 90.6637 84.6866 89.911 84.8648 89.2477C84.8905 89.1742 84.9327 89.1075 84.9881 89.0529C85.0435 88.9983 85.1106 88.9571 85.1843 88.9324C85.2581 88.9078 85.3365 88.9004 85.4135 88.9108C85.4906 88.9212 85.5642 88.9492 85.6288 88.9925Z" fill="#FCB47E"/>
<path d="M84.5338 88.7247C84.6525 88.7522 84.7559 88.8247 84.8224 88.927C84.8888 89.0293 84.9132 89.1534 84.8903 89.2732C84.8635 89.5776 84.7639 89.8711 84.5999 90.1287C84.4358 90.3863 84.2123 90.6004 83.9481 90.7531C83.4642 90.9189 83.7316 89.7708 83.9481 89.0564C83.981 88.9388 84.057 88.8381 84.1609 88.7742C84.2647 88.7104 84.3888 88.6881 84.5083 88.712L84.5338 88.7247Z" fill="#FCB47E"/>
<path d="M83.6297 88.0864C83.7189 88.1059 83.8024 88.1455 83.8739 88.2022C83.9454 88.259 84.003 88.3314 84.0423 88.4138C84.0816 88.4963 84.1016 88.5867 84.1007 88.6781C84.0998 88.7695 84.0781 88.8595 84.0372 88.9411C83.808 89.4897 83.4387 90.1148 83.0822 90.2168C82.7257 90.3189 82.9167 89.3876 83.0822 88.6733C83.095 88.3671 83.3369 88.0864 83.6297 88.0864Z" fill="#FCB47E"/>
<path d="M36.3652 113.192C36.3652 113.192 29.0947 102.54 40.3379 94.95L46.768 76.8096V76.6948C39.2301 76.6948 31.132 81.2746 26.7518 87.7551C19.4177 98.573 20.1435 111.521 32.4307 118.206L36.3652 113.192Z" fill="white"/>
<path d="M40.045 97.2207L39.6503 97.1441L40.7453 91.5693L41.14 91.6331L40.045 97.2207Z" fill="#3F5A9F"/>
<path d="M35.1174 118.372C32.6773 117.172 30.523 115.462 28.8007 113.355C27.0783 111.249 25.8281 108.796 25.1348 106.163C23.7087 100.333 25.2112 93.7635 29.3621 87.6401L29.6931 87.857C25.6059 93.8911 24.1289 100.359 25.5167 106.074C26.1999 108.652 27.4276 111.054 29.1168 113.116C30.8061 115.178 32.9175 116.853 35.3084 118.027L35.1174 118.372Z" fill="#3F5A9F"/>
<path d="M35.6776 114.073C36.2671 114.62 36.9317 115.079 37.6512 115.438C38.0841 115.514 40.4652 115.616 40.4015 116.114C40.3378 116.611 38.708 116.229 38.7208 116.662C38.7335 117.096 41.904 117.772 41.5857 118.334C41.3692 118.704 39.5229 117.913 39.4847 118.142C39.4465 118.372 41.9295 118.844 41.6493 119.418C41.3692 119.992 38.9627 118.525 38.8481 118.806C38.7335 119.086 41.6748 119.979 41.3947 120.438C41.1145 120.898 38.8481 119.558 38.6826 119.813C38.517 120.069 39.472 120.324 39.9558 120.617C40.2232 120.783 40.1468 121.025 39.9558 121.025C37.7149 120.923 34.8627 118.193 34.5444 118.066C34.226 117.938 33.5003 117.67 32.9909 117.466L35.6776 114.073Z" fill="#FCB47E"/>
<path d="M35.7922 99.9252L35.4484 99.7211C36.6636 97.731 38.3136 96.043 40.2742 94.7842L40.5034 95.1159C38.5907 96.342 36.98 97.9863 35.7922 99.9252Z" fill="#3F5A9F"/>
<path d="M272.37 77.7026C272.37 77.8557 272.37 77.9961 272.37 78.1491C272.917 96.8253 271.007 111.317 267.773 122.722L258.172 128.705L266.067 127.429H266.296C262.005 139.893 256.11 147.942 250.482 153.122C247.626 155.81 244.396 158.07 240.894 159.832C240.716 159.934 240.537 160.01 240.359 160.1C239.913 160.317 239.48 160.508 239.086 160.674L233.802 160.954C233.738 160.712 233.662 160.47 233.598 160.214C233.534 159.959 233.509 159.908 233.471 159.755L233.318 159.143C227.066 135.045 234.935 115.769 245.21 102.119L245.312 101.979C248.645 97.5805 252.361 93.4866 256.415 89.7452L258.758 95.7027L259.089 87.3596C263.126 83.8227 267.468 80.6508 272.064 77.8812L272.37 77.7026Z" fill="#9AADE5"/>
<path d="M272.561 77.7919L272.382 78.1491L261.534 100.908L261.343 101.316L258.389 107.516L258.287 107.72L248.852 127.506L248.839 127.531L233.471 159.768L233.241 160.253L232.872 161.018L232.414 161.044L232.77 160.278L233.305 159.156L248.47 127.34L248.763 126.753L272.064 77.8812L272.191 77.6006L272.561 77.7919Z" fill="white"/>
<path d="M271.683 98.4065L258.235 107.677L258.438 107.971L271.885 98.7007L271.683 98.4065Z" fill="white"/>
<path d="M271.748 93.8023L261.203 101.066L261.405 101.36L271.95 94.0967L271.748 93.8023Z" fill="white"/>
<path d="M245.55 101.919L245.197 101.965L248.506 127.533L248.86 127.487L245.55 101.919Z" fill="white"/>
<path d="M231.688 165.1C231.688 165.1 244.204 171.032 262.018 160.393L256.237 157.637L265.672 158.02C272.624 153.147 280.251 145.722 288.171 134.547L285.968 133.501L288.833 133.616C290.106 131.702 291.507 129.687 292.857 127.544C288.609 127.288 284.347 127.425 280.124 127.952L276.304 133.157L277.399 128.322C262.107 130.644 239.85 138.668 231.688 165.1Z" fill="#BAC8F3"/>
<path d="M292.735 127.32L230.617 163.702L230.817 164.044L292.935 127.662L292.735 127.32Z" fill="white"/>
<path d="M276.739 136.995L276.701 137.363L285.592 138.282L285.63 137.914L276.739 136.995Z" fill="white"/>
<path d="M272.411 139.38L272.346 139.745L282.713 141.595L282.778 141.231L272.411 139.38Z" fill="white"/>
<path d="M246.318 142.227L246.012 141.87C251.519 137.054 257.936 133.397 264.883 131.116L265.023 131.562C258.139 133.829 251.779 137.456 246.318 142.227Z" fill="#2E4882"/>
<path d="M121.905 112.503L121.969 112.963C124.515 131.46 128.857 145.48 133.937 156.119L144.404 160.418L136.408 160.533H136.178C142.545 172.104 149.663 179.056 156.055 183.228C159.32 185.397 162.879 187.085 166.623 188.241L167.196 188.407C167.667 188.548 168.125 188.662 168.558 188.764L173.817 188.152L173.893 187.387C173.893 187.234 173.893 187.068 173.893 186.915C173.893 186.762 173.893 186.494 173.893 186.29C176.032 161.477 165.069 143.834 152.655 132.047L152.527 131.932C148.512 128.148 144.165 124.732 139.54 121.727L138.267 127.99L136.535 119.813C131.964 116.999 127.153 114.595 122.159 112.631L121.905 112.503Z" fill="#9AADE5"/>
<path d="M121.739 112.618L121.969 112.95L136.459 133.578L136.713 133.948L140.66 139.561L140.8 139.752L153.393 157.676L153.406 157.701L173.931 186.915L174.25 187.348L174.734 188.05L175.192 187.986L174.708 187.297L173.995 186.277L153.737 157.459L153.368 156.923L122.236 112.631L122.07 112.389L121.739 112.618Z" fill="white"/>
<path d="M126.041 132.761L125.891 133.085L140.696 139.974L140.846 139.65L126.041 132.761Z" fill="white"/>
<path d="M125.193 128.333L125.043 128.657L136.65 134.055L136.8 133.731L125.193 128.333Z" fill="white"/>
<path d="M152.749 131.911L152.392 131.925L153.394 157.688L153.75 157.674L152.749 131.911Z" fill="white"/>
<path d="M176.593 191.877C176.593 191.877 165.235 199.812 145.906 192.298L151.14 188.624L141.908 190.576C134.268 186.94 125.483 180.893 115.806 171.198L117.805 169.795L115.004 170.382C113.374 168.723 111.706 166.963 110.025 165.087C114.16 164.12 118.376 163.54 122.618 163.352L127.278 167.843L125.394 163.263C140.851 162.995 164.14 167.18 176.593 191.877Z" fill="#BAC8F3"/>
<path d="M110.079 164.905L109.94 165.275L177.253 190.745L177.392 190.375L110.079 164.905Z" fill="white"/>
<path d="M127.521 171.685L118.908 174.078L119.007 174.435L127.62 172.041L127.521 171.685Z" fill="white"/>
<path d="M132.092 173.335L122.179 176.895L122.304 177.243L132.216 173.683L132.092 173.335Z" fill="white"/>
<path d="M158.346 171.76L158.601 171.364C152.374 167.545 145.447 165.012 138.228 163.914L138.152 164.373C145.306 165.469 152.171 167.979 158.346 171.76Z" fill="#2E4882"/>
<path d="M179.088 203.371H166.355C164.392 203.373 162.502 202.618 161.08 201.262C159.657 199.905 158.811 198.052 158.716 196.087L151.662 71.171C151.627 70.1446 151.8 69.1218 152.168 68.1635C152.537 67.2052 153.094 66.331 153.807 65.593C154.52 64.855 155.374 64.2683 156.318 63.8678C157.262 63.4673 158.276 63.2611 159.301 63.2617H173.919L179.088 203.371Z" fill="#446BD0"/>
<path d="M241.671 71.171L237.927 196.087C237.832 198.052 236.986 199.905 235.563 201.262C234.14 202.618 232.251 203.373 230.287 203.371H174.263C170.137 203.371 165.273 200.156 165.108 196.087L161.377 71.171C161.343 70.1445 161.515 69.1217 161.884 68.1634C162.252 67.2051 162.81 66.3309 163.522 65.5929C164.235 64.8549 165.089 64.2682 166.033 63.8677C166.977 63.4672 167.992 63.2611 169.017 63.2617H233.954C234.986 63.2507 236.009 63.4492 236.962 63.8451C237.915 64.241 238.777 64.8262 239.498 65.5652C240.22 66.3043 240.784 67.182 241.157 68.1454C241.53 69.1089 241.705 70.1381 241.671 71.171Z" fill="#DCE8FF"/>
<path d="M176.796 71.898H173.791C173.594 71.8963 173.399 71.9341 173.216 72.0093C173.034 72.0845 172.868 72.1955 172.73 72.3358C172.591 72.4761 172.481 72.6429 172.408 72.8262C172.334 73.0096 172.298 73.2058 172.302 73.4033C172.302 73.7992 172.459 74.1788 172.738 74.4587C173.017 74.7386 173.396 74.8959 173.791 74.8959H228.785C228.981 74.8975 229.175 74.86 229.357 74.7855C229.538 74.711 229.703 74.6011 229.842 74.4622C229.983 74.3248 230.096 74.1602 230.172 73.9783C230.249 73.7963 230.288 73.6008 230.287 73.4033C230.287 73.0041 230.129 72.6212 229.847 72.3389C229.565 72.0566 229.183 71.898 228.785 71.898H176.796Z" fill="#3F5A9F"/>
<path d="M228.174 121.051H174.823C174.335 121.048 173.867 120.856 173.516 120.517C173.165 120.177 172.958 119.715 172.938 119.226L171.665 84.4637C171.655 84.2077 171.696 83.9523 171.787 83.7127C171.878 83.4732 172.016 83.2545 172.193 83.0698C172.37 82.8852 172.583 82.7383 172.818 82.638C173.053 82.5377 173.307 82.4861 173.562 82.4863H229.587C229.843 82.4861 230.096 82.5377 230.331 82.638C230.566 82.7383 230.779 82.8852 230.956 83.0698C231.134 83.2545 231.272 83.4732 231.362 83.7127C231.453 83.9523 231.495 84.2077 231.484 84.4637L230.211 119.226C230.201 119.482 230.141 119.732 230.032 119.964C229.923 120.195 229.77 120.402 229.579 120.572C229.389 120.743 229.167 120.873 228.925 120.955C228.684 121.037 228.428 121.07 228.174 121.051Z" fill="white"/>
<path d="M188.116 135.517H179.865C178.416 135.517 177.242 136.694 177.242 138.145V141.908C177.242 143.36 178.416 144.536 179.865 144.536H188.116C189.565 144.536 190.739 143.36 190.739 141.908V138.145C190.739 136.694 189.565 135.517 188.116 135.517Z" fill="#647CE2"/>
<path d="M188.116 150.226H179.865C178.416 150.226 177.242 151.402 177.242 152.854V156.617C177.242 158.068 178.416 159.245 179.865 159.245H188.116C189.565 159.245 190.739 158.068 190.739 156.617V152.854C190.739 151.402 189.565 150.226 188.116 150.226Z" fill="#647CE2"/>
<path d="M188.116 164.947H179.865C178.416 164.947 177.242 166.124 177.242 167.575V171.338C177.242 172.79 178.416 173.966 179.865 173.966H188.116C189.565 173.966 190.739 172.79 190.739 171.338V167.575C190.739 166.124 189.565 164.947 188.116 164.947Z" fill="#647CE2"/>
<path d="M188.116 179.656H179.865C178.416 179.656 177.242 180.832 177.242 182.284V186.047C177.242 187.498 178.416 188.675 179.865 188.675H188.116C189.565 188.675 190.739 187.498 190.739 186.047V182.284C190.739 180.832 189.565 179.656 188.116 179.656Z" fill="#3F5A9F"/>
<path d="M205.254 135.517H197.004C195.555 135.517 194.381 136.694 194.381 138.145V141.908C194.381 143.36 195.555 144.536 197.004 144.536H205.254C206.703 144.536 207.877 143.36 207.877 141.908V138.145C207.877 136.694 206.703 135.517 205.254 135.517Z" fill="#647CE2"/>
<path d="M205.254 150.226H197.004C195.555 150.226 194.381 151.402 194.381 152.854V156.617C194.381 158.068 195.555 159.245 197.004 159.245H205.254C206.703 159.245 207.877 158.068 207.877 156.617V152.854C207.877 151.402 206.703 150.226 205.254 150.226Z" fill="#647CE2"/>
<path d="M205.254 164.947H197.004C195.555 164.947 194.381 166.124 194.381 167.575V171.338C194.381 172.79 195.555 173.966 197.004 173.966H205.254C206.703 173.966 207.877 172.79 207.877 171.338V167.575C207.877 166.124 206.703 164.947 205.254 164.947Z" fill="#647CE2"/>
<path d="M205.254 179.656H197.004C195.555 179.656 194.381 180.832 194.381 182.284V186.047C194.381 187.498 195.555 188.675 197.004 188.675H205.254C206.703 188.675 207.877 187.498 207.877 186.047V182.284C207.877 180.832 206.703 179.656 205.254 179.656Z" fill="#647CE2"/>
<path d="M222.393 135.517H214.142C212.693 135.517 211.519 136.694 211.519 138.145V141.908C211.519 143.36 212.693 144.536 214.142 144.536H222.393C223.842 144.536 225.016 143.36 225.016 141.908V138.145C225.016 136.694 223.842 135.517 222.393 135.517Z" fill="#647CE2"/>
<path d="M222.393 150.226H214.142C212.693 150.226 211.519 151.402 211.519 152.854V156.617C211.519 158.068 212.693 159.245 214.142 159.245H222.393C223.842 159.245 225.016 158.068 225.016 156.617V152.854C225.016 151.402 223.842 150.226 222.393 150.226Z" fill="#647CE2"/>
<path d="M222.393 164.947H214.142C212.693 164.947 211.519 166.124 211.519 167.575V171.338C211.519 172.79 212.693 173.966 214.142 173.966H222.393C223.842 173.966 225.016 172.79 225.016 171.338V167.575C225.016 166.124 223.842 164.947 222.393 164.947Z" fill="#647CE2"/>
<path d="M222.393 179.656H214.142C212.693 179.656 211.519 180.832 211.519 182.284V186.047C211.519 187.498 212.693 188.675 214.142 188.675H222.393C223.842 188.675 225.016 187.498 225.016 186.047V182.284C225.016 180.832 223.842 179.656 222.393 179.656Z" fill="#3F5A9F"/>
<path d="M190.573 135.517H182.322C180.874 135.517 179.7 136.694 179.7 138.145V141.908C179.7 143.36 180.874 144.536 182.322 144.536H190.573C192.022 144.536 193.196 143.36 193.196 141.908V138.145C193.196 136.694 192.022 135.517 190.573 135.517Z" fill="#6D92F0"/>
<path d="M190.573 150.226H182.322C180.874 150.226 179.7 151.402 179.7 152.854V156.617C179.7 158.068 180.874 159.245 182.322 159.245H190.573C192.022 159.245 193.196 158.068 193.196 156.617V152.854C193.196 151.402 192.022 150.226 190.573 150.226Z" fill="#6D92F0"/>
<path d="M190.573 164.947H182.322C180.874 164.947 179.7 166.124 179.7 167.575V171.338C179.7 172.79 180.874 173.966 182.322 173.966H190.573C192.022 173.966 193.196 172.79 193.196 171.338V167.575C193.196 166.124 192.022 164.947 190.573 164.947Z" fill="#6D92F0"/>
<path d="M190.573 179.656H182.322C180.874 179.656 179.7 180.832 179.7 182.284V186.047C179.7 187.498 180.874 188.675 182.322 188.675H190.573C192.022 188.675 193.196 187.498 193.196 186.047V182.284C193.196 180.832 192.022 179.656 190.573 179.656Z" fill="#3F5A9F"/>
<path d="M207.699 135.517H199.448C198 135.517 196.825 136.694 196.825 138.145V141.908C196.825 143.36 198 144.536 199.448 144.536H207.699C209.148 144.536 210.322 143.36 210.322 141.908V138.145C210.322 136.694 209.148 135.517 207.699 135.517Z" fill="#6D92F0"/>
<path d="M207.699 150.226H199.448C198 150.226 196.825 151.402 196.825 152.854V156.617C196.825 158.068 198 159.245 199.448 159.245H207.699C209.148 159.245 210.322 158.068 210.322 156.617V152.854C210.322 151.402 209.148 150.226 207.699 150.226Z" fill="#6D92F0"/>
<path d="M207.699 164.947H199.448C198 164.947 196.825 166.124 196.825 167.575V171.338C196.825 172.79 198 173.966 199.448 173.966H207.699C209.148 173.966 210.322 172.79 210.322 171.338V167.575C210.322 166.124 209.148 164.947 207.699 164.947Z" fill="#6D92F0"/>
<path d="M207.699 179.656H199.448C198 179.656 196.825 180.832 196.825 182.284V186.047C196.825 187.498 198 188.675 199.448 188.675H207.699C209.148 188.675 210.322 187.498 210.322 186.047V182.284C210.322 180.832 209.148 179.656 207.699 179.656Z" fill="#6D92F0"/>
<path d="M224.838 135.517H216.587C215.138 135.517 213.964 136.694 213.964 138.145V141.908C213.964 143.36 215.138 144.536 216.587 144.536H224.838C226.286 144.536 227.461 143.36 227.461 141.908V138.145C227.461 136.694 226.286 135.517 224.838 135.517Z" fill="#6D92F0"/>
<path d="M224.838 150.226H216.587C215.138 150.226 213.964 151.402 213.964 152.854V156.617C213.964 158.068 215.138 159.245 216.587 159.245H224.838C226.286 159.245 227.461 158.068 227.461 156.617V152.854C227.461 151.402 226.286 150.226 224.838 150.226Z" fill="#6D92F0"/>
<path d="M224.838 164.947H216.587C215.138 164.947 213.964 166.124 213.964 167.575V171.338C213.964 172.79 215.138 173.966 216.587 173.966H224.838C226.286 173.966 227.461 172.79 227.461 171.338V167.575C227.461 166.124 226.286 164.947 224.838 164.947Z" fill="#6D92F0"/>
<path d="M224.838 179.656H216.587C215.138 179.656 213.964 180.832 213.964 182.284V186.047C213.964 187.498 215.138 188.675 216.587 188.675H224.838C226.286 188.675 227.461 187.498 227.461 186.047V182.284C227.461 180.832 226.286 179.656 224.838 179.656Z" fill="#3F5A9F"/>
<path d="M190.573 144.778H182.322C181.563 144.778 180.834 144.476 180.297 143.938C179.759 143.399 179.458 142.669 179.458 141.908V138.145C179.458 137.383 179.759 136.653 180.297 136.115C180.834 135.577 181.563 135.274 182.322 135.274H190.573C191.333 135.274 192.062 135.577 192.599 136.115C193.136 136.653 193.438 137.383 193.438 138.145V141.908C193.438 142.669 193.136 143.399 192.599 143.938C192.062 144.476 191.333 144.778 190.573 144.778ZM182.322 135.759C181.691 135.759 181.085 136.011 180.639 136.458C180.192 136.905 179.941 137.512 179.941 138.145V141.908C179.941 142.541 180.192 143.147 180.639 143.595C181.085 144.042 181.691 144.294 182.322 144.294H190.573C191.205 144.294 191.811 144.042 192.257 143.595C192.704 143.147 192.954 142.541 192.954 141.908V138.145C192.954 137.512 192.704 136.905 192.257 136.458C191.811 136.011 191.205 135.759 190.573 135.759H182.322Z" fill="white"/>
<path d="M190.573 159.525H182.322C181.563 159.525 180.834 159.223 180.297 158.685C179.759 158.146 179.458 157.416 179.458 156.655V152.905C179.458 152.142 179.759 151.411 180.296 150.87C180.833 150.33 181.561 150.025 182.322 150.021H190.573C191.334 150.025 192.063 150.33 192.6 150.87C193.137 151.411 193.438 152.142 193.438 152.905V156.655C193.438 157.416 193.136 158.146 192.599 158.685C192.062 159.223 191.333 159.525 190.573 159.525ZM182.322 150.519C181.691 150.519 181.085 150.77 180.639 151.218C180.192 151.665 179.941 152.272 179.941 152.905V156.655C179.941 157.288 180.192 157.895 180.639 158.342C181.085 158.789 181.691 159.041 182.322 159.041H190.573C191.205 159.041 191.811 158.789 192.257 158.342C192.704 157.895 192.954 157.288 192.954 156.655V152.905C192.954 152.272 192.704 151.665 192.257 151.218C191.811 150.77 191.205 150.519 190.573 150.519H182.322Z" fill="white"/>
<path d="M190.573 174.209H182.322C181.561 174.205 180.833 173.9 180.296 173.36C179.759 172.819 179.458 172.088 179.458 171.325V167.575C179.458 166.814 179.759 166.084 180.297 165.545C180.834 165.007 181.563 164.705 182.322 164.705H190.573C191.333 164.705 192.062 165.007 192.599 165.545C193.136 166.084 193.438 166.814 193.438 167.575V171.325C193.438 172.088 193.137 172.819 192.6 173.36C192.063 173.9 191.334 174.205 190.573 174.209ZM182.322 165.189C181.691 165.189 181.085 165.441 180.639 165.888C180.192 166.335 179.941 166.942 179.941 167.575V171.325C179.941 171.958 180.192 172.565 180.639 173.012C181.085 173.46 181.691 173.711 182.322 173.711H190.573C191.205 173.711 191.811 173.46 192.257 173.012C192.704 172.565 192.954 171.958 192.954 171.325V167.575C192.954 166.942 192.704 166.335 192.257 165.888C191.811 165.441 191.205 165.189 190.573 165.189H182.322Z" fill="white"/>
<path d="M190.573 188.866H182.322C181.563 188.866 180.834 188.564 180.297 188.026C179.759 187.487 179.458 186.757 179.458 185.996V182.233C179.458 181.471 179.759 180.741 180.297 180.203C180.834 179.665 181.563 179.362 182.322 179.362H190.573C191.333 179.362 192.062 179.665 192.599 180.203C193.136 180.741 193.438 181.471 193.438 182.233V185.996C193.438 186.757 193.136 187.487 192.599 188.026C192.062 188.564 191.333 188.866 190.573 188.866ZM182.322 179.936C181.691 179.936 181.085 180.188 180.639 180.635C180.192 181.082 179.941 181.689 179.941 182.322V186.085C179.941 186.398 180.003 186.709 180.123 186.998C180.242 187.288 180.418 187.551 180.639 187.772C180.86 187.994 181.122 188.169 181.411 188.289C181.7 188.409 182.01 188.471 182.322 188.471H190.573C190.886 188.471 191.196 188.409 191.485 188.289C191.773 188.169 192.036 187.994 192.257 187.772C192.478 187.551 192.654 187.288 192.773 186.998C192.893 186.709 192.954 186.398 192.954 186.085V182.322C192.954 181.689 192.704 181.082 192.257 180.635C191.811 180.188 191.205 179.936 190.573 179.936H182.322Z" fill="white"/>
<path d="M207.686 144.778H199.436C198.675 144.778 197.945 144.476 197.405 143.938C196.866 143.4 196.561 142.67 196.558 141.908V138.145C196.561 137.382 196.866 136.652 197.405 136.114C197.945 135.576 198.675 135.274 199.436 135.274H207.686C208.446 135.274 209.175 135.577 209.712 136.115C210.25 136.653 210.551 137.383 210.551 138.145V141.908C210.551 142.669 210.25 143.399 209.712 143.938C209.175 144.476 208.446 144.778 207.686 144.778ZM199.436 135.759C198.804 135.759 198.198 136.011 197.752 136.458C197.305 136.905 197.054 137.512 197.054 138.145V141.908C197.054 142.541 197.305 143.147 197.752 143.595C198.198 144.042 198.804 144.294 199.436 144.294H207.686C208.316 144.29 208.918 144.037 209.362 143.59C209.806 143.143 210.055 142.538 210.055 141.908V138.145C210.055 137.514 209.806 136.909 209.362 136.462C208.918 136.015 208.316 135.763 207.686 135.759H199.436Z" fill="white"/>
<path d="M207.686 159.525H199.436C198.675 159.525 197.945 159.223 197.405 158.685C196.866 158.148 196.561 157.418 196.558 156.655V152.905C196.558 152.14 196.861 151.407 197.401 150.866C197.94 150.325 198.672 150.021 199.436 150.021H207.686C208.447 150.025 209.176 150.33 209.713 150.87C210.25 151.411 210.551 152.142 210.551 152.905V156.655C210.551 157.416 210.25 158.146 209.712 158.685C209.175 159.223 208.446 159.525 207.686 159.525ZM199.436 150.519C198.804 150.519 198.198 150.77 197.752 151.218C197.305 151.665 197.054 152.272 197.054 152.905V156.655C197.054 157.288 197.305 157.895 197.752 158.342C198.198 158.789 198.804 159.041 199.436 159.041H207.686C208.316 159.037 208.918 158.784 209.362 158.337C209.806 157.89 210.055 157.286 210.055 156.655V152.905C210.055 152.274 209.806 151.669 209.362 151.222C208.918 150.775 208.316 150.522 207.686 150.519H199.436Z" fill="white"/>
<path d="M207.686 174.209H199.436C198.672 174.209 197.94 173.905 197.401 173.364C196.861 172.823 196.558 172.09 196.558 171.325V167.575C196.561 166.812 196.866 166.082 197.405 165.545C197.945 165.007 198.675 164.705 199.436 164.705H207.686C208.446 164.705 209.175 165.007 209.712 165.545C210.25 166.084 210.551 166.814 210.551 167.575V171.325C210.551 172.088 210.25 172.819 209.713 173.36C209.176 173.9 208.447 174.205 207.686 174.209ZM199.436 165.189C198.804 165.189 198.198 165.441 197.752 165.888C197.305 166.335 197.054 166.942 197.054 167.575V171.325C197.054 171.958 197.305 172.565 197.752 173.012C198.198 173.46 198.804 173.711 199.436 173.711H207.686C207.999 173.711 208.308 173.649 208.596 173.529C208.884 173.409 209.146 173.233 209.366 173.012C209.586 172.79 209.76 172.527 209.878 172.237C209.996 171.948 210.056 171.638 210.055 171.325V167.575C210.055 166.944 209.806 166.34 209.362 165.893C208.918 165.446 208.316 165.193 207.686 165.189H199.436Z" fill="white"/>
<path d="M207.686 188.866H199.436C198.675 188.866 197.945 188.564 197.405 188.026C196.866 187.488 196.561 186.758 196.558 185.996V182.233C196.561 181.47 196.866 180.74 197.405 180.202C197.945 179.664 198.675 179.362 199.436 179.362H207.686C208.446 179.362 209.175 179.665 209.712 180.203C210.25 180.741 210.551 181.471 210.551 182.233V185.996C210.551 186.757 210.25 187.487 209.712 188.026C209.175 188.564 208.446 188.866 207.686 188.866ZM199.461 179.936C198.829 179.936 198.224 180.188 197.777 180.635C197.331 181.082 197.08 181.689 197.08 182.322V186.085C197.08 186.398 197.142 186.709 197.261 186.998C197.381 187.288 197.556 187.551 197.777 187.772C197.998 187.994 198.261 188.169 198.55 188.289C198.839 188.409 199.148 188.471 199.461 188.471H207.686C208.316 188.467 208.918 188.215 209.362 187.768C209.806 187.321 210.055 186.716 210.055 186.085V182.322C210.055 181.691 209.806 181.087 209.362 180.64C208.918 180.193 208.316 179.94 207.686 179.936H199.461Z" fill="white"/>
<path d="M224.838 144.778H216.599C215.84 144.778 215.111 144.476 214.574 143.938C214.036 143.399 213.735 142.669 213.735 141.908V138.145C213.738 137.386 214.041 136.659 214.578 136.123C215.115 135.588 215.842 135.287 216.599 135.287H224.85C225.61 135.287 226.339 135.59 226.876 136.128C227.413 136.666 227.715 137.396 227.715 138.157V141.921C227.714 142.298 227.638 142.671 227.492 143.018C227.347 143.366 227.134 143.681 226.867 143.947C226.6 144.212 226.283 144.422 225.935 144.565C225.587 144.707 225.214 144.78 224.838 144.778ZM216.599 135.759C215.968 135.759 215.362 136.01 214.916 136.458C214.469 136.905 214.218 137.512 214.218 138.145V141.908C214.218 142.541 214.469 143.147 214.916 143.595C215.362 144.042 215.968 144.294 216.599 144.294H224.85C225.482 144.294 226.087 144.042 226.534 143.595C226.981 143.147 227.231 142.541 227.231 141.908V138.145C227.231 137.512 226.981 136.905 226.534 136.458C226.087 136.01 225.482 135.759 224.85 135.759H216.599Z" fill="white"/>
<path d="M224.838 159.525H216.599C215.84 159.525 215.111 159.223 214.574 158.685C214.036 158.146 213.735 157.416 213.735 156.655V152.905C213.735 152.142 214.036 151.411 214.573 150.87C215.11 150.33 215.838 150.025 216.599 150.021H224.85C225.611 150.025 226.34 150.33 226.877 150.87C227.414 151.411 227.715 152.142 227.715 152.905V156.655C227.715 157.033 227.641 157.407 227.496 157.756C227.351 158.106 227.139 158.423 226.872 158.689C226.604 158.956 226.287 159.167 225.938 159.311C225.589 159.454 225.215 159.527 224.838 159.525ZM216.599 150.481C215.968 150.481 215.362 150.732 214.916 151.179C214.469 151.627 214.218 152.234 214.218 152.866V156.617C214.218 157.25 214.469 157.856 214.916 158.304C215.362 158.751 215.968 159.002 216.599 159.002H224.85C225.482 159.002 226.087 158.751 226.534 158.304C226.981 157.856 227.231 157.25 227.231 156.617V152.866C227.231 152.234 226.981 151.627 226.534 151.179C226.087 150.732 225.482 150.481 224.85 150.481H216.599Z" fill="white"/>
<path d="M224.838 174.209H216.599C215.838 174.205 215.11 173.9 214.573 173.36C214.036 172.819 213.735 172.088 213.735 171.325V167.575C213.735 166.814 214.036 166.084 214.574 165.545C215.111 165.007 215.84 164.705 216.599 164.705H224.85C225.61 164.705 226.339 165.007 226.876 165.545C227.413 166.084 227.715 166.814 227.715 167.575V171.325C227.715 172.09 227.412 172.823 226.872 173.364C226.333 173.905 225.601 174.209 224.838 174.209ZM216.599 165.189C215.968 165.189 215.362 165.441 214.916 165.888C214.469 166.335 214.218 166.942 214.218 167.575V171.325C214.218 171.958 214.469 172.565 214.916 173.012C215.362 173.46 215.968 173.711 216.599 173.711H224.85C225.482 173.711 226.087 173.46 226.534 173.012C226.981 172.565 227.231 171.958 227.231 171.325V167.575C227.231 166.942 226.981 166.335 226.534 165.888C226.087 165.441 225.482 165.189 224.85 165.189H216.599Z" fill="white"/>
<path d="M224.838 188.866H216.599C215.84 188.866 215.111 188.564 214.574 188.026C214.036 187.487 213.735 186.757 213.735 185.996V182.233C213.735 181.471 214.036 180.741 214.574 180.203C215.111 179.665 215.84 179.362 216.599 179.362H224.85C225.61 179.362 226.339 179.665 226.876 180.203C227.413 180.741 227.715 181.471 227.715 182.233V185.996C227.715 186.374 227.641 186.748 227.496 187.097C227.351 187.446 227.139 187.763 226.872 188.03C226.604 188.297 226.287 188.508 225.938 188.651C225.589 188.795 225.215 188.868 224.838 188.866ZM216.599 179.936C215.968 179.936 215.362 180.188 214.916 180.635C214.469 181.082 214.218 181.689 214.218 182.322V186.085C214.218 186.398 214.28 186.709 214.4 186.998C214.519 187.288 214.695 187.551 214.916 187.772C215.137 187.994 215.399 188.169 215.688 188.289C215.977 188.409 216.287 188.471 216.599 188.471H224.85C225.163 188.471 225.473 188.409 225.762 188.289C226.05 188.169 226.313 187.994 226.534 187.772C226.755 187.551 226.931 187.288 227.05 186.998C227.17 186.709 227.231 186.398 227.231 186.085V182.322C227.231 181.689 226.981 181.082 226.534 180.635C226.087 180.188 225.482 179.936 224.85 179.936H216.599Z" fill="white"/>
<path d="M223.437 203.703H174.224C169.984 203.703 164.917 200.386 164.738 196.049L161.008 71.1328C160.962 70.071 161.132 69.0109 161.508 68.0173C161.885 67.0237 162.46 66.1175 163.198 65.3539C163.948 64.5662 164.852 63.9404 165.852 63.5148C166.853 63.0893 167.93 62.8729 169.017 62.879H233.954C235.043 62.8734 236.122 63.09 237.124 63.5154C238.127 63.9409 239.033 64.5664 239.786 65.3539C240.524 66.1175 241.099 67.0237 241.475 68.0173C241.852 69.0109 242.022 70.071 241.976 71.1328L241.772 77.945H241.11L241.314 71.12C241.359 70.1476 241.205 69.1762 240.861 68.2657C240.517 67.3552 239.991 66.5249 239.315 65.8259C238.622 65.1028 237.789 64.5285 236.868 64.1381C235.946 63.7477 234.955 63.5494 233.954 63.5551H169.017C168.018 63.5481 167.028 63.746 166.108 64.1365C165.189 64.527 164.358 65.1019 163.669 65.8259C162.993 66.526 162.467 67.3562 162.121 68.2662C161.775 69.1762 161.617 70.1471 161.657 71.12L165.4 196.036C165.566 199.965 170.277 203.014 174.224 203.014H223.437V203.703Z" fill="#3F5A9F"/>
<path d="M240.557 97.1745L238.393 169.806L239.055 169.825L241.219 97.1943L240.557 97.1745Z" fill="#3F5A9F"/>
<path d="M225.767 47.8643V74.8962H176.86V47.8643C176.742 46.0555 175.936 44.3611 174.606 43.1314C173.27 41.8884 171.515 41.196 169.691 41.1924H218.599C220.422 41.196 222.177 41.8884 223.513 43.1314C224.843 44.3611 225.65 46.0555 225.767 47.8643Z" fill="white"/>
<path d="M176.86 47.8638H162.51C162.627 46.0522 163.439 44.3562 164.777 43.131C166.111 41.8846 167.867 41.1914 169.691 41.1914C171.516 41.1914 173.272 41.8846 174.606 43.131C175.936 44.3607 176.742 46.055 176.86 47.8638Z" fill="#2E4882"/>
<path d="M225.984 75.1127H176.644V47.8639C176.52 46.1177 175.737 44.4844 174.454 43.2969C173.162 42.0855 171.46 41.4107 169.691 41.4089V40.9751H218.599C220.486 40.9716 222.305 41.6824 223.692 42.9652C225.06 44.2362 225.89 45.9852 226.009 47.8511L225.984 75.1127ZM177.127 74.6789H225.513V47.8894C225.398 46.1374 224.613 44.4971 223.322 43.3096C222.031 42.0983 220.329 41.4235 218.56 41.4216H172.2C173.143 41.7677 174.008 42.2966 174.746 42.9779C176.111 44.2521 176.94 45.9992 177.064 47.8639L177.127 74.6789Z" fill="#2E4882"/>
<path d="M228.785 75.1253H173.791C173.338 75.122 172.904 74.939 172.584 74.6164C172.265 74.2938 172.085 73.8577 172.085 73.4032C172.079 73.1681 172.119 72.9341 172.205 72.715C172.29 72.4959 172.418 72.2961 172.582 72.1275C172.902 71.8038 173.337 71.6203 173.791 71.6172H176.796V72.0637H173.791C173.457 72.0651 173.137 72.198 172.9 72.4336C172.778 72.5533 172.682 72.6962 172.616 72.854C172.55 73.0118 172.517 73.1812 172.518 73.3521C172.518 73.6905 172.652 74.0149 172.891 74.2542C173.13 74.4934 173.454 74.6278 173.791 74.6278H228.785C228.952 74.6288 229.119 74.5966 229.274 74.5331C229.429 74.4697 229.57 74.3761 229.689 74.2579C229.873 74.0802 229.999 73.8511 230.052 73.6005C230.104 73.3498 230.08 73.0892 229.982 72.8525C229.885 72.6157 229.718 72.4139 229.505 72.2733C229.291 72.1326 229.04 72.0595 228.785 72.0637H225.793V71.6172H228.785C229.012 71.6172 229.236 71.6622 229.446 71.7495C229.655 71.8368 229.845 71.9648 230.005 72.1261C230.165 72.2874 230.291 72.4788 230.377 72.6892C230.462 72.8996 230.506 73.1249 230.504 73.3521C230.505 73.5769 230.461 73.7997 230.376 74.0076C230.291 74.2156 230.165 74.4047 230.007 74.564C229.852 74.7351 229.663 74.873 229.453 74.9694C229.243 75.0658 229.016 75.1189 228.785 75.1253Z" fill="#2E4882"/>
<path d="M230.873 205.272C230.873 206.547 239.786 207.479 250.749 207.479C261.712 207.479 270.638 206.496 270.638 205.272C270.643 205.251 270.643 205.229 270.638 205.208V199.263H230.886V205.195C230.876 205.219 230.871 205.246 230.873 205.272Z" fill="#F49B51"/>
<path d="M250.749 201.521C261.726 201.521 270.625 200.533 270.625 199.314C270.625 198.096 261.726 197.107 250.749 197.107C239.772 197.107 230.873 198.096 230.873 199.314C230.873 200.533 239.772 201.521 250.749 201.521Z" fill="#FCC659"/>
<path d="M226.175 198.09C226.175 199.366 235.088 200.297 246.063 200.297C257.039 200.297 265.939 199.302 265.939 198.09V192.132H226.187V198.077C226.183 198.081 226.179 198.085 226.175 198.09Z" fill="#F49B51"/>
<path d="M246.051 194.339C257.028 194.339 265.927 193.351 265.927 192.132C265.927 190.913 257.028 189.925 246.051 189.925C235.073 189.925 226.175 190.913 226.175 192.132C226.175 193.351 235.073 194.339 246.051 194.339Z" fill="#FCC659"/>
<path d="M230.873 190.908C230.873 192.183 239.786 193.115 250.749 193.115C261.712 193.115 270.638 192.12 270.638 190.908V184.95H230.886V190.895C230.881 190.899 230.877 190.903 230.873 190.908Z" fill="#F49B51"/>
<path d="M250.749 187.144C261.726 187.144 270.625 186.156 270.625 184.937C270.625 183.719 261.726 182.73 250.749 182.73C239.772 182.73 230.873 183.719 230.873 184.937C230.873 186.156 239.772 187.144 250.749 187.144Z" fill="#FCC659"/>
<path d="M250.749 207.709C258.835 207.709 270.867 207.071 270.867 205.272H270.396C270.396 205.961 263.648 207.249 250.749 207.249H249.361V207.721L250.749 207.709Z" fill="#2E4882"/>
<path d="M242.867 207.53V207.058C240.856 206.969 239.048 206.841 237.38 206.675V207.135C238.997 207.3 240.792 207.441 242.867 207.53Z" fill="#2E4882"/>
<path d="M258.618 200.003C266.08 199.314 266.08 198.37 266.08 198.064H265.621C265.621 198.294 264.348 199.008 258.567 199.531L258.618 200.003Z" fill="#2E4882"/>
<path d="M245.949 200.501C248.19 200.501 250.38 200.501 252.481 200.386V199.914C248.75 200.054 244.612 200.067 240.754 199.914V200.386C242.422 200.475 244.192 200.501 245.949 200.501Z" fill="#2E4882"/>
<path d="M235.788 200.195V199.723C233.674 199.582 231.815 199.404 230.287 199.187V199.659C231.79 199.876 233.649 200.054 235.788 200.195Z" fill="#2E4882"/>
<path d="M264.119 186.825C270.753 186.137 270.753 185.282 270.753 184.963H270.281C270.281 184.963 270.116 185.741 264.08 186.353L264.119 186.825Z" fill="#2E4882"/>
<path d="M250.634 187.399C252.914 187.399 255.155 187.399 257.281 187.272V186.812C255.167 186.889 252.939 186.927 250.66 186.927C246.573 186.927 242.664 186.8 239.328 186.544V187.004C242.613 187.272 246.547 187.399 250.634 187.399Z" fill="#2E4882"/>
<path d="M223.832 183.763C223.832 184.975 232.745 185.97 243.708 185.97C254.671 185.97 263.584 184.975 263.584 183.763V177.742H223.844V183.687C223.834 183.711 223.83 183.737 223.832 183.763Z" fill="#F49B51"/>
<path d="M243.708 179.962C254.685 179.962 263.584 178.974 263.584 177.755C263.584 176.536 254.685 175.548 243.708 175.548C232.731 175.548 223.832 176.536 223.832 177.755C223.832 178.974 232.731 179.962 243.708 179.962Z" fill="#FCC659"/>
<path d="M227.512 177.755C227.512 178.584 234.769 179.235 243.708 179.235C252.646 179.235 259.904 178.584 259.904 177.755C259.904 176.926 252.646 176.275 243.708 176.275C234.769 176.275 227.512 176.939 227.512 177.755Z" fill="#F49B51"/>
<path d="M220.547 53.0815H209.915V54.3955H220.547V53.0815Z" fill="#E1EAFF"/>
<path d="M204.987 53.0815H183.621V54.3955H204.987V53.0815Z" fill="#E1EAFF"/>
<path d="M220.534 58.7842H195.921V60.0981H220.534V58.7842Z" fill="#E1EAFF"/>
<path d="M192.904 58.7842H183.621V60.0981H192.904V58.7842Z" fill="#E1EAFF"/>
<path d="M215.95 64.9326H205.878V66.2466H215.95V64.9326Z" fill="#E1EAFF"/>
<path d="M201.638 64.9326H183.621V66.2466H201.638V64.9326Z" fill="#E1EAFF"/>
<path d="M200.887 120.731H187.556V121.395H200.887V120.731Z" fill="#3F5A9F"/>
<path d="M228.174 121.382H206.057V120.731H228.174C228.58 120.732 228.971 120.573 229.263 120.29C229.556 120.007 229.727 119.621 229.74 119.213L230.899 88.7881H231.548L230.389 119.213C230.376 119.793 230.137 120.345 229.723 120.75C229.308 121.155 228.753 121.382 228.174 121.382Z" fill="#3F5A9F"/>
<path d="M104.919 74.9216C102.306 74.4008 99.5983 74.6677 97.137 75.6886C94.6756 76.7095 92.5717 78.4386 91.091 80.6573C89.6104 82.8761 88.8196 85.4848 88.8186 88.1537C88.8176 90.8227 89.6063 93.432 91.0853 95.6519C92.5642 97.8718 94.6668 99.6025 97.1273 100.625C99.5879 101.648 102.296 101.917 104.909 101.398C107.522 100.879 109.923 99.596 111.808 97.7103C113.693 95.8246 114.978 93.4212 115.5 90.804C115.847 89.0651 115.848 87.2746 115.504 85.5351C115.16 83.7956 114.477 82.141 113.495 80.666C112.512 79.191 111.249 77.9245 109.778 76.9389C108.306 75.9532 106.655 75.2677 104.919 74.9216ZM112.915 90.23C112.499 92.3261 111.476 94.2528 109.972 95.7692C108.469 97.2856 106.553 98.3242 104.464 98.7553C102.374 99.1864 100.205 98.9908 98.2256 98.193C96.2466 97.3952 94.5463 96.0305 93.3374 94.2697C92.1284 92.5088 91.4644 90.43 91.4285 88.2931C91.3925 86.1562 91.9862 84.0561 93.1352 82.2554C94.2842 80.4547 95.9376 79.0334 97.8886 78.1692C99.8396 77.305 102.002 77.0362 104.104 77.3965H104.397C107.166 77.9536 109.609 79.5692 111.209 81.9007C112.808 84.2322 113.439 87.0962 112.966 89.8855C112.961 90.0228 112.944 90.1594 112.915 90.2938V90.23Z" fill="#FCC659"/>
<path d="M112.979 90.0001C112.979 90.1022 112.979 90.1915 112.915 90.2935C112.356 93.1165 110.7 95.6013 108.312 97.2017C105.925 98.8021 103.001 99.387 100.183 98.8279C98.084 98.4053 96.1572 97.3703 94.6446 95.853C93.132 94.3357 92.1012 92.404 91.682 90.301C91.2627 88.1981 91.4737 86.0179 92.2885 84.0348C93.1033 82.0518 94.4853 80.3545 96.2608 79.1567C98.5621 77.6067 101.372 77.0079 104.104 77.4856H104.397C107.172 78.0427 109.62 79.6616 111.223 81.9983C112.825 84.335 113.455 87.2055 112.979 90.0001Z" fill="#F49B51"/>
<path d="M100.208 96.251L100.552 94.2354C99.4748 94.0406 98.4711 93.5555 97.6486 92.8321L98.3617 91.5565C99.1155 92.2615 100.058 92.7314 101.074 92.9087C101.353 92.9973 101.647 93.0271 101.939 92.9964C102.23 92.9657 102.512 92.875 102.766 92.7301C103.021 92.5852 103.243 92.3891 103.418 92.1543C103.594 91.9194 103.719 91.6507 103.786 91.3651C103.977 90.268 103.315 89.4515 101.94 88.5968C100.042 87.4487 98.9474 86.3261 99.2402 84.5784C99.3948 83.7687 99.8436 83.0453 100.5 82.5481C101.156 82.0508 101.973 81.8152 102.793 81.8867L103.137 79.8711L104.41 80.088L104.092 82.0143C104.997 82.1866 105.846 82.5811 106.562 83.1624L105.836 84.4381C105.151 83.8628 104.324 83.4837 103.442 83.341C101.901 83.0731 101.176 83.8895 101.036 84.6932C100.857 85.7265 101.507 86.3771 103.111 87.3849C105.021 88.5841 105.887 89.796 105.581 91.5692C105.421 92.4226 104.951 93.1865 104.262 93.714C103.574 94.2414 102.715 94.4953 101.851 94.4268L101.494 96.4934L100.208 96.251Z" fill="#FCC659"/>
<path d="M112.992 87.2445C112.992 87.1552 112.992 87.0659 112.992 86.9766C112.825 85.4491 112.333 83.9752 111.549 82.6546C110.765 81.3341 109.707 80.1977 108.446 79.3225L108.624 79.0801C109.91 79.9786 110.99 81.1403 111.793 82.4884C112.597 83.8366 113.105 85.3403 113.285 86.9001C113.285 87.0021 113.285 87.1042 113.285 87.1935L112.992 87.2445Z" fill="#2E4882"/>
<path d="M108.37 79.348C106.322 77.9302 103.847 77.2675 101.367 77.4728V77.1794C103.919 76.9664 106.466 77.6473 108.573 79.1057L108.37 79.348Z" fill="#2E4882"/>
<path d="M110.738 95.2559L110.509 95.0646C111.416 93.9886 112.104 92.7447 112.533 91.4033L112.814 91.4926C112.377 92.8724 111.672 94.1517 110.738 95.2559Z" fill="#2E4882"/>
<path d="M112.623 79.7564C111.752 78.6813 110.722 77.7475 109.567 76.9881L109.732 76.7202C110.915 77.4978 111.971 78.453 112.864 79.5523L112.623 79.7564Z" fill="#2E4882"/>
<path d="M107.873 100.627L107.746 100.346C110.92 98.9172 113.411 96.3013 114.686 93.0571C115.962 89.813 115.92 86.1978 114.571 82.9839L114.864 82.8691C116.235 86.1546 116.271 89.8466 114.966 93.1587C113.66 96.4708 111.115 99.1413 107.873 100.601V100.627Z" fill="#2E4882"/>
<path d="M212.563 104.671C211.94 107.064 210.624 109.219 208.78 110.864C206.937 112.509 204.648 113.571 202.204 113.915C199.759 114.259 197.267 113.87 195.043 112.798C192.818 111.725 190.96 110.017 189.703 107.888C188.446 105.76 187.846 103.306 187.979 100.836C188.111 98.3661 188.971 95.9909 190.449 94.0097C191.927 92.0285 193.957 90.5299 196.283 89.7029C198.61 88.8759 201.129 88.7575 203.523 89.3625C205.123 89.767 206.628 90.4849 207.95 91.4748C209.272 92.4647 210.385 93.7071 211.225 95.1302C212.066 96.5533 212.617 98.129 212.846 99.7665C213.076 101.404 212.98 103.071 212.563 104.671Z" fill="#6D92F0"/>
<path d="M199.958 107.949L194.228 102.043L194.852 101.43L199.716 106.444L205.98 93.4443L206.77 93.827L199.958 107.949Z" fill="white"/>
<path d="M93.5359 80.8025C94.7134 81.4047 95.6518 82.3898 96.1971 83.5963C96.7418 82.3862 97.6799 81.3968 98.8583 80.7898C97.6817 80.1925 96.7431 79.2117 96.1971 78.0088C95.6484 79.2131 94.711 80.1971 93.5359 80.8025Z" fill="#FFE6A6"/>
<path d="M104.333 97.9733C104.988 98.3311 105.51 98.8901 105.823 99.568C106.138 98.8653 106.681 98.2899 107.364 97.9351C106.68 97.5884 106.136 97.0163 105.823 96.3149C105.527 97.0202 105.002 97.6046 104.333 97.9733Z" fill="#FFE6A6"/>
</g>
<defs>
<clipPath id="clip0_252_5826">
<rect width="300" height="211.268" fill="white"/>
</clipPath>
</defs>
</svg>
