<svg width="20" height="20" viewBox="0 0 20 20" fill="none" xmlns="http://www.w3.org/2000/svg">
<path d="M9.82607 9.63409C11.1496 9.63409 12.2956 9.15939 13.2321 8.22281C14.1684 7.28638 14.6433 6.14059 14.6433 4.81689C14.6433 3.49365 14.1686 2.34772 13.232 1.41098C12.2954 0.474701 11.1495 0 9.82607 0C8.50237 0 7.35659 0.474701 6.42016 1.41113C5.48373 2.34756 5.00887 3.4935 5.00887 4.81689C5.00887 6.14059 5.48373 7.28653 6.42016 8.22296C7.3569 9.15924 8.50283 9.63409 9.82607 9.63409ZM7.24902 2.23984C7.96755 1.5213 8.81045 1.17203 9.82607 1.17203C10.8415 1.17203 11.6846 1.5213 12.4033 2.23984C13.1218 2.95853 13.4712 3.80157 13.4712 4.81689C13.4712 5.83252 13.1218 6.67542 12.4033 7.3941C11.6846 8.11279 10.8415 8.46207 9.82607 8.46207C8.81075 8.46207 7.96786 8.11264 7.24902 7.3941C6.53033 6.67557 6.1809 5.83252 6.1809 4.81689C6.1809 3.80157 6.53033 2.95853 7.24902 2.23984Z" fill="white" fill-opacity="0.8"/>
<path d="M18.2549 15.379C18.2279 14.9893 18.1732 14.5642 18.0928 14.1153C18.0117 13.663 17.9071 13.2354 17.782 12.8447C17.6526 12.4408 17.477 12.0419 17.2595 11.6597C17.0342 11.2629 16.7693 10.9175 16.472 10.6332C16.1612 10.3358 15.7807 10.0967 15.3406 9.9223C14.9021 9.74881 14.4161 9.66092 13.8962 9.66092C13.692 9.66092 13.4946 9.74469 13.1133 9.99295C12.8786 10.146 12.6041 10.323 12.2977 10.5188C12.0357 10.6857 11.6808 10.8421 11.2424 10.9837C10.8147 11.1221 10.3804 11.1923 9.95165 11.1923C9.52319 11.1923 9.08892 11.1221 8.66091 10.9837C8.22298 10.8423 7.86791 10.6859 7.60638 10.5189C7.30288 10.325 7.02822 10.148 6.79003 9.9928C6.40902 9.74454 6.21157 9.66077 6.00741 9.66077C5.48739 9.66077 5.00155 9.74881 4.56316 9.92245C4.12341 10.0966 3.7427 10.3357 3.43157 10.6334C3.13433 10.9178 2.86944 11.2631 2.64422 11.6597C2.42709 12.0419 2.2513 12.4406 2.12191 12.8448C1.99694 13.2356 1.89242 13.663 1.81124 14.1153C1.73067 14.5636 1.6762 14.9888 1.64919 15.3795C1.62264 15.7614 1.60921 16.1589 1.60921 16.5605C1.60921 17.6045 1.94109 18.4497 2.59554 19.073C3.24191 19.6881 4.09701 20 5.1372 20H14.7673C15.8072 20 16.6623 19.6881 17.3088 19.073C17.9634 18.4501 18.2953 17.6046 18.2953 16.5603C18.2952 16.1573 18.2816 15.7599 18.2549 15.379ZM16.5007 18.2238C16.0736 18.6303 15.5066 18.8279 14.7672 18.8279H5.1372C4.39761 18.8279 3.83059 18.6303 3.40365 18.224C2.98479 17.8253 2.78124 17.281 2.78124 16.5605C2.78124 16.1857 2.7936 15.8157 2.81832 15.4605C2.84243 15.112 2.89172 14.7291 2.96481 14.3223C3.03698 13.9206 3.12884 13.5435 3.23809 13.2022C3.34292 12.8749 3.48589 12.5508 3.6632 12.2386C3.83242 11.941 4.02712 11.6858 4.24197 11.4801C4.44292 11.2877 4.69622 11.1302 4.99468 11.0121C5.27071 10.9028 5.58092 10.843 5.91769 10.834C5.95873 10.8558 6.03182 10.8975 6.15023 10.9747C6.39117 11.1317 6.66888 11.3109 6.97588 11.5069C7.32195 11.7276 7.76781 11.9268 8.3005 12.0988C8.84509 12.2749 9.40051 12.3643 9.95181 12.3643C10.5031 12.3643 11.0587 12.2749 11.603 12.099C12.1361 11.9267 12.5818 11.7276 12.9283 11.5066C13.2425 11.3058 13.5124 11.1319 13.7534 10.9747C13.8718 10.8976 13.9449 10.8558 13.9859 10.834C14.3228 10.843 14.633 10.9028 14.9092 11.0121C15.2075 11.1302 15.4608 11.2878 15.6618 11.4801C15.8766 11.6856 16.0713 11.9409 16.2406 12.2387C16.418 12.5508 16.5611 12.875 16.6658 13.202C16.7752 13.5438 16.8672 13.9207 16.9393 14.3222C17.0122 14.7297 17.0616 15.1127 17.0857 15.4606V15.4609C17.1106 15.8148 17.1231 16.1847 17.1233 16.5605C17.1231 17.2812 16.9196 17.8253 16.5007 18.2238Z" fill="white" fill-opacity="0.8"/>
</svg>
