<svg width="14" height="14" viewBox="0 0 14 14" fill="none" xmlns="http://www.w3.org/2000/svg">
<path d="M7.23715 0.499512C4.47295 0.499512 2.22412 2.74834 2.22412 5.51254C2.22412 6.39734 2.45789 7.26723 2.90014 8.02813C3.00324 8.20553 3.11849 8.37841 3.24274 8.54197L7.01934 13.5948H7.45494L11.2316 8.542C11.3558 8.37841 11.471 8.20556 11.5742 8.02816C12.0164 7.26723 12.2502 6.39734 12.2502 5.51254C12.2502 2.74834 10.0013 0.499512 7.23715 0.499512ZM7.23715 7.17502C6.32046 7.17502 5.57467 6.42923 5.57467 5.51254C5.57467 4.59585 6.32046 3.85006 7.23715 3.85006C8.15384 3.85006 8.89963 4.59585 8.89963 5.51254C8.89963 6.42923 8.15384 7.17502 7.23715 7.17502Z" fill="white"/>
</svg>
