<svg width="20" height="20" viewBox="0 0 20 20" fill="none" xmlns="http://www.w3.org/2000/svg">
<g clip-path="url(#clip0_80_1770)">
<path d="M19.3787 7.40679C18.6504 6.79453 17.5362 6.86746 16.9039 7.62136L16.5239 8.0709L19.2171 10.3306L19.5799 9.88273C20.2039 9.14054 20.125 8.03211 19.3787 7.40679Z" fill="white"/>
<path d="M11.7723 13.6926L11.5718 13.9298C11.3979 14.1381 11.2726 14.387 11.2096 14.6508L10.6649 16.9304C10.6134 17.1461 10.6884 17.3727 10.8583 17.5152C11.0237 17.6542 11.257 17.6946 11.4677 17.6045L13.6186 16.6718C13.8675 16.5636 14.0907 16.3972 14.2647 16.1906L14.4658 15.9526L11.7723 13.6926Z" fill="white"/>
<path d="M15.7675 8.96558L12.5283 12.7982L15.2217 15.0582L18.4607 11.2253L15.7675 8.96558Z" fill="white"/>
<path d="M14.6882 2.5978L12.4624 0.48292C12.2519 0.283428 11.9931 0.165928 11.7202 0.0895996V3.51561H15.1988C15.1261 3.16757 14.9488 2.84515 14.6882 2.5978Z" fill="white"/>
<path d="M10.07 14.3786C10.1747 13.9402 10.3835 13.5254 10.6731 13.1786L15.2358 7.77965V4.6875H11.1343C10.8104 4.6875 10.5483 4.42543 10.5483 4.10156V0H1.75928C0.789981 0 0.00146484 0.788516 0.00146484 1.75781V18.2422C0.00146484 19.2115 0.789981 20 1.75928 20H13.478C14.4473 20 15.2358 19.2115 15.2358 18.2422V16.8571L15.1597 16.9471C14.8719 17.2899 14.5006 17.5662 14.0869 17.7465L11.9342 18.6798C11.3275 18.9418 10.6252 18.849 10.1055 18.4137C9.59221 17.9829 9.36963 17.3105 9.52525 16.6582L10.07 14.3786ZM2.93115 3.51562H8.79053C9.11439 3.51562 9.37646 3.7777 9.37646 4.10156C9.37646 4.42543 9.11439 4.6875 8.79053 4.6875H2.93115C2.60729 4.6875 2.34521 4.42543 2.34521 4.10156C2.34521 3.7777 2.60729 3.51562 2.93115 3.51562ZM2.93115 7.07031H12.3062C12.63 7.07031 12.8921 7.33238 12.8921 7.65625C12.8921 7.98012 12.63 8.24219 12.3062 8.24219H2.93115C2.60729 8.24219 2.34521 7.98012 2.34521 7.65625C2.34521 7.33238 2.60729 7.07031 2.93115 7.07031ZM7.61865 15.2734H2.93115C2.60729 15.2734 2.34521 15.0114 2.34521 14.6875C2.34521 14.3636 2.60729 14.1016 2.93115 14.1016H7.61865C7.94252 14.1016 8.20459 14.3636 8.20459 14.6875C8.20459 15.0114 7.94252 15.2734 7.61865 15.2734ZM2.93115 11.7578C2.60729 11.7578 2.34521 11.4957 2.34521 11.1719C2.34521 10.848 2.60729 10.5859 2.93115 10.5859H9.9624C10.2863 10.5859 10.5483 10.848 10.5483 11.1719C10.5483 11.4957 10.2863 11.7578 9.9624 11.7578H2.93115Z" fill="white"/>
</g>
<defs>
<clipPath id="clip0_80_1770">
<rect width="20" height="20" fill="white"/>
</clipPath>
</defs>
</svg>
