<svg width="50" height="50" viewBox="0 0 50 50" fill="none" xmlns="http://www.w3.org/2000/svg">
<g clip-path="url(#clip0_252_5473)">
<path d="M24.6288 2.67529H47.1929V48.1945H2.80743V2.67529H8.91974" fill="#ECEDF2"/>
<path d="M24.6288 2.67529H47.1929V7.35527H2.80743V2.67529H8.91974" fill="#C6CAD5"/>
<path d="M18.5795 4.44717H47.1929H49.1861C49.6356 4.44717 50 4.08281 50 3.6332V1.71729C50 1.26777 49.6357 0.90332 49.1861 0.90332H20.6777H12.8696H0.81427C0.364758 0.90332 0.000305176 1.26768 0.000305176 1.71729V3.6333C0.000305176 4.08281 0.364661 4.44727 0.81427 4.44727H2.80743H13.5719" fill="#525C66"/>
<path d="M16.7744 19.4465C21.8531 19.4465 25.9703 15.3293 25.9703 10.2506C25.9703 5.17183 21.8531 1.05469 16.7744 1.05469C11.6956 1.05469 7.57849 5.17183 7.57849 10.2506C7.57849 15.3293 11.6956 19.4465 16.7744 19.4465Z" fill="#C6CAD5"/>
<path d="M16.7744 18.426C21.8531 18.426 25.9703 14.3088 25.9703 9.23008C25.9703 4.15132 21.8531 0.0341797 16.7744 0.0341797C11.6956 0.0341797 7.57849 4.15132 7.57849 9.23008C7.57849 14.3088 11.6956 18.426 16.7744 18.426Z" fill="white"/>
<path d="M22.1444 7.42461H18.9866C18.7618 7.42461 18.5795 7.24238 18.5795 7.01748V3.85977C18.5795 3.63496 18.3973 3.45264 18.1724 3.45264H15.3758C15.151 3.45264 14.9687 3.63486 14.9687 3.85977V7.01758C14.9687 7.24238 14.7865 7.42471 14.5615 7.42471H11.4038C11.179 7.42471 10.9967 7.60693 10.9967 7.83184V10.6284C10.9967 10.8532 11.1789 11.0355 11.4038 11.0355H14.5615C14.7864 11.0355 14.9687 11.2178 14.9687 11.4427V14.6004C14.9687 14.8252 15.1509 15.0075 15.3758 15.0075H18.1724C18.3972 15.0075 18.5795 14.8253 18.5795 14.6004V11.4427C18.5795 11.2179 18.7617 11.0355 18.9866 11.0355H22.1444C22.3692 11.0355 22.5515 10.8533 22.5515 10.6284V7.83184C22.5515 7.60693 22.3693 7.42461 22.1444 7.42461Z" fill="#D81616"/>
<path d="M35.6882 21.5127H30.7151V30.5938H35.6882V21.5127Z" fill="#A0D9F2"/>
<path d="M19.2852 21.5127H14.3121V30.5938H19.2852V21.5127Z" fill="#A0D9F2"/>
<path d="M43.8892 21.5127H38.9161V30.5938H43.8892V21.5127Z" fill="#A0D9F2"/>
<path d="M27.4862 21.5127H22.5131V30.5938H27.4862V21.5127Z" fill="#A0D9F2"/>
<path d="M11.0845 21.5127H6.11145V30.5938H11.0845V21.5127Z" fill="#A0D9F2"/>
<path d="M19.2852 33.6797H14.3121V42.7607H19.2852V33.6797Z" fill="#A0D9F2"/>
<path d="M27.4862 33.6797H22.5131V42.7607H27.4862V33.6797Z" fill="#A0D9F2"/>
<path d="M11.0845 33.6797H6.11145V42.7607H11.0845V33.6797Z" fill="#A0D9F2"/>
<path d="M35.6882 9.34424H30.7151V18.4253H35.6882V9.34424Z" fill="#A0D9F2"/>
<path d="M43.8892 9.34424H38.9161V18.4253H43.8892V9.34424Z" fill="#A0D9F2"/>
<path d="M35.6879 31.2059H30.7148C30.3767 31.2059 30.1026 30.9316 30.1026 30.5937V21.5126C30.1026 21.1745 30.3768 20.9004 30.7148 20.9004H35.6879C36.0259 20.9004 36.3001 21.1746 36.3001 21.5126V30.5937C36.3001 30.9317 36.0258 31.2059 35.6879 31.2059ZM31.327 29.9813H35.0755V22.1248H31.327V29.9813Z" fill="white"/>
<path d="M19.2856 31.2059H14.3126C13.9745 31.2059 13.7004 30.9316 13.7004 30.5937V21.5126C13.7004 21.1745 13.9746 20.9004 14.3126 20.9004H19.2856C19.6237 20.9004 19.8978 21.1746 19.8978 21.5126V30.5937C19.8978 30.9317 19.6236 31.2059 19.2856 31.2059ZM14.9248 29.9813H18.6733V22.1248H14.9248V29.9813Z" fill="white"/>
<path d="M43.889 31.2059H38.9159C38.5778 31.2059 38.3037 30.9316 38.3037 30.5937V21.5126C38.3037 21.1745 38.5779 20.9004 38.9159 20.9004H43.889C44.227 20.9004 44.5012 21.1746 44.5012 21.5126V30.5937C44.5012 30.9317 44.227 31.2059 43.889 31.2059ZM39.5281 29.9813H43.2767V22.1248H39.5281V29.9813Z" fill="white"/>
<path d="M27.4867 31.2059H22.5136C22.1755 31.2059 21.9014 30.9316 21.9014 30.5937V21.5126C21.9014 21.1745 22.1756 20.9004 22.5136 20.9004H27.4867C27.8248 20.9004 28.0989 21.1746 28.0989 21.5126V30.5937C28.0989 30.9317 27.8247 31.2059 27.4867 31.2059ZM23.1258 29.9813H26.8744V22.1248H23.1258V29.9813Z" fill="white"/>
<path d="M11.0844 31.2059H6.11141C5.77333 31.2059 5.49921 30.9316 5.49921 30.5937V21.5126C5.49921 21.1745 5.77343 20.9004 6.11141 20.9004H11.0845C11.4225 20.9004 11.6967 21.1746 11.6967 21.5126V30.5937C11.6967 30.9317 11.4225 31.2059 11.0844 31.2059ZM6.72362 29.9813H10.4722V22.1248H6.72362V29.9813Z" fill="white"/>
<path d="M43.889 33.6802H30.7148V46.4224L43.889 47.4429V33.6802Z" fill="#A0D9F2"/>
<path d="M44.5012 46.9325H43.2767V34.2923H31.3271V46.9325H30.1025V33.6801C30.1025 33.342 30.3768 33.0679 30.7147 33.0679H43.8889C44.227 33.0679 44.5011 33.3421 44.5011 33.6801L44.5012 46.9325Z" fill="white"/>
<path d="M19.2856 43.3733H14.3126C13.9745 43.3733 13.7004 43.0991 13.7004 42.7611V33.6801C13.7004 33.342 13.9746 33.0679 14.3126 33.0679H19.2856C19.6237 33.0679 19.8978 33.3421 19.8978 33.6801V42.7611C19.8978 43.0991 19.6236 43.3733 19.2856 43.3733ZM14.9248 42.1488H18.6733V34.2923H14.9248V42.1488Z" fill="white"/>
<path d="M27.4867 43.3733H22.5136C22.1755 43.3733 21.9014 43.0991 21.9014 42.7611V33.6801C21.9014 33.342 22.1756 33.0679 22.5136 33.0679H27.4867C27.8248 33.0679 28.0989 33.3421 28.0989 33.6801V42.7611C28.0989 43.0991 27.8247 43.3733 27.4867 43.3733ZM23.1258 42.1488H26.8744V34.2923H23.1258V42.1488Z" fill="white"/>
<path d="M11.0844 43.3733H6.11141C5.77333 43.3733 5.49921 43.0991 5.49921 42.7611V33.6801C5.49921 33.342 5.77343 33.0679 6.11141 33.0679H11.0845C11.4225 33.0679 11.6967 33.3421 11.6967 33.6801V42.7611C11.6967 43.0991 11.4225 43.3733 11.0844 43.3733ZM6.72362 42.1488H10.4722V34.2923H6.72362V42.1488Z" fill="white"/>
<path d="M35.6879 19.0381H30.7148C30.3767 19.0381 30.1026 18.7639 30.1026 18.4259V9.34463C30.1026 9.00654 30.3768 8.73242 30.7148 8.73242H35.6879C36.0259 8.73242 36.3001 9.00664 36.3001 9.34463V18.4257C36.3001 18.7639 36.0258 19.0381 35.6879 19.0381ZM31.327 17.8136H35.0755V9.95693H31.327V17.8136Z" fill="white"/>
<path d="M43.889 19.0381H38.9159C38.5778 19.0381 38.3037 18.7639 38.3037 18.4259V9.34463C38.3037 9.00654 38.5779 8.73242 38.9159 8.73242H43.889C44.227 8.73242 44.5012 9.00664 44.5012 9.34463V18.4257C44.5012 18.7639 44.227 19.0381 43.889 19.0381ZM39.5281 17.8136H43.2767V9.95693H39.5281V17.8136Z" fill="white"/>
<path d="M43.8896 36.1797H30.7151V37.4042H43.8896V36.1797Z" fill="white"/>
<path d="M37.914 36.792H36.6895V47.4419H37.914V36.792Z" fill="white"/>
<path d="M19.2855 35.9756H14.3121V37.2001H19.2855V35.9756Z" fill="white"/>
<path d="M27.4869 37.1996H22.5135V35.9751H26.8747V33.6802H28.0992V36.5873C28.0991 36.9255 27.825 37.1996 27.4869 37.1996Z" fill="white"/>
<path d="M11.084 35.9756H6.11151V37.2001H11.084V35.9756Z" fill="white"/>
<path d="M43.8888 25.0326H38.9163V23.8081H43.2765V21.5122H44.501V24.4203C44.5011 24.7584 44.227 25.0326 43.8888 25.0326Z" fill="white"/>
<path d="M27.4865 23.8086H22.5131V25.0331H27.4865V23.8086Z" fill="white"/>
<path d="M11.084 23.8086H6.11151V25.0331H11.084V23.8086Z" fill="white"/>
<path d="M19.2855 23.8086H14.3121V25.0331H19.2855V23.8086Z" fill="white"/>
<path d="M35.6875 23.8086H30.7141V25.0331H35.6875V23.8086Z" fill="white"/>
<path d="M43.8888 12.8651H38.9163V11.6406H43.2765V9.34473H44.501V12.2528C44.5011 12.591 44.227 12.8651 43.8888 12.8651Z" fill="white"/>
<path d="M35.6875 11.6411H30.7141V12.8656H35.6875V11.6411Z" fill="white"/>
<path d="M48.5028 46.4224H1.49688C0.670215 46.4224 0 47.0926 0 47.9191V49.9662H49.9997V47.9191C49.9997 47.0926 49.3295 46.4224 48.5028 46.4224Z" fill="#423E3E"/>
</g>
<defs>
<clipPath id="clip0_252_5473">
<rect width="50" height="50" fill="white"/>
</clipPath>
</defs>
</svg>
