<svg width="20" height="20" viewBox="0 0 20 20" fill="none" xmlns="http://www.w3.org/2000/svg">
<path d="M14.1504 2.14844C14.1504 0.963789 13.1866 0 12.002 0H3.4082C2.22355 0 1.25977 0.963789 1.25977 2.14844V2.73438H14.1504V2.14844Z" fill="#43A5FF"/>
<path d="M1.25977 17.8516C1.25977 19.0362 2.22355 20 3.4082 20H12.002C13.1866 20 14.1504 19.0362 14.1504 17.8516V17.2656H1.25977V17.8516Z" fill="#43A5FF"/>
<path d="M13.9551 3.90625C11.3165 3.90625 9.16994 6.05285 9.16994 8.69141C9.16994 9.44164 9.34869 10.1853 9.68838 10.8543L9.18451 12.8698C9.14291 13.0362 9.1917 13.2123 9.31295 13.3336C9.40564 13.4262 9.53029 13.4766 9.65822 13.4766C9.69767 13.4766 9.7374 13.4718 9.77662 13.462L11.7921 12.9581C12.4612 13.2978 13.2049 13.4766 13.9551 13.4766C16.5936 13.4766 18.7403 11.33 18.7403 8.69141C18.7403 6.05285 16.5936 3.90625 13.9551 3.90625ZM13.9551 6.15234C14.2787 6.15234 14.541 6.41469 14.541 6.73828C14.541 7.06188 14.2787 7.32422 13.9551 7.32422C13.6315 7.32422 13.3692 7.06188 13.3692 6.73828C13.3692 6.41465 13.6315 6.15234 13.9551 6.15234ZM14.541 10.8008C14.541 11.1244 14.2787 11.3867 13.9551 11.3867C13.6315 11.3867 13.3692 11.1244 13.3692 10.8008V8.49609C13.3692 8.1725 13.6315 7.91016 13.9551 7.91016C14.2787 7.91016 14.541 8.1725 14.541 8.49609V10.8008Z" fill="#43A5FF"/>
<path d="M11.6782 14.1945L10.0609 14.5989C9.92953 14.6317 9.79422 14.6484 9.65879 14.6485C9.65859 14.6485 9.6584 14.6485 9.65824 14.6485C9.21481 14.6485 8.79789 14.4758 8.4843 14.1622C8.0743 13.7522 7.90703 13.1481 8.04762 12.5857L8.45199 10.9683C8.1541 10.2479 7.99809 9.46936 7.99809 8.69147C7.99809 6.73319 8.94805 4.99276 10.4112 3.90631H1.25977V16.0938H14.1504V14.6449C14.0855 14.647 14.0205 14.6485 13.9551 14.6485C13.1771 14.6485 12.3986 14.4924 11.6782 14.1945ZM6.14258 13.6719H3.4082C3.08461 13.6719 2.82227 13.4095 2.82227 13.086C2.82227 12.7624 3.08461 12.5 3.4082 12.5H6.14258C6.46617 12.5 6.72852 12.7624 6.72852 13.086C6.72852 13.4095 6.46617 13.6719 6.14258 13.6719ZM6.14258 11.3281H3.4082C3.08461 11.3281 2.82227 11.0658 2.82227 10.7422C2.82227 10.4186 3.08461 10.1563 3.4082 10.1563H6.14258C6.46617 10.1563 6.72852 10.4186 6.72852 10.7422C6.72852 11.0658 6.46617 11.3281 6.14258 11.3281ZM6.14258 8.98439H3.4082C3.08461 8.98439 2.82227 8.72205 2.82227 8.39846C2.82227 8.07486 3.08461 7.81252 3.4082 7.81252H6.14258C6.46617 7.81252 6.72852 8.07486 6.72852 8.39846C6.72852 8.72205 6.46617 8.98439 6.14258 8.98439ZM6.92383 6.64065H3.4082C3.08461 6.64065 2.82227 6.3783 2.82227 6.05471C2.82227 5.73111 3.08461 5.46877 3.4082 5.46877H6.92383C7.24742 5.46877 7.50977 5.73111 7.50977 6.05471C7.50977 6.3783 7.24742 6.64065 6.92383 6.64065Z" fill="#43A5FF"/>
</svg>
